<svg width="2976.38" height="4209.44" xmlns="http://www.w3.org/2000/svg" version="1.2" baseProfile="tiny" style="background-color:#fff"><path class="StaffLines" fill="none" stroke="#000" stroke-width="2" stroke-linejoin="bevel" d="M393.982 316.732H2834.64M393.982 341.732H2834.64M393.982 366.733H2834.64M393.982 391.733H2834.64M393.982 416.733H2834.64M393.982 579.233H2834.64M393.982 604.233H2834.64M393.982 629.233H2834.64M393.982 654.233H2834.64M393.982 679.233H2834.64M393.982 841.733H2834.64M393.982 866.733H2834.64M393.982 891.733H2834.64M393.982 916.733H2834.64M393.982 941.733H2834.64"/><path class="MeasureNumber" d="M376.842 267.607l-.125-.796c3.041-.532 5.622-1.829 7.742-3.891 2.12-2.063 3.591-4.724 4.414-7.984-1.969 1.541-3.964 2.312-5.984 2.312-2.167 0-3.909-.747-5.227-2.242-1.318-1.495-1.976-3.461-1.976-5.899 0-2.708.791-4.966 2.375-6.773 1.583-1.807 3.562-2.711 5.937-2.711 2.646 0 4.815 1.057 6.508 3.172 1.693 2.115 2.539 4.833 2.539 8.156 0 1.063-.096 2.156-.289 3.281-.193 1.125-.633 2.456-1.32 3.993a15.508 15.508 0 01-2.688 4.125c-1.104 1.213-2.682 2.315-4.734 3.304-2.052.99-4.443 1.641-7.172 1.953m7.484-12.109c.5 0 1.07-.073 1.711-.219.641-.146 1.289-.466 1.945-.961.657-.494.985-1.101.985-1.82v-1.547c0-6.76-1.761-10.14-5.281-10.14-.834 0-1.542.221-2.125.664a4.215 4.215 0 00-1.336 1.734 10.017 10.017 0 00-.664 2.188 13.155 13.155 0 00-.204 2.367c0 2.364.448 4.244 1.344 5.64.896 1.396 2.104 2.094 3.625 2.094m28.094-15.234v.625l-8.469 26.156h-2.609l7.922-23.875h-8.672c-1.094 0-1.927.2-2.5.602-.573.401-1.287 1.283-2.141 2.648l-.687-.313 2.359-5.843h14.797"/><path class="InstrumentName" d="M241.248 751.655c0 1.031-.12 2.018-.359 2.961-.24.942-.711 1.947-1.414 3.015-.704 1.068-1.636 1.987-2.797 2.758-1.162.771-2.748 1.411-4.758 1.922-2.011.51-4.339.765-6.985.765-1.197 0-2.578-.057-4.14-.171v11c0 2.218.349 3.658 1.047 4.32.698.661 2.229 1.034 4.593 1.117v1.141h-16.796v-1.141c2.27-.198 3.677-.627 4.218-1.289.542-.661.813-2.253.813-4.773v-25.969c0-2.167-.279-3.55-.836-4.149-.557-.599-1.956-1.018-4.195-1.257v-1.141h15.859c1.802 0 3.547.169 5.234.508 1.688.338 3.362.89 5.024 1.656 1.661.766 2.992 1.891 3.992 3.375s1.5 3.268 1.5 5.352m-20.453-6.579v15.547c1.396.125 2.536.188 3.422.188 6.958 0 10.437-2.932 10.437-8.797 0-3.073-.961-5.336-2.883-6.789-1.921-1.453-4.903-2.18-8.945-2.18-.792 0-1.328.141-1.609.422-.282.281-.422.818-.422 1.609m23.078 11.469v-1.015c2.969-.865 5.75-1.745 8.344-2.641l.422.109v4.688c2.031-1.896 3.632-3.169 4.804-3.82 1.172-.651 2.456-.977 3.852-.977 2.208 0 3.948.784 5.219 2.352 1.27 1.567 1.906 3.768 1.906 6.601v13.766c0 1.489.239 2.484.719 2.984.479.5 1.458.828 2.937.984v.907h-12.531v-.907c1.521-.114 2.531-.513 3.031-1.195s.75-1.966.75-3.851v-12.579c0-3.885-1.453-5.828-4.359-5.828-1 0-1.917.232-2.75.696-.834.463-1.964 1.372-3.391 2.726v16.906c0 1.084.279 1.847.836 2.29.557.442 1.596.721 3.117.835v.907h-12.781v-.907c1.521-.114 2.521-.463 3-1.046.479-.584.719-1.735.719-3.454v-14.921c0-1.49-.159-2.503-.477-3.039-.318-.537-.898-.805-1.742-.805-.76 0-1.302.078-1.625.234m43.578-3.656c3.875 0 7.06 1.279 9.555 3.836s3.742 5.799 3.742 9.726c0 4.157-1.299 7.633-3.898 10.43-2.599 2.797-5.771 4.195-9.516 4.195s-6.885-1.348-9.422-4.046c-2.536-2.698-3.805-6.068-3.805-10.11 0-4.114 1.237-7.482 3.711-10.101 2.474-2.62 5.685-3.93 9.633-3.93m-7.828 11.125c0 4.24.779 7.844 2.336 10.812 1.557 2.969 3.591 4.454 6.101 4.454 2.23 0 3.982-.951 5.258-2.852 1.276-1.901 1.914-4.534 1.914-7.898 0-4.084-.797-7.412-2.39-9.985-1.594-2.573-3.646-3.859-6.157-3.859-2.114 0-3.82.851-5.117 2.555-1.297 1.703-1.945 3.96-1.945 6.773m29.906 10.469c.917 0 1.701.341 2.352 1.023.651.682.976 1.482.976 2.399 0 .875-.336 1.632-1.007 2.273a3.338 3.338 0 01-2.383.961c-.865 0-1.615-.32-2.25-.961-.636-.641-.953-1.398-.953-2.273 0-.917.325-1.717.976-2.399.651-.682 1.414-1.023 2.289-1.023M184.092 386.092v1.141h-15.297v-1.141c1.594-.042 2.693-.201 3.297-.477.604-.276.906-.789.906-1.539 0-.937-.38-2.255-1.141-3.953l-2.468-5.672H153.67l-2.766 6.922c-.312.823-.469 1.589-.469 2.297 0 1.615 1.36 2.422 4.079 2.422v1.141h-11.875v-1.141c1.479-.083 2.627-.654 3.445-1.711.818-1.057 2.148-3.768 3.992-8.133l12.469-29.453h1.203l14.937 34.078c.969 2.198 1.771 3.596 2.407 4.195.635.599 1.635.941 3 1.024m-29.407-14.281h13.86l-6.953-16.5-6.907 16.5m37.766 9.422c.917 0 1.701.341 2.352 1.023.651.682.976 1.482.976 2.398 0 .875-.336 1.633-1.008 2.274-.671.64-1.466.961-2.382.961-.865 0-1.615-.321-2.25-.961-.636-.641-.954-1.399-.954-2.274 0-.916.326-1.716.977-2.398.651-.682 1.414-1.023 2.289-1.023m45.172-2.25c0-1.865-.661-3.524-1.984-4.977-1.323-1.453-2.93-2.698-4.821-3.734a198.971 198.971 0 01-5.609-3.196 16.485 16.485 0 01-4.742-4.211c-1.313-1.713-1.969-3.705-1.969-5.976 0-3.073 1.026-5.573 3.078-7.5 2.052-1.927 4.469-2.891 7.25-2.891 1.688 0 3.516.365 5.484 1.094 1.969.729 3.157 1.094 3.563 1.094 1.052 0 1.698-.73 1.937-2.188h1.266l1.344 12.953h-1.516c-.969-3.521-2.448-6.12-4.437-7.797-1.99-1.677-4.193-2.515-6.61-2.515-1.843 0-3.349.515-4.515 1.547-1.167 1.031-1.75 2.364-1.75 4 0 1.593.682 3.106 2.047 4.539 1.364 1.432 3.635 3.023 6.812 4.773 3.979 2.115 6.857 4.195 8.633 6.242 1.776 2.047 2.664 4.305 2.664 6.774 0 3.125-1.188 5.75-3.563 7.875s-5.296 3.187-8.765 3.187c-2 0-4.029-.37-6.086-1.109-2.057-.74-3.326-1.109-3.805-1.109-.437 0-.812.208-1.125.625-.312.416-.489.927-.531 1.531h-1.328l-1.797-12.844h1.391c1.468 3.615 3.182 6.279 5.14 7.992 1.959 1.714 4.271 2.571 6.938 2.571 2.208 0 3.995-.628 5.359-1.883 1.365-1.256 2.047-2.878 2.047-4.867m10.859 2.328c0-.719.078-1.386.235-2a5.012 5.012 0 01.828-1.735c.396-.541.771-1.031 1.125-1.468.354-.438.885-.883 1.594-1.336.708-.454 1.299-.831 1.773-1.133.474-.302 1.193-.662 2.156-1.078.964-.417 1.701-.735 2.211-.953.511-.219 1.318-.547 2.422-.985 1.104-.437 1.912-.755 2.422-.953v-3.641c0-3.302-1.51-4.953-4.531-4.953-1.188 0-2.201.289-3.039.867-.839.579-1.258 1.269-1.258 2.071 0 .323.052.763.156 1.32.104.557.156.919.156 1.086 0 .677-.276 1.266-.828 1.766-.552.5-1.192.75-1.922.75-.698 0-1.315-.261-1.851-.782-.537-.52-.805-1.119-.805-1.796 0-1.886.979-3.477 2.938-4.774 1.958-1.297 4.369-1.945 7.234-1.945 3.198 0 5.401.786 6.609 2.359 1.209 1.573 1.813 3.969 1.813 7.188v11.64c0 1.313.13 2.219.39 2.719.261.5.735.75 1.422.75.834 0 1.709-.38 2.625-1.141v1.579c-1.031 1.197-1.937 2.013-2.718 2.445-.782.432-1.662.648-2.641.648-1.188 0-2.063-.349-2.625-1.047-.563-.698-.917-1.843-1.063-3.437-3.416 2.989-6.317 4.484-8.703 4.484-1.791 0-3.26-.609-4.406-1.828s-1.719-2.781-1.719-4.687m14.766-1.547v-8.656c-3.583 1.312-6.089 2.583-7.516 3.812-1.427 1.229-2.14 2.724-2.14 4.484 0 1.625.396 2.836 1.187 3.633.792.797 1.646 1.196 2.563 1.196 1.354 0 2.807-.459 4.359-1.375.636-.355 1.052-.732 1.25-1.133.198-.401.297-1.055.297-1.961m23.984-10.766c.448-.687.972-1.44 1.571-2.258.599-.817 1.047-1.437 1.343-1.859.297-.422.558-.852.782-1.289.224-.438.336-.818.336-1.141 0-.76-.802-1.198-2.407-1.312v-.906h9.485v.906c-2.042.073-3.662.953-4.86 2.64l-4.984 7.188 7.687 11.766c.875 1.322 1.683 2.252 2.422 2.789.74.536 1.568.804 2.485.804v.907h-12.047v-.907c1-.073 1.648-.2 1.945-.383.297-.182.445-.533.445-1.054 0-.354-.119-.714-.359-1.078l-5.453-8.391-4.75 7.375c-.792 1.24-1.188 2.057-1.188 2.453 0 .719.797 1.078 2.391 1.078v.907h-8.703v-.907c1-.073 1.771-.289 2.312-.648.542-.36 1.235-1.159 2.079-2.399l6.828-9.906-5.625-8.64c-.729-1.115-1.383-1.933-1.961-2.454-.578-.52-1.057-.841-1.438-.961-.38-.119-.971-.179-1.773-.179v-.906h12.422v.906c-1.719.041-2.578.479-2.578 1.312 0 .802.921 2.584 2.765 5.344l.828 1.203m21.922 12.235c.917 0 1.701.341 2.352 1.023.651.682.976 1.482.976 2.398 0 .875-.336 1.633-1.007 2.274-.672.64-1.467.961-2.383.961-.865 0-1.615-.321-2.25-.961-.636-.641-.953-1.399-.953-2.274 0-.916.325-1.716.976-2.398.651-.682 1.414-1.023 2.289-1.023"/><path class="TieSegment" stroke="#000" stroke-width="1.75" stroke-linecap="round" stroke-linejoin="round" fill-rule="evenodd" d="M2278.03 272.982c37.51-30.51 150.05-30.51 187.57 0-37.52-26.51-150.06-26.51-187.57 0M2080.04 272.982c37.52-30.51 150.06-30.51 187.57 0-37.51-26.51-150.05-26.51-187.57 0M1882.05 272.982c37.52-30.51 150.06-30.51 187.58 0-37.52-26.51-150.06-26.51-187.58 0M1500.29 335.482c13.6-12.336 54.4-12.336 68 0-13.6-8.336-54.4-8.336-68 0M911.419 397.983c14.968 9.375 59.873 9.375 74.841 0-14.968 13.375-59.873 13.375-74.841 0"/><path class="TieSegment" stroke="#000" stroke-width="1.75" stroke-linecap="round" stroke-linejoin="round" fill-rule="evenodd" d="M2278.03 272.982c37.51-30.51 150.05-30.51 187.57 0-37.52-26.51-150.06-26.51-187.57 0M2080.04 272.982c37.52-30.51 150.06-30.51 187.57 0-37.51-26.51-150.05-26.51-187.57 0M1882.05 272.982c37.52-30.51 150.06-30.51 187.58 0-37.52-26.51-150.06-26.51-187.58 0M1500.29 335.482c13.6-12.336 54.4-12.336 68 0-13.6-8.336-54.4-8.336-68 0M911.419 397.983c14.968 9.375 59.873 9.375 74.841 0-14.968 13.375-59.873 13.375-74.841 0"/><path class="BarLine" stroke="#000" stroke-width="4" stroke-linejoin="bevel" d="M2804.39 840.733v102"/><path class="BarLine" stroke="#000" stroke-width="12.5" stroke-linejoin="bevel" d="M2828.39 840.733v102"/><path class="BarLine" stroke="#000" stroke-width="4" stroke-linejoin="bevel" d="M2804.39 578.233v263.5"/><path class="BarLine" stroke="#000" stroke-width="12.5" stroke-linejoin="bevel" d="M2828.39 578.233v263.5"/><path class="BarLine" stroke="#000" stroke-width="4" stroke-linejoin="bevel" d="M2804.39 315.732v102.001"/><path class="BarLine" stroke="#000" stroke-width="12.5" stroke-linejoin="bevel" d="M2828.39 315.732v102.001"/><path class="BarLine" stroke="#000" stroke-width="4" stroke-linejoin="bevel" d="M2610.43 840.733v102M2610.43 578.233v263.5M2610.43 315.732v102.001M2412.45 840.733v102M2412.45 578.233v263.5M2412.45 315.732v102.001M2214.46 840.733v102M2214.46 578.233v263.5M2214.46 315.732v102.001M2016.47 840.733v102M2016.47 578.233v263.5M2016.47 315.732v102.001M1818.49 840.733v102M1818.49 578.233v263.5M1818.49 315.732v102.001M1437 840.733v102M1437 578.233v263.5M1437 315.732v102.001M1167.35 840.733v102M1167.35 578.233v263.5M1167.35 315.732v102.001M848.122 840.733v102M848.122 578.233v263.5M848.122 315.732v102.001M395.982 840.733v102M395.982 578.233v263.5M395.982 315.732v263.501"/><path class="LedgerLine" stroke="#000" stroke-width="3" stroke-linecap="square" stroke-linejoin="bevel" d="M2445.95 791.733h49.72M2445.95 816.733h49.72M2445.95 291.732h49.72M2247.96 816.733h49.72M2247.96 291.732h49.72M2049.97 791.733h49.72M2049.97 816.733h49.72M2049.97 291.732h49.72M1851.99 816.733h49.72M1851.99 291.732h49.72M1470.5 704.233h49.71M1470.5 729.233h49.71M1200.85 704.233h49.72M1200.85 729.233h49.72M881.622 704.233h49.719M611.979 704.233h49.718"/><path class="Stem" stroke="#000" stroke-width="3.25" stroke-linecap="round" stroke-linejoin="bevel" d="M2644.96 870.653v108.58M2455.07 795.653v155.455M2455.07 295.652v83.581M2257.09 820.653v130.455M2257.09 295.652v83.581M2059.1 795.653v155.455M2059.1 295.652v83.581M1861.11 820.653v130.455M1861.11 295.652v83.581M1704.41 346.428v70.305M1655.74 321.428v70.305M1607.07 346.428v70.305M1558.4 358.928v64.055M1511.09 737.893v-146.16M1480.52 358.928v76.555M1361.37 371.428v73.43M1315.79 374.537v-76.555M1241.45 737.893v-146.16M1082.26 358.928v76.555M1058.98 362.037v-70.305M1006.03 374.537v-76.555M922.216 700.393v-139.91M921.314 374.537v-76.555M802.164 387.037v-79.68M726.917 399.537v-82.805M652.572 700.393v-139.91"/><path class="Note" d="M2674.88 860.186c0-1.104-.42-2.047-1.26-2.828-.86-.844-1.84-1.266-2.94-1.266-1.95 0-5.88 1.953-11.81 5.86-6.13 3.968-9.87 6.802-11.24 8.5-.72.906-1.07 1.849-1.07 2.828 0 1.104.42 2.047 1.28 2.828.78.844 1.75 1.265 2.92 1.265 1.88 0 5.86-1.953 11.92-5.859 5.99-3.906 9.7-6.74 11.13-8.5.71-.844 1.07-1.786 1.07-2.828m-5.17-7.219c5.6 0 8.39 2.406 8.39 7.219 0 2.344-.68 5.078-2.04 8.203-1.37 3.063-3.19 5.406-5.47 7.031-5.01 3.386-11.29 5.078-18.85 5.078-5.6 0-8.4-2.406-8.4-7.218 0-2.146.68-4.849 2.04-8.11 1.31-3.125 3.13-5.5 5.47-7.125 5.02-3.385 11.31-5.078 18.86-5.078M2674.88 897.686c0-1.104-.42-2.047-1.26-2.828-.86-.844-1.84-1.266-2.94-1.266-1.95 0-5.88 1.953-11.81 5.86-6.13 3.968-9.87 6.802-11.24 8.5-.72.906-1.07 1.849-1.07 2.828 0 1.104.42 2.047 1.28 2.828.78.844 1.75 1.265 2.92 1.265 1.88 0 5.86-1.953 11.92-5.859 5.99-3.906 9.7-6.739 11.13-8.5.71-.844 1.07-1.786 1.07-2.828m-5.17-7.219c5.6 0 8.39 2.406 8.39 7.219 0 2.344-.68 5.078-2.04 8.203-1.37 3.063-3.19 5.406-5.47 7.031-5.01 3.386-11.29 5.078-18.85 5.078-5.6 0-8.4-2.406-8.4-7.218 0-2.146.68-4.849 2.04-8.11 1.31-3.125 3.13-5.5 5.47-7.125 5.02-3.385 11.31-5.078 18.86-5.078M2484.99 785.186c0-1.104-.42-2.047-1.26-2.828-.86-.844-1.83-1.266-2.94-1.266-1.95 0-5.88 1.953-11.81 5.86-6.13 3.968-9.87 6.802-11.24 8.5-.71.906-1.07 1.848-1.07 2.828 0 1.104.42 2.047 1.28 2.828.78.844 1.75 1.265 2.92 1.265 1.88 0 5.86-1.953 11.92-5.859 5.99-3.906 9.7-6.74 11.13-8.5.72-.844 1.07-1.786 1.07-2.828m-5.17-7.219c5.6 0 8.39 2.406 8.39 7.219 0 2.344-.68 5.078-2.04 8.203-1.37 3.063-3.19 5.406-5.47 7.031-5.01 3.386-11.29 5.078-18.85 5.078-5.6 0-8.4-2.406-8.4-7.218 0-2.146.68-4.849 2.04-8.11 1.31-3.125 3.13-5.5 5.47-7.125 5.02-3.385 11.31-5.078 18.86-5.078"/><path class="Note" d="M2484.99 810.186c0-1.104-.42-2.047-1.26-2.828-.86-.844-1.83-1.266-2.94-1.266-1.95 0-5.88 1.953-11.81 5.86-6.13 3.968-9.87 6.802-11.24 8.5-.71.906-1.07 1.848-1.07 2.828 0 1.104.42 2.047 1.28 2.828.78.844 1.75 1.265 2.92 1.265 1.88 0 5.86-1.953 11.92-5.859 5.99-3.906 9.7-6.74 11.13-8.5.72-.844 1.07-1.786 1.07-2.828m-5.17-7.219c5.6 0 8.39 2.406 8.39 7.219 0 2.344-.68 5.078-2.04 8.203-1.37 3.063-3.19 5.406-5.47 7.031-5.01 3.386-11.29 5.078-18.85 5.078-5.6 0-8.4-2.406-8.4-7.218 0-2.146.68-4.849 2.04-8.11 1.31-3.125 3.13-5.5 5.47-7.125 5.02-3.385 11.31-5.078 18.86-5.078"/><path class="Note" d="M2484.99 835.186c0-1.104-.42-2.047-1.26-2.828-.86-.844-1.83-1.266-2.94-1.266-1.95 0-5.88 1.953-11.81 5.86-6.13 3.968-9.87 6.802-11.24 8.5-.71.906-1.07 1.849-1.07 2.828 0 1.104.42 2.047 1.28 2.828.78.844 1.75 1.265 2.92 1.265 1.88 0 5.86-1.953 11.92-5.859 5.99-3.906 9.7-6.74 11.13-8.5.72-.844 1.07-1.786 1.07-2.828m-5.17-7.219c5.6 0 8.39 2.406 8.39 7.219 0 2.344-.68 5.078-2.04 8.203-1.37 3.063-3.19 5.406-5.47 7.031-5.01 3.386-11.29 5.078-18.85 5.078-5.6 0-8.4-2.406-8.4-7.218 0-2.146.68-4.849 2.04-8.11 1.31-3.125 3.13-5.5 5.47-7.125 5.02-3.385 11.31-5.078 18.86-5.078"/><path class="Note" d="M2484.99 860.186c0-1.104-.42-2.047-1.26-2.828-.86-.844-1.83-1.266-2.94-1.266-1.95 0-5.88 1.953-11.81 5.86-6.13 3.968-9.87 6.802-11.24 8.5-.71.906-1.07 1.849-1.07 2.828 0 1.104.42 2.047 1.28 2.828.78.844 1.75 1.265 2.92 1.265 1.88 0 5.86-1.953 11.92-5.859 5.99-3.906 9.7-6.74 11.13-8.5.72-.844 1.07-1.786 1.07-2.828m-5.17-7.219c5.6 0 8.39 2.406 8.39 7.219 0 2.344-.68 5.078-2.04 8.203-1.37 3.063-3.19 5.406-5.47 7.031-5.01 3.386-11.29 5.078-18.85 5.078-5.6 0-8.4-2.406-8.4-7.218 0-2.146.68-4.849 2.04-8.11 1.31-3.125 3.13-5.5 5.47-7.125 5.02-3.385 11.31-5.078 18.86-5.078M2484.99 285.186c0-1.105-.42-2.047-1.26-2.829-.86-.843-1.83-1.265-2.94-1.265-1.95 0-5.88 1.953-11.81 5.859-6.13 3.969-9.87 6.802-11.24 8.5-.71.906-1.07 1.849-1.07 2.828 0 1.104.42 2.047 1.28 2.828.78.844 1.75 1.266 2.92 1.266 1.88 0 5.86-1.953 11.92-5.859 5.99-3.907 9.7-6.74 11.13-8.5.72-.844 1.07-1.787 1.07-2.828m-5.17-7.219c5.6 0 8.39 2.406 8.39 7.219 0 2.343-.68 5.078-2.04 8.203-1.37 3.062-3.19 5.406-5.47 7.031-5.01 3.385-11.29 5.078-18.85 5.078-5.6 0-8.4-2.406-8.4-7.219 0-2.146.68-4.849 2.04-8.109 1.31-3.125 3.13-5.5 5.47-7.125 5.02-3.385 11.31-5.078 18.86-5.078M2287.01 810.186c0-1.104-.42-2.047-1.27-2.828-.85-.844-1.83-1.266-2.94-1.266-1.94 0-5.88 1.953-11.81 5.86-6.12 3.968-9.87 6.802-11.23 8.5-.72.906-1.08 1.848-1.08 2.828 0 1.104.43 2.047 1.28 2.828.78.844 1.76 1.265 2.92 1.265 1.89 0 5.86-1.953 11.92-5.859 5.99-3.906 9.7-6.74 11.13-8.5.72-.844 1.08-1.786 1.08-2.828m-5.17-7.219c5.59 0 8.39 2.406 8.39 7.219 0 2.344-.69 5.078-2.05 8.203-1.36 3.063-3.19 5.406-5.47 7.031-5.01 3.386-11.29 5.078-18.84 5.078-5.61 0-8.41-2.406-8.41-7.218 0-2.146.68-4.849 2.05-8.11 1.3-3.125 3.12-5.5 5.47-7.125 5.02-3.385 11.3-5.078 18.86-5.078"/><path class="Note" d="M2287.01 835.186c0-1.104-.42-2.047-1.27-2.828-.85-.844-1.83-1.266-2.94-1.266-1.94 0-5.88 1.953-11.81 5.86-6.12 3.968-9.87 6.802-11.23 8.5-.72.906-1.08 1.849-1.08 2.828 0 1.104.43 2.047 1.28 2.828.78.844 1.76 1.265 2.92 1.265 1.89 0 5.86-1.953 11.92-5.859 5.99-3.906 9.7-6.74 11.13-8.5.72-.844 1.08-1.786 1.08-2.828m-5.17-7.219c5.59 0 8.39 2.406 8.39 7.219 0 2.344-.69 5.078-2.05 8.203-1.36 3.063-3.19 5.406-5.47 7.031-5.01 3.386-11.29 5.078-18.84 5.078-5.61 0-8.41-2.406-8.41-7.218 0-2.146.68-4.849 2.05-8.11 1.3-3.125 3.12-5.5 5.47-7.125 5.02-3.385 11.3-5.078 18.86-5.078"/><path class="Note" d="M2287.01 860.186c0-1.104-.42-2.047-1.27-2.828-.85-.844-1.83-1.266-2.94-1.266-1.94 0-5.88 1.953-11.81 5.86-6.12 3.968-9.87 6.802-11.23 8.5-.72.906-1.08 1.849-1.08 2.828 0 1.104.43 2.047 1.28 2.828.78.844 1.76 1.265 2.92 1.265 1.89 0 5.86-1.953 11.92-5.859 5.99-3.906 9.7-6.74 11.13-8.5.72-.844 1.08-1.786 1.08-2.828m-5.17-7.219c5.59 0 8.39 2.406 8.39 7.219 0 2.344-.69 5.078-2.05 8.203-1.36 3.063-3.19 5.406-5.47 7.031-5.01 3.386-11.29 5.078-18.84 5.078-5.61 0-8.41-2.406-8.41-7.218 0-2.146.68-4.849 2.05-8.11 1.3-3.125 3.12-5.5 5.47-7.125 5.02-3.385 11.3-5.078 18.86-5.078M2287.01 285.186c0-1.105-.42-2.047-1.27-2.829-.85-.843-1.83-1.265-2.94-1.265-1.94 0-5.88 1.953-11.81 5.859-6.12 3.969-9.87 6.802-11.23 8.5-.72.906-1.08 1.849-1.08 2.828 0 1.104.43 2.047 1.28 2.828.78.844 1.76 1.266 2.92 1.266 1.89 0 5.86-1.953 11.92-5.859 5.99-3.907 9.7-6.74 11.13-8.5.72-.844 1.08-1.787 1.08-2.828m-5.17-7.219c5.59 0 8.39 2.406 8.39 7.219 0 2.343-.69 5.078-2.05 8.203-1.36 3.062-3.19 5.406-5.47 7.031-5.01 3.385-11.29 5.078-18.84 5.078-5.61 0-8.41-2.406-8.41-7.219 0-2.146.68-4.849 2.05-8.109 1.3-3.125 3.12-5.5 5.47-7.125 5.02-3.385 11.3-5.078 18.86-5.078M2089.02 785.186c0-1.104-.42-2.047-1.26-2.828-.86-.844-1.84-1.266-2.94-1.266-1.95 0-5.89 1.953-11.81 5.86-6.13 3.968-9.87 6.802-11.24 8.5-.72.906-1.08 1.848-1.08 2.828 0 1.104.43 2.047 1.28 2.828.79.844 1.76 1.265 2.93 1.265 1.88 0 5.86-1.953 11.92-5.859 5.99-3.906 9.7-6.74 11.12-8.5.72-.844 1.08-1.786 1.08-2.828m-5.17-7.219c5.59 0 8.39 2.406 8.39 7.219 0 2.344-.68 5.078-2.05 8.203-1.36 3.063-3.18 5.406-5.47 7.031-5.01 3.386-11.29 5.078-18.84 5.078-5.6 0-8.41-2.406-8.41-7.218 0-2.146.69-4.849 2.05-8.11 1.3-3.125 3.13-5.5 5.47-7.125 5.02-3.385 11.31-5.078 18.86-5.078"/><path class="Note" d="M2089.02 810.186c0-1.104-.42-2.047-1.26-2.828-.86-.844-1.84-1.266-2.94-1.266-1.95 0-5.89 1.953-11.81 5.86-6.13 3.968-9.87 6.802-11.24 8.5-.72.906-1.08 1.848-1.08 2.828 0 1.104.43 2.047 1.28 2.828.79.844 1.76 1.265 2.93 1.265 1.88 0 5.86-1.953 11.92-5.859 5.99-3.906 9.7-6.74 11.12-8.5.72-.844 1.08-1.786 1.08-2.828m-5.17-7.219c5.59 0 8.39 2.406 8.39 7.219 0 2.344-.68 5.078-2.05 8.203-1.36 3.063-3.18 5.406-5.47 7.031-5.01 3.386-11.29 5.078-18.84 5.078-5.6 0-8.41-2.406-8.41-7.218 0-2.146.69-4.849 2.05-8.11 1.3-3.125 3.13-5.5 5.47-7.125 5.02-3.385 11.31-5.078 18.86-5.078"/><path class="Note" d="M2089.02 835.186c0-1.104-.42-2.047-1.26-2.828-.86-.844-1.84-1.266-2.94-1.266-1.95 0-5.89 1.953-11.81 5.86-6.13 3.968-9.87 6.802-11.24 8.5-.72.906-1.08 1.849-1.08 2.828 0 1.104.43 2.047 1.28 2.828.79.844 1.76 1.265 2.93 1.265 1.88 0 5.86-1.953 11.92-5.859 5.99-3.906 9.7-6.74 11.12-8.5.72-.844 1.08-1.786 1.08-2.828m-5.17-7.219c5.59 0 8.39 2.406 8.39 7.219 0 2.344-.68 5.078-2.05 8.203-1.36 3.063-3.18 5.406-5.47 7.031-5.01 3.386-11.29 5.078-18.84 5.078-5.6 0-8.41-2.406-8.41-7.218 0-2.146.69-4.849 2.05-8.11 1.3-3.125 3.13-5.5 5.47-7.125 5.02-3.385 11.31-5.078 18.86-5.078"/><path class="Note" d="M2089.02 860.186c0-1.104-.42-2.047-1.26-2.828-.86-.844-1.84-1.266-2.94-1.266-1.95 0-5.89 1.953-11.81 5.86-6.13 3.968-9.87 6.802-11.24 8.5-.72.906-1.08 1.849-1.08 2.828 0 1.104.43 2.047 1.28 2.828.79.844 1.76 1.265 2.93 1.265 1.88 0 5.86-1.953 11.92-5.859 5.99-3.906 9.7-6.74 11.12-8.5.72-.844 1.08-1.786 1.08-2.828m-5.17-7.219c5.59 0 8.39 2.406 8.39 7.219 0 2.344-.68 5.078-2.05 8.203-1.36 3.063-3.18 5.406-5.47 7.031-5.01 3.386-11.29 5.078-18.84 5.078-5.6 0-8.41-2.406-8.41-7.218 0-2.146.69-4.849 2.05-8.11 1.3-3.125 3.13-5.5 5.47-7.125 5.02-3.385 11.31-5.078 18.86-5.078M2089.02 285.186c0-1.105-.42-2.047-1.26-2.829-.86-.843-1.84-1.265-2.94-1.265-1.95 0-5.89 1.953-11.81 5.859-6.13 3.969-9.87 6.802-11.24 8.5-.72.906-1.08 1.849-1.08 2.828 0 1.104.43 2.047 1.28 2.828.79.844 1.76 1.266 2.93 1.266 1.88 0 5.86-1.953 11.92-5.859 5.99-3.907 9.7-6.74 11.12-8.5.72-.844 1.08-1.787 1.08-2.828m-5.17-7.219c5.59 0 8.39 2.406 8.39 7.219 0 2.343-.68 5.078-2.05 8.203-1.36 3.062-3.18 5.406-5.47 7.031-5.01 3.385-11.29 5.078-18.84 5.078-5.6 0-8.41-2.406-8.41-7.219 0-2.146.69-4.849 2.05-8.109 1.3-3.125 3.13-5.5 5.47-7.125 5.02-3.385 11.31-5.078 18.86-5.078M1891.03 810.186c0-1.104-.42-2.047-1.26-2.828-.86-.844-1.83-1.266-2.94-1.266-1.95 0-5.88 1.953-11.81 5.86-6.13 3.968-9.87 6.802-11.24 8.5-.71.906-1.07 1.848-1.07 2.828 0 1.104.42 2.047 1.28 2.828.78.844 1.75 1.265 2.92 1.265 1.88 0 5.86-1.953 11.92-5.859 5.99-3.906 9.7-6.74 11.13-8.5.71-.844 1.07-1.786 1.07-2.828m-5.17-7.219c5.6 0 8.39 2.406 8.39 7.219 0 2.344-.68 5.078-2.04 8.203-1.37 3.063-3.19 5.406-5.47 7.031-5.01 3.386-11.29 5.078-18.85 5.078-5.6 0-8.4-2.406-8.4-7.218 0-2.146.68-4.849 2.04-8.11 1.31-3.125 3.13-5.5 5.47-7.125 5.02-3.385 11.31-5.078 18.86-5.078"/><path class="Note" d="M1891.03 835.186c0-1.104-.42-2.047-1.26-2.828-.86-.844-1.83-1.266-2.94-1.266-1.95 0-5.88 1.953-11.81 5.86-6.13 3.968-9.87 6.802-11.24 8.5-.71.906-1.07 1.849-1.07 2.828 0 1.104.42 2.047 1.28 2.828.78.844 1.75 1.265 2.92 1.265 1.88 0 5.86-1.953 11.92-5.859 5.99-3.906 9.7-6.74 11.13-8.5.71-.844 1.07-1.786 1.07-2.828m-5.17-7.219c5.6 0 8.39 2.406 8.39 7.219 0 2.344-.68 5.078-2.04 8.203-1.37 3.063-3.19 5.406-5.47 7.031-5.01 3.386-11.29 5.078-18.85 5.078-5.6 0-8.4-2.406-8.4-7.218 0-2.146.68-4.849 2.04-8.11 1.31-3.125 3.13-5.5 5.47-7.125 5.02-3.385 11.31-5.078 18.86-5.078"/><path class="Note" d="M1891.03 860.186c0-1.104-.42-2.047-1.26-2.828-.86-.844-1.83-1.266-2.94-1.266-1.95 0-5.88 1.953-11.81 5.86-6.13 3.968-9.87 6.802-11.24 8.5-.71.906-1.07 1.849-1.07 2.828 0 1.104.42 2.047 1.28 2.828.78.844 1.75 1.265 2.92 1.265 1.88 0 5.86-1.953 11.92-5.859 5.99-3.906 9.7-6.74 11.13-8.5.71-.844 1.07-1.786 1.07-2.828m-5.17-7.219c5.6 0 8.39 2.406 8.39 7.219 0 2.344-.68 5.078-2.04 8.203-1.37 3.063-3.19 5.406-5.47 7.031-5.01 3.386-11.29 5.078-18.85 5.078-5.6 0-8.4-2.406-8.4-7.218 0-2.146.68-4.849 2.04-8.11 1.31-3.125 3.13-5.5 5.47-7.125 5.02-3.385 11.31-5.078 18.86-5.078M1891.03 285.186c0-1.105-.42-2.047-1.26-2.829-.86-.843-1.83-1.265-2.94-1.265-1.95 0-5.88 1.953-11.81 5.859-6.13 3.969-9.87 6.802-11.24 8.5-.71.906-1.07 1.849-1.07 2.828 0 1.104.42 2.047 1.28 2.828.78.844 1.75 1.266 2.92 1.266 1.88 0 5.86-1.953 11.92-5.859 5.99-3.907 9.7-6.74 11.13-8.5.71-.844 1.07-1.787 1.07-2.828m-5.17-7.219c5.6 0 8.39 2.406 8.39 7.219 0 2.343-.68 5.078-2.04 8.203-1.37 3.062-3.19 5.406-5.47 7.031-5.01 3.385-11.29 5.078-18.85 5.078-5.6 0-8.4-2.406-8.4-7.219 0-2.146.68-4.849 2.04-8.109 1.31-3.125 3.13-5.5 5.47-7.125 5.02-3.385 11.31-5.078 18.86-5.078M1724.76 327.967c3.12 0 5.76.812 7.92 2.437 2.01 1.761 3.02 3.974 3.02 6.641 0 4.49-2.31 8.687-6.93 12.594-4.68 3.906-9.7 5.859-15.04 5.859-3.13 0-5.76-.812-7.91-2.437-2.02-1.761-3.03-3.974-3.03-6.641 0-4.49 2.34-8.688 7.03-12.594 4.56-3.906 9.54-5.859 14.94-5.859M1676.09 302.967c3.12 0 5.76.812 7.92 2.437 2.01 1.761 3.01 3.974 3.01 6.641 0 4.49-2.3 8.687-6.92 12.594-4.69 3.906-9.7 5.859-15.04 5.859-3.13 0-5.77-.812-7.91-2.437-2.02-1.761-3.03-3.974-3.03-6.641 0-4.49 2.34-8.688 7.03-12.594 4.56-3.906 9.54-5.859 14.94-5.859M1627.41 327.967c3.13 0 5.77.812 7.93 2.437 2.01 1.761 3.01 3.974 3.01 6.641 0 4.49-2.31 8.687-6.92 12.594-4.69 3.906-9.7 5.859-15.05 5.859-3.12 0-5.76-.812-7.9-2.437-2.02-1.761-3.03-3.974-3.03-6.641 0-4.49 2.34-8.688 7.03-12.594 4.56-3.906 9.54-5.859 14.93-5.859M1578.74 340.467c3.13 0 5.77.812 7.92 2.437 2.01 1.761 3.02 3.974 3.02 6.641 0 4.49-2.31 8.687-6.92 12.594-4.69 3.906-9.71 5.859-15.05 5.859-3.12 0-5.76-.812-7.91-2.437-2.02-1.761-3.03-3.974-3.03-6.641 0-4.49 2.35-8.688 7.03-12.594 4.57-3.906 9.55-5.859 14.94-5.859M1509.54 672.686c0-1.104-.42-2.047-1.26-2.828-.86-.844-1.84-1.266-2.94-1.266-1.95 0-5.89 1.953-11.81 5.859-6.13 3.969-9.87 6.803-11.24 8.5-.72.907-1.08 1.849-1.08 2.829 0 1.104.43 2.046 1.29 2.828.78.843 1.75 1.265 2.92 1.265 1.88 0 5.86-1.953 11.92-5.859 5.99-3.906 9.7-6.74 11.12-8.5.72-.844 1.08-1.787 1.08-2.828m-5.17-7.219c5.59 0 8.39 2.406 8.39 7.219 0 2.344-.68 5.078-2.05 8.203-1.36 3.062-3.18 5.406-5.46 7.031-5.02 3.386-11.3 5.078-18.85 5.078-5.6 0-8.4-2.406-8.4-7.218 0-2.146.68-4.849 2.04-8.11 1.3-3.125 3.13-5.5 5.47-7.125 5.02-3.385 11.31-5.078 18.86-5.078"/><path class="Note" d="M1509.54 697.686c0-1.104-.42-2.047-1.26-2.828-.86-.844-1.84-1.266-2.94-1.266-1.95 0-5.89 1.953-11.81 5.859-6.13 3.969-9.87 6.803-11.24 8.5-.72.907-1.08 1.849-1.08 2.829 0 1.104.43 2.046 1.29 2.828.78.843 1.75 1.265 2.92 1.265 1.88 0 5.86-1.953 11.92-5.859 5.99-3.906 9.7-6.74 11.12-8.5.72-.844 1.08-1.786 1.08-2.828m-5.17-7.219c5.59 0 8.39 2.406 8.39 7.219 0 2.344-.68 5.078-2.05 8.203-1.36 3.062-3.18 5.406-5.46 7.031-5.02 3.386-11.3 5.078-18.85 5.078-5.6 0-8.4-2.406-8.4-7.218 0-2.146.68-4.849 2.04-8.11 1.3-3.125 3.13-5.5 5.47-7.125 5.02-3.385 11.31-5.078 18.86-5.078M1509.54 735.186c0-1.104-.42-2.047-1.26-2.828-.86-.844-1.84-1.266-2.94-1.266-1.95 0-5.89 1.953-11.81 5.859-6.13 3.969-9.87 6.803-11.24 8.5-.72.907-1.08 1.849-1.08 2.829 0 1.104.43 2.046 1.29 2.828.78.843 1.75 1.265 2.92 1.265 1.88 0 5.86-1.953 11.92-5.859 5.99-3.906 9.7-6.74 11.12-8.5.72-.844 1.08-1.786 1.08-2.828m-5.17-7.219c5.59 0 8.39 2.406 8.39 7.219 0 2.344-.68 5.078-2.05 8.203-1.36 3.062-3.18 5.406-5.46 7.031-5.02 3.386-11.3 5.078-18.85 5.078-5.6 0-8.4-2.406-8.4-7.218 0-2.146.68-4.849 2.04-8.11 1.3-3.125 3.13-5.5 5.47-7.125 5.02-3.385 11.31-5.078 18.86-5.078M1500.87 340.467c3.12 0 5.76.812 7.92 2.437 2.01 1.761 3.01 3.974 3.01 6.641 0 4.49-2.3 8.687-6.92 12.594-4.69 3.906-9.7 5.859-15.04 5.859-3.13 0-5.77-.812-7.91-2.437-2.02-1.761-3.03-3.974-3.03-6.641 0-4.49 2.34-8.688 7.03-12.594 4.56-3.906 9.54-5.859 14.94-5.859M1381.72 352.967c3.12 0 5.76.812 7.92 2.437 2.01 1.761 3.01 3.974 3.01 6.641 0 4.49-2.3 8.688-6.92 12.594-4.69 3.906-9.7 5.859-15.04 5.859-3.13 0-5.76-.812-7.91-2.437-2.02-1.761-3.03-3.974-3.03-6.641 0-4.49 2.34-8.687 7.03-12.594 4.56-3.906 9.54-5.859 14.94-5.859M1306.47 365.467c3.12 0 5.77.812 7.92 2.437 2.01 1.761 3.02 3.974 3.02 6.641 0 4.49-2.31 8.688-6.92 12.594-4.69 3.906-9.71 5.859-15.05 5.859-3.13 0-5.76-.812-7.91-2.437-2.02-1.761-3.03-3.974-3.03-6.641 0-4.49 2.34-8.687 7.03-12.594 4.56-3.906 9.54-5.859 14.94-5.859M1239.9 672.686c0-1.104-.42-2.047-1.27-2.828-.85-.844-1.83-1.266-2.93-1.266-1.95 0-5.89 1.953-11.82 5.859-6.12 3.969-9.87 6.803-11.23 8.5-.72.907-1.08 1.849-1.08 2.829 0 1.104.43 2.046 1.28 2.828.78.843 1.76 1.265 2.92 1.265 1.89 0 5.86-1.953 11.93-5.859 5.99-3.906 9.69-6.74 11.12-8.5.72-.844 1.08-1.787 1.08-2.828m-5.17-7.219c5.59 0 8.39 2.406 8.39 7.219 0 2.344-.68 5.078-2.05 8.203-1.36 3.062-3.19 5.406-5.47 7.031-5.01 3.386-11.29 5.078-18.84 5.078-5.61 0-8.41-2.406-8.41-7.218 0-2.146.68-4.849 2.05-8.11 1.3-3.125 3.12-5.5 5.47-7.125 5.02-3.385 11.3-5.078 18.86-5.078"/><path class="Note" d="M1239.9 697.686c0-1.104-.42-2.047-1.27-2.828-.85-.844-1.83-1.266-2.93-1.266-1.95 0-5.89 1.953-11.82 5.859-6.12 3.969-9.87 6.803-11.23 8.5-.72.907-1.08 1.849-1.08 2.829 0 1.104.43 2.046 1.28 2.828.78.843 1.76 1.265 2.92 1.265 1.89 0 5.86-1.953 11.93-5.859 5.99-3.906 9.69-6.74 11.12-8.5.72-.844 1.08-1.786 1.08-2.828m-5.17-7.219c5.59 0 8.39 2.406 8.39 7.219 0 2.344-.68 5.078-2.05 8.203-1.36 3.062-3.19 5.406-5.47 7.031-5.01 3.386-11.29 5.078-18.84 5.078-5.61 0-8.41-2.406-8.41-7.218 0-2.146.68-4.849 2.05-8.11 1.3-3.125 3.12-5.5 5.47-7.125 5.02-3.385 11.3-5.078 18.86-5.078M1239.9 735.186c0-1.104-.42-2.047-1.27-2.828-.85-.844-1.83-1.266-2.93-1.266-1.95 0-5.89 1.953-11.82 5.859-6.12 3.969-9.87 6.803-11.23 8.5-.72.907-1.08 1.849-1.08 2.829 0 1.104.43 2.046 1.28 2.828.78.843 1.76 1.265 2.92 1.265 1.89 0 5.86-1.953 11.93-5.859 5.99-3.906 9.69-6.74 11.12-8.5.72-.844 1.08-1.786 1.08-2.828m-5.17-7.219c5.59 0 8.39 2.406 8.39 7.219 0 2.344-.68 5.078-2.05 8.203-1.36 3.062-3.19 5.406-5.47 7.031-5.01 3.386-11.29 5.078-18.84 5.078-5.61 0-8.41-2.406-8.41-7.218 0-2.146.68-4.849 2.05-8.11 1.3-3.125 3.12-5.5 5.47-7.125 5.02-3.385 11.3-5.078 18.86-5.078M1102.6 340.467c3.13 0 5.77.812 7.93 2.437 2.01 1.761 3.01 3.974 3.01 6.641 0 4.49-2.31 8.687-6.92 12.594-4.69 3.906-9.7 5.859-15.05 5.859-3.12 0-5.76-.812-7.9-2.437-2.02-1.761-3.03-3.974-3.03-6.641 0-4.49 2.34-8.688 7.03-12.594 4.56-3.906 9.54-5.859 14.93-5.859M1049.66 352.967c3.12 0 5.76.812 7.92 2.437 2.01 1.761 3.01 3.974 3.01 6.641 0 4.49-2.3 8.688-6.92 12.594-4.69 3.906-9.7 5.859-15.04 5.859-3.13 0-5.76-.812-7.91-2.437-2.02-1.761-3.03-3.974-3.03-6.641 0-4.49 2.34-8.687 7.03-12.594 4.56-3.906 9.54-5.859 14.94-5.859M996.709 365.467c3.125 0 5.761.812 7.921 2.437 2.01 1.761 3.02 3.974 3.02 6.641 0 4.49-2.31 8.688-6.93 12.594-4.683 3.906-9.698 5.859-15.042 5.859-3.125 0-5.76-.812-7.906-2.437-2.021-1.761-3.031-3.974-3.031-6.641 0-4.49 2.343-8.687 7.031-12.594 4.562-3.906 9.541-5.859 14.937-5.859M920.669 635.186c0-1.104-.422-2.047-1.266-2.828-.854-.844-1.833-1.266-2.937-1.266-1.948 0-5.886 1.953-11.813 5.859-6.125 3.969-9.869 6.803-11.234 8.5-.719.907-1.078 1.849-1.078 2.829 0 1.104.427 2.046 1.281 2.828.781.843 1.755 1.265 2.922 1.265 1.885 0 5.859-1.953 11.922-5.859 5.989-3.906 9.698-6.74 11.125-8.5.719-.844 1.078-1.787 1.078-2.828m-5.172-7.219c5.594 0 8.391 2.406 8.391 7.219 0 2.344-.683 5.078-2.047 8.203-1.365 3.062-3.188 5.406-5.469 7.031-5.01 3.386-11.292 5.078-18.844 5.078-5.604 0-8.406-2.406-8.406-7.218 0-2.146.682-4.849 2.047-8.11 1.302-3.125 3.125-5.5 5.469-7.125 5.021-3.385 11.307-5.078 18.859-5.078"/><path class="Note" d="M920.669 660.186c0-1.104-.422-2.047-1.266-2.828-.854-.844-1.833-1.266-2.937-1.266-1.948 0-5.886 1.953-11.813 5.859-6.125 3.969-9.869 6.803-11.234 8.5-.719.907-1.078 1.849-1.078 2.829 0 1.104.427 2.046 1.281 2.828.781.843 1.755 1.265 2.922 1.265 1.885 0 5.859-1.953 11.922-5.859 5.989-3.906 9.698-6.74 11.125-8.5.719-.844 1.078-1.787 1.078-2.828m-5.172-7.219c5.594 0 8.391 2.406 8.391 7.219 0 2.344-.683 5.078-2.047 8.203-1.365 3.062-3.188 5.406-5.469 7.031-5.01 3.386-11.292 5.078-18.844 5.078-5.604 0-8.406-2.406-8.406-7.218 0-2.146.682-4.849 2.047-8.11 1.302-3.125 3.125-5.5 5.469-7.125 5.021-3.385 11.307-5.078 18.859-5.078M920.669 697.686c0-1.104-.422-2.047-1.266-2.828-.854-.844-1.833-1.266-2.937-1.266-1.948 0-5.886 1.953-11.813 5.859-6.125 3.969-9.869 6.803-11.234 8.5-.719.907-1.078 1.849-1.078 2.829 0 1.104.427 2.046 1.281 2.828.781.843 1.755 1.265 2.922 1.265 1.885 0 5.859-1.953 11.922-5.859 5.989-3.906 9.698-6.74 11.125-8.5.719-.844 1.078-1.786 1.078-2.828m-5.172-7.219c5.594 0 8.391 2.406 8.391 7.219 0 2.344-.683 5.078-2.047 8.203-1.365 3.062-3.188 5.406-5.469 7.031-5.01 3.386-11.292 5.078-18.844 5.078-5.604 0-8.406-2.406-8.406-7.218 0-2.146.682-4.849 2.047-8.11 1.302-3.125 3.125-5.5 5.469-7.125 5.021-3.385 11.307-5.078 18.859-5.078M911.993 365.467c3.125 0 5.766.812 7.922 2.437 2.011 1.761 3.016 3.974 3.016 6.641 0 4.49-2.308 8.688-6.922 12.594-4.688 3.906-9.703 5.859-15.047 5.859-3.125 0-5.76-.812-7.906-2.437-2.021-1.761-3.032-3.974-3.032-6.641 0-4.49 2.344-8.687 7.032-12.594 4.562-3.906 9.541-5.859 14.937-5.859M792.844 377.967c3.125 0 5.765.812 7.922 2.437 2.01 1.761 3.015 3.974 3.015 6.641 0 4.49-2.307 8.688-6.922 12.594-4.687 3.906-9.703 5.859-15.046 5.859-3.125 0-5.761-.812-7.907-2.437-2.021-1.761-3.031-3.974-3.031-6.641 0-4.49 2.344-8.687 7.031-12.594 4.563-3.906 9.542-5.859 14.938-5.859M717.597 390.467c3.125 0 5.765.812 7.922 2.437 2.01 1.761 3.015 3.974 3.015 6.641 0 4.49-2.307 8.688-6.922 12.594-4.687 3.906-9.703 5.859-15.046 5.859-3.125 0-5.761-.812-7.907-2.437-2.021-1.761-3.031-3.974-3.031-6.641 0-4.49 2.344-8.687 7.031-12.594 4.563-3.906 9.542-5.859 14.938-5.859M651.025 635.186c0-1.104-.421-2.047-1.265-2.828-.854-.844-1.833-1.266-2.938-1.266-1.948 0-5.885 1.953-11.812 5.859-6.125 3.969-9.87 6.803-11.235 8.5-.718.907-1.078 1.849-1.078 2.829 0 1.104.427 2.046 1.282 2.828.781.843 1.755 1.265 2.921 1.265 1.886 0 5.86-1.953 11.922-5.859 5.99-3.906 9.698-6.74 11.125-8.5.719-.844 1.078-1.787 1.078-2.828m-5.171-7.219c5.593 0 8.39 2.406 8.39 7.219 0 2.344-.682 5.078-2.047 8.203-1.364 3.062-3.187 5.406-5.468 7.031-5.011 3.386-11.292 5.078-18.844 5.078-5.604 0-8.406-2.406-8.406-7.218 0-2.146.682-4.849 2.046-8.11 1.303-3.125 3.125-5.5 5.469-7.125 5.021-3.385 11.308-5.078 18.86-5.078"/><path class="Note" d="M651.025 660.186c0-1.104-.421-2.047-1.265-2.828-.854-.844-1.833-1.266-2.938-1.266-1.948 0-5.885 1.953-11.812 5.859-6.125 3.969-9.87 6.803-11.235 8.5-.718.907-1.078 1.849-1.078 2.829 0 1.104.427 2.046 1.282 2.828.781.843 1.755 1.265 2.921 1.265 1.886 0 5.86-1.953 11.922-5.859 5.99-3.906 9.698-6.74 11.125-8.5.719-.844 1.078-1.787 1.078-2.828m-5.171-7.219c5.593 0 8.39 2.406 8.39 7.219 0 2.344-.682 5.078-2.047 8.203-1.364 3.062-3.187 5.406-5.468 7.031-5.011 3.386-11.292 5.078-18.844 5.078-5.604 0-8.406-2.406-8.406-7.218 0-2.146.682-4.849 2.046-8.11 1.303-3.125 3.125-5.5 5.469-7.125 5.021-3.385 11.308-5.078 18.86-5.078M651.025 697.686c0-1.104-.421-2.047-1.265-2.828-.854-.844-1.833-1.266-2.938-1.266-1.948 0-5.885 1.953-11.812 5.859-6.125 3.969-9.87 6.803-11.235 8.5-.718.907-1.078 1.849-1.078 2.829 0 1.104.427 2.046 1.282 2.828.781.843 1.755 1.265 2.921 1.265 1.886 0 5.86-1.953 11.922-5.859 5.99-3.906 9.698-6.74 11.125-8.5.719-.844 1.078-1.786 1.078-2.828m-5.171-7.219c5.593 0 8.39 2.406 8.39 7.219 0 2.344-.682 5.078-2.047 8.203-1.364 3.062-3.187 5.406-5.468 7.031-5.011 3.386-11.292 5.078-18.844 5.078-5.604 0-8.406-2.406-8.406-7.218 0-2.146.682-4.849 2.046-8.11 1.303-3.125 3.125-5.5 5.469-7.125 5.021-3.385 11.308-5.078 18.86-5.078"/><path class="Clef" d="M1797.166 859.62c-.779-.783-1.168-1.747-1.168-2.893 0-1.146.39-2.109 1.168-2.888.78-.779 1.742-1.168 2.888-1.168s2.11.39 2.894 1.168c.783.78 1.175 1.742 1.175 2.888s-.392 2.11-1.175 2.893c-.784.784-1.748 1.175-2.894 1.175-1.146 0-2.109-.391-2.888-1.175m0 20.007c-.779-.78-1.168-1.742-1.168-2.888s.39-2.11 1.168-2.893c.78-.784 1.742-1.175 2.888-1.175s2.11.391 2.894 1.175c.783.783 1.175 1.747 1.175 2.893 0 1.146-.392 2.109-1.175 2.888-.784.779-1.748 1.168-2.894 1.168-1.146 0-2.109-.39-2.888-1.168m-27.106-33.907c6.925 0 12.6 1.742 17.025 5.225 4.275 3.65 6.413 8.6 6.413 14.85 0 4.217-.834 8.071-2.5 11.563-1.567 3.65-3.625 6.88-6.175 9.688-2.609 2.866-5.759 5.575-9.45 8.125-3.6 2.5-7.3 4.741-11.1 6.725-7.759 3.9-12.03 5.85-12.813 5.85-.675 0-1.013-.338-1.013-1.013 0-.258.105-.492.313-.7 2.658-1.567 5.913-3.57 9.762-6.012 2.5-1.617 5.417-3.859 8.75-6.725 3.234-2.709 5.734-5.259 7.5-7.65 1.826-2.35 3.492-5.267 5-8.75 1.3-3.492 1.95-6.934 1.95-10.326 0-5.05-1.25-9.45-3.75-13.2s-5.804-5.625-9.912-5.625c-2.917 0-5.417.938-7.5 2.813-2.242 1.925-3.858 4.346-4.85 7.263.992-.417 1.904-.626 2.738-.626 2.183 0 4.058.784 5.624 2.35 1.559 1.667 2.338 3.567 2.338 5.7 0 2.242-.754 4.25-2.262 6.026-1.617 1.608-3.517 2.412-5.7 2.412-2.342 0-4.45-.804-6.325-2.412-1.775-1.775-2.663-3.784-2.663-6.026 0-5.366 1.825-9.95 5.475-13.75 3.592-3.85 7.967-5.775 13.125-5.775M468.889 857.842c-.974-.979-1.461-2.185-1.461-3.617s.487-2.635 1.461-3.609c.974-.974 2.177-1.461 3.609-1.461s2.638.487 3.617 1.461c.979.974 1.469 2.177 1.469 3.609s-.49 2.638-1.469 3.617c-.979.979-2.185 1.469-3.617 1.469s-2.635-.49-3.609-1.469m0 25.008c-.974-.974-1.461-2.177-1.461-3.609 0-1.433.487-2.638 1.461-3.618.974-.979 2.177-1.468 3.609-1.468s2.638.489 3.617 1.468c.979.98 1.469 2.185 1.469 3.618 0 1.432-.49 2.635-1.469 3.609-.979.974-2.185 1.461-3.617 1.461s-2.635-.487-3.609-1.461m-33.883-42.383c8.656 0 15.75 2.177 21.281 6.531 5.344 4.563 8.016 10.75 8.016 18.563 0 5.271-1.042 10.088-3.125 14.453-1.959 4.563-4.532 8.599-7.719 12.109-3.26 3.584-7.198 6.969-11.813 10.157a128.744 128.744 0 01-13.875 8.406c-9.697 4.875-15.036 7.312-16.015 7.312-.844 0-1.266-.421-1.266-1.265 0-.323.13-.615.391-.875 3.323-1.959 7.39-4.464 12.203-7.516 3.125-2.021 6.771-4.823 10.937-8.406 4.042-3.385 7.167-6.573 9.375-9.563 2.282-2.937 4.365-6.583 6.25-10.937 1.625-4.365 2.438-8.667 2.438-12.906 0-6.313-1.563-11.813-4.688-16.5-3.125-4.688-7.255-7.032-12.39-7.032-3.646 0-6.771 1.172-9.375 3.516-2.802 2.406-4.823 5.432-6.063 9.078 1.24-.521 2.381-.781 3.422-.781 2.729 0 5.073.979 7.031 2.937 1.948 2.084 2.922 4.459 2.922 7.125 0 2.803-.942 5.313-2.828 7.532-2.021 2.01-4.396 3.015-7.125 3.015-2.927 0-5.562-1.005-7.906-3.015-2.219-2.219-3.328-4.729-3.328-7.532 0-6.708 2.281-12.437 6.844-17.187 4.489-4.813 9.958-7.219 16.406-7.219M448.475 628.639h.593a2.93 2.93 0 01.672-.094c7.292 0 13.281 2.573 17.969 7.719 4.687 5.073 7.031 10.995 7.031 17.766 0 8.406-3.479 15.244-10.437 20.515-1.823 1.438-4.203 2.61-7.141 3.516.333 4.229.5 7.646.5 10.25 0 .521-.068 2.411-.203 5.672-.26 6.052-2.344 11.291-6.25 15.718-3.771 4.365-8.458 6.547-14.063 6.547-5.27 0-9.76-1.854-13.468-5.562-3.719-3.781-5.578-8.339-5.578-13.672 0-2.802 1.078-5.182 3.234-7.141 2.208-1.948 4.776-2.922 7.703-2.922 2.604 0 4.787 1.011 6.547 3.032 1.823 1.885 2.734 4.229 2.734 7.031 0 2.531-.911 4.708-2.734 6.531-1.823 1.823-4.005 2.735-6.547 2.735a8.076 8.076 0 01-3.016-.579c2.865 4.23 6.672 6.344 11.422 6.344 4.49 0 8.167-1.823 11.032-5.469 3-3.77 4.63-8.166 4.89-13.187.125-3.125.188-4.912.188-5.359 0-3.646-.131-6.641-.391-8.985-3.25.521-6.146.781-8.687.781-9.053 0-16.766-3.583-23.141-10.75-6.25-7.229-9.375-15.822-9.375-25.781 0-2.083.193-4.198.578-6.344.396-1.76.885-3.682 1.469-5.765.323-1.177 1.203-3.068 2.64-5.672a43.07 43.07 0 001.758-2.93c.651-1.172 1.107-1.95 1.367-2.336.646-1.302 1.912-3.062 3.797-5.281a38.969 38.969 0 001.618-1.945c.557-.714 1.031-1.3 1.421-1.758.391-.458.683-.818.875-1.078.193-.261 1.659-1.985 4.399-5.172a33.877 33.877 0 001.898-2.102 52.42 52.42 0 011.516-1.757c.391-.428.685-.735.883-.922-2.344-7.75-3.813-13.938-4.407-18.563-.447-3.708-.671-8.786-.671-15.234 0-5.667 1.302-10.974 3.906-15.922 2.531-5.135 6.078-9.333 10.64-12.594.261-.198.584-.297.969-.297.459 0 .787.099.985.297 3.51 4.229 6.536 9.729 9.078 16.5 2.604 6.771 3.906 12.927 3.906 18.469 0 6.25-1.495 12.109-4.484 17.578-3.386 5.792-7.75 11.781-13.094 17.969 1.364 4.291 3.187 11.026 5.469 20.203m8.296 45.422c3.386-1.24 6.026-3.354 7.922-6.344 2.084-2.865 3.125-6.088 3.125-9.672 0-4.625-1.562-8.729-4.687-12.312-3.198-3.709-7.271-5.792-12.219-6.25 2.802 13.739 4.755 25.265 5.859 34.578m-37.781-22.563c0 6.448 2.604 12.115 7.813 17 5.333 4.75 11.323 7.125 17.968 7.125 2.73 0 5.396-.198 8-.593-1.041-9.896-3.093-21.745-6.156-35.547-3.708.396-6.666 1.698-8.875 3.906-2.156 2.281-3.234 4.854-3.234 7.719 0 4.948 2.64 8.953 7.922 12.015.448.459.672.948.672 1.469 0 .521-.224 1.005-.672 1.453-.396.459-.886.688-1.469.688-.063 0-.354-.063-.875-.188-3.719-2.021-6.583-4.625-8.594-7.812-1.896-3.396-2.844-6.818-2.844-10.266 0-4.49 1.401-8.557 4.204-12.203 2.927-3.646 6.734-5.99 11.421-7.031-1.822-7.292-3.317-12.99-4.484-17.094l-3.758 4.25c-1.463 1.656-2.325 2.651-2.586 2.984-2.343 3.052-4.135 5.427-5.375 7.125-2.218 3.063-3.849 5.698-4.89 7.907-1.104 2.479-2.078 5.182-2.922 8.109-.844 2.802-1.266 5.797-1.266 8.984m32.61-99.312c-4.886 2.406-8.724 5.854-11.516 10.344-2.865 4.625-4.297 9.604-4.297 14.937 0 4.688 1.172 11.005 3.516 18.953 4.687-5.666 8.203-10.906 10.547-15.719 2.468-5.083 3.703-10.39 3.703-15.921 0-4.167-.651-8.365-1.953-12.594M448.475 366.139h.593a2.93 2.93 0 01.672-.094c7.292 0 13.281 2.573 17.969 7.719 4.687 5.073 7.031 10.995 7.031 17.765 0 8.407-3.479 15.245-10.437 20.516-1.823 1.438-4.203 2.609-7.141 3.516.333 4.229.5 7.645.5 10.25 0 .52-.068 2.411-.203 5.672-.26 6.052-2.344 11.291-6.25 15.718-3.771 4.365-8.458 6.547-14.063 6.547-5.27 0-9.76-1.854-13.468-5.562-3.719-3.782-5.578-8.339-5.578-13.672 0-2.802 1.078-5.183 3.234-7.141 2.208-1.948 4.776-2.922 7.703-2.922 2.604 0 4.787 1.011 6.547 3.032 1.823 1.885 2.734 4.229 2.734 7.031 0 2.531-.911 4.708-2.734 6.531-1.823 1.823-4.005 2.734-6.547 2.734a8.075 8.075 0 01-3.016-.578c2.865 4.229 6.672 6.344 11.422 6.344 4.49 0 8.167-1.823 11.032-5.469 3-3.771 4.63-8.166 4.89-13.187.125-3.125.188-4.912.188-5.36 0-3.645-.131-6.64-.391-8.984-3.25.521-6.146.781-8.687.781-9.053 0-16.766-3.583-23.141-10.75-6.25-7.229-9.375-15.823-9.375-25.781 0-2.083.193-4.198.578-6.344.396-1.76.885-3.682 1.469-5.765.323-1.177 1.203-3.068 2.64-5.672a43.07 43.07 0 001.758-2.93c.651-1.172 1.107-1.95 1.367-2.336.646-1.302 1.912-3.062 3.797-5.281a38.969 38.969 0 001.618-1.945c.557-.714 1.031-1.3 1.421-1.758.391-.459.683-.818.875-1.078.193-.261 1.659-1.985 4.399-5.172a33.877 33.877 0 001.898-2.102 51.62 51.62 0 011.516-1.758c.391-.427.685-.734.883-.921-2.344-7.75-3.813-13.938-4.407-18.563-.447-3.708-.671-8.786-.671-15.234 0-5.667 1.302-10.974 3.906-15.922 2.531-5.136 6.078-9.334 10.64-12.594.261-.198.584-.297.969-.297.459 0 .787.099.985.297 3.51 4.229 6.536 9.729 9.078 16.5 2.604 6.771 3.906 12.927 3.906 18.469 0 6.25-1.495 12.109-4.484 17.578-3.386 5.792-7.75 11.781-13.094 17.969 1.364 4.291 3.187 11.026 5.469 20.203m8.296 45.422c3.386-1.24 6.026-3.355 7.922-6.344 2.084-2.865 3.125-6.089 3.125-9.672 0-4.625-1.562-8.729-4.687-12.312-3.198-3.709-7.271-5.792-12.219-6.25 2.802 13.739 4.755 25.265 5.859 34.578m-37.781-22.563c0 6.448 2.604 12.115 7.813 17 5.333 4.75 11.323 7.125 17.968 7.125 2.73 0 5.396-.198 8-.594-1.041-9.895-3.093-21.744-6.156-35.546-3.708.395-6.666 1.697-8.875 3.906-2.156 2.281-3.234 4.854-3.234 7.719 0 4.947 2.64 8.953 7.922 12.015.448.458.672.948.672 1.469 0 .521-.224 1.005-.672 1.453-.396.458-.886.688-1.469.688-.063 0-.354-.063-.875-.188-3.719-2.021-6.583-4.625-8.594-7.812-1.896-3.396-2.844-6.818-2.844-10.266 0-4.49 1.401-8.557 4.204-12.203 2.927-3.646 6.734-5.99 11.421-7.031-1.822-7.292-3.317-12.99-4.484-17.094l-3.758 4.25c-1.463 1.656-2.325 2.651-2.586 2.984-2.343 3.052-4.135 5.427-5.375 7.125-2.218 3.063-3.849 5.698-4.89 7.906-1.104 2.48-2.078 5.183-2.922 8.11-.844 2.802-1.266 5.797-1.266 8.984m32.61-99.312c-4.886 2.406-8.724 5.854-11.516 10.343-2.865 4.625-4.297 9.605-4.297 14.938 0 4.687 1.172 11.005 3.516 18.953 4.687-5.667 8.203-10.906 10.547-15.719 2.468-5.083 3.703-10.39 3.703-15.922 0-4.166-.651-8.364-1.953-12.593"/><path class="KeySig" d="M507.592 912.623v7.719c0 2.74.13 4.922.39 6.547 2.146-1.823 3.678-3.187 4.594-4.094 1.042-1.041 2.084-2.476 3.125-4.304 1.042-1.828 1.563-3.654 1.563-5.477 0-1.823-.391-3.385-1.172-4.687-.781-1.302-1.823-1.954-3.125-1.954-1.563 0-2.865.589-3.906 1.766-.98 1.302-1.469 2.797-1.469 4.484m-4.11 17.875l-1.265-59.468c.916-.521 1.831-.782 2.742-.782s1.82.261 2.727.782l-.782 34.468c2.667-2.281 5.729-3.421 9.188-3.421 2.531 0 4.643 1.041 6.336 3.125 1.692 2.083 2.539 4.463 2.539 7.14 0 1.688-.552 3.479-1.656 5.375-1.042 1.75-2.146 3.115-3.313 4.094-.656.521-2.318 1.823-4.984 3.906-.782.584-1.709 1.266-2.782 2.047a182.564 182.564 0 00-2 1.469c-.458.26-.885.781-1.281 1.562a6.99 6.99 0 01-1.562 1.657c-.448.395-.998.593-1.649.593s-1.174-.229-1.57-.687c-.458-.458-.688-1.078-.688-1.86M507.592 625.123v7.719c0 2.74.13 4.922.39 6.547 2.146-1.823 3.678-3.188 4.594-4.094 1.042-1.041 2.084-2.476 3.125-4.305 1.042-1.828 1.563-3.653 1.563-5.476s-.391-3.385-1.172-4.688c-.781-1.302-1.823-1.953-3.125-1.953-1.563 0-2.865.589-3.906 1.766-.98 1.302-1.469 2.797-1.469 4.484m-4.11 17.875l-1.265-59.468c.916-.521 1.831-.782 2.742-.782s1.82.261 2.727.782l-.782 34.468c2.667-2.281 5.729-3.422 9.188-3.422 2.531 0 4.643 1.042 6.336 3.125 1.692 2.084 2.539 4.464 2.539 7.141 0 1.688-.552 3.479-1.656 5.375-1.042 1.75-2.146 3.115-3.313 4.094-.656.521-2.318 1.823-4.984 3.906-.782.583-1.709 1.266-2.782 2.047a182.564 182.564 0 00-2 1.469c-.458.26-.885.781-1.281 1.562a6.985 6.985 0 01-1.562 1.656c-.448.396-.998.594-1.649.594s-1.174-.229-1.57-.687c-.458-.459-.688-1.078-.688-1.86M549.576 385.389c0 1.239-.617 1.859-1.851 1.859-1.235 0-1.852-.62-1.852-1.859v-14.453l-8.297 3.125v15.812c0 1.24-.62 1.859-1.859 1.859-1.24 0-1.86-.619-1.86-1.859v-14.547l-3.125 1.172c-.062.063-.322.094-.781.094-.521 0-.976-.195-1.367-.586-.391-.391-.586-.846-.586-1.367v-6.047c0-.979.422-1.599 1.266-1.86l4.593-1.562v-16.016l-3.125 1.078c-.062.063-.322.094-.781.094-.521 0-.976-.195-1.367-.586-.391-.39-.586-.846-.586-1.367v-6.062c0-.907.422-1.49 1.266-1.75l4.593-1.766v-15.719c0-1.239.62-1.859 1.86-1.859 1.239 0 1.859.62 1.859 1.859v14.453l8.297-3.125v-15.812c0-1.24.617-1.86 1.852-1.86 1.234 0 1.851.62 1.851 1.86v14.547l3.235-1.172c.062-.063.286-.094.671-.094.459 0 .948.193 1.469.578.396.396.594.854.594 1.375v6.047c0 .917-.458 1.537-1.375 1.859l-4.594 1.563v16.016l3.235-1.079c.062-.062.286-.093.671-.093.459 0 .948.198 1.469.593.396.386.594.839.594 1.36v6.062c0 .844-.458 1.427-1.375 1.75l-4.594 1.766v15.719m-3.703-40.625l-8.297 2.922v16.015l8.297-2.922v-16.015M524.576 347.889c0 1.239-.617 1.859-1.851 1.859-1.235 0-1.852-.62-1.852-1.859v-14.453l-8.297 3.125v15.812c0 1.24-.62 1.859-1.859 1.859-1.24 0-1.86-.619-1.86-1.859v-14.547l-3.125 1.172c-.062.063-.322.094-.781.094-.521 0-.976-.195-1.367-.586-.391-.391-.586-.846-.586-1.367v-6.047c0-.979.422-1.599 1.266-1.86l4.593-1.562v-16.016l-3.125 1.078c-.062.063-.322.094-.781.094-.521 0-.976-.195-1.367-.586-.391-.39-.586-.846-.586-1.367v-6.062c0-.907.422-1.49 1.266-1.75l4.593-1.766v-15.719c0-1.239.62-1.859 1.86-1.859 1.239 0 1.859.62 1.859 1.859v14.453l8.297-3.125v-15.812c0-1.24.617-1.86 1.852-1.86 1.234 0 1.851.62 1.851 1.86v14.547l3.235-1.172c.062-.063.286-.094.671-.094.459 0 .948.193 1.469.578.396.396.594.854.594 1.375v6.047c0 .917-.458 1.537-1.375 1.859l-4.594 1.563v16.016l3.235-1.079c.062-.062.286-.093.671-.093.459 0 .948.198 1.469.593.396.386.594.839.594 1.36v6.062c0 .844-.458 1.427-1.375 1.75l-4.594 1.766v15.719m-3.703-40.625l-8.297 2.922v16.015l8.297-2.922v-16.015"/><path class="Rest" d="M2725.2 619.858h-35.55c-.66 0-.99-.323-.99-.969v-13.672c0-.656.33-.984.99-.984h35.55c.64 0 .96.328.96.984v13.672c0 .646-.32.969-.96.969M2680.77 366.733h-35.55c-.65 0-.98-.329-.98-.985v-13.672c0-.646.33-.968.98-.968h35.55c.65 0 .97.322.97.968v13.672c0 .656-.32.985-.97.985M2529.22 619.858h-35.54c-.66 0-.99-.323-.99-.969v-13.672c0-.656.33-.984.99-.984h35.54c.65 0 .97.328.97.984v13.672c0 .646-.32.969-.97.969M2331.24 619.858h-35.55c-.66 0-.99-.323-.99-.969v-13.672c0-.656.33-.984.99-.984h35.55c.64 0 .96.328.96.984v13.672c0 .646-.32.969-.96.969M2133.25 619.858h-35.55c-.65 0-.98-.323-.98-.969v-13.672c0-.656.33-.984.98-.984h35.55c.64 0 .97.328.97.984v13.672c0 .646-.33.969-.97.969M1935.26 619.858h-35.55c-.65 0-.98-.323-.98-.969v-13.672c0-.656.33-.984.98-.984h35.55c.65 0 .97.328.97.984v13.672c0 .646-.32.969-.97.969M1612.5 882.358h-35.55c-.65 0-.98-.323-.98-.969v-13.672c0-.656.33-.984.98-.984h35.55c.65 0 .97.328.97.984v13.672c0 .646-.32.969-.97.969M1319.95 882.358h-35.54c-.66 0-.99-.323-.99-.969v-13.672c0-.656.33-.984.99-.984h35.54c.65 0 .97.328.97.984v13.672c0 .646-.32.969-.97.969M1208.66 358.92c0-1.177.66-2.479 1.97-3.906.97-1.042 2.4-2.281 4.3-3.719 1.42-.969 2.82-2.432 4.18-4.391 1.31-1.885 1.96-3.937 1.96-6.156 0-2.604-.85-4.911-2.53-6.922l-3.52-4.203c-.26-.26-.39-.586-.39-.976 0-.391.19-.748.58-1.071.46-.333.85-.5 1.17-.5.46 0 .82.198 1.08.594l15.14 17.969c.64.844.97 1.687.97 2.531 0 1.177-.65 2.479-1.96 3.906-.84.917-2.24 2.157-4.18 3.719-1.5.906-2.94 2.37-4.3 4.391-1.3 1.885-1.95 3.937-1.95 6.156 0 2.739.78 5.052 2.34 6.937l8.39 9.86c.2.198.36.526.48.984 0 .448-.16.839-.48 1.172-.46.323-.85.484-1.17.484-.13 0-.65-.359-1.56-1.078-.98-.781-2.29-1.531-3.91-2.25-1.82-.708-3.61-1.062-5.38-1.062-1.62 0-2.95.453-4 1.359-.9.917-1.35 2.677-1.35 5.281 0 3.969.94 7.094 2.82 9.375.2.261.23.584.1.969-.13.261-.36.391-.69.391-.45 0-1.45-1.172-3.02-3.516-1.63-2.469-3.16-5.302-4.59-8.5-1.5-3.385-2.25-6.182-2.25-8.39 0-2.803 1.33-4.204 4-4.204 3.06 0 7.04 1.042 11.92 3.125l-13.19-15.828c-.65-.843-.98-1.687-.98-2.531M1025.52 882.358h-35.549c-.656 0-.984-.323-.984-.969v-13.672c0-.656.328-.984.984-.984h35.549c.64 0 .97.328.97.984v13.672c0 .646-.33.969-.97.969M718.611 882.358h-35.547c-.656 0-.984-.323-.984-.969v-13.672c0-.656.328-.984.984-.984h35.547c.646 0 .969.328.969.984v13.672c0 .646-.323.969-.969.969M619.787 358.92c0-1.177.656-2.479 1.969-3.906.969-1.042 2.401-2.281 4.297-3.719 1.427-.969 2.823-2.432 4.187-4.391 1.302-1.885 1.953-3.937 1.953-6.156 0-2.604-.843-4.911-2.531-6.922l-3.515-4.203a1.322 1.322 0 01-.391-.976c0-.391.193-.748.578-1.071.458-.333.849-.5 1.172-.5.458 0 .818.198 1.078.594l15.141 17.969c.646.844.968 1.687.968 2.531 0 1.177-.651 2.479-1.953 3.906-.843.917-2.239 2.157-4.187 3.719-1.5.906-2.932 2.37-4.297 4.391-1.302 1.885-1.953 3.937-1.953 6.156 0 2.739.781 5.052 2.344 6.937l8.39 9.86c.198.198.36.526.485.984 0 .448-.162.839-.485 1.172-.458.323-.849.484-1.172.484-.125 0-.645-.359-1.562-1.078-.979-.781-2.281-1.531-3.906-2.25-1.823-.708-3.615-1.062-5.375-1.062-1.625 0-2.959.453-4 1.359-.907.917-1.36 2.677-1.36 5.281 0 3.969.943 7.094 2.828 9.375.198.261.23.584.094.969-.125.261-.354.391-.687.391-.448 0-1.454-1.172-3.016-3.516-1.635-2.469-3.167-5.302-4.594-8.5-1.5-3.385-2.25-6.182-2.25-8.39 0-2.803 1.334-4.204 4-4.204 3.063 0 7.037 1.042 11.922 3.125l-13.187-15.828c-.657-.843-.985-1.687-.985-2.531"/><path class="Beam" fill-rule="evenodd" d="M1654.12 384.987l51.92 26.67v13.49l-51.92-26.669v-13.491M1556.77 416.933l51.93-6.667v12.098l-51.93 6.668v-12.099M1004.4 292.324l56.2-6.633v12.083l-56.2 6.634v-12.084"/><path class="NoteDot" d="M2688.47 858.241c-1.11-1.11-1.66-2.446-1.66-4.008 0-1.563.55-2.899 1.66-4.008 1.11-1.109 2.44-1.664 4.01-1.664 1.56 0 2.89.555 4 1.664 1.1 1.109 1.65 2.445 1.65 4.008 0 1.562-.55 2.898-1.65 4.008-1.11 1.109-2.44 1.664-4 1.664-1.57 0-2.9-.555-4.01-1.664M2688.47 908.241c-1.11-1.11-1.66-2.446-1.66-4.008 0-1.563.55-2.899 1.66-4.008 1.11-1.109 2.44-1.664 4.01-1.664 1.56 0 2.89.555 4 1.664 1.1 1.109 1.65 2.445 1.65 4.008 0 1.562-.55 2.898-1.65 4.008-1.11 1.109-2.44 1.664-4 1.664-1.57 0-2.9-.555-4.01-1.664M2692.15 358.24c-1.11-1.109-1.66-2.445-1.66-4.008 0-1.562.55-2.898 1.66-4.007 1.11-1.11 2.45-1.664 4.01-1.664 1.56 0 2.9.554 4 1.664 1.11 1.109 1.66 2.445 1.66 4.007 0 1.563-.55 2.899-1.66 4.008-1.1 1.11-2.44 1.664-4 1.664s-2.9-.554-4.01-1.664M2498.58 783.241c-1.11-1.11-1.66-2.446-1.66-4.008 0-1.563.55-2.899 1.66-4.008 1.11-1.109 2.45-1.664 4.01-1.664 1.56 0 2.89.555 4 1.664 1.1 1.109 1.65 2.445 1.65 4.008 0 1.562-.55 2.898-1.65 4.008-1.11 1.109-2.44 1.664-4 1.664s-2.9-.555-4.01-1.664M2498.58 808.241c-1.11-1.11-1.66-2.446-1.66-4.008 0-1.563.55-2.899 1.66-4.008 1.11-1.109 2.45-1.664 4.01-1.664 1.56 0 2.89.555 4 1.664 1.1 1.109 1.65 2.445 1.65 4.008 0 1.562-.55 2.898-1.65 4.008-1.11 1.109-2.44 1.664-4 1.664s-2.9-.555-4.01-1.664M2498.58 833.241c-1.11-1.11-1.66-2.446-1.66-4.008 0-1.563.55-2.899 1.66-4.008 1.11-1.109 2.45-1.664 4.01-1.664 1.56 0 2.89.555 4 1.664 1.1 1.109 1.65 2.445 1.65 4.008 0 1.562-.55 2.898-1.65 4.008-1.11 1.109-2.44 1.664-4 1.664s-2.9-.555-4.01-1.664M2498.58 858.241c-1.11-1.11-1.66-2.446-1.66-4.008 0-1.563.55-2.899 1.66-4.008 1.11-1.109 2.45-1.664 4.01-1.664 1.56 0 2.89.555 4 1.664 1.1 1.109 1.65 2.445 1.65 4.008 0 1.562-.55 2.898-1.65 4.008-1.11 1.109-2.44 1.664-4 1.664s-2.9-.555-4.01-1.664M2498.58 283.24c-1.11-1.109-1.66-2.445-1.66-4.008 0-1.562.55-2.898 1.66-4.007 1.11-1.11 2.45-1.664 4.01-1.664 1.56 0 2.89.554 4 1.664 1.1 1.109 1.65 2.445 1.65 4.007 0 1.563-.55 2.899-1.65 4.008-1.11 1.11-2.44 1.664-4 1.664s-2.9-.554-4.01-1.664M2300.59 808.241c-1.11-1.11-1.66-2.446-1.66-4.008 0-1.563.55-2.899 1.66-4.008 1.11-1.109 2.45-1.664 4.01-1.664 1.56 0 2.9.555 4 1.664 1.11 1.109 1.66 2.445 1.66 4.008 0 1.562-.55 2.898-1.66 4.008-1.1 1.109-2.44 1.664-4 1.664s-2.9-.555-4.01-1.664M2300.59 833.241c-1.11-1.11-1.66-2.446-1.66-4.008 0-1.563.55-2.899 1.66-4.008 1.11-1.109 2.45-1.664 4.01-1.664 1.56 0 2.9.555 4 1.664 1.11 1.109 1.66 2.445 1.66 4.008 0 1.562-.55 2.898-1.66 4.008-1.1 1.109-2.44 1.664-4 1.664s-2.9-.555-4.01-1.664M2300.59 858.241c-1.11-1.11-1.66-2.446-1.66-4.008 0-1.563.55-2.899 1.66-4.008 1.11-1.109 2.45-1.664 4.01-1.664 1.56 0 2.9.555 4 1.664 1.11 1.109 1.66 2.445 1.66 4.008 0 1.562-.55 2.898-1.66 4.008-1.1 1.109-2.44 1.664-4 1.664s-2.9-.555-4.01-1.664M2300.59 283.24c-1.11-1.109-1.66-2.445-1.66-4.008 0-1.562.55-2.898 1.66-4.007 1.11-1.11 2.45-1.664 4.01-1.664 1.56 0 2.9.554 4 1.664 1.11 1.109 1.66 2.445 1.66 4.007 0 1.563-.55 2.899-1.66 4.008-1.1 1.11-2.44 1.664-4 1.664s-2.9-.554-4.01-1.664M2102.61 783.241c-1.11-1.11-1.67-2.446-1.67-4.008 0-1.563.56-2.899 1.67-4.008 1.11-1.109 2.44-1.664 4-1.664 1.57 0 2.9.555 4 1.664 1.11 1.109 1.66 2.445 1.66 4.008 0 1.562-.55 2.898-1.66 4.008-1.1 1.109-2.43 1.664-4 1.664-1.56 0-2.89-.555-4-1.664M2102.61 808.241c-1.11-1.11-1.67-2.446-1.67-4.008 0-1.563.56-2.899 1.67-4.008 1.11-1.109 2.44-1.664 4-1.664 1.57 0 2.9.555 4 1.664 1.11 1.109 1.66 2.445 1.66 4.008 0 1.562-.55 2.898-1.66 4.008-1.1 1.109-2.43 1.664-4 1.664-1.56 0-2.89-.555-4-1.664M2102.61 833.241c-1.11-1.11-1.67-2.446-1.67-4.008 0-1.563.56-2.899 1.67-4.008 1.11-1.109 2.44-1.664 4-1.664 1.57 0 2.9.555 4 1.664 1.11 1.109 1.66 2.445 1.66 4.008 0 1.562-.55 2.898-1.66 4.008-1.1 1.109-2.43 1.664-4 1.664-1.56 0-2.89-.555-4-1.664M2102.61 858.241c-1.11-1.11-1.67-2.446-1.67-4.008 0-1.563.56-2.899 1.67-4.008 1.11-1.109 2.44-1.664 4-1.664 1.57 0 2.9.555 4 1.664 1.11 1.109 1.66 2.445 1.66 4.008 0 1.562-.55 2.898-1.66 4.008-1.1 1.109-2.43 1.664-4 1.664-1.56 0-2.89-.555-4-1.664M2102.61 283.24c-1.11-1.109-1.67-2.445-1.67-4.008 0-1.562.56-2.898 1.67-4.007 1.11-1.11 2.44-1.664 4-1.664 1.57 0 2.9.554 4 1.664 1.11 1.109 1.66 2.445 1.66 4.007 0 1.563-.55 2.899-1.66 4.008-1.1 1.11-2.43 1.664-4 1.664-1.56 0-2.89-.554-4-1.664M1904.62 808.241c-1.11-1.11-1.66-2.446-1.66-4.008 0-1.563.55-2.899 1.66-4.008 1.11-1.109 2.45-1.664 4.01-1.664 1.56 0 2.89.555 4 1.664 1.1 1.109 1.65 2.445 1.65 4.008 0 1.562-.55 2.898-1.65 4.008-1.11 1.109-2.44 1.664-4 1.664s-2.9-.555-4.01-1.664M1904.62 833.241c-1.11-1.11-1.66-2.446-1.66-4.008 0-1.563.55-2.899 1.66-4.008 1.11-1.109 2.45-1.664 4.01-1.664 1.56 0 2.89.555 4 1.664 1.1 1.109 1.65 2.445 1.65 4.008 0 1.562-.55 2.898-1.65 4.008-1.11 1.109-2.44 1.664-4 1.664s-2.9-.555-4.01-1.664M1904.62 858.241c-1.11-1.11-1.66-2.446-1.66-4.008 0-1.563.55-2.899 1.66-4.008 1.11-1.109 2.45-1.664 4.01-1.664 1.56 0 2.89.555 4 1.664 1.1 1.109 1.65 2.445 1.65 4.008 0 1.562-.55 2.898-1.65 4.008-1.11 1.109-2.44 1.664-4 1.664s-2.9-.555-4.01-1.664M1904.62 283.24c-1.11-1.109-1.66-2.445-1.66-4.008 0-1.562.55-2.898 1.66-4.007 1.11-1.11 2.45-1.664 4.01-1.664 1.56 0 2.89.554 4 1.664 1.1 1.109 1.65 2.445 1.65 4.007 0 1.563-.55 2.899-1.65 4.008-1.11 1.11-2.44 1.664-4 1.664s-2.9-.554-4.01-1.664M1523.13 670.741c-1.11-1.11-1.67-2.446-1.67-4.008 0-1.563.56-2.899 1.67-4.008 1.11-1.109 2.44-1.664 4.01-1.664 1.56 0 2.89.555 4 1.664 1.1 1.109 1.65 2.445 1.65 4.008 0 1.562-.55 2.898-1.65 4.008-1.11 1.109-2.44 1.664-4 1.664-1.57 0-2.9-.555-4.01-1.664M1523.13 695.741c-1.11-1.11-1.67-2.446-1.67-4.008 0-1.563.56-2.899 1.67-4.008 1.11-1.109 2.44-1.664 4.01-1.664 1.56 0 2.89.555 4 1.664 1.1 1.109 1.65 2.445 1.65 4.008 0 1.562-.55 2.898-1.65 4.008-1.11 1.109-2.44 1.664-4 1.664-1.57 0-2.9-.555-4.01-1.664M1523.13 745.741c-1.11-1.11-1.67-2.446-1.67-4.008 0-1.563.56-2.899 1.67-4.008 1.11-1.109 2.44-1.664 4.01-1.664 1.56 0 2.89.555 4 1.664 1.1 1.109 1.65 2.445 1.65 4.008 0 1.562-.55 2.898-1.65 4.008-1.11 1.109-2.44 1.664-4 1.664-1.57 0-2.9-.555-4.01-1.664M1253.48 670.741c-1.1-1.11-1.66-2.446-1.66-4.008 0-1.563.56-2.899 1.66-4.008 1.11-1.109 2.45-1.664 4.01-1.664 1.56 0 2.9.555 4 1.664 1.11 1.109 1.66 2.445 1.66 4.008 0 1.562-.55 2.898-1.66 4.008-1.1 1.109-2.44 1.664-4 1.664s-2.9-.555-4.01-1.664M1253.48 695.741c-1.1-1.11-1.66-2.446-1.66-4.008 0-1.563.56-2.899 1.66-4.008 1.11-1.109 2.45-1.664 4.01-1.664 1.56 0 2.9.555 4 1.664 1.11 1.109 1.66 2.445 1.66 4.008 0 1.562-.55 2.898-1.66 4.008-1.1 1.109-2.44 1.664-4 1.664s-2.9-.555-4.01-1.664M1253.48 745.741c-1.1-1.11-1.66-2.446-1.66-4.008 0-1.563.56-2.899 1.66-4.008 1.11-1.109 2.45-1.664 4.01-1.664 1.56 0 2.9.555 4 1.664 1.11 1.109 1.66 2.445 1.66 4.008 0 1.562-.55 2.898-1.66 4.008-1.1 1.109-2.44 1.664-4 1.664s-2.9-.555-4.01-1.664M934.255 645.74c-1.109-1.109-1.664-2.445-1.664-4.007 0-1.563.555-2.899 1.664-4.008 1.109-1.11 2.445-1.664 4.008-1.664 1.562 0 2.896.554 4 1.664 1.104 1.109 1.656 2.445 1.656 4.008 0 1.562-.552 2.898-1.656 4.007-1.104 1.11-2.438 1.665-4 1.665-1.563 0-2.899-.555-4.008-1.665M934.255 670.741c-1.109-1.11-1.664-2.446-1.664-4.008 0-1.563.555-2.899 1.664-4.008s2.445-1.664 4.008-1.664c1.562 0 2.896.555 4 1.664s1.656 2.445 1.656 4.008c0 1.562-.552 2.898-1.656 4.008-1.104 1.109-2.438 1.664-4 1.664-1.563 0-2.899-.555-4.008-1.664M934.255 695.741c-1.109-1.11-1.664-2.446-1.664-4.008 0-1.563.555-2.899 1.664-4.008s2.445-1.664 4.008-1.664c1.562 0 2.896.555 4 1.664s1.656 2.445 1.656 4.008c0 1.562-.552 2.898-1.656 4.008-1.104 1.109-2.438 1.664-4 1.664-1.563 0-2.899-.555-4.008-1.664M664.611 645.74c-1.109-1.109-1.664-2.445-1.664-4.007 0-1.563.555-2.899 1.664-4.008 1.11-1.11 2.446-1.664 4.008-1.664 1.563 0 2.896.554 4 1.664 1.104 1.109 1.657 2.445 1.657 4.008 0 1.562-.553 2.898-1.657 4.007-1.104 1.11-2.437 1.665-4 1.665-1.562 0-2.898-.555-4.008-1.665M664.611 670.741c-1.109-1.11-1.664-2.446-1.664-4.008 0-1.563.555-2.899 1.664-4.008 1.11-1.109 2.446-1.664 4.008-1.664 1.563 0 2.896.555 4 1.664s1.657 2.445 1.657 4.008c0 1.562-.553 2.898-1.657 4.008-1.104 1.109-2.437 1.664-4 1.664-1.562 0-2.898-.555-4.008-1.664M664.611 695.741c-1.109-1.11-1.664-2.446-1.664-4.008 0-1.563.555-2.899 1.664-4.008 1.11-1.109 2.446-1.664 4.008-1.664 1.563 0 2.896.555 4 1.664s1.657 2.445 1.657 4.008c0 1.562-.553 2.898-1.657 4.008-1.104 1.109-2.437 1.664-4 1.664-1.562 0-2.898-.555-4.008-1.664"/><path class="Page" d="M160.594 3916.9v2.41h-4.078v6.67h-3.078v-6.67h-11.235v-2.41l12.547-17.8h1.766v17.8h4.078m-7.203 0v-13.72l-9.594 13.72h9.594"/><path class="Bracket" fill-rule="evenodd" d="M383.525 708.201c0-29.204-20.114-57.592-20.114-85.57 0-14.092 5.486-27.775 22.4-40.029.229-.153.343-.408.343-.561 0-.46-1.257-.868-2.172-.868-.457 0-1.257.051-1.828.408-21.943 15.726-29.257 33.902-29.257 52.282 0 29.613 21.485 58.204 21.485 86.592 0 14.091-5.485 27.366-22.4 39.619v.817c16.915 12.254 22.4 25.528 22.4 39.62 0 28.387-21.485 56.979-21.485 86.592 0 18.38 7.314 36.556 29.257 52.281.571.358 1.371.409 1.828.409.915 0 2.172-.409 2.172-.868 0-.153-.114-.409-.343-.562-16.914-12.253-22.4-25.936-22.4-40.028 0-27.979 20.114-56.366 20.114-85.571 0-18.584-7.314-36.352-28.8-52.281 21.486-15.93 28.8-33.697 28.8-52.282"/></svg>
