<svg width="3060" height="3960" xmlns="http://www.w3.org/2000/svg" version="1.2" baseProfile="tiny"><path fill="#fff" fill-rule="evenodd" d="M0 0h3060v3960H0V0"/><path class="StaffLines" fill="none" stroke="#000" stroke-width="2.73" stroke-linejoin="bevel" d="M544.838 386.199H2763.78M544.838 410.999H2763.78M544.838 435.799H2763.78M544.838 460.599H2763.78M544.838 485.399H2763.78M544.838 764.579H2763.78M544.838 789.379H2763.78M544.838 814.179H2763.78M544.838 838.979H2763.78M544.838 863.779H2763.78M544.838 1142.96H2763.78M544.838 1167.76H2763.78M544.838 1192.56H2763.78M544.838 1217.36H2763.78M544.838 1242.16H2763.78M544.838 1521.34H2763.78M544.838 1546.14H2763.78M544.838 1570.94H2763.78M544.838 1595.74H2763.78M544.838 1620.54H2763.78M544.838 1899.72H2763.78M544.838 1924.52H2763.78M544.838 1949.32H2763.78M544.838 1974.12H2763.78M544.838 1998.92H2763.78M544.838 2278.1H2763.78M544.838 2302.9H2763.78M544.838 2327.7H2763.78M544.838 2352.5H2763.78M544.838 2377.3H2763.78M544.838 2656.48H2763.78M544.838 2681.28H2763.78M544.838 2706.08H2763.78M544.838 2730.88H2763.78M544.838 2755.68H2763.78M544.838 3062.78H2763.78M544.838 3087.58H2763.78M544.838 3112.38H2763.78M544.838 3137.18H2763.78M544.838 3161.98H2763.78M544.838 3323.18H2763.78M544.838 3347.98H2763.78M544.838 3372.78H2763.78M544.838 3397.58H2763.78M544.838 3422.38H2763.78"/><path class="MeasureNumber" d="M550.151 323.208c.687-3.531 1.484-5.719 3-8.406 1.812-3.157 3.969-4.766 6.359-4.766 1.25 0 2 .484 2 1.25 0 .281-.078.438-.359.953-.359.688-.516 1.156-.516 1.766 0 1.281.953 2.156 2.313 2.156 1.64 0 2.765-1.203 2.765-3 0-2.719-2.562-4.719-6.125-4.719-3.75 0-7.109 2-9.828 5.844-2.797 3.953-4.484 9.031-4.484 13.469 0 5.89 2.922 9.437 7.797 9.437 3 0 5.687-1.187 7.609-3.312 1.75-2 2.828-4.875 2.828-7.516 0-4.078-2.75-6.922-6.75-6.922-2.797 0-4.968 1.203-6.609 3.766m5.328-1.453c2.484 0 3.844 1.719 3.844 4.844 0 5.078-2.688 8.953-6.25 8.953-2.563 0-4.078-1.875-4.078-5.078 0-5 2.765-8.719 6.484-8.719m33.031-13.313c-2.125.235-4.718.407-6.953.407-1.125 0-2.406-.047-3.844-.125-1.328-.079-2.64-.157-4-.235l-1-.047-3.875 8.438 1.469.484.969-1.609c1.875-3.11 2.75-3.547 6.828-3.516h6.766l-4.36 6.25c-5.125 7.188-5.125 7.188-7.078 10.391-1.765 2.844-2.484 4.594-2.484 6.031 0 1.406.89 2.281 2.281 2.281 1.484 0 2.234-.718 2.766-2.593 2-7.516 3.203-10.125 8.75-19.11l3.765-5.844v-1.203"/><path class="InstrumentName" d="M394.005 3244.03h5.64c4.5 0 6.86-.36 8.907-1.3 3.5-1.7 5.5-4.9 5.5-8.86 0-3.79-1.75-6.7-5.047-8.34-1.953-1-5.063-1.56-8.5-1.56h-17.5v2.36h.89c2.86.04 3.797.2 4.203.7.297.44.297.55.297 3.09v23.8c0 2.56 0 2.66-.297 3.11-.406.5-1.343.7-4.203.7h-.89v2.35h16.797v-2.35h-1.297c-2.86 0-3.813-.2-4.203-.7-.297-.45-.297-.55-.297-3.11v-9.89m0-2.36v-12.8c0-2.29.25-2.54 3.047-2.54h3.203c5.187 0 7.64 2.45 7.64 7.75 0 5.15-2.547 7.59-7.843 7.59h-6.047m30.937-4.89l-8.656.55v2.15h1.812c1.891.05 2.141.35 2.141 2.5V3256.28c-.047.75-.094 1.05-.297 1.3-.344.45-1.297.65-3.453.7h-.203v1.8h12.656v-1.8h-.203c-3.344-.11-3.797-.36-3.797-2.16V3248.73c0-2.45.344-4.7.906-5.86 1.047-2.25 3.297-3.79 5.438-3.79 1.312 0 2.812.7 3.562 1.75.75 1.09 1.094 2.59 1.094 5v10.45c-.047.75-.094 1.05-.297 1.3-.359.45-1.359.65-3.5.7h-.203v1.8h12.656v-1.8h-.203c-3.297-.11-3.75-.36-3.75-2.16v-10.04c0-3.6-.156-4.5-1.047-6.21-1.25-2.39-3.75-3.84-6.75-3.84-3.25 0-5.703 1.5-7.906 4.8v-4.05m33.141-.75c-6.141 0-10.891 5.45-10.891 12.45 0 6.85 4.797 12.35 10.797 12.35 6 0 10.797-5.5 10.797-12.41 0-6.84-4.797-12.39-10.703-12.39m0 2.14c3.5 0 5.453 3.66 5.453 10.25 0 6.66-1.953 10.25-5.547 10.25-3.594 0-5.547-3.59-5.547-10.19 0-6.81 1.891-10.31 5.641-10.31m18.531 16.36c-1.75 0-3.141 1.39-3.141 3.09 0 1.75 1.391 3.16 3.094 3.16a3.15 3.15 0 003.156-3.16c0-1.7-1.406-3.09-3.109-3.09M413.255 2687.47h-29.953l-.75 13.9h2.14c.36-2.5.75-4.4 1.36-6 1.296-3.7 3.703-5.54 7.093-5.54 1.657 0 2.36.54 2.36 1.79v25.8c0 2.56 0 2.66-.313 3.11-.39.5-1.344.7-4.187.7h-1.313v2.35h17.156v-2.35h-1.296c-2.797 0-3.75-.2-4.157-.7-.297-.45-.297-.55-.297-3.11v-25.8c0-1.25.704-1.79 2.344-1.79 3.063 0 5.516 1.7 6.766 4.7.75 1.84 1.25 4 1.64 6.84h2.157l-.75-13.9m10.687-.75l-8.594.56v2.14h1.75c1.891.05 2.141.36 2.141 2.5v19.45c0 6.96-.297 10.75-.891 12.91h1.891l2.453-3.91c2.047 2.71 4.406 3.96 7.5 3.96 6.203 0 10.75-5.3 10.75-12.55 0-7.2-4.203-12.25-10.203-12.25-3.047 0-4.891 1.05-6.797 3.89v-16.7m5.906 15.36c3.75 0 5.844 3.65 5.844 10.2 0 6.34-2.047 9.89-5.703 9.89-3.953 0-6.297-3.64-6.297-9.8 0-6.7 2.156-10.29 6.156-10.29m35.485 5.4c0-3.15-.547-4.75-2-5.95-1.641-1.36-4.094-2-7.297-2-5.641 0-9.75 2.64-9.75 6.3 0 1.84 1.156 3.04 2.906 3.04 1.594 0 2.703-1.04 2.703-2.54 0-.66-.25-1.35-.75-2.05-.312-.36-.359-.45-.359-.7 0-1 2-1.91 4.406-1.91 1.594 0 3.344.5 4.141 1.25.953.81 1.312 2 1.312 4.25v1.95c-5.203.91-6.859 1.3-9.312 2.25-4.344 1.61-6.391 3.91-6.391 7.11 0 3.6 2.797 5.85 7.25 5.85 3.453 0 6.547-1.41 8.703-3.96.797 2.55 2.047 3.55 4.391 3.55 2.25 0 4.609-1.44 4.609-2.89 0-.36-.203-.61-.5-.61-.203 0-.406.06-.75.2-.703.3-1 .36-1.406.36-1.406 0-1.906-.9-1.906-3.45v-10.05m-4.688 6.1c0 3-.156 3.7-1 5-1.25 1.84-3.5 3.09-5.703 3.09-2.297 0-3.953-1.64-3.953-3.89 0-2.11 1.047-3.61 3.25-4.66 1.547-.7 3.5-1.2 7.406-1.84v2.3m16.532 4.45c-1.75 0-3.141 1.39-3.141 3.09 0 1.75 1.391 3.16 3.094 3.16a3.15 3.15 0 003.156-3.16c0-1.7-1.406-3.09-3.109-3.09M367.255 2309.09h-29.953l-.75 13.9h2.14c.36-2.5.75-4.4 1.36-6 1.296-3.7 3.703-5.54 7.093-5.54 1.657 0 2.36.54 2.36 1.79v25.8c0 2.56 0 2.66-.313 3.11-.39.5-1.344.7-4.187.7h-1.313v2.35h17.156v-2.35h-1.296c-2.797 0-3.75-.2-4.157-.7-.297-.45-.297-.55-.297-3.11v-25.8c0-1.25.704-1.79 2.344-1.79 3.063 0 5.516 1.7 6.766 4.7.75 1.84 1.25 4 1.64 6.84h2.157l-.75-13.9m10.687-.75l-8.594.56v2.14h1.75c1.891.05 2.141.36 2.141 2.5v19.45c0 6.96-.297 10.75-.891 12.91h1.891l2.453-3.91c2.047 2.71 4.406 3.96 7.5 3.96 6.203 0 10.75-5.3 10.75-12.55 0-7.2-4.203-12.25-10.203-12.25-3.047 0-4.891 1.05-6.797 3.89v-16.7m5.906 15.36c3.75 0 5.844 3.65 5.844 10.2 0 6.34-2.047 9.89-5.703 9.89-3.953 0-6.297-3.64-6.297-9.8 0-6.7 2.156-10.29 6.156-10.29m22.891-1.8l-8.656.55v2.15h1.812c1.891.05 2.141.35 2.141 2.5V2341.4c-.047.75-.094 1.05-.297 1.3-.344.45-1.297.65-3.453.7h-.203v1.8h12.656v-1.8h-.203c-3.344-.11-3.797-.36-3.797-2.16V2333.85c0-2.45.344-4.7.906-5.86 1.047-2.25 3.297-3.79 5.438-3.79 1.312 0 2.812.7 3.562 1.75.75 1.09 1.094 2.59 1.094 5v10.45c-.047.75-.094 1.05-.297 1.3-.359.45-1.359.65-3.5.7h-.203v1.8h12.656v-1.8h-.203c-3.297-.11-3.75-.36-3.75-2.16v-10.04c0-3.6-.156-4.5-1.047-6.21-1.25-2.39-3.75-3.84-6.75-3.84-3.25 0-5.703 1.5-7.906 4.8v-4.05m27.391 17.75c-1.75 0-3.141 1.39-3.141 3.09 0 1.75 1.391 3.16 3.094 3.16a3.15 3.15 0 003.156-3.16c0-1.7-1.406-3.09-3.109-3.09m38.234-12.86c4.547-1.64 6.656-4.19 6.656-8.2 0-5.25-4-8.6-10.203-8.6-5.844 0-10.297 3.46-10.297 8 0 2.05 1.344 3.5 3.297 3.5 1.75 0 2.953-1.2 2.953-3 0-1.09-.406-1.75-1.547-2.54-.5-.36-.656-.55-.656-.91 0-1.39 2.906-2.89 5.75-2.89 3.594 0 5.5 2.25 5.5 6.5 0 4.64-1.906 7.09-5.453 7.09-.453 0-1.297-.04-2.047-.09-.406-.05-.797-.05-1.094-.05-1.062 0-1.609.44-1.609 1.35 0 .84.5 1.25 1.609 1.25.297 0 .688 0 1.141-.05 1-.05 1.797-.05 2.359-.05 3.688 0 5.688 2.64 5.688 7.6 0 5.2-2.5 8.09-7 8.09-3.141 0-6.547-1.69-6.547-3.25 0-.44.109-.55 1.047-1.09 1.406-.85 1.953-1.71 1.953-2.96 0-1.79-1.344-3.14-3.141-3.14-2.156 0-3.562 1.75-3.562 4.39 0 4.86 4.453 8.21 10.859 8.21 7.25 0 11.953-4 11.953-10.16 0-4.69-2.406-7.55-7.609-9M366.255 1930.71h-29.953l-.75 13.91h2.14c.36-2.5.75-4.41 1.36-6 1.296-3.71 3.703-5.55 7.093-5.55 1.657 0 2.36.55 2.36 1.8v25.79c0 2.56 0 2.66-.313 3.11-.39.5-1.344.7-4.187.7h-1.313v2.35h17.156v-2.35h-1.296c-2.797 0-3.75-.2-4.157-.7-.297-.45-.297-.55-.297-3.11v-25.79c0-1.25.704-1.8 2.344-1.8 3.063 0 5.516 1.7 6.766 4.7.75 1.85 1.25 4 1.64 6.85h2.157l-.75-13.91m10.687-.75l-8.594.56v2.14h1.75c1.891.05 2.141.36 2.141 2.5v19.46c0 6.95-.297 10.75-.891 12.9h1.891l2.453-3.9c2.047 2.7 4.406 3.95 7.5 3.95 6.203 0 10.75-5.3 10.75-12.55 0-7.2-4.203-12.25-10.203-12.25-3.047 0-4.891 1.05-6.797 3.89v-16.7m5.906 15.36c3.75 0 5.844 3.65 5.844 10.2 0 6.35-2.047 9.89-5.703 9.89-3.953 0-6.297-3.64-6.297-9.79 0-6.71 2.156-10.3 6.156-10.3m22.891-1.8l-8.656.55v2.15h1.812c1.891.05 2.141.35 2.141 2.5V1963.02c-.047.75-.094 1.05-.297 1.3-.344.45-1.297.65-3.453.7h-.203v1.8h12.656v-1.8h-.203c-3.344-.11-3.797-.36-3.797-2.15v-7.4c0-2.45.344-4.7.906-5.85 1.047-2.25 3.297-3.8 5.438-3.8 1.312 0 2.812.7 3.562 1.75.75 1.09 1.094 2.59 1.094 5v10.45c-.047.75-.094 1.05-.297 1.3-.359.45-1.359.65-3.5.7h-.203v1.8h12.656v-1.8h-.203c-3.297-.11-3.75-.36-3.75-2.15v-10.05c0-3.6-.156-4.5-1.047-6.2-1.25-2.4-3.75-3.85-6.75-3.85-3.25 0-5.703 1.5-7.906 4.8v-4.05m27.391 17.75c-1.75 0-3.141 1.39-3.141 3.1 0 1.75 1.391 3.15 3.094 3.15 1.75 0 3.156-1.4 3.156-3.15 0-1.71-1.406-3.1-3.109-3.1m46.187-5.25h-2.203l-.5 2.55c-.641 3.25-1.047 3.55-4.141 3.55H461.27c3.453-3.6 4.594-4.65 7.797-7.15 4.547-3.5 6.5-5.25 7.656-6.75 1.594-2.2 2.391-4.4 2.391-6.85 0-5.71-4.703-9.75-11.25-9.75-6.344 0-11.203 4.04-11.203 9.4 0 3.14 1.609 5.3 3.953 5.3 1.859 0 3.109-1.25 3.109-3.05 0-1.25-.703-2.4-1.75-2.86-1.859-.75-1.953-.84-1.953-1.5 0-.75.5-1.89 1.203-2.75 1.25-1.54 3.297-2.39 5.641-2.39 4.156 0 6.609 2.55 6.609 6.75 0 3.7-1.75 7.05-5.906 11.45-3.703 3.9-6 6.35-6.844 7.3-1.812 2.1-2.703 3.25-4.906 6.14v1.41h22.547l.953-10.8M367.255 1552.33h-29.953l-.75 13.91h2.14c.36-2.5.75-4.41 1.36-6 1.296-3.71 3.703-5.55 7.093-5.55 1.657 0 2.36.55 2.36 1.8v25.79c0 2.56 0 2.66-.313 3.11-.39.5-1.344.7-4.187.7h-1.313v2.35h17.156v-2.35h-1.296c-2.797 0-3.75-.2-4.157-.7-.297-.45-.297-.55-.297-3.11v-25.79c0-1.25.704-1.8 2.344-1.8 3.063 0 5.516 1.7 6.766 4.7.75 1.85 1.25 4 1.64 6.85h2.157l-.75-13.91m10.687-.75l-8.594.56v2.14h1.75c1.891.05 2.141.36 2.141 2.5v19.46c0 6.95-.297 10.75-.891 12.9h1.891l2.453-3.9c2.047 2.7 4.406 3.95 7.5 3.95 6.203 0 10.75-5.3 10.75-12.55 0-7.2-4.203-12.25-10.203-12.25-3.047 0-4.891 1.05-6.797 3.89v-16.7m5.906 15.36c3.75 0 5.844 3.65 5.844 10.2 0 6.35-2.047 9.89-5.703 9.89-3.953 0-6.297-3.64-6.297-9.79 0-6.71 2.156-10.3 6.156-10.3m22.891-1.8l-8.656.55v2.15h1.812c1.891.05 2.141.35 2.141 2.5V1584.64c-.047.75-.094 1.05-.297 1.3-.344.45-1.297.65-3.453.7h-.203v1.8h12.656v-1.8h-.203c-3.344-.11-3.797-.36-3.797-2.15v-7.4c0-2.45.344-4.7.906-5.85 1.047-2.25 3.297-3.8 5.438-3.8 1.312 0 2.812.7 3.562 1.75.75 1.09 1.094 2.59 1.094 5v10.45c-.047.75-.094 1.05-.297 1.3-.359.45-1.359.65-3.5.7h-.203v1.8h12.656v-1.8h-.203c-3.297-.11-3.75-.36-3.75-2.15v-10.05c0-3.6-.156-4.5-1.047-6.2-1.25-2.4-3.75-3.85-6.75-3.85-3.25 0-5.703 1.5-7.906 4.8v-4.05m27.391 17.75c-1.75 0-3.141 1.39-3.141 3.1 0 1.75 1.391 3.15 3.094 3.15 1.75 0 3.156-1.4 3.156-3.15 0-1.71-1.406-3.1-3.109-3.1m37.031-29.65c-1.688 2.04-6.297 3.59-10.891 3.7v2.14h4.391c2.906.06 3.203.36 3.109 3.16v20.04c0 2.56 0 2.66-.297 3.11-.406.5-1.359.7-4.156.7h-3.25v2.35h19.797v-2.35h-2.75c-2.797 0-3.75-.2-4.141-.7-.359-.45-.359-.5-.359-3.11v-20.64c0-2.81.109-5.15.359-8.4h-1.812M304.255 1173.95h-29.953l-.75 13.91h2.14c.36-2.5.75-4.41 1.36-6 1.296-3.71 3.703-5.55 7.093-5.55 1.657 0 2.36.55 2.36 1.8v25.79c0 2.56 0 2.66-.313 3.11-.39.5-1.344.7-4.187.7h-1.313v2.35h17.156v-2.35h-1.296c-2.797 0-3.75-.2-4.157-.7-.297-.45-.297-.55-.297-3.11v-25.79c0-1.25.704-1.8 2.344-1.8 3.063 0 5.516 1.7 6.766 4.7.75 1.85 1.25 4 1.64 6.85h2.157l-.75-13.91m10.687-.75l-8.594.56v2.14h1.75c1.891.05 2.141.36 2.141 2.5v19.46c0 6.95-.297 10.75-.891 12.9h1.891l2.453-3.9c2.047 2.7 4.406 3.95 7.5 3.95 6.203 0 10.75-5.3 10.75-12.55 0-7.2-4.203-12.25-10.203-12.25-3.047 0-4.891 1.05-6.797 3.89v-16.7m5.906 15.36c3.75 0 5.844 3.65 5.844 10.2 0 6.35-2.047 9.89-5.703 9.89-3.953 0-6.297-3.64-6.297-9.79 0-6.71 2.156-10.3 6.156-10.3m22.891-1.8l-8.656.55v2.15h1.812c1.891.05 2.141.35 2.141 2.5V1206.26c-.047.75-.094 1.05-.297 1.3-.344.45-1.297.65-3.453.7h-.203v1.8h12.656v-1.8h-.203c-3.344-.11-3.797-.36-3.797-2.15v-7.4c0-2.45.344-4.7.906-5.85 1.047-2.25 3.297-3.8 5.438-3.8 1.312 0 2.812.7 3.562 1.75.75 1.09 1.094 2.59 1.094 5v10.45c-.047.75-.094 1.05-.297 1.3-.359.45-1.359.65-3.5.7h-.203v1.8h12.656v-1.8h-.203c-3.297-.11-3.75-.36-3.75-2.15v-10.05c0-3.6-.156-4.5-1.047-6.2-1.25-2.4-3.75-3.85-6.75-3.85-3.25 0-5.703 1.5-7.906 4.8v-4.05m27.391 17.75c-1.75 0-3.141 1.39-3.141 3.1 0 1.75 1.391 3.15 3.094 3.15 1.75 0 3.156-1.4 3.156-3.15 0-1.71-1.406-3.1-3.109-3.1m40.437-18.3h-1.75l-1.453 1.8c-1.797-1.4-3.594-2-6.094-2-4.406 0-7.297 2.85-7.297 7.25 0 1.95.641 3.6 1.75 4.6 1.141 1.04 2.297 1.54 5.297 2.25l2.641.6c3.953.94 5.359 1.94 5.359 3.94 0 2.36-2.047 4-4.953 4-4.25 0-7.25-2.69-8.453-7.69h-2v9.44h1.75l1.75-2.04c2.047 1.65 4.297 2.45 6.859 2.45 4.891 0 8.141-3.05 8.141-7.7 0-2.21-.703-3.9-2.094-5.05-1.203-1.05-2.203-1.45-5.25-2.1l-2.5-.56c-2.75-.59-2.75-.59-3.656-1.09-1.094-.5-1.75-1.55-1.75-2.66 0-2.04 1.906-3.44 4.656-3.44 1.891 0 3.453.65 4.844 2 1.109 1.1 1.656 2.1 2.453 4.4h1.75v-8.4m16.235-.2c-6.141 0-10.891 5.45-10.891 12.45 0 6.85 4.797 12.35 10.797 12.35 6 0 10.797-5.5 10.797-12.41 0-6.84-4.797-12.39-10.703-12.39m0 2.14c3.5 0 5.453 3.66 5.453 10.25 0 6.66-1.953 10.25-5.547 10.25-3.594 0-5.547-3.59-5.547-10.19 0-6.81 1.891-10.31 5.641-10.31m22.593-14.95l-9.25.56v2.14h2.453c1.844.05 2.094.36 2.094 2.5v27.86c-.047.75-.094 1.05-.297 1.3-.359.45-1.297.65-3.453.7h-.344v1.8h12.938v-1.8h-.344c-3.344-.11-3.797-.36-3.797-2.15v-32.91m18.125 12.81c-6.14 0-10.89 5.45-10.89 12.45 0 6.85 4.797 12.35 10.797 12.35 6 0 10.796-5.5 10.796-12.41 0-6.84-4.796-12.39-10.703-12.39m0 2.14c3.5 0 5.453 3.66 5.453 10.25 0 6.66-1.953 10.25-5.546 10.25-3.594 0-5.547-3.59-5.547-10.19 0-6.81 1.89-10.31 5.64-10.31M271.098 796.069v2.36h.907c2.843.046 3.797.203 4.187.703.313.437.313.547.313 3.093v23.797c0 2.563 0 2.657-.313 3.11-.39.5-1.344.703-4.187.703h-.907v2.344h18.157c8.64 0 13.843-3.657 13.843-9.797 0-5-3.14-7.86-10-9.047 2.407-.5 3.5-.953 4.797-1.906 2.063-1.547 3.313-4 3.313-6.5 0-3.25-2-6.407-4.906-7.657-1.797-.797-4.297-1.203-7.25-1.203h-17.954m11 16.266v-11.406c0-1.954.657-2.454 3.297-2.5h2c2.297 0 4.203.39 5.25 1.046 1.797 1.094 2.75 3.204 2.75 6 0 4.954-2.39 6.86-8.843 6.86h-4.454m0 2.344h4.407c7.64 0 10.453 2.046 10.453 7.546 0 3.204-1.11 5.5-3.063 6.454-1.547.796-3.64 1.156-6.797 1.156h-2.093c-2.5 0-3-.5-2.907-3.156v-12m46.188 1.406c0-3.156-.547-4.75-2-5.953-1.641-1.36-4.094-2-7.297-2-5.641 0-9.75 2.64-9.75 6.297 0 1.843 1.156 3.046 2.906 3.046 1.594 0 2.703-1.046 2.703-2.546 0-.657-.25-1.344-.75-2.047-.312-.36-.359-.453-.359-.703 0-1 2-1.907 4.406-1.907 1.594 0 3.344.5 4.141 1.25.953.813 1.312 2 1.312 4.25v1.953c-5.203.907-6.859 1.297-9.312 2.25-4.344 1.61-6.391 3.907-6.391 7.11 0 3.594 2.797 5.844 7.25 5.844 3.453 0 6.547-1.407 8.703-3.954.797 2.547 2.047 3.547 4.391 3.547 2.25 0 4.609-1.437 4.609-2.89 0-.36-.203-.61-.5-.61-.203 0-.406.063-.75.203-.703.297-1 .36-1.406.36-1.406 0-1.906-.906-1.906-3.453v-10.047m-4.688 6.094c0 3-.156 3.703-1 5-1.25 1.843-3.5 3.093-5.703 3.093-2.297 0-3.953-1.64-3.953-3.89 0-2.11 1.047-3.61 3.25-4.657 1.547-.703 3.5-1.203 7.406-1.843v2.297m19.797-13.297l-8.859.547v2.156h2.047c1.906.047 2.156.344 2.156 2.5V828.382c-.047.75-.094 1.047-.297 1.297-.359.453-1.359.656-3.5.703h-.203v1.797h13.344v-1.797h-.891c-3.359-.11-3.797-.36-3.797-2.157v-2.703c.047-8.39 3.047-14.797 6.938-15-.688.813-.891 1.313-.891 2.25 0 1.61 1.141 2.75 2.75 2.75 1.844 0 3.047-1.343 3.047-3.343 0-2.454-1.703-4.047-4.344-4.047-3.156 0-5.859 2.5-7.5 6.953v-6.203m15.422 17.75c-1.75 0-3.14 1.39-3.14 3.093 0 1.75 1.39 3.157 3.093 3.157a3.149 3.149 0 003.157-3.157c0-1.703-1.407-3.093-3.11-3.093m48.235-30.86h-1.844l-2 3c-2.406-2.25-5.547-3.453-9.11-3.453-6.593 0-10.937 4.156-10.937 10.453 0 5.453 2.687 8.157 10.047 10.063l4.75 1.187c3.703.953 4.047 1.063 5.094 1.86 1.5 1.14 2.312 2.797 2.312 4.75 0 2-.766 3.64-2.266 5.047-1.64 1.406-3.296 1.953-6.046 1.953-3.704 0-6.344-1.157-8.704-3.75-2.093-2.297-3.14-4.703-3.89-8.547h-2.156l.203 14.25h1.953l2.25-3.406c3.344 2.75 6.094 3.75 10.5 3.75 7.344 0 12.047-4.297 12.047-11 0-3.157-1-5.75-3-7.657-1.344-1.297-3.297-2.14-7.297-3.14l-5.36-1.36c-4.437-1.14-6.546-3.093-6.546-6.14 0-3.5 2.859-5.907 7.109-5.907 3.5 0 6.344 1.5 8.344 4.344 1.453 2.063 2.406 4.156 3 6.703h2.156l-.609-13m26.687 20.313c0-3.156-.547-4.75-2-5.953-1.641-1.36-4.094-2-7.297-2-5.64 0-9.75 2.64-9.75 6.297 0 1.843 1.156 3.046 2.906 3.046 1.594 0 2.704-1.046 2.704-2.546 0-.657-.25-1.344-.75-2.047-.313-.36-.36-.453-.36-.703 0-1 2-1.907 4.406-1.907 1.594 0 3.344.5 4.141 1.25.953.813 1.313 2 1.313 4.25v1.953c-5.204.907-6.86 1.297-9.313 2.25-4.344 1.61-6.391 3.907-6.391 7.11 0 3.594 2.797 5.844 7.25 5.844 3.454 0 6.547-1.407 8.704-3.954.796 2.547 2.046 3.547 4.39 3.547 2.25 0 4.61-1.437 4.61-2.89 0-.36-.204-.61-.5-.61-.204 0-.407.063-.75.203-.704.297-1 .36-1.407.36-1.406 0-1.906-.906-1.906-3.453v-10.047m-4.687 6.094c0 3-.157 3.703-1 5-1.25 1.843-3.5 3.093-5.704 3.093-2.296 0-3.953-1.64-3.953-3.89 0-2.11 1.047-3.61 3.25-4.657 1.547-.703 3.5-1.203 7.407-1.843v2.297m26.39-2.75l5.703-6.657c1.25-1.437 2.391-2.093 3.75-2.093h.438v-1.797h-10.344v1.797h.953c1.5 0 2.25.343 2.25 1.093 0 .5-.359 1.203-1 2l-3.156 3.813-3.844-4.906c-.297-.407-.5-.797-.5-1.094 0-.656.641-.906 2.203-.906h.688v-1.797h-11.844v1.797c1.844.156 2.547.593 4.156 2.703l6.094 7.64-5.75 6.703c-1.703 1.907-3.156 2.704-4.5 2.657h-.297v1.797h10.547v-1.797h-.75c-1.156 0-1.406-.047-1.75-.203-.406-.25-.703-.704-.703-1.157 0-.343.156-.797.406-1.093l4.203-5 3.797 5.046c.344.5.641 1.157.641 1.5 0 .657-.75.907-2.641.907h-.359v1.797h12.609v-1.797h-.344c-1.765 0-2.906-.657-4.359-2.453l-6.297-8.5m18.141 7.203c-1.75 0-3.141 1.39-3.141 3.093 0 1.75 1.391 3.157 3.094 3.157a3.148 3.148 0 003.156-3.157c0-1.703-1.406-3.093-3.109-3.093M232.505 417.002h-2.11l-11.5 29.14c-1.343 3.907-2.64 5.11-5.5 5.313h-.203v2.344h13.25v-2.344h-1c-2.687 0-4.047-.953-4.047-2.859 0-.641.157-1.25.453-2.094l1.657-4.406h13.25l2.703 6.703c.297.797.39 1.093.39 1.343 0 .813-1.25 1.313-3.093 1.313h-2.11v2.344h15.5v-2.344h-.687c-2.61-.063-3.063-.359-4.203-3.203l-12.75-31.25m-2.453 8.187l5.64 14.203h-11.187l5.547-14.203m27.078 23.063c-1.75 0-3.141 1.39-3.141 3.094 0 1.75 1.391 3.156 3.094 3.156a3.147 3.147 0 003.156-3.156c0-1.704-1.406-3.094-3.109-3.094m48.234-30.86h-1.844l-2 3c-2.406-2.25-5.547-3.453-9.109-3.453-6.594 0-10.938 4.157-10.938 10.453 0 5.454 2.688 8.157 10.047 10.063l4.75 1.187c3.703.954 4.047 1.063 5.094 1.86 1.5 1.14 2.313 2.797 2.313 4.75 0 2-.766 3.64-2.266 5.047-1.641 1.406-3.297 1.953-6.047 1.953-3.703 0-6.344-1.156-8.703-3.75-2.094-2.297-3.141-4.703-3.891-8.547h-2.156l.203 14.25h1.953l2.25-3.406c3.344 2.75 6.094 3.75 10.5 3.75 7.344 0 12.047-4.297 12.047-11 0-3.157-1-5.75-3-7.657-1.344-1.296-3.297-2.14-7.297-3.14l-5.359-1.36c-4.438-1.14-6.547-3.093-6.547-6.14 0-3.5 2.859-5.906 7.109-5.906 3.5 0 6.344 1.5 8.344 4.343 1.453 2.063 2.406 4.157 3 6.703h2.156l-.609-13m26.688 20.313c0-3.156-.547-4.75-2-5.953-1.641-1.36-4.094-2-7.297-2-5.641 0-9.75 2.64-9.75 6.297 0 1.843 1.156 3.047 2.906 3.047 1.594 0 2.703-1.047 2.703-2.547 0-.657-.25-1.344-.75-2.047-.312-.36-.359-.453-.359-.703 0-1 2-1.907 4.406-1.907 1.594 0 3.344.5 4.141 1.25.953.813 1.312 2 1.312 4.25v1.954c-5.203.906-6.859 1.296-9.312 2.25-4.344 1.609-6.391 3.906-6.391 7.109 0 3.594 2.797 5.844 7.25 5.844 3.453 0 6.547-1.407 8.703-3.953.797 2.546 2.047 3.546 4.391 3.546 2.25 0 4.609-1.437 4.609-2.89 0-.36-.203-.61-.5-.61-.203 0-.406.063-.75.204-.703.296-1 .359-1.406.359-1.406 0-1.906-.906-1.906-3.453v-10.047m-4.688 6.094c0 3-.156 3.703-1 5-1.25 1.843-3.5 3.093-5.703 3.093-2.297 0-3.953-1.64-3.953-3.89 0-2.11 1.047-3.61 3.25-4.656 1.547-.704 3.5-1.204 7.406-1.844v2.297m26.391-2.75l5.703-6.657c1.25-1.437 2.39-2.093 3.75-2.093h.437v-1.797h-10.343v1.797h.953c1.5 0 2.25.343 2.25 1.093 0 .5-.36 1.204-1 2l-3.157 3.813-3.843-4.906c-.297-.407-.5-.797-.5-1.094 0-.656.64-.906 2.203-.906h.687v-1.797h-11.843v1.797c1.843.156 2.546.593 4.156 2.703l6.094 7.64-5.75 6.704c-1.704 1.906-3.157 2.703-4.5 2.656h-.297v1.797h10.547v-1.797h-.75c-1.157 0-1.407-.047-1.75-.203-.407-.25-.704-.703-.704-1.157 0-.343.157-.796.407-1.093l4.203-5 3.797 5.047c.343.5.64 1.156.64 1.5 0 .656-.75.906-2.64.906h-.36v1.797h12.61v-1.797h-.344c-1.766 0-2.906-.656-4.359-2.453l-6.297-8.5m18.14 7.203c-1.75 0-3.14 1.39-3.14 3.094 0 1.75 1.39 3.156 3.093 3.156a3.148 3.148 0 003.157-3.156c0-1.704-1.407-3.094-3.11-3.094m40.438-18.297h-1.75l-1.453 1.797c-1.797-1.406-3.594-2-6.094-2-4.406 0-7.297 2.844-7.297 7.25 0 1.953.641 3.594 1.75 4.594 1.141 1.046 2.297 1.546 5.297 2.25l2.641.609c3.953.937 5.359 1.937 5.359 3.937 0 2.36-2.047 4-4.953 4-4.25 0-7.25-2.687-8.453-7.687h-2v9.437h1.75l1.75-2.046c2.047 1.656 4.297 2.453 6.859 2.453 4.891 0 8.141-3.047 8.141-7.703 0-2.204-.703-3.891-2.094-5.047-1.203-1.047-2.203-1.453-5.25-2.094l-2.5-.563c-2.75-.593-2.75-.593-3.656-1.093-1.094-.5-1.75-1.547-1.75-2.657 0-2.046 1.906-3.437 4.656-3.437 1.891 0 3.453.641 4.844 2 1.109 1.094 1.656 2.094 2.453 4.391h1.75v-8.391m16.234-.203c-6.14 0-10.89 5.453-10.89 12.453 0 6.844 4.796 12.344 10.796 12.344 6 0 10.797-5.5 10.797-12.407 0-6.843-4.797-12.39-10.703-12.39m0 2.14c3.5 0 5.453 3.657 5.453 10.25 0 6.657-1.953 10.25-5.547 10.25-3.593 0-5.546-3.593-5.546-10.187 0-6.813 1.89-10.313 5.64-10.313m22.594-14.953l-9.25.563v2.14h2.453c1.844.047 2.094.36 2.094 2.5v27.86c-.047.75-.094 1.047-.297 1.297-.359.453-1.297.656-3.453.703h-.344v1.797h12.938v-1.797h-.344c-3.344-.11-3.797-.36-3.797-2.156v-32.907m18.125 12.813c-6.141 0-10.891 5.453-10.891 12.453 0 6.844 4.797 12.344 10.797 12.344 6 0 10.797-5.5 10.797-12.407 0-6.843-4.797-12.39-10.703-12.39m0 2.14c3.5 0 5.453 3.657 5.453 10.25 0 6.657-1.953 10.25-5.547 10.25-3.594 0-5.547-3.593-5.547-10.187 0-6.813 1.891-10.313 5.641-10.313"/><path class="SlurSegment" stroke="#000" stroke-width="1.74" stroke-linecap="round" stroke-linejoin="round" fill-rule="evenodd" d="M746.603 383.719c18.78 14.615 53.449 11.515 69.339-6.2-15.271 24.632-49.941 27.732-69.339 6.2M949.957 383.719c6.959 4.279 24.28.559 28.868-6.2-3.859 10.154-21.18 13.874-28.868 6.2M1862.57 376.279c112.26-82.563 658.42-117.283 780.23-49.6-121.37-60.753-667.53-26.033-780.23 49.6"/><path class="TieSegment" stroke="#000" stroke-width="1.74" stroke-linecap="round" stroke-linejoin="round" fill-rule="evenodd" d="M1170.1 355.199c30.64-26.761 122.57-26.761 153.21 0-30.64-19.817-122.57-19.817-153.21 0"/><path class="BarLine" stroke="#000" stroke-width="4.46" stroke-linejoin="bevel" d="M547.07 3321.81v101.93M2761.55 3321.81v101.93M547.07 3061.41v261.77M2761.55 3061.41v261.77M547.07 2655.11v407.67M2761.55 2655.11v101.93M547.07 2276.73v379.75M2761.55 2276.73v101.93M547.07 1898.35v379.75M2761.55 1898.35v101.93M547.07 1519.97v379.75M2761.55 1519.97v101.93M547.07 1141.59v379.75M2761.55 1141.59v101.93M547.07 763.215v379.745M2761.55 763.215v379.745M547.07 384.835v379.744M2761.55 384.835v101.928"/><path class="StemSlash" stroke="#000" stroke-width="2.73" stroke-linejoin="bevel" d="M776.158 320.479l-31.588 19.84M979.512 320.479l-31.588 19.84"/><path class="Accidental" d="M808.006 3205.83c-.186-.202-.496-.295-.79-.295-.094 0-.295.093-.388.093l-12.508 3.472v-17.36h-2.775v49.104c0 .79.589 1.287 1.395 1.287h.388l12.508-3.472v17.36h2.666v-49.104c0-.388-.186-.884-.496-1.086m-2.17 24.599l-11.516 3.178v-16.276l11.516-3.27v16.368M808.006 3119.03c-.186-.202-.496-.295-.79-.295-.094 0-.295.093-.388.093l-12.508 3.472v-17.36h-2.775v49.104c0 .79.589 1.287 1.395 1.287h.388l12.508-3.472v17.36h2.666v-49.104c0-.388-.186-.884-.496-1.086m-2.17 24.599l-11.516 3.178v-16.276l11.516-3.27v16.368M2361.683 2698.237c-.589-3.86-2.976-7.533-8.029-7.533-4.96 0-7.843 3.069-8.339 3.673l.403-31.852c0-.79-.589-1.38-1.395-1.38h-1.178c-.806 0-1.395.59-1.395 1.38l.496 59.628c0 .791.589 1.38 1.395 1.38.186 0 .589-.093.79-.186.388-.202 6.836-3.379 12.199-9.424 3.767-4.278 5.255-9.13 5.255-13.206 0-.884-.094-1.674-.202-2.48m-6.836 3.875c0 1.488-.402 6.045-2.882 9.827-1.69 2.573-5.053 5.254-6.944 6.742l.294-19.344c.202-.899 1.69-3.766 5.658-3.766 3.58 0 3.874 3.363 3.874 5.456v1.085M2222.603 1476.297c-.589-3.86-2.976-7.533-8.029-7.533-4.96 0-7.843 3.069-8.339 3.673l.403-31.852c0-.79-.589-1.38-1.395-1.38h-1.178c-.806 0-1.395.59-1.395 1.38l.496 59.628c0 .791.589 1.38 1.395 1.38.186 0 .589-.093.79-.186.388-.202 6.836-3.379 12.199-9.424 3.767-4.278 5.255-9.13 5.255-13.206 0-.884-.094-1.674-.202-2.48m-6.836 3.875c0 1.488-.402 6.045-2.882 9.827-1.69 2.573-5.053 5.254-6.944 6.742l.294-19.344c.202-.899 1.69-3.766 5.658-3.766 3.58 0 3.874 3.363 3.874 5.456v1.085M2361.683 806.336c-.589-3.86-2.976-7.533-8.029-7.533-4.96 0-7.843 3.069-8.339 3.673l.403-31.852c0-.79-.589-1.38-1.395-1.38h-1.178c-.806 0-1.395.59-1.395 1.38l.496 59.628c0 .791.589 1.38 1.395 1.38.186 0 .589-.093.79-.186.388-.202 6.836-3.379 12.199-9.424 3.767-4.278 5.255-9.13 5.255-13.206 0-.884-.094-1.674-.202-2.48m-6.836 3.875c0 1.488-.402 6.045-2.882 9.827-1.69 2.573-5.053 5.254-6.944 6.742l.294-19.344c.202-.899 1.69-3.766 5.658-3.766 3.58 0 3.874 3.363 3.874 5.456v1.085M808.3 341.156c-.589-3.86-2.976-7.533-8.029-7.533-4.96 0-7.843 3.069-8.339 3.673l.403-31.852c0-.79-.589-1.38-1.395-1.38h-1.178c-.806 0-1.395.59-1.395 1.38l.496 59.628c0 .791.589 1.38 1.395 1.38.186 0 .589-.093.79-.186.388-.202 6.836-3.379 12.199-9.424 3.767-4.278 5.255-9.13 5.255-13.206 0-.884-.094-1.674-.202-2.48m-6.836 3.875c0 1.488-.402 6.045-2.882 9.827-1.69 2.573-5.053 5.254-6.944 6.742l.294-19.344c.202-.899 1.69-3.766 5.658-3.766 3.58 0 3.874 3.363 3.874 5.456v1.085M2482.52 350.89c.605-.108 1.101-.806 1.101-1.395v-5.86c0-.79-.604-1.379-1.395-1.379h-.201l-3.271.698v-14.787h-2.775v15.376l-8.834 1.783v-13.982h-2.775v14.586l-3.875.79c-.589.094-1.085.791-1.085 1.38v5.952-.186c0 .79.589 1.38 1.395 1.38h.295l3.27-.698v16.368l-3.875.806c-.589.093-1.085.79-1.085 1.38v5.75c0 .806.589 1.395 1.395 1.395h.295l3.27-.697v14.787h2.775V378.96l8.834-1.782v13.981h2.775v-14.585l3.767-.698c.604-.093 1.1-.79 1.1-1.38v-5.858c0-.791-.604-1.38-1.395-1.38h-.201l-3.271.682v-16.368l3.767-.682m-15.376 19.53v-16.461l8.834-1.783v16.369l-8.834 1.875M2613.531 330.848c-.186-.201-.496-.294-.79-.294-.094 0-.295.093-.388.093l-12.508 3.472v-17.36h-2.775v49.104c0 .79.589 1.287 1.395 1.287h.388l12.508-3.472v17.36h2.666v-49.104c0-.388-.186-.884-.496-1.086m-2.17 24.599l-11.516 3.178v-16.276l11.516-3.27v16.368"/><path class="LedgerLine" stroke="#000" stroke-width="3.97" stroke-linejoin="bevel" d="M814.702 3447.18h49.592M1707.36 3447.18h49.6M814.702 3211.58h49.592M814.702 3186.78h49.592M1303.35 3211.58h49.59M1303.35 3186.78h49.59M1707.36 3211.58h49.6M1707.36 3186.78h49.6M2229 3211.58h49.59M2229 3186.78h49.59M1303.35 1496.54h49.59M1544.48 1496.54h49.59M2229 1496.54h49.59M1303.35 1118.16h49.59M1303.35 1093.36h49.59M1303.35 1068.56h49.59M1544.48 1118.16h49.59M1544.48 1093.36h49.59M1544.48 1068.56h49.59M2229 1118.16h49.59M2229 1093.36h49.59M814.702 888.579h49.592M1303.35 888.579h49.59M1544.48 888.579h49.59M814.702 361.399h49.592"/><path class="LedgerLine" stroke="#000" stroke-width="2.78" stroke-linejoin="bevel" d="M726.641 361.399h39.923"/><path class="LedgerLine" stroke="#000" stroke-width="3.97" stroke-linejoin="bevel" d="M977.585 361.399h49.595"/><path class="LedgerLine" stroke="#000" stroke-width="2.78" stroke-linejoin="bevel" d="M929.995 361.399h39.923"/><path class="LedgerLine" stroke="#000" stroke-width="3.97" stroke-linejoin="bevel" d="M2359.41 361.399H2409M2489.82 361.399h49.59M2620.23 361.399h49.59"/><path class="Stem" stroke="#000" stroke-width="2.73" stroke-linejoin="bevel" d="M824.746 3400.91v105.17M1717.41 3400.91v105.17M854.25 3357.2v-71.22M1342.9 3357.2v-71.22M1746.91 3357.2v-71.22M2268.55 3357.2v-71.22M854.25 3220.8v-167.32M1342.9 3220.8v-167.32M1746.91 3220.8v-167.32M2268.55 3220.8v-167.32M824.746 2697.01v77.27M1313.4 2697.01v77.27M1554.53 2697.01v83.47M1717.41 2647.41v83.47M2268.55 2690.5v-77.42M2398.96 2702.9v-81.56M2529.37 2715.3v-85.69M2659.77 2727.7v-89.82M1313.4 2293.83v83.47M1554.53 2293.83v83.47M2239.04 2293.83v83.47M1313.4 1890.65v83.47M1554.53 1890.65v83.47M2239.04 1890.65v83.47M1313.4 1487.47v83.47M1554.53 1487.47v83.47M2239.04 1487.47v83.47M1313.4 1071.89v120.67M1554.53 1071.89v120.67M2239.04 1096.69v95.87M854.25 885.404v-83.625M1342.9 885.404v-83.625M1584.03 885.404v-83.625M1746.91 835.804v-80.526M2268.55 798.604v-77.426M2398.96 811.004v-81.559M2529.37 823.404v-85.692M2659.77 835.804v-89.826M824.746 352.332v77.267"/><path class="Stem" stroke="#000" stroke-width="1.91" stroke-linejoin="bevel" d="M756.929 359.177v-58.538"/><path class="Stem" stroke="#000" stroke-width="2.73" stroke-linejoin="bevel" d="M987.629 352.332v83.467"/><path class="Stem" stroke="#000" stroke-width="1.91" stroke-linejoin="bevel" d="M960.283 359.177v-58.538"/><path class="Stem" stroke="#000" stroke-width="2.73" stroke-linejoin="bevel" d="M1150.51 377.132v64.867M1313.4 377.132v83.467M1847.82 401.932v77.267M1978.23 377.132v102.067M2108.64 401.932v77.267M2239.04 377.132v77.267M2369.45 364.732v81.4M2499.86 364.732v73.133M2630.27 352.332v77.267"/><path class="Note" d="M854.63 3439.104c-1.782-3.27-5.549-5.053-10.121-5.053-3.364 0-7.038.992-10.618 2.868-6.541 3.472-10.509 9.331-10.509 14.384 0 1.395.295 2.79.992 4.077 1.783 3.285 5.549 4.975 10.121 4.975 3.364 0 7.038-.899 10.618-2.774 6.541-3.488 10.509-9.347 10.509-14.416 0-1.379-.294-2.774-.992-4.06m-4.262 6.742c-1.69 1.69-5.069 3.767-8.634 5.766-3.565 1.984-7.145 3.472-9.517 3.968-.496.109-.992.202-1.488.202-1.596 0-2.79-.59-3.472-1.891a3.212 3.212 0 01-.496-1.69c0-1.085.682-2.387 1.783-3.472 1.689-1.69 4.96-3.767 8.525-5.75 3.58-1.985 7.145-3.473 9.532-3.969.496-.108.992-.201 1.488-.201 1.581 0 2.868.589 3.565 1.875.295.496.403 1.101.403 1.69 0 1.1-.604 2.278-1.69 3.472M854.63 3389.504c-1.782-3.27-5.549-5.053-10.121-5.053-3.364 0-7.038.992-10.618 2.868-6.541 3.472-10.509 9.331-10.509 14.384 0 1.395.295 2.79.992 4.077 1.783 3.285 5.549 4.975 10.121 4.975 3.364 0 7.038-.899 10.618-2.774 6.541-3.488 10.509-9.347 10.509-14.416 0-1.379-.294-2.774-.992-4.06m-4.262 6.742c-1.69 1.69-5.069 3.767-8.634 5.766-3.565 1.984-7.145 3.472-9.517 3.968-.496.109-.992.202-1.488.202-1.596 0-2.79-.59-3.472-1.891a3.212 3.212 0 01-.496-1.69c0-1.085.682-2.387 1.783-3.472 1.689-1.69 4.96-3.767 8.525-5.75 3.58-1.985 7.145-3.473 9.532-3.969.496-.108.992-.201 1.488-.201 1.581 0 2.868.589 3.565 1.875.295.496.403 1.101.403 1.69 0 1.1-.604 2.278-1.69 3.472M1747.288 3439.104c-1.782-3.27-5.549-5.053-10.121-5.053-3.364 0-7.038.992-10.618 2.868-6.541 3.472-10.509 9.331-10.509 14.384 0 1.395.295 2.79.992 4.077 1.783 3.285 5.549 4.975 10.121 4.975 3.364 0 7.038-.899 10.618-2.774 6.541-3.488 10.509-9.347 10.509-14.416 0-1.379-.294-2.774-.992-4.06m-4.262 6.742c-1.69 1.69-5.069 3.767-8.634 5.766-3.565 1.984-7.145 3.472-9.517 3.968-.496.109-.992.202-1.488.202-1.596 0-2.79-.59-3.472-1.891a3.212 3.212 0 01-.496-1.69c0-1.085.682-2.387 1.783-3.472 1.689-1.69 4.96-3.767 8.525-5.75 3.58-1.985 7.145-3.473 9.532-3.969.496-.108.992-.201 1.488-.201 1.581 0 2.868.589 3.565 1.875.295.496.403 1.101.403 1.69 0 1.1-.604 2.278-1.69 3.472M1747.288 3389.504c-1.782-3.27-5.549-5.053-10.121-5.053-3.364 0-7.038.992-10.618 2.868-6.541 3.472-10.509 9.331-10.509 14.384 0 1.395.295 2.79.992 4.077 1.783 3.285 5.549 4.975 10.121 4.975 3.364 0 7.038-.899 10.618-2.774 6.541-3.488 10.509-9.347 10.509-14.416 0-1.379-.294-2.774-.992-4.06m-4.262 6.742c-1.69 1.69-5.069 3.767-8.634 5.766-3.565 1.984-7.145 3.472-9.517 3.968-.496.109-.992.202-1.488.202-1.596 0-2.79-.59-3.472-1.891a3.212 3.212 0 01-.496-1.69c0-1.085.682-2.387 1.783-3.472 1.689-1.69 4.96-3.767 8.525-5.75 3.58-1.985 7.145-3.473 9.532-3.969.496-.108.992-.201 1.488-.201 1.581 0 2.868.589 3.565 1.875.295.496.403 1.101.403 1.69 0 1.1-.604 2.278-1.69 3.472M854.63 3352.351c-1.782-3.286-5.549-5.068-10.121-5.068-3.364 0-7.038.992-10.618 2.882-6.541 3.472-10.509 9.316-10.509 14.385 0 1.379.295 2.774.992 4.06 1.783 3.271 5.549 4.96 10.121 4.96 3.364 0 7.038-.883 10.618-2.774 6.541-3.472 10.509-9.331 10.509-14.384 0-1.395-.294-2.775-.992-4.061M1343.278 3352.351c-1.782-3.286-5.549-5.068-10.121-5.068-3.364 0-7.038.992-10.618 2.882-6.541 3.472-10.509 9.316-10.509 14.385 0 1.379.295 2.774.992 4.06 1.783 3.271 5.549 4.96 10.121 4.96 3.364 0 7.038-.883 10.618-2.774 6.541-3.472 10.509-9.331 10.509-14.384 0-1.395-.294-2.775-.992-4.061M1747.288 3352.351c-1.782-3.286-5.549-5.068-10.121-5.068-3.364 0-7.038.992-10.618 2.882-6.541 3.472-10.509 9.316-10.509 14.385 0 1.379.295 2.774.992 4.06 1.783 3.271 5.549 4.96 10.121 4.96 3.364 0 7.038-.883 10.618-2.774 6.541-3.472 10.509-9.331 10.509-14.384 0-1.395-.294-2.775-.992-4.061M2268.928 3352.351c-1.782-3.286-5.549-5.068-10.121-5.068-3.364 0-7.038.992-10.618 2.882-6.541 3.472-10.509 9.316-10.509 14.385 0 1.379.295 2.774.992 4.06 1.783 3.271 5.549 4.96 10.121 4.96 3.364 0 7.038-.883 10.618-2.774 6.541-3.472 10.509-9.331 10.509-14.384 0-1.395-.294-2.775-.992-4.061M854.63 3215.951c-1.782-3.286-5.549-5.068-10.121-5.068-3.364 0-7.038.992-10.618 2.882-6.541 3.472-10.509 9.316-10.509 14.385 0 1.379.295 2.774.992 4.06 1.783 3.271 5.549 4.96 10.121 4.96 3.364 0 7.038-.883 10.618-2.774 6.541-3.472 10.509-9.331 10.509-14.384 0-1.395-.294-2.775-.992-4.061"/><path class="Note" d="M854.63 3191.151c-1.782-3.286-5.549-5.068-10.121-5.068-3.364 0-7.038.992-10.618 2.882-6.541 3.472-10.509 9.316-10.509 14.385 0 1.379.295 2.774.992 4.06 1.783 3.271 5.549 4.96 10.121 4.96 3.364 0 7.038-.883 10.618-2.774 6.541-3.472 10.509-9.331 10.509-14.384 0-1.395-.294-2.775-.992-4.061M854.63 3153.951c-1.782-3.286-5.549-5.068-10.121-5.068-3.364 0-7.038.992-10.618 2.882-6.541 3.472-10.509 9.316-10.509 14.385 0 1.379.295 2.774.992 4.06 1.783 3.271 5.549 4.96 10.121 4.96 3.364 0 7.038-.883 10.618-2.774 6.541-3.472 10.509-9.331 10.509-14.384 0-1.395-.294-2.775-.992-4.061"/><path class="Note" d="M854.63 3129.151c-1.782-3.286-5.549-5.068-10.121-5.068-3.364 0-7.038.992-10.618 2.882-6.541 3.472-10.509 9.316-10.509 14.385 0 1.379.295 2.774.992 4.06 1.783 3.271 5.549 4.96 10.121 4.96 3.364 0 7.038-.883 10.618-2.774 6.541-3.472 10.509-9.331 10.509-14.384 0-1.395-.294-2.775-.992-4.061M1343.278 3215.951c-1.782-3.286-5.549-5.068-10.121-5.068-3.364 0-7.038.992-10.618 2.882-6.541 3.472-10.509 9.316-10.509 14.385 0 1.379.295 2.774.992 4.06 1.783 3.271 5.549 4.96 10.121 4.96 3.364 0 7.038-.883 10.618-2.774 6.541-3.472 10.509-9.331 10.509-14.384 0-1.395-.294-2.775-.992-4.061"/><path class="Note" d="M1343.278 3191.151c-1.782-3.286-5.549-5.068-10.121-5.068-3.364 0-7.038.992-10.618 2.882-6.541 3.472-10.509 9.316-10.509 14.385 0 1.379.295 2.774.992 4.06 1.783 3.271 5.549 4.96 10.121 4.96 3.364 0 7.038-.883 10.618-2.774 6.541-3.472 10.509-9.331 10.509-14.384 0-1.395-.294-2.775-.992-4.061M1343.278 3153.951c-1.782-3.286-5.549-5.068-10.121-5.068-3.364 0-7.038.992-10.618 2.882-6.541 3.472-10.509 9.316-10.509 14.385 0 1.379.295 2.774.992 4.06 1.783 3.271 5.549 4.96 10.121 4.96 3.364 0 7.038-.883 10.618-2.774 6.541-3.472 10.509-9.331 10.509-14.384 0-1.395-.294-2.775-.992-4.061"/><path class="Note" d="M1343.278 3129.151c-1.782-3.286-5.549-5.068-10.121-5.068-3.364 0-7.038.992-10.618 2.882-6.541 3.472-10.509 9.316-10.509 14.385 0 1.379.295 2.774.992 4.06 1.783 3.271 5.549 4.96 10.121 4.96 3.364 0 7.038-.883 10.618-2.774 6.541-3.472 10.509-9.331 10.509-14.384 0-1.395-.294-2.775-.992-4.061M1747.288 3215.951c-1.782-3.286-5.549-5.068-10.121-5.068-3.364 0-7.038.992-10.618 2.882-6.541 3.472-10.509 9.316-10.509 14.385 0 1.379.295 2.774.992 4.06 1.783 3.271 5.549 4.96 10.121 4.96 3.364 0 7.038-.883 10.618-2.774 6.541-3.472 10.509-9.331 10.509-14.384 0-1.395-.294-2.775-.992-4.061"/><path class="Note" d="M1747.288 3191.151c-1.782-3.286-5.549-5.068-10.121-5.068-3.364 0-7.038.992-10.618 2.882-6.541 3.472-10.509 9.316-10.509 14.385 0 1.379.295 2.774.992 4.06 1.783 3.271 5.549 4.96 10.121 4.96 3.364 0 7.038-.883 10.618-2.774 6.541-3.472 10.509-9.331 10.509-14.384 0-1.395-.294-2.775-.992-4.061"/><path class="Note" d="M1747.288 3166.351c-1.782-3.286-5.549-5.068-10.121-5.068-3.364 0-7.038.992-10.618 2.882-6.541 3.472-10.509 9.316-10.509 14.385 0 1.379.295 2.774.992 4.06 1.783 3.271 5.549 4.96 10.121 4.96 3.364 0 7.038-.883 10.618-2.774 6.541-3.472 10.509-9.331 10.509-14.384 0-1.395-.294-2.775-.992-4.061M1747.288 3129.151c-1.782-3.286-5.549-5.068-10.121-5.068-3.364 0-7.038.992-10.618 2.882-6.541 3.472-10.509 9.316-10.509 14.385 0 1.379.295 2.774.992 4.06 1.783 3.271 5.549 4.96 10.121 4.96 3.364 0 7.038-.883 10.618-2.774 6.541-3.472 10.509-9.331 10.509-14.384 0-1.395-.294-2.775-.992-4.061M2268.928 3215.951c-1.782-3.286-5.549-5.068-10.121-5.068-3.364 0-7.038.992-10.618 2.882-6.541 3.472-10.509 9.316-10.509 14.385 0 1.379.295 2.774.992 4.06 1.783 3.271 5.549 4.96 10.121 4.96 3.364 0 7.038-.883 10.618-2.774 6.541-3.472 10.509-9.331 10.509-14.384 0-1.395-.294-2.775-.992-4.061"/><path class="Note" d="M2268.928 3191.151c-1.782-3.286-5.549-5.068-10.121-5.068-3.364 0-7.038.992-10.618 2.882-6.541 3.472-10.509 9.316-10.509 14.385 0 1.379.295 2.774.992 4.06 1.783 3.271 5.549 4.96 10.121 4.96 3.364 0 7.038-.883 10.618-2.774 6.541-3.472 10.509-9.331 10.509-14.384 0-1.395-.294-2.775-.992-4.061"/><path class="Note" d="M2268.928 3166.351c-1.782-3.286-5.549-5.068-10.121-5.068-3.364 0-7.038.992-10.618 2.882-6.541 3.472-10.509 9.316-10.509 14.385 0 1.379.295 2.774.992 4.06 1.783 3.271 5.549 4.96 10.121 4.96 3.364 0 7.038-.883 10.618-2.774 6.541-3.472 10.509-9.331 10.509-14.384 0-1.395-.294-2.775-.992-4.061M2268.928 3129.151c-1.782-3.286-5.549-5.068-10.121-5.068-3.364 0-7.038.992-10.618 2.882-6.541 3.472-10.509 9.316-10.509 14.385 0 1.379.295 2.774.992 4.06 1.783 3.271 5.549 4.96 10.121 4.96 3.364 0 7.038-.883 10.618-2.774 6.541-3.472 10.509-9.331 10.509-14.384 0-1.395-.294-2.775-.992-4.061M854.63 2685.651c-1.782-3.286-5.549-5.068-10.121-5.068-3.364 0-7.038.992-10.618 2.882-6.541 3.472-10.509 9.316-10.509 14.385 0 1.379.295 2.774.992 4.06 1.783 3.271 5.549 4.96 10.121 4.96 3.364 0 7.038-.883 10.618-2.774 6.541-3.472 10.509-9.331 10.509-14.384 0-1.395-.294-2.775-.992-4.061M1343.278 2685.651c-1.782-3.286-5.549-5.068-10.121-5.068-3.364 0-7.038.992-10.618 2.882-6.541 3.472-10.509 9.316-10.509 14.385 0 1.379.295 2.774.992 4.06 1.783 3.271 5.549 4.96 10.121 4.96 3.364 0 7.038-.883 10.618-2.774 6.541-3.472 10.509-9.331 10.509-14.384 0-1.395-.294-2.775-.992-4.061M1584.408 2685.651c-1.782-3.286-5.549-5.068-10.121-5.068-3.364 0-7.038.992-10.618 2.882-6.541 3.472-10.509 9.316-10.509 14.385 0 1.379.295 2.774.992 4.06 1.783 3.271 5.549 4.96 10.121 4.96 3.364 0 7.038-.883 10.618-2.774 6.541-3.472 10.509-9.331 10.509-14.384 0-1.395-.294-2.775-.992-4.061M1747.288 2636.051c-1.782-3.286-5.549-5.068-10.121-5.068-3.364 0-7.038.992-10.618 2.882-6.541 3.472-10.509 9.316-10.509 14.385 0 1.379.295 2.774.992 4.06 1.783 3.271 5.549 4.96 10.121 4.96 3.364 0 7.038-.883 10.618-2.774 6.541-3.472 10.509-9.331 10.509-14.384 0-1.395-.294-2.775-.992-4.061M2268.928 2685.651c-1.782-3.286-5.549-5.068-10.121-5.068-3.364 0-7.038.992-10.618 2.882-6.541 3.472-10.509 9.316-10.509 14.385 0 1.379.295 2.774.992 4.06 1.783 3.271 5.549 4.96 10.121 4.96 3.364 0 7.038-.883 10.618-2.774 6.541-3.472 10.509-9.331 10.509-14.384 0-1.395-.294-2.775-.992-4.061M2399.338 2698.051c-1.782-3.286-5.549-5.068-10.121-5.068-3.364 0-7.038.992-10.618 2.882-6.541 3.472-10.509 9.316-10.509 14.385 0 1.379.295 2.774.992 4.06 1.783 3.271 5.549 4.96 10.121 4.96 3.364 0 7.038-.883 10.618-2.774 6.541-3.472 10.509-9.331 10.509-14.384 0-1.395-.294-2.775-.992-4.061M2529.748 2710.451c-1.782-3.286-5.549-5.068-10.121-5.068-3.364 0-7.038.992-10.618 2.882-6.541 3.472-10.509 9.316-10.509 14.385 0 1.379.295 2.774.992 4.06 1.783 3.271 5.549 4.96 10.121 4.96 3.364 0 7.038-.883 10.618-2.774 6.541-3.472 10.509-9.331 10.509-14.384 0-1.395-.294-2.775-.992-4.061M2660.158 2722.851c-1.782-3.286-5.549-5.068-10.121-5.068-3.364 0-7.038.992-10.618 2.882-6.541 3.472-10.509 9.316-10.509 14.385 0 1.379.295 2.774.992 4.06 1.783 3.271 5.549 4.96 10.121 4.96 3.364 0 7.038-.883 10.618-2.774 6.541-3.472 10.509-9.331 10.509-14.384 0-1.395-.294-2.775-.992-4.061M1343.278 2282.471c-1.782-3.286-5.549-5.068-10.121-5.068-3.364 0-7.038.992-10.618 2.882-6.541 3.472-10.509 9.316-10.509 14.385 0 1.379.295 2.774.992 4.06 1.783 3.271 5.549 4.96 10.121 4.96 3.364 0 7.038-.883 10.618-2.774 6.541-3.472 10.509-9.331 10.509-14.384 0-1.395-.294-2.775-.992-4.061M1584.408 2282.471c-1.782-3.286-5.549-5.068-10.121-5.068-3.364 0-7.038.992-10.618 2.882-6.541 3.472-10.509 9.316-10.509 14.385 0 1.379.295 2.774.992 4.06 1.783 3.271 5.549 4.96 10.121 4.96 3.364 0 7.038-.883 10.618-2.774 6.541-3.472 10.509-9.331 10.509-14.384 0-1.395-.294-2.775-.992-4.061M2268.928 2282.471c-1.782-3.286-5.549-5.068-10.121-5.068-3.364 0-7.038.992-10.618 2.882-6.541 3.472-10.509 9.316-10.509 14.385 0 1.379.295 2.774.992 4.06 1.783 3.271 5.549 4.96 10.121 4.96 3.364 0 7.038-.883 10.618-2.774 6.541-3.472 10.509-9.331 10.509-14.384 0-1.395-.294-2.775-.992-4.061M1343.278 1879.291c-1.782-3.286-5.549-5.068-10.121-5.068-3.364 0-7.038.992-10.618 2.882-6.541 3.472-10.509 9.316-10.509 14.385 0 1.379.295 2.774.992 4.06 1.783 3.271 5.549 4.96 10.121 4.96 3.364 0 7.038-.883 10.618-2.774 6.541-3.472 10.509-9.331 10.509-14.384 0-1.395-.294-2.775-.992-4.061M1584.408 1879.291c-1.782-3.286-5.549-5.068-10.121-5.068-3.364 0-7.038.992-10.618 2.882-6.541 3.472-10.509 9.316-10.509 14.385 0 1.379.295 2.774.992 4.06 1.783 3.271 5.549 4.96 10.121 4.96 3.364 0 7.038-.883 10.618-2.774 6.541-3.472 10.509-9.331 10.509-14.384 0-1.395-.294-2.775-.992-4.061M2268.928 1879.291c-1.782-3.286-5.549-5.068-10.121-5.068-3.364 0-7.038.992-10.618 2.882-6.541 3.472-10.509 9.316-10.509 14.385 0 1.379.295 2.774.992 4.06 1.783 3.271 5.549 4.96 10.121 4.96 3.364 0 7.038-.883 10.618-2.774 6.541-3.472 10.509-9.331 10.509-14.384 0-1.395-.294-2.775-.992-4.061M1343.278 1476.111c-1.782-3.286-5.549-5.068-10.121-5.068-3.364 0-7.038.992-10.618 2.882-6.541 3.472-10.509 9.316-10.509 14.385 0 1.379.295 2.774.992 4.06 1.783 3.271 5.549 4.96 10.121 4.96 3.364 0 7.038-.883 10.618-2.774 6.541-3.472 10.509-9.331 10.509-14.384 0-1.395-.294-2.775-.992-4.061M1584.408 1476.111c-1.782-3.286-5.549-5.068-10.121-5.068-3.364 0-7.038.992-10.618 2.882-6.541 3.472-10.509 9.316-10.509 14.385 0 1.379.295 2.774.992 4.06 1.783 3.271 5.549 4.96 10.121 4.96 3.364 0 7.038-.883 10.618-2.774 6.541-3.472 10.509-9.331 10.509-14.384 0-1.395-.294-2.775-.992-4.061M2268.928 1476.111c-1.782-3.286-5.549-5.068-10.121-5.068-3.364 0-7.038.992-10.618 2.882-6.541 3.472-10.509 9.316-10.509 14.385 0 1.379.295 2.774.992 4.06 1.783 3.271 5.549 4.96 10.121 4.96 3.364 0 7.038-.883 10.618-2.774 6.541-3.472 10.509-9.331 10.509-14.384 0-1.395-.294-2.775-.992-4.061M1343.278 1060.531c-1.782-3.286-5.549-5.068-10.121-5.068-3.364 0-7.038.992-10.618 2.882-6.541 3.472-10.509 9.316-10.509 14.385 0 1.379.295 2.774.992 4.06 1.783 3.271 5.549 4.96 10.121 4.96 3.364 0 7.038-.883 10.618-2.774 6.541-3.472 10.509-9.331 10.509-14.384 0-1.395-.294-2.775-.992-4.061M1584.408 1060.531c-1.782-3.286-5.549-5.068-10.121-5.068-3.364 0-7.038.992-10.618 2.882-6.541 3.472-10.509 9.316-10.509 14.385 0 1.379.295 2.774.992 4.06 1.783 3.271 5.549 4.96 10.121 4.96 3.364 0 7.038-.883 10.618-2.774 6.541-3.472 10.509-9.331 10.509-14.384 0-1.395-.294-2.775-.992-4.061M2268.928 1085.331c-1.782-3.286-5.549-5.068-10.121-5.068-3.364 0-7.038.992-10.618 2.882-6.541 3.472-10.509 9.316-10.509 14.385 0 1.379.295 2.774.992 4.06 1.783 3.271 5.549 4.96 10.121 4.96 3.364 0 7.038-.883 10.618-2.774 6.541-3.472 10.509-9.331 10.509-14.384 0-1.395-.294-2.775-.992-4.061M854.63 880.55c-1.782-3.286-5.549-5.068-10.121-5.068-3.364 0-7.038.992-10.618 2.882-6.541 3.472-10.509 9.316-10.509 14.385 0 1.379.295 2.774.992 4.06 1.783 3.271 5.549 4.96 10.121 4.96 3.364 0 7.038-.883 10.618-2.774 6.541-3.472 10.509-9.331 10.509-14.384 0-1.395-.294-2.775-.992-4.061M1343.278 880.55c-1.782-3.286-5.549-5.068-10.121-5.068-3.364 0-7.038.992-10.618 2.882-6.541 3.472-10.509 9.316-10.509 14.385 0 1.379.295 2.774.992 4.06 1.783 3.271 5.549 4.96 10.121 4.96 3.364 0 7.038-.883 10.618-2.774 6.541-3.472 10.509-9.331 10.509-14.384 0-1.395-.294-2.775-.992-4.061M1584.408 880.55c-1.782-3.286-5.549-5.068-10.121-5.068-3.364 0-7.038.992-10.618 2.882-6.541 3.472-10.509 9.316-10.509 14.385 0 1.379.295 2.774.992 4.06 1.783 3.271 5.549 4.96 10.121 4.96 3.364 0 7.038-.883 10.618-2.774 6.541-3.472 10.509-9.331 10.509-14.384 0-1.395-.294-2.775-.992-4.061M1747.288 830.95c-1.782-3.286-5.549-5.068-10.121-5.068-3.364 0-7.038.992-10.618 2.882-6.541 3.472-10.509 9.316-10.509 14.385 0 1.379.295 2.774.992 4.06 1.783 3.271 5.549 4.96 10.121 4.96 3.364 0 7.038-.883 10.618-2.774 6.541-3.472 10.509-9.331 10.509-14.384 0-1.395-.294-2.775-.992-4.061M2268.928 793.75c-1.782-3.286-5.549-5.068-10.121-5.068-3.364 0-7.038.992-10.618 2.882-6.541 3.472-10.509 9.316-10.509 14.385 0 1.379.295 2.774.992 4.06 1.783 3.271 5.549 4.96 10.121 4.96 3.364 0 7.038-.883 10.618-2.774 6.541-3.472 10.509-9.331 10.509-14.384 0-1.395-.294-2.775-.992-4.061M2399.338 806.15c-1.782-3.286-5.549-5.068-10.121-5.068-3.364 0-7.038.992-10.618 2.882-6.541 3.472-10.509 9.316-10.509 14.385 0 1.379.295 2.774.992 4.06 1.783 3.271 5.549 4.96 10.121 4.96 3.364 0 7.038-.883 10.618-2.774 6.541-3.472 10.509-9.331 10.509-14.384 0-1.395-.294-2.775-.992-4.061M2529.748 818.55c-1.782-3.286-5.549-5.068-10.121-5.068-3.364 0-7.038.992-10.618 2.882-6.541 3.472-10.509 9.316-10.509 14.385 0 1.379.295 2.774.992 4.06 1.783 3.271 5.549 4.96 10.121 4.96 3.364 0 7.038-.883 10.618-2.774 6.541-3.472 10.509-9.331 10.509-14.384 0-1.395-.294-2.775-.992-4.061M2660.158 830.95c-1.782-3.286-5.549-5.068-10.121-5.068-3.364 0-7.038.992-10.618 2.882-6.541 3.472-10.509 9.316-10.509 14.385 0 1.379.295 2.774.992 4.06 1.783 3.271 5.549 4.96 10.121 4.96 3.364 0 7.038-.883 10.618-2.774 6.541-3.472 10.509-9.331 10.509-14.384 0-1.395-.294-2.775-.992-4.061M854.63 340.97c-1.782-3.286-5.549-5.068-10.121-5.068-3.364 0-7.038.992-10.618 2.882-6.541 3.472-10.509 9.316-10.509 14.385 0 1.379.295 2.774.992 4.06 1.783 3.271 5.549 4.96 10.121 4.96 3.364 0 7.038-.883 10.618-2.774 6.541-3.472 10.509-9.331 10.509-14.384 0-1.395-.294-2.775-.992-4.061M757.195 355.779c-1.248-2.3-3.885-3.548-7.085-3.548-2.355 0-4.926.694-7.433 2.018-4.578 2.43-7.356 6.52-7.356 10.069 0 .965.206 1.942.694 2.842 1.248 2.29 3.885 3.472 7.085 3.472 2.355 0 4.926-.618 7.433-1.942 4.578-2.43 7.356-6.531 7.356-10.069 0-.976-.206-1.942-.694-2.842M1017.513 340.97c-1.782-3.286-5.549-5.068-10.121-5.068-3.364 0-7.038.992-10.618 2.882-6.541 3.472-10.509 9.316-10.509 14.385 0 1.379.295 2.774.992 4.06 1.783 3.271 5.549 4.96 10.121 4.96 3.364 0 7.038-.883 10.618-2.774 6.541-3.472 10.509-9.331 10.509-14.384 0-1.395-.294-2.775-.992-4.061M960.549 355.779c-1.248-2.3-3.885-3.548-7.085-3.548-2.355 0-4.926.694-7.433 2.018-4.578 2.43-7.356 6.52-7.356 10.069 0 .965.206 1.942.694 2.842 1.248 2.29 3.885 3.472 7.085 3.472 2.355 0 4.926-.618 7.433-1.942 4.578-2.43 7.356-6.531 7.356-10.069 0-.976-.206-1.942-.694-2.842M1180.398 365.77c-1.782-3.286-5.549-5.068-10.121-5.068-3.364 0-7.038.992-10.618 2.882-6.541 3.472-10.509 9.316-10.509 14.385 0 1.379.295 2.774.992 4.06 1.783 3.271 5.549 4.96 10.121 4.96 3.364 0 7.038-.883 10.618-2.774 6.541-3.472 10.509-9.331 10.509-14.384 0-1.395-.294-2.775-.992-4.061M1343.278 365.77c-1.782-3.286-5.549-5.068-10.121-5.068-3.364 0-7.038.992-10.618 2.882-6.541 3.472-10.509 9.316-10.509 14.385 0 1.379.295 2.774.992 4.06 1.783 3.271 5.549 4.96 10.121 4.96 3.364 0 7.038-.883 10.618-2.774 6.541-3.472 10.509-9.331 10.509-14.384 0-1.395-.294-2.775-.992-4.061M1877.698 390.57c-1.782-3.286-5.549-5.068-10.121-5.068-3.364 0-7.038.992-10.618 2.882-6.541 3.472-10.509 9.316-10.509 14.385 0 1.379.295 2.774.992 4.06 1.783 3.271 5.549 4.96 10.121 4.96 3.364 0 7.038-.883 10.618-2.774 6.541-3.472 10.509-9.331 10.509-14.384 0-1.395-.294-2.775-.992-4.061M2008.108 365.77c-1.782-3.286-5.549-5.068-10.121-5.068-3.364 0-7.038.992-10.618 2.882-6.541 3.472-10.509 9.316-10.509 14.385 0 1.379.295 2.774.992 4.06 1.783 3.271 5.549 4.96 10.121 4.96 3.364 0 7.038-.883 10.618-2.774 6.541-3.472 10.509-9.331 10.509-14.384 0-1.395-.294-2.775-.992-4.061M2138.518 390.57c-1.782-3.286-5.549-5.068-10.121-5.068-3.364 0-7.038.992-10.618 2.882-6.541 3.472-10.509 9.316-10.509 14.385 0 1.379.295 2.774.992 4.06 1.783 3.271 5.549 4.96 10.121 4.96 3.364 0 7.038-.883 10.618-2.774 6.541-3.472 10.509-9.331 10.509-14.384 0-1.395-.294-2.775-.992-4.061M2268.928 365.77c-1.782-3.286-5.549-5.068-10.121-5.068-3.364 0-7.038.992-10.618 2.882-6.541 3.472-10.509 9.316-10.509 14.385 0 1.379.295 2.774.992 4.06 1.783 3.271 5.549 4.96 10.121 4.96 3.364 0 7.038-.883 10.618-2.774 6.541-3.472 10.509-9.331 10.509-14.384 0-1.395-.294-2.775-.992-4.061M2399.338 353.37c-1.782-3.286-5.549-5.068-10.121-5.068-3.364 0-7.038.992-10.618 2.882-6.541 3.472-10.509 9.316-10.509 14.385 0 1.379.295 2.774.992 4.06 1.783 3.271 5.549 4.96 10.121 4.96 3.364 0 7.038-.883 10.618-2.774 6.541-3.472 10.509-9.331 10.509-14.384 0-1.395-.294-2.775-.992-4.061M2529.748 353.37c-1.782-3.286-5.549-5.068-10.121-5.068-3.364 0-7.038.992-10.618 2.882-6.541 3.472-10.509 9.316-10.509 14.385 0 1.379.295 2.774.992 4.06 1.783 3.271 5.549 4.96 10.121 4.96 3.364 0 7.038-.883 10.618-2.774 6.541-3.472 10.509-9.331 10.509-14.384 0-1.395-.294-2.775-.992-4.061M2660.158 340.97c-1.782-3.286-5.549-5.068-10.121-5.068-3.364 0-7.038.992-10.618 2.882-6.541 3.472-10.509 9.316-10.509 14.385 0 1.379.295 2.774.992 4.06 1.783 3.271 5.549 4.96 10.121 4.96 3.364 0 7.038-.883 10.618-2.774 6.541-3.472 10.509-9.331 10.509-14.384 0-1.395-.294-2.775-.992-4.061"/><path class="Clef" d="M594.345 3323.087c-7.548 0-13.594 4.356-13.702 4.356-5.75 4.262-8.029 9.33-8.928 12.802-.496 1.783-.682 3.565-.682 5.255 0 2.387.388 4.557 1.287 6.448 1.193 2.682 3.472 4.557 6.448 5.549 1.193.403 2.48.604 3.766.604 2.185 0 4.464-.604 6.355-1.689 3.069-1.69 4.96-5.254 4.96-9.13 0-3.472-1.798-6.649-4.774-8.525-2.077-1.394-4.061-1.782-5.75-1.782-1.194 0-2.279.186-3.178.496-.992.388-2.666 1.38-3.472 2.077.31-1.891 1.488-4.759 2.588-6.355 1.086-1.581 3.271-3.565 4.96-4.464 2.48-1.38 5.658-1.984 9.13-1.984 10.122 0 15.082 8.138 15.082 24.8 0 9.238-3.472 18.058-6.448 23.917-3.286 6.54-7.642 12.803-11.517 16.275-10.323 9.424-20.041 13.888-20.134 13.888 0 0-1.489.883-1.101 2.371.31.992 1.194 1.194 1.798 1.194.093 0 .388-.093.496-.093.093 0 11.408-4.666 20.429-11.718 5.069-3.658 9.626-7.626 13.594-11.904a73.558 73.558 0 009.13-12.199c4.355-7.44 6.835-15.175 6.835-21.824 0-8.23-2.17-15.081-6.247-19.933-4.665-5.564-11.702-8.432-20.925-8.432m31.14 12.586c0 2.79 2.185 4.96 4.774 4.96 2.573 0 4.758-2.17 4.758-4.96 0-2.774-2.185-5.053-4.758-5.053-2.589 0-4.774 2.279-4.774 5.053m0 24.506c0 2.774 2.185 5.068 4.774 5.068 2.573 0 4.758-2.294 4.758-5.068 0-2.775-2.185-5.053-4.758-5.053-2.589 0-4.774 2.278-4.774 5.053M631.995 3131.305c-1.225-5.378-3.844-9.176-4.62-10.198-3.161-4.248-7.145-7.068-11.795-8.417-3.084-.868-6.06-.992-8.463-.806a2314.148 2314.148 0 01-2.93-17.205c5.41-6.123 9.006-11.873 11.269-16.136 3.441-6.525 4.573-11.067 4.635-11.268 1.705-5.177 2.061-12.819.96-20.956-.991-7.487-3.068-14.151-5.409-17.375-1.007-1.41-2.061-2.14-3.084-2.14-1.21 0-3.705 1.225-6.572 3.984-2.279 2.17-5.518 6.03-8.06 11.997-2.976 7.006-3.193 16.414-2.837 23.08.372 7.222 1.473 12.864 1.488 12.91.016.094.279 1.582.713 4.124-.217.232-.465.45-.713.697-1.023.992-2.201 2.108-3.58 3.488-.853.852-1.798 1.751-2.79 2.712-8.37 8.076-21.065 20.305-21.065 39.308 0 4.666.899 9.053 2.666 13.036 1.566 3.565 3.844 6.82 6.758 9.672 7.673 7.502 18.182 10.68 25.172 10.525 2.93-.078 5.55-.31 7.92-.76 1.814 9.533 2.946 16.508 2.977 21.809.046 6.463-1.597 10.416-5.456 13.16-2.418 1.72-5.208 2.665-8.277 2.805-2.573.124-4.82-.341-6.231-.744h-.016s-.279-.093-.294-.28c-.016-.185.34-.232.34-.232h.032c1.906-.434 5.44-1.658 7.78-4.929 1.783-2.51 2.651-7.099.822-11.005-1.1-2.371-3.58-5.301-9.16-5.75-2.48-.202-4.728.31-6.712 1.503-1.798 1.07-3.286 2.697-4.324 4.681-2.434 4.666-1.984 10.354 1.116 14.167 2.944 3.596 7.517 5.89 12.911 6.464.853.093 1.69.124 2.527.124 4.402 0 8.757-1.194 12.307-3.38 3.627-2.557 5.735-6.51 6.401-12.09.558-4.603.17-10.477-1.209-18.49-.356-2.078-.899-5.085-1.55-8.805 5.704-1.906 9.827-5.456 13.563-11.268 3.27-5.689 4.2-11.75 2.79-18.012m-33.945 26.01c-4.604-1.21-9.006-3.69-12.726-7.177-1.302-1.209-3.162-3.363-4.619-6.727-1.348-3.146-2.015-6.557-1.953-10.106.062-4.666 1.364-9.455 3.844-14.198 2.899-5.534 7.425-11.02 13.439-16.306a89.206 89.206 0 004.076-3.813c.76 4.231 1.581 8.881 2.449 13.717-3.813 1.256-8.525 4.387-11.61 9.998-3.518 6.51-3.379 11.997-2.65 15.454.93 4.417 3.441 8.153 6.867 10.23.93.558 5.022 2.666 6.85 2.092a1.16 1.16 0 00.776-.666c.511-1.163-.512-1.798-2.046-2.744a27.274 27.274 0 01-1.984-1.317c-3.302-2.465-4.743-6.882-3.674-11.238a12.436 12.436 0 013.674-6.216c1.643-1.534 3.673-2.62 6.029-3.255 2.03 11.16 4.077 22.228 5.704 30.52.124.682.264 1.348.388 2.015-4.34.93-8.65.837-12.834-.263m11.237-32.938c10.261-.465 14.493 6.913 15.376 11.702.465 2.527.465 6.929-1.07 11.114-1.162 3.146-3.595 7.192-8.695 9.238-.062-.418-.14-.852-.217-1.271-1.534-8.711-3.456-19.623-5.394-30.783m-7.27-70.386c1.768-5.688 4.48-8.912 6.464-10.633 1.736-1.503 3.364-2.216 4.278-2.216.14 0 .264.03.357.062.465.14.992.697 1.457 1.565 2.294 4.247 1.55 10.912.217 15.314-1.612 5.363-4.51 10.928-13.237 20.46-.171-1.1-.326-2.139-.481-3.115-1.24-8.215-.914-15.438.946-21.437M594.345 2656.387c-7.548 0-13.594 4.356-13.702 4.356-5.75 4.262-8.029 9.33-8.928 12.802-.496 1.783-.682 3.565-.682 5.255 0 2.387.388 4.557 1.287 6.448 1.193 2.682 3.472 4.557 6.448 5.549 1.193.403 2.48.604 3.766.604 2.185 0 4.464-.604 6.355-1.689 3.069-1.69 4.96-5.254 4.96-9.13 0-3.472-1.798-6.649-4.774-8.525-2.077-1.394-4.061-1.782-5.75-1.782-1.194 0-2.279.186-3.178.496-.992.388-2.666 1.38-3.472 2.077.31-1.891 1.488-4.759 2.588-6.355 1.086-1.581 3.271-3.565 4.96-4.464 2.48-1.38 5.658-1.984 9.13-1.984 10.122 0 15.082 8.138 15.082 24.8 0 9.238-3.472 18.058-6.448 23.917-3.286 6.54-7.642 12.803-11.517 16.275-10.323 9.424-20.041 13.888-20.134 13.888 0 0-1.489.883-1.101 2.371.31.992 1.194 1.194 1.798 1.194.093 0 .388-.093.496-.093.093 0 11.408-4.666 20.429-11.718 5.069-3.658 9.626-7.626 13.594-11.904a73.558 73.558 0 009.13-12.199c4.355-7.44 6.835-15.175 6.835-21.824 0-8.23-2.17-15.081-6.247-19.933-4.665-5.564-11.702-8.432-20.925-8.432m31.14 12.586c0 2.79 2.185 4.96 4.774 4.96 2.573 0 4.758-2.17 4.758-4.96 0-2.774-2.185-5.053-4.758-5.053-2.589 0-4.774 2.279-4.774 5.053m0 24.506c0 2.774 2.185 5.068 4.774 5.068 2.573 0 4.758-2.294 4.758-5.068 0-2.775-2.185-5.053-4.758-5.053-2.589 0-4.774 2.278-4.774 5.053M594.345 2278.007c-7.548 0-13.594 4.356-13.702 4.356-5.75 4.262-8.029 9.33-8.928 12.802-.496 1.783-.682 3.565-.682 5.255 0 2.387.388 4.557 1.287 6.448 1.193 2.682 3.472 4.557 6.448 5.549 1.193.403 2.48.604 3.766.604 2.185 0 4.464-.604 6.355-1.689 3.069-1.69 4.96-5.254 4.96-9.13 0-3.472-1.798-6.649-4.774-8.525-2.077-1.394-4.061-1.782-5.75-1.782-1.194 0-2.279.186-3.178.496-.992.388-2.666 1.38-3.472 2.077.31-1.891 1.488-4.759 2.588-6.355 1.086-1.581 3.271-3.565 4.96-4.464 2.48-1.38 5.658-1.984 9.13-1.984 10.122 0 15.082 8.138 15.082 24.8 0 9.238-3.472 18.058-6.448 23.917-3.286 6.54-7.642 12.803-11.517 16.275-10.323 9.424-20.041 13.888-20.134 13.888 0 0-1.489.883-1.101 2.371.31.992 1.194 1.194 1.798 1.194.093 0 .388-.093.496-.093.093 0 11.408-4.666 20.429-11.718 5.069-3.658 9.626-7.626 13.594-11.904a73.558 73.558 0 009.13-12.199c4.355-7.44 6.835-15.175 6.835-21.824 0-8.23-2.17-15.081-6.247-19.933-4.665-5.564-11.702-8.432-20.925-8.432m31.14 12.586c0 2.79 2.185 4.96 4.774 4.96 2.573 0 4.758-2.17 4.758-4.96 0-2.774-2.185-5.053-4.758-5.053-2.589 0-4.774 2.279-4.774 5.053m0 24.506c0 2.774 2.185 5.068 4.774 5.068 2.573 0 4.758-2.294 4.758-5.068 0-2.775-2.185-5.053-4.758-5.053-2.589 0-4.774 2.278-4.774 5.053M594.345 1899.627c-7.548 0-13.594 4.356-13.702 4.356-5.75 4.262-8.029 9.33-8.928 12.802-.496 1.783-.682 3.565-.682 5.255 0 2.387.388 4.557 1.287 6.448 1.193 2.682 3.472 4.557 6.448 5.549 1.193.403 2.48.604 3.766.604 2.185 0 4.464-.604 6.355-1.689 3.069-1.69 4.96-5.254 4.96-9.13 0-3.472-1.798-6.649-4.774-8.525-2.077-1.394-4.061-1.782-5.75-1.782-1.194 0-2.279.186-3.178.496-.992.388-2.666 1.38-3.472 2.077.31-1.891 1.488-4.759 2.588-6.355 1.086-1.581 3.271-3.565 4.96-4.464 2.48-1.38 5.658-1.984 9.13-1.984 10.122 0 15.082 8.138 15.082 24.8 0 9.238-3.472 18.058-6.448 23.917-3.286 6.54-7.642 12.803-11.517 16.275-10.323 9.424-20.041 13.888-20.134 13.888 0 0-1.489.883-1.101 2.371.31.992 1.194 1.194 1.798 1.194.093 0 .388-.093.496-.093.093 0 11.408-4.666 20.429-11.718 5.069-3.658 9.626-7.626 13.594-11.904a73.558 73.558 0 009.13-12.199c4.355-7.44 6.835-15.175 6.835-21.824 0-8.23-2.17-15.081-6.247-19.933-4.665-5.564-11.702-8.432-20.925-8.432m31.14 12.586c0 2.79 2.185 4.96 4.774 4.96 2.573 0 4.758-2.17 4.758-4.96 0-2.774-2.185-5.053-4.758-5.053-2.589 0-4.774 2.279-4.774 5.053m0 24.506c0 2.774 2.185 5.068 4.774 5.068 2.573 0 4.758-2.294 4.758-5.068 0-2.775-2.185-5.053-4.758-5.053-2.589 0-4.774 2.278-4.774 5.053M594.345 1521.247c-7.548 0-13.594 4.356-13.702 4.356-5.75 4.262-8.029 9.33-8.928 12.802-.496 1.783-.682 3.565-.682 5.255 0 2.387.388 4.557 1.287 6.448 1.193 2.682 3.472 4.557 6.448 5.549 1.193.403 2.48.604 3.766.604 2.185 0 4.464-.604 6.355-1.689 3.069-1.69 4.96-5.254 4.96-9.13 0-3.472-1.798-6.649-4.774-8.525-2.077-1.394-4.061-1.782-5.75-1.782-1.194 0-2.279.186-3.178.496-.992.388-2.666 1.38-3.472 2.077.31-1.891 1.488-4.759 2.588-6.355 1.086-1.581 3.271-3.565 4.96-4.464 2.48-1.38 5.658-1.984 9.13-1.984 10.122 0 15.082 8.138 15.082 24.8 0 9.238-3.472 18.058-6.448 23.917-3.286 6.54-7.642 12.803-11.517 16.275-10.323 9.424-20.041 13.888-20.134 13.888 0 0-1.489.883-1.101 2.371.31.992 1.194 1.194 1.798 1.194.093 0 .388-.093.496-.093.093 0 11.408-4.666 20.429-11.718 5.069-3.658 9.626-7.626 13.594-11.904a73.558 73.558 0 009.13-12.199c4.355-7.44 6.835-15.175 6.835-21.824 0-8.23-2.17-15.081-6.247-19.933-4.665-5.564-11.702-8.432-20.925-8.432m31.14 12.586c0 2.79 2.185 4.96 4.774 4.96 2.573 0 4.758-2.17 4.758-4.96 0-2.774-2.185-5.053-4.758-5.053-2.589 0-4.774 2.279-4.774 5.053m0 24.506c0 2.774 2.185 5.068 4.774 5.068 2.573 0 4.758-2.294 4.758-5.068 0-2.775-2.185-5.053-4.758-5.053-2.589 0-4.774 2.278-4.774 5.053M594.345 1142.867c-7.548 0-13.594 4.356-13.702 4.356-5.75 4.262-8.029 9.33-8.928 12.802-.496 1.783-.682 3.565-.682 5.255 0 2.387.388 4.557 1.287 6.448 1.193 2.682 3.472 4.557 6.448 5.549 1.193.403 2.48.604 3.766.604 2.185 0 4.464-.604 6.355-1.689 3.069-1.69 4.96-5.254 4.96-9.13 0-3.472-1.798-6.649-4.774-8.525-2.077-1.394-4.061-1.782-5.75-1.782-1.194 0-2.279.186-3.178.496-.992.388-2.666 1.38-3.472 2.077.31-1.891 1.488-4.759 2.588-6.355 1.086-1.581 3.271-3.565 4.96-4.464 2.48-1.38 5.658-1.984 9.13-1.984 10.122 0 15.082 8.138 15.082 24.8 0 9.238-3.472 18.058-6.448 23.917-3.286 6.54-7.642 12.803-11.517 16.275-10.323 9.424-20.041 13.888-20.134 13.888 0 0-1.489.883-1.101 2.371.31.992 1.194 1.194 1.798 1.194.093 0 .388-.093.496-.093.093 0 11.408-4.666 20.429-11.718 5.069-3.658 9.626-7.626 13.594-11.904a73.558 73.558 0 009.13-12.199c4.355-7.44 6.835-15.175 6.835-21.824 0-8.23-2.17-15.081-6.247-19.933-4.665-5.564-11.702-8.432-20.925-8.432m31.14 12.586c0 2.79 2.185 4.96 4.774 4.96 2.573 0 4.758-2.17 4.758-4.96 0-2.774-2.185-5.053-4.758-5.053-2.589 0-4.774 2.279-4.774 5.053m0 24.506c0 2.774 2.185 5.068 4.774 5.068 2.573 0 4.758-2.294 4.758-5.068 0-2.775-2.185-5.053-4.758-5.053-2.589 0-4.774 2.278-4.774 5.053M631.995 833.104c-1.225-5.378-3.844-9.176-4.62-10.198-3.161-4.248-7.145-7.068-11.795-8.417-3.084-.868-6.06-.992-8.463-.806a2314.148 2314.148 0 01-2.93-17.205c5.41-6.123 9.006-11.873 11.269-16.136 3.441-6.525 4.573-11.067 4.635-11.268 1.705-5.177 2.061-12.819.96-20.956-.991-7.487-3.068-14.151-5.409-17.375-1.007-1.41-2.061-2.14-3.084-2.14-1.21 0-3.705 1.225-6.572 3.984-2.279 2.17-5.518 6.03-8.06 11.997-2.976 7.006-3.193 16.414-2.837 23.08.372 7.222 1.473 12.864 1.488 12.91.016.094.279 1.582.713 4.124-.217.232-.465.45-.713.697-1.023.992-2.201 2.108-3.58 3.488-.853.852-1.798 1.751-2.79 2.712-8.37 8.076-21.065 20.305-21.065 39.308 0 4.666.899 9.053 2.666 13.036 1.566 3.565 3.844 6.82 6.758 9.672 7.673 7.502 18.182 10.68 25.172 10.525 2.93-.078 5.55-.31 7.92-.76 1.814 9.533 2.946 16.508 2.977 21.809.046 6.463-1.597 10.416-5.456 13.16-2.418 1.72-5.208 2.665-8.277 2.805-2.573.124-4.82-.341-6.231-.744h-.016s-.279-.093-.294-.28c-.016-.185.34-.232.34-.232h.032c1.906-.434 5.44-1.658 7.78-4.929 1.783-2.51 2.651-7.099.822-11.005-1.1-2.371-3.58-5.301-9.16-5.75-2.48-.202-4.728.31-6.712 1.503-1.798 1.07-3.286 2.697-4.324 4.681-2.434 4.666-1.984 10.354 1.116 14.167 2.944 3.596 7.517 5.89 12.911 6.464.853.093 1.69.124 2.527.124 4.402 0 8.757-1.194 12.307-3.38 3.627-2.557 5.735-6.51 6.401-12.09.558-4.603.17-10.477-1.209-18.49-.356-2.078-.899-5.085-1.55-8.805 5.704-1.906 9.827-5.456 13.563-11.268 3.27-5.689 4.2-11.75 2.79-18.012m-33.945 26.01c-4.604-1.21-9.006-3.69-12.726-7.177-1.302-1.209-3.162-3.363-4.619-6.727-1.348-3.146-2.015-6.557-1.953-10.106.062-4.666 1.364-9.455 3.844-14.198 2.899-5.534 7.425-11.02 13.439-16.306a89.206 89.206 0 004.076-3.813c.76 4.231 1.581 8.881 2.449 13.717-3.813 1.256-8.525 4.387-11.61 9.998-3.518 6.51-3.379 11.997-2.65 15.454.93 4.417 3.441 8.153 6.867 10.23.93.558 5.022 2.666 6.85 2.092a1.16 1.16 0 00.776-.666c.511-1.163-.512-1.798-2.046-2.744a27.274 27.274 0 01-1.984-1.317c-3.302-2.465-4.743-6.882-3.674-11.238a12.436 12.436 0 013.674-6.216c1.643-1.534 3.673-2.62 6.029-3.255 2.03 11.16 4.077 22.228 5.704 30.52.124.682.264 1.348.388 2.015-4.34.93-8.65.837-12.834-.263m11.237-32.938c10.261-.465 14.493 6.913 15.376 11.702.465 2.527.465 6.929-1.07 11.114-1.162 3.146-3.595 7.192-8.695 9.238-.062-.418-.14-.852-.217-1.271-1.534-8.711-3.456-19.623-5.394-30.783m-7.27-70.386c1.768-5.688 4.48-8.912 6.464-10.633 1.736-1.503 3.364-2.216 4.278-2.216.14 0 .264.03.357.062.465.14.992.697 1.457 1.565 2.294 4.247 1.55 10.912.217 15.314-1.612 5.363-4.51 10.928-13.237 20.46-.171-1.1-.326-2.139-.481-3.115-1.24-8.215-.914-15.438.946-21.437M631.995 454.724c-1.225-5.378-3.844-9.176-4.62-10.198-3.161-4.248-7.145-7.068-11.795-8.417-3.084-.868-6.06-.992-8.463-.806a2314.148 2314.148 0 01-2.93-17.205c5.41-6.123 9.006-11.873 11.269-16.136 3.441-6.525 4.573-11.067 4.635-11.268 1.705-5.177 2.061-12.819.96-20.956-.991-7.487-3.068-14.151-5.409-17.375-1.007-1.41-2.061-2.14-3.084-2.14-1.21 0-3.705 1.225-6.572 3.984-2.279 2.17-5.518 6.03-8.06 11.997-2.976 7.006-3.193 16.414-2.837 23.08.372 7.222 1.473 12.864 1.488 12.91.016.094.279 1.582.713 4.124-.217.232-.465.45-.713.697-1.023.992-2.201 2.108-3.58 3.488-.853.852-1.798 1.751-2.79 2.712-8.37 8.076-21.065 20.305-21.065 39.308 0 4.666.899 9.053 2.666 13.036 1.566 3.565 3.844 6.82 6.758 9.672 7.673 7.502 18.182 10.68 25.172 10.525 2.93-.078 5.55-.31 7.92-.76 1.814 9.533 2.946 16.508 2.977 21.809.046 6.463-1.597 10.416-5.456 13.16-2.418 1.72-5.208 2.665-8.277 2.805-2.573.124-4.82-.341-6.231-.744h-.016s-.279-.093-.294-.28c-.016-.185.34-.232.34-.232h.032c1.906-.434 5.44-1.658 7.78-4.929 1.783-2.51 2.651-7.099.822-11.005-1.1-2.371-3.58-5.301-9.16-5.75-2.48-.202-4.728.31-6.712 1.503-1.798 1.07-3.286 2.697-4.324 4.681-2.434 4.666-1.984 10.354 1.116 14.167 2.944 3.596 7.517 5.89 12.911 6.464.853.093 1.69.124 2.527.124 4.402 0 8.757-1.194 12.307-3.38 3.627-2.557 5.735-6.51 6.401-12.09.558-4.603.17-10.477-1.209-18.49-.356-2.078-.899-5.085-1.55-8.805 5.704-1.906 9.827-5.456 13.563-11.268 3.27-5.689 4.2-11.75 2.79-18.012m-33.945 26.01c-4.604-1.21-9.006-3.69-12.726-7.177-1.302-1.209-3.162-3.363-4.619-6.727-1.348-3.146-2.015-6.557-1.953-10.106.062-4.666 1.364-9.455 3.844-14.198 2.899-5.534 7.425-11.02 13.439-16.306a89.206 89.206 0 004.076-3.813c.76 4.231 1.581 8.881 2.449 13.717-3.813 1.256-8.525 4.387-11.61 9.998-3.518 6.51-3.379 11.997-2.65 15.454.93 4.417 3.441 8.153 6.867 10.23.93.558 5.022 2.666 6.85 2.092a1.16 1.16 0 00.776-.666c.511-1.163-.512-1.798-2.046-2.744a27.274 27.274 0 01-1.984-1.317c-3.302-2.465-4.743-6.882-3.674-11.238a12.436 12.436 0 013.674-6.216c1.643-1.534 3.673-2.62 6.029-3.255 2.03 11.16 4.077 22.228 5.704 30.52.124.682.264 1.348.388 2.015-4.34.93-8.65.837-12.834-.263m11.237-32.938c10.261-.465 14.493 6.913 15.376 11.702.465 2.527.465 6.929-1.07 11.114-1.162 3.146-3.595 7.192-8.695 9.238-.062-.418-.14-.852-.217-1.271-1.534-8.711-3.456-19.623-5.394-30.783m-7.27-70.386c1.768-5.688 4.48-8.912 6.464-10.633 1.736-1.503 3.364-2.216 4.278-2.216.14 0 .264.03.357.062.465.14.992.697 1.457 1.565 2.294 4.247 1.55 10.912.217 15.314-1.612 5.363-4.51 10.928-13.237 20.46-.171-1.1-.326-2.139-.481-3.115-1.24-8.215-.914-15.438.946-21.437"/><path class="KeySig" d="M729.343 3402.137c-.589-3.86-2.976-7.533-8.029-7.533-4.96 0-7.843 3.069-8.339 3.673l.403-31.852c0-.79-.589-1.38-1.395-1.38h-1.178c-.806 0-1.395.59-1.395 1.38l.496 59.628c0 .791.589 1.38 1.395 1.38.186 0 .589-.093.79-.186.388-.202 6.836-3.379 12.199-9.424 3.767-4.278 5.255-9.13 5.255-13.206 0-.884-.094-1.674-.202-2.48m-6.836 3.875c0 1.488-.402 6.045-2.882 9.827-1.69 2.573-5.053 5.254-6.944 6.742l.294-19.344c.202-.899 1.69-3.766 5.658-3.766 3.58 0 3.874 3.363 3.874 5.456v1.085M704.543 3352.537c-.589-3.86-2.976-7.533-8.029-7.533-4.96 0-7.843 3.069-8.339 3.673l.403-31.852c0-.79-.589-1.38-1.395-1.38h-1.178c-.806 0-1.395.59-1.395 1.38l.496 59.628c0 .791.589 1.38 1.395 1.38.186 0 .589-.093.79-.186.388-.202 6.836-3.379 12.199-9.424 3.767-4.278 5.255-9.13 5.255-13.206 0-.884-.094-1.674-.202-2.48m-6.836 3.875c0 1.488-.402 6.045-2.882 9.827-1.69 2.573-5.053 5.254-6.944 6.742l.294-19.344c.202-.899 1.69-3.766 5.658-3.766 3.58 0 3.874 3.363 3.874 5.456v1.085M679.743 3389.737c-.589-3.86-2.976-7.533-8.029-7.533-4.96 0-7.843 3.069-8.339 3.673l.403-31.852c0-.79-.589-1.38-1.395-1.38h-1.178c-.806 0-1.395.59-1.395 1.38l.496 59.628c0 .791.589 1.38 1.395 1.38.186 0 .589-.093.79-.186.388-.202 6.836-3.379 12.199-9.424 3.767-4.278 5.255-9.13 5.255-13.206 0-.884-.094-1.674-.202-2.48m-6.836 3.875c0 1.488-.402 6.045-2.882 9.827-1.69 2.573-5.053 5.254-6.944 6.742l.294-19.344c.202-.899 1.69-3.766 5.658-3.766 3.58 0 3.874 3.363 3.874 5.456v1.085M729.343 3116.937c-.589-3.86-2.976-7.533-8.029-7.533-4.96 0-7.843 3.069-8.339 3.673l.403-31.852c0-.79-.589-1.38-1.395-1.38h-1.178c-.806 0-1.395.59-1.395 1.38l.496 59.628c0 .791.589 1.38 1.395 1.38.186 0 .589-.093.79-.186.388-.202 6.836-3.379 12.199-9.424 3.767-4.278 5.255-9.13 5.255-13.206 0-.884-.094-1.674-.202-2.48m-6.836 3.875c0 1.488-.402 6.045-2.882 9.827-1.69 2.573-5.053 5.254-6.944 6.742l.294-19.344c.202-.899 1.69-3.766 5.658-3.766 3.58 0 3.874 3.363 3.874 5.456v1.085M704.543 3067.337c-.589-3.86-2.976-7.533-8.029-7.533-4.96 0-7.843 3.069-8.339 3.673l.403-31.852c0-.79-.589-1.38-1.395-1.38h-1.178c-.806 0-1.395.59-1.395 1.38l.496 59.628c0 .791.589 1.38 1.395 1.38.186 0 .589-.093.79-.186.388-.202 6.836-3.379 12.199-9.424 3.767-4.278 5.255-9.13 5.255-13.206 0-.884-.094-1.674-.202-2.48m-6.836 3.875c0 1.488-.402 6.045-2.882 9.827-1.69 2.573-5.053 5.254-6.944 6.742l.294-19.344c.202-.899 1.69-3.766 5.658-3.766 3.58 0 3.874 3.363 3.874 5.456v1.085M679.743 3104.537c-.589-3.86-2.976-7.533-8.029-7.533-4.96 0-7.843 3.069-8.339 3.673l.403-31.852c0-.79-.589-1.38-1.395-1.38h-1.178c-.806 0-1.395.59-1.395 1.38l.496 59.628c0 .791.589 1.38 1.395 1.38.186 0 .589-.093.79-.186.388-.202 6.836-3.379 12.199-9.424 3.767-4.278 5.255-9.13 5.255-13.206 0-.884-.094-1.674-.202-2.48m-6.836 3.875c0 1.488-.402 6.045-2.882 9.827-1.69 2.573-5.053 5.254-6.944 6.742l.294-19.344c.202-.899 1.69-3.766 5.658-3.766 3.58 0 3.874 3.363 3.874 5.456v1.085M729.343 2735.437c-.589-3.86-2.976-7.533-8.029-7.533-4.96 0-7.843 3.069-8.339 3.673l.403-31.852c0-.79-.589-1.38-1.395-1.38h-1.178c-.806 0-1.395.59-1.395 1.38l.496 59.628c0 .791.589 1.38 1.395 1.38.186 0 .589-.093.79-.186.388-.202 6.836-3.379 12.199-9.424 3.767-4.278 5.255-9.13 5.255-13.206 0-.884-.094-1.674-.202-2.48m-6.836 3.875c0 1.488-.402 6.045-2.882 9.827-1.69 2.573-5.053 5.254-6.944 6.742l.294-19.344c.202-.899 1.69-3.766 5.658-3.766 3.58 0 3.874 3.363 3.874 5.456v1.085M704.543 2685.837c-.589-3.86-2.976-7.533-8.029-7.533-4.96 0-7.843 3.069-8.339 3.673l.403-31.852c0-.79-.589-1.38-1.395-1.38h-1.178c-.806 0-1.395.59-1.395 1.38l.496 59.628c0 .791.589 1.38 1.395 1.38.186 0 .589-.093.79-.186.388-.202 6.836-3.379 12.199-9.424 3.767-4.278 5.255-9.13 5.255-13.206 0-.884-.094-1.674-.202-2.48m-6.836 3.875c0 1.488-.402 6.045-2.882 9.827-1.69 2.573-5.053 5.254-6.944 6.742l.294-19.344c.202-.899 1.69-3.766 5.658-3.766 3.58 0 3.874 3.363 3.874 5.456v1.085M679.743 2723.037c-.589-3.86-2.976-7.533-8.029-7.533-4.96 0-7.843 3.069-8.339 3.673l.403-31.852c0-.79-.589-1.38-1.395-1.38h-1.178c-.806 0-1.395.59-1.395 1.38l.496 59.628c0 .791.589 1.38 1.395 1.38.186 0 .589-.093.79-.186.388-.202 6.836-3.379 12.199-9.424 3.767-4.278 5.255-9.13 5.255-13.206 0-.884-.094-1.674-.202-2.48m-6.836 3.875c0 1.488-.402 6.045-2.882 9.827-1.69 2.573-5.053 5.254-6.944 6.742l.294-19.344c.202-.899 1.69-3.766 5.658-3.766 3.58 0 3.874 3.363 3.874 5.456v1.085M729.343 2357.057c-.589-3.86-2.976-7.533-8.029-7.533-4.96 0-7.843 3.069-8.339 3.673l.403-31.852c0-.79-.589-1.38-1.395-1.38h-1.178c-.806 0-1.395.59-1.395 1.38l.496 59.628c0 .791.589 1.38 1.395 1.38.186 0 .589-.093.79-.186.388-.202 6.836-3.379 12.199-9.424 3.767-4.278 5.255-9.13 5.255-13.206 0-.884-.094-1.674-.202-2.48m-6.836 3.875c0 1.488-.402 6.045-2.882 9.827-1.69 2.573-5.053 5.254-6.944 6.742l.294-19.344c.202-.899 1.69-3.766 5.658-3.766 3.58 0 3.874 3.363 3.874 5.456v1.085M704.543 2307.457c-.589-3.86-2.976-7.533-8.029-7.533-4.96 0-7.843 3.069-8.339 3.673l.403-31.852c0-.79-.589-1.38-1.395-1.38h-1.178c-.806 0-1.395.59-1.395 1.38l.496 59.628c0 .791.589 1.38 1.395 1.38.186 0 .589-.093.79-.186.388-.202 6.836-3.379 12.199-9.424 3.767-4.278 5.255-9.13 5.255-13.206 0-.884-.094-1.674-.202-2.48m-6.836 3.875c0 1.488-.402 6.045-2.882 9.827-1.69 2.573-5.053 5.254-6.944 6.742l.294-19.344c.202-.899 1.69-3.766 5.658-3.766 3.58 0 3.874 3.363 3.874 5.456v1.085M679.743 2344.657c-.589-3.86-2.976-7.533-8.029-7.533-4.96 0-7.843 3.069-8.339 3.673l.403-31.852c0-.79-.589-1.38-1.395-1.38h-1.178c-.806 0-1.395.59-1.395 1.38l.496 59.628c0 .791.589 1.38 1.395 1.38.186 0 .589-.093.79-.186.388-.202 6.836-3.379 12.199-9.424 3.767-4.278 5.255-9.13 5.255-13.206 0-.884-.094-1.674-.202-2.48m-6.836 3.875c0 1.488-.402 6.045-2.882 9.827-1.69 2.573-5.053 5.254-6.944 6.742l.294-19.344c.202-.899 1.69-3.766 5.658-3.766 3.58 0 3.874 3.363 3.874 5.456v1.085M729.343 1978.677c-.589-3.86-2.976-7.533-8.029-7.533-4.96 0-7.843 3.069-8.339 3.673l.403-31.852c0-.79-.589-1.38-1.395-1.38h-1.178c-.806 0-1.395.59-1.395 1.38l.496 59.628c0 .791.589 1.38 1.395 1.38.186 0 .589-.093.79-.186.388-.202 6.836-3.379 12.199-9.424 3.767-4.278 5.255-9.13 5.255-13.206 0-.884-.094-1.674-.202-2.48m-6.836 3.875c0 1.488-.402 6.045-2.882 9.827-1.69 2.573-5.053 5.254-6.944 6.742l.294-19.344c.202-.899 1.69-3.766 5.658-3.766 3.58 0 3.874 3.363 3.874 5.456v1.085M704.543 1929.077c-.589-3.86-2.976-7.533-8.029-7.533-4.96 0-7.843 3.069-8.339 3.673l.403-31.852c0-.79-.589-1.38-1.395-1.38h-1.178c-.806 0-1.395.59-1.395 1.38l.496 59.628c0 .791.589 1.38 1.395 1.38.186 0 .589-.093.79-.186.388-.202 6.836-3.379 12.199-9.424 3.767-4.278 5.255-9.13 5.255-13.206 0-.884-.094-1.674-.202-2.48m-6.836 3.875c0 1.488-.402 6.045-2.882 9.827-1.69 2.573-5.053 5.254-6.944 6.742l.294-19.344c.202-.899 1.69-3.766 5.658-3.766 3.58 0 3.874 3.363 3.874 5.456v1.085M679.743 1966.277c-.589-3.86-2.976-7.533-8.029-7.533-4.96 0-7.843 3.069-8.339 3.673l.403-31.852c0-.79-.589-1.38-1.395-1.38h-1.178c-.806 0-1.395.59-1.395 1.38l.496 59.628c0 .791.589 1.38 1.395 1.38.186 0 .589-.093.79-.186.388-.202 6.836-3.379 12.199-9.424 3.767-4.278 5.255-9.13 5.255-13.206 0-.884-.094-1.674-.202-2.48m-6.836 3.875c0 1.488-.402 6.045-2.882 9.827-1.69 2.573-5.053 5.254-6.944 6.742l.294-19.344c.202-.899 1.69-3.766 5.658-3.766 3.58 0 3.874 3.363 3.874 5.456v1.085M729.343 1600.297c-.589-3.86-2.976-7.533-8.029-7.533-4.96 0-7.843 3.069-8.339 3.673l.403-31.852c0-.79-.589-1.38-1.395-1.38h-1.178c-.806 0-1.395.59-1.395 1.38l.496 59.628c0 .791.589 1.38 1.395 1.38.186 0 .589-.093.79-.186.388-.202 6.836-3.379 12.199-9.424 3.767-4.278 5.255-9.13 5.255-13.206 0-.884-.094-1.674-.202-2.48m-6.836 3.875c0 1.488-.402 6.045-2.882 9.827-1.69 2.573-5.053 5.254-6.944 6.742l.294-19.344c.202-.899 1.69-3.766 5.658-3.766 3.58 0 3.874 3.363 3.874 5.456v1.085M704.543 1550.697c-.589-3.86-2.976-7.533-8.029-7.533-4.96 0-7.843 3.069-8.339 3.673l.403-31.852c0-.79-.589-1.38-1.395-1.38h-1.178c-.806 0-1.395.59-1.395 1.38l.496 59.628c0 .791.589 1.38 1.395 1.38.186 0 .589-.093.79-.186.388-.202 6.836-3.379 12.199-9.424 3.767-4.278 5.255-9.13 5.255-13.206 0-.884-.094-1.674-.202-2.48m-6.836 3.875c0 1.488-.402 6.045-2.882 9.827-1.69 2.573-5.053 5.254-6.944 6.742l.294-19.344c.202-.899 1.69-3.766 5.658-3.766 3.58 0 3.874 3.363 3.874 5.456v1.085M679.743 1587.897c-.589-3.86-2.976-7.533-8.029-7.533-4.96 0-7.843 3.069-8.339 3.673l.403-31.852c0-.79-.589-1.38-1.395-1.38h-1.178c-.806 0-1.395.59-1.395 1.38l.496 59.628c0 .791.589 1.38 1.395 1.38.186 0 .589-.093.79-.186.388-.202 6.836-3.379 12.199-9.424 3.767-4.278 5.255-9.13 5.255-13.206 0-.884-.094-1.674-.202-2.48m-6.836 3.875c0 1.488-.402 6.045-2.882 9.827-1.69 2.573-5.053 5.254-6.944 6.742l.294-19.344c.202-.899 1.69-3.766 5.658-3.766 3.58 0 3.874 3.363 3.874 5.456v1.085M729.343 1221.917c-.589-3.86-2.976-7.533-8.029-7.533-4.96 0-7.843 3.069-8.339 3.673l.403-31.852c0-.79-.589-1.38-1.395-1.38h-1.178c-.806 0-1.395.59-1.395 1.38l.496 59.628c0 .791.589 1.38 1.395 1.38.186 0 .589-.093.79-.186.388-.202 6.836-3.379 12.199-9.424 3.767-4.278 5.255-9.13 5.255-13.206 0-.884-.094-1.674-.202-2.48m-6.836 3.875c0 1.488-.402 6.045-2.882 9.827-1.69 2.573-5.053 5.254-6.944 6.742l.294-19.344c.202-.899 1.69-3.766 5.658-3.766 3.58 0 3.874 3.363 3.874 5.456v1.085M704.543 1172.317c-.589-3.86-2.976-7.533-8.029-7.533-4.96 0-7.843 3.069-8.339 3.673l.403-31.852c0-.79-.589-1.38-1.395-1.38h-1.178c-.806 0-1.395.59-1.395 1.38l.496 59.628c0 .791.589 1.38 1.395 1.38.186 0 .589-.093.79-.186.388-.202 6.836-3.379 12.199-9.424 3.767-4.278 5.255-9.13 5.255-13.206 0-.884-.094-1.674-.202-2.48m-6.836 3.875c0 1.488-.402 6.045-2.882 9.827-1.69 2.573-5.053 5.254-6.944 6.742l.294-19.344c.202-.899 1.69-3.766 5.658-3.766 3.58 0 3.874 3.363 3.874 5.456v1.085M679.743 1209.517c-.589-3.86-2.976-7.533-8.029-7.533-4.96 0-7.843 3.069-8.339 3.673l.403-31.852c0-.79-.589-1.38-1.395-1.38h-1.178c-.806 0-1.395.59-1.395 1.38l.496 59.628c0 .791.589 1.38 1.395 1.38.186 0 .589-.093.79-.186.388-.202 6.836-3.379 12.199-9.424 3.767-4.278 5.255-9.13 5.255-13.206 0-.884-.094-1.674-.202-2.48m-6.836 3.875c0 1.488-.402 6.045-2.882 9.827-1.69 2.573-5.053 5.254-6.944 6.742l.294-19.344c.202-.899 1.69-3.766 5.658-3.766 3.58 0 3.874 3.363 3.874 5.456v1.085"/><path class="Rest" d="M846.4 2344.471l-.202-.31c-.093-.093-.295-.294-.589-.682l-11.408-14.09c-.31-.294-.202-1.1 0-1.487l10.106-15.283c.108-.202.202-.496.202-.698v-.884c0-.294-.094-.604-.295-.79l-16.073-21.731s-.791-1.194-1.783-.295c-.992.791-.201 2.077-.201 2.077l7.548 10.323c.388.59.388 1.783 0 2.372l-10.028 15.283c-.093.201-.202.589-.202.79v.9c0 .294.109.588.31.79l11.098 13.795c-.388-.108-1.286-.31-2.48-.31-1.674 0-3.86.403-5.642 1.984-2.185 1.984-3.379 4.774-3.379 7.254 0 1.38.295 2.774 1.085 3.86 2.093 3.177 9.532 12.601 9.532 12.601s.884 1.1 1.783.403c.9-.697.697-1.596.403-2.092-.31-.496-3.472-6.247-3.472-6.247s-.697-1.395-.697-3.177c0-1.287.387-2.868 1.69-4.17 1.177-1.178 2.572-1.581 3.859-1.581 1.286 0 2.386.403 3.177.9l3.875 2.48s1.178.588 1.782-.31c.496-.791.295-1.179 0-1.675M1739.057 2344.471l-.201-.31c-.093-.093-.295-.294-.589-.682l-11.408-14.09c-.31-.294-.202-1.1 0-1.487l10.106-15.283c.108-.202.202-.496.202-.698v-.884c0-.294-.094-.604-.295-.79l-16.073-21.731s-.791-1.194-1.783-.295c-.992.791-.201 2.077-.201 2.077l7.548 10.323c.388.59.388 1.783 0 2.372l-10.028 15.283c-.093.201-.202.589-.202.79v.9c0 .294.109.588.31.79l11.098 13.795c-.388-.108-1.286-.31-2.48-.31-1.674 0-3.86.403-5.642 1.984-2.185 1.984-3.379 4.774-3.379 7.254 0 1.38.295 2.774 1.085 3.86 2.093 3.177 9.532 12.601 9.532 12.601s.884 1.1 1.783.403c.9-.697.697-1.596.403-2.092-.31-.496-3.472-6.247-3.472-6.247s-.697-1.395-.697-3.177c0-1.287.387-2.868 1.69-4.17 1.177-1.178 2.572-1.581 3.859-1.581 1.286 0 2.386.403 3.177.9l3.875 2.48s1.178.588 1.782-.31c.496-.791.295-1.179 0-1.675M846.4 1966.091l-.202-.31c-.093-.093-.295-.294-.589-.682l-11.408-14.09c-.31-.294-.202-1.1 0-1.487l10.106-15.283c.108-.202.202-.496.202-.698v-.884c0-.294-.094-.604-.295-.79l-16.073-21.731s-.791-1.194-1.783-.295c-.992.791-.201 2.077-.201 2.077l7.548 10.323c.388.59.388 1.783 0 2.372l-10.028 15.283c-.093.201-.202.589-.202.79v.9c0 .294.109.588.31.79l11.098 13.795c-.388-.108-1.286-.31-2.48-.31-1.674 0-3.86.403-5.642 1.984-2.185 1.984-3.379 4.774-3.379 7.254 0 1.38.295 2.774 1.085 3.86 2.093 3.177 9.532 12.601 9.532 12.601s.884 1.1 1.783.403c.9-.697.697-1.596.403-2.092-.31-.496-3.472-6.247-3.472-6.247s-.697-1.395-.697-3.177c0-1.287.387-2.868 1.69-4.17 1.177-1.178 2.572-1.581 3.859-1.581 1.286 0 2.386.403 3.177.9l3.875 2.48s1.178.588 1.782-.31c.496-.791.295-1.179 0-1.675M1739.057 1966.091l-.201-.31c-.093-.093-.295-.294-.589-.682l-11.408-14.09c-.31-.294-.202-1.1 0-1.487l10.106-15.283c.108-.202.202-.496.202-.698v-.884c0-.294-.094-.604-.295-.79l-16.073-21.731s-.791-1.194-1.783-.295c-.992.791-.201 2.077-.201 2.077l7.548 10.323c.388.59.388 1.783 0 2.372l-10.028 15.283c-.093.201-.202.589-.202.79v.9c0 .294.109.588.31.79l11.098 13.795c-.388-.108-1.286-.31-2.48-.31-1.674 0-3.86.403-5.642 1.984-2.185 1.984-3.379 4.774-3.379 7.254 0 1.38.295 2.774 1.085 3.86 2.093 3.177 9.532 12.601 9.532 12.601s.884 1.1 1.783.403c.9-.697.697-1.596.403-2.092-.31-.496-3.472-6.247-3.472-6.247s-.697-1.395-.697-3.177c0-1.287.387-2.868 1.69-4.17 1.177-1.178 2.572-1.581 3.859-1.581 1.286 0 2.386.403 3.177.9l3.875 2.48s1.178.588 1.782-.31c.496-.791.295-1.179 0-1.675M846.4 1587.711l-.202-.31c-.093-.093-.295-.294-.589-.682l-11.408-14.09c-.31-.294-.202-1.1 0-1.487l10.106-15.283c.108-.202.202-.496.202-.698v-.884c0-.294-.094-.604-.295-.79l-16.073-21.731s-.791-1.194-1.783-.295c-.992.791-.201 2.077-.201 2.077l7.548 10.323c.388.59.388 1.783 0 2.372l-10.028 15.283c-.093.201-.202.589-.202.79v.9c0 .294.109.588.31.79l11.098 13.795c-.388-.108-1.286-.31-2.48-.31-1.674 0-3.86.403-5.642 1.984-2.185 1.984-3.379 4.774-3.379 7.254 0 1.38.295 2.774 1.085 3.86 2.093 3.177 9.532 12.601 9.532 12.601s.884 1.1 1.783.403c.9-.697.697-1.596.403-2.092-.31-.496-3.472-6.247-3.472-6.247s-.697-1.395-.697-3.177c0-1.287.387-2.868 1.69-4.17 1.177-1.178 2.572-1.581 3.859-1.581 1.286 0 2.386.403 3.177.9l3.875 2.48s1.178.588 1.782-.31c.496-.791.295-1.179 0-1.675M1739.057 1587.711l-.201-.31c-.093-.093-.295-.294-.589-.682l-11.408-14.09c-.31-.294-.202-1.1 0-1.487l10.106-15.283c.108-.202.202-.496.202-.698v-.884c0-.294-.094-.604-.295-.79l-16.073-21.731s-.791-1.194-1.783-.295c-.992.791-.201 2.077-.201 2.077l7.548 10.323c.388.59.388 1.783 0 2.372l-10.028 15.283c-.093.201-.202.589-.202.79v.9c0 .294.109.588.31.79l11.098 13.795c-.388-.108-1.286-.31-2.48-.31-1.674 0-3.86.403-5.642 1.984-2.185 1.984-3.379 4.774-3.379 7.254 0 1.38.295 2.774 1.085 3.86 2.093 3.177 9.532 12.601 9.532 12.601s.884 1.1 1.783.403c.9-.697.697-1.596.403-2.092-.31-.496-3.472-6.247-3.472-6.247s-.697-1.395-.697-3.177c0-1.287.387-2.868 1.69-4.17 1.177-1.178 2.572-1.581 3.859-1.581 1.286 0 2.386.403 3.177.9l3.875 2.48s1.178.588 1.782-.31c.496-.791.295-1.179 0-1.675M846.4 1209.331l-.202-.31c-.093-.093-.295-.294-.589-.682l-11.408-14.09c-.31-.294-.202-1.1 0-1.487l10.106-15.283c.108-.202.202-.496.202-.698v-.884c0-.294-.094-.604-.295-.79l-16.073-21.731s-.791-1.194-1.783-.295c-.992.791-.201 2.077-.201 2.077l7.548 10.323c.388.59.388 1.783 0 2.372l-10.028 15.283c-.093.201-.202.589-.202.79v.9c0 .294.109.588.31.79l11.098 13.795c-.388-.108-1.286-.31-2.48-.31-1.674 0-3.86.403-5.642 1.984-2.185 1.984-3.379 4.774-3.379 7.254 0 1.38.295 2.774 1.085 3.86 2.093 3.177 9.532 12.601 9.532 12.601s.884 1.1 1.783.403c.9-.697.697-1.596.403-2.092-.31-.496-3.472-6.247-3.472-6.247s-.697-1.395-.697-3.177c0-1.287.387-2.868 1.69-4.17 1.177-1.178 2.572-1.581 3.859-1.581 1.286 0 2.386.403 3.177.9l3.875 2.48s1.178.588 1.782-.31c.496-.791.295-1.179 0-1.675M1739.057 1209.331l-.201-.31c-.093-.093-.295-.294-.589-.682l-11.408-14.09c-.31-.294-.202-1.1 0-1.487l10.106-15.283c.108-.202.202-.496.202-.698v-.884c0-.294-.094-.604-.295-.79l-16.073-21.731s-.791-1.194-1.783-.295c-.992.791-.201 2.077-.201 2.077l7.548 10.323c.388.59.388 1.783 0 2.372l-10.028 15.283c-.093.201-.202.589-.202.79v.9c0 .294.109.588.31.79l11.098 13.795c-.388-.108-1.286-.31-2.48-.31-1.674 0-3.86.403-5.642 1.984-2.185 1.984-3.379 4.774-3.379 7.254 0 1.38.295 2.774 1.085 3.86 2.093 3.177 9.532 12.601 9.532 12.601s.884 1.1 1.783.403c.9-.697.697-1.596.403-2.092-.31-.496-3.472-6.247-3.472-6.247s-.697-1.395-.697-3.177c0-1.287.387-2.868 1.69-4.17 1.177-1.178 2.572-1.581 3.859-1.581 1.286 0 2.386.403 3.177.9l3.875 2.48s1.178.588 1.782-.31c.496-.791.295-1.179 0-1.675M1749.241 415.696c-.744-.264-1.41.092-1.72.712-.295.605-3.1 5.999-7.378 9.378-1.334 1.054-2.884 1.736-4.434 2.123a7.077 7.077 0 001.628-4.758 7.07 7.07 0 00-7.316-6.82c-3.906.14-6.975 3.41-6.835 7.316a7.077 7.077 0 004.696 6.417c1.55.682 3.441 1.038 5.471.976 2.822-.108 5.875-1.038 8.495-3.1 1.224-.96 2.371-2.185 3.394-3.472v.016l-4.464 15.779s0 .016-.015.016v.015c-.466.946-3.69 7.068-7.673 10.214-1.333 1.07-2.883 1.752-4.433 2.124a7.01 7.01 0 001.628-4.743c-.14-3.921-3.41-6.975-7.316-6.835-3.906.139-6.976 3.41-6.836 7.331.109 2.976 2.046 5.456 4.697 6.417 1.55.666 3.44 1.038 5.471.961a14.522 14.522 0 008.494-3.085c1.209-.96 2.356-2.17 3.379-3.472l-10.121 36.178 2.65.744 18.523-65.674.868-3.1c.201-.728-.109-1.41-.853-1.658"/><path class="Articulation" d="M836.77 2671.618a3.854 3.854 0 005.471 0 3.854 3.854 0 000-5.471c-1.503-1.504-3.952-1.504-5.471 0-1.504 1.519-1.504 3.968 0 5.471M836.77 916.13c1.519 1.503 3.968 1.503 5.471 0a3.854 3.854 0 000-5.472 3.854 3.854 0 00-5.471 0c-1.504 1.504-1.504 3.953 0 5.472"/><path class="Beam" fill-rule="evenodd" d="M2267.18 2606.69l393.96 24.98v12.42l-393.96-24.97v-12.43M2267.18 2625.29l393.96 24.98v12.42l-393.96-24.97v-12.43M2267.18 714.793l393.96 24.973v12.425l-393.96-24.973v-12.425M2267.18 733.393l393.96 24.973v12.425l-393.96-24.973v-12.425M823.382 423.394l328.498 12.504v12.409l-328.498-12.504v-12.409M1846.45 472.999H2110v12.4h-263.55v-12.4M1846.45 454.399H2110v12.4h-263.55v-12.4M2237.68 448.186l393.95-24.973v12.425l-393.95 24.973v-12.425M2237.68 429.586l393.95-24.973v12.425l-393.95 24.973v-12.425"/><path class="Hook" d="M1555.64 2780.883c0-.201.899-3.58.992-3.875.093-.403 1.891-6.045 5.549-11.703 2.682-4.169 12.106-16.368 11.811-16.368 0 0 7.347-9.424 7.843-22.227v-2.278c0-6.06-.79-14.586-4.278-23.22-.388-.991-.79-1.983-1.876-1.58-1.1.387-.79 1.58-.496 2.666 1.783 6.96 2.775 14.09 2.775 21.235 0 8.339-2.976 12.508-4.759 15.577-6.556 11.005-15.081 16.368-19.25 17.763-.496.202-.791.59-.791 1.086V2780.387c0 .682.589 1.287 1.287 1.287.496 0 1.1-.403 1.193-.791M1555.64 2377.703c0-.201.899-3.58.992-3.875.093-.403 1.891-6.045 5.549-11.703 2.682-4.169 12.106-16.368 11.811-16.368 0 0 7.347-9.424 7.843-22.227v-2.278c0-6.06-.79-14.586-4.278-23.22-.388-.991-.79-1.983-1.876-1.58-1.1.387-.79 1.58-.496 2.666 1.783 6.96 2.775 14.09 2.775 21.235 0 8.339-2.976 12.508-4.759 15.577-6.556 11.005-15.081 16.368-19.25 17.763-.496.202-.791.59-.791 1.086V2377.207c0 .682.589 1.287 1.287 1.287.496 0 1.1-.403 1.193-.791M1555.64 1974.523c0-.201.899-3.58.992-3.875.093-.403 1.891-6.045 5.549-11.703 2.682-4.169 12.106-16.368 11.811-16.368 0 0 7.347-9.424 7.843-22.227v-2.278c0-6.06-.79-14.586-4.278-23.22-.388-.991-.79-1.983-1.876-1.58-1.1.387-.79 1.58-.496 2.666 1.783 6.96 2.775 14.09 2.775 21.235 0 8.339-2.976 12.508-4.759 15.577-6.556 11.005-15.081 16.368-19.25 17.763-.496.202-.791.59-.791 1.086V1974.027c0 .682.589 1.287 1.287 1.287.496 0 1.1-.403 1.193-.791M1555.64 1571.343c0-.201.899-3.58.992-3.875.093-.403 1.891-6.045 5.549-11.703 2.682-4.169 12.106-16.368 11.811-16.368 0 0 7.347-9.424 7.843-22.227v-2.278c0-6.06-.79-14.586-4.278-23.22-.388-.991-.79-1.983-1.876-1.58-1.1.387-.79 1.58-.496 2.666 1.783 6.96 2.775 14.09 2.775 21.235 0 8.339-2.976 12.508-4.759 15.577-6.556 11.005-15.081 16.368-19.25 17.763-.496.202-.791.59-.791 1.086V1570.847c0 .682.589 1.287 1.287 1.287.496 0 1.1-.403 1.193-.791M1555.64 1192.963c0-.201.899-3.58.992-3.875.093-.403 1.891-6.045 5.549-11.703 2.682-4.169 12.106-16.368 11.811-16.368 0 0 7.347-9.424 7.843-22.227v-2.278c0-6.06-.79-14.586-4.278-23.22-.388-.991-.79-1.983-1.876-1.58-1.1.387-.79 1.58-.496 2.666 1.783 6.96 2.775 14.09 2.775 21.235 0 8.339-2.976 12.508-4.759 15.577-6.556 11.005-15.081 16.368-19.25 17.763-.496.202-.791.59-.791 1.086V1192.467c0 .682.589 1.287 1.287 1.287.496 0 1.1-.403 1.193-.791M1586.142 805.251c-.093-.294-.992-3.767-.992-3.968-.093-.403-.697-.698-1.193-.698-.698 0-1.287.605-1.287 1.287V824.3c0 .496.403.884.79 1.086 4.17 1.286 12.803 6.758 19.251 17.763 1.783 3.069 4.666 7.238 4.666 15.577 0 7.146-1.1 14.679-2.883 21.623-.295 1.1-.589 2.092.496 2.48 1.085.403 1.488-.388 1.891-1.38 3.565-8.742 4.464-17.871 4.464-24.01v-1.89c-.496-12.803-7.843-22.227-7.843-22.227.295 0-9.13-12.199-11.811-16.368-3.658-5.658-5.456-11.3-5.549-11.703M758.404 303.07c-.065-.207-.694-2.637-.694-2.778-.065-.282-.488-.488-.835-.488a.92.92 0 00-.901.9V316.404c0 .347.282.619.553.76 2.919.9 8.962 4.73 13.476 12.434 1.248 2.148 3.266 5.067 3.266 10.904 0 5.002-.77 10.275-2.018 15.136-.206.77-.412 1.464.347 1.736.76.282 1.042-.272 1.324-.966 2.495-6.12 3.125-12.51 3.125-16.807v-1.323c-.348-8.962-5.49-15.56-5.49-15.56.206 0-6.391-8.538-8.268-11.457-2.56-3.96-3.82-7.91-3.885-8.192M961.758 303.07c-.065-.207-.694-2.637-.694-2.778-.065-.282-.488-.488-.835-.488a.92.92 0 00-.901.9V316.404c0 .347.282.619.553.76 2.919.9 8.962 4.73 13.476 12.434 1.248 2.148 3.266 5.067 3.266 10.904 0 5.002-.77 10.275-2.018 15.136-.206.77-.412 1.464.347 1.736.76.282 1.042-.272 1.324-.966 2.495-6.12 3.125-12.51 3.125-16.807v-1.323c-.348-8.962-5.49-15.56-5.49-15.56.206 0-6.391-8.538-8.268-11.457-2.56-3.96-3.82-7.91-3.885-8.192"/><path class="Tuplet" d="M1453.01 2810.11c2.12-.67 2.97-1.05 4.05-1.77 2.12-1.39 3.42-3.86 3.42-6.39 0-4.26-3.42-7.14-8.45-7.14-4.91 0-9.05 3.05-9.05 6.75 0 1.84 1.12 3.09 2.83 3.09 1.48 0 2.57-1.07 2.57-2.56 0-.76-.23-1.3-.95-2.01-.45-.41-.62-.74-.62-1.05 0-1.08 2.25-2.2 4.36-2.2 3.01 0 4.81 1.67 4.81 4.45 0 4.01-2.83 7.78-5.85 7.78-.14 0-.54-.03-1.03-.08-1.31-.09-1.31-.09-1.57-.09-1 0-1.54.45-1.54 1.26 0 .72.5 1.16 1.3 1.16.24 0 .55-.03.91-.08a8.51 8.51 0 011.7-.19c2.13 0 3.56 1.9 3.56 4.69 0 2.16-.5 4.22-1.48 5.94-1.35 2.42-3.42 3.59-6.35 3.59-2.51 0-4.68-1.25-4.68-2.7 0-.48.18-.67.9-.98 1.3-.58 1.85-1.39 1.85-2.61 0-1.58-1.27-2.78-2.88-2.78-1.94 0-3.2 1.51-3.2 3.85 0 4.38 3.33 7.11 8.73 7.11 6.8 0 11.97-4.54 11.97-10.57 0-1.61-.5-3.02-1.44-4.14-1-1.16-1.89-1.71-3.87-2.33"/><path class="Tuplet" fill="none" stroke="#000" stroke-width="2.48" stroke-linecap="square" stroke-linejoin="bevel" d="M1312.03 2789.28v18.6l112.28 2.55M1473.11 2811.54l112.28 2.54v-18.6"/><path class="Tuplet" d="M1453.01 2410.03c2.12-.67 2.97-1.05 4.05-1.77 2.12-1.39 3.42-3.86 3.42-6.39 0-4.26-3.42-7.14-8.45-7.14-4.91 0-9.05 3.05-9.05 6.75 0 1.84 1.12 3.09 2.83 3.09 1.48 0 2.57-1.07 2.57-2.56 0-.76-.23-1.3-.95-2.01-.45-.41-.62-.74-.62-1.05 0-1.08 2.25-2.2 4.36-2.2 3.01 0 4.81 1.67 4.81 4.45 0 4.01-2.83 7.78-5.85 7.78-.14 0-.54-.03-1.03-.08-1.31-.09-1.31-.09-1.57-.09-1 0-1.54.45-1.54 1.26 0 .72.5 1.16 1.3 1.16.24 0 .55-.03.91-.08a8.51 8.51 0 011.7-.19c2.13 0 3.56 1.9 3.56 4.69 0 2.16-.5 4.22-1.48 5.94-1.35 2.42-3.42 3.59-6.35 3.59-2.51 0-4.68-1.25-4.68-2.7 0-.48.18-.67.9-.98 1.3-.58 1.85-1.39 1.85-2.61 0-1.58-1.27-2.78-2.88-2.78-1.94 0-3.2 1.51-3.2 3.85 0 4.38 3.33 7.11 8.73 7.11 6.8 0 11.97-4.54 11.97-10.57 0-1.61-.5-3.02-1.44-4.14-1-1.16-1.89-1.71-3.87-2.33"/><path class="Tuplet" fill="none" stroke="#000" stroke-width="2.48" stroke-linecap="square" stroke-linejoin="bevel" d="M1312.03 2392.3v18.6h112.28M1473.11 2410.9h112.28v-18.6"/><path class="Tuplet" d="M1453.01 2031.65c2.12-.67 2.97-1.05 4.05-1.77 2.12-1.39 3.42-3.86 3.42-6.39 0-4.26-3.42-7.14-8.45-7.14-4.91 0-9.05 3.05-9.05 6.75 0 1.84 1.12 3.09 2.83 3.09 1.48 0 2.57-1.07 2.57-2.56 0-.76-.23-1.3-.95-2.01-.45-.41-.62-.74-.62-1.05 0-1.08 2.25-2.2 4.36-2.2 3.01 0 4.81 1.67 4.81 4.45 0 4.01-2.83 7.78-5.85 7.78-.14 0-.54-.03-1.03-.08-1.31-.09-1.31-.09-1.57-.09-1 0-1.54.45-1.54 1.26 0 .72.5 1.16 1.3 1.16.24 0 .55-.03.91-.08a8.51 8.51 0 011.7-.19c2.13 0 3.56 1.9 3.56 4.69 0 2.16-.5 4.22-1.48 5.94-1.35 2.42-3.42 3.59-6.35 3.59-2.51 0-4.68-1.25-4.68-2.7 0-.48.18-.67.9-.98 1.3-.58 1.85-1.39 1.85-2.61 0-1.58-1.27-2.78-2.88-2.78-1.94 0-3.2 1.51-3.2 3.85 0 4.38 3.33 7.11 8.73 7.11 6.8 0 11.97-4.54 11.97-10.57 0-1.61-.5-3.02-1.44-4.14-1-1.16-1.89-1.71-3.87-2.33"/><path class="Tuplet" fill="none" stroke="#000" stroke-width="2.48" stroke-linecap="square" stroke-linejoin="bevel" d="M1312.03 2013.92v18.6h112.28M1473.11 2032.52h112.28v-18.6"/><path class="Tuplet" d="M1453.01 1653.27c2.12-.67 2.97-1.05 4.05-1.77 2.12-1.39 3.42-3.86 3.42-6.39 0-4.26-3.42-7.14-8.45-7.14-4.91 0-9.05 3.05-9.05 6.75 0 1.84 1.12 3.09 2.83 3.09 1.48 0 2.57-1.07 2.57-2.56 0-.76-.23-1.3-.95-2.01-.45-.41-.62-.74-.62-1.05 0-1.08 2.25-2.2 4.36-2.2 3.01 0 4.81 1.67 4.81 4.45 0 4.01-2.83 7.78-5.85 7.78-.14 0-.54-.03-1.03-.08-1.31-.09-1.31-.09-1.57-.09-1 0-1.54.45-1.54 1.26 0 .72.5 1.16 1.3 1.16.24 0 .55-.03.91-.08a8.51 8.51 0 011.7-.19c2.13 0 3.56 1.9 3.56 4.69 0 2.16-.5 4.22-1.48 5.94-1.35 2.42-3.42 3.59-6.35 3.59-2.51 0-4.68-1.25-4.68-2.7 0-.48.18-.67.9-.98 1.3-.58 1.85-1.39 1.85-2.61 0-1.58-1.27-2.78-2.88-2.78-1.94 0-3.2 1.51-3.2 3.85 0 4.38 3.33 7.11 8.73 7.11 6.8 0 11.97-4.54 11.97-10.57 0-1.61-.5-3.02-1.44-4.14-1-1.16-1.89-1.71-3.87-2.33"/><path class="Tuplet" fill="none" stroke="#000" stroke-width="2.48" stroke-linecap="square" stroke-linejoin="bevel" d="M1312.03 1635.54v18.6h112.28M1473.11 1654.14h112.28v-18.6"/><path class="Tuplet" d="M1453.01 1274.89c2.12-.67 2.97-1.05 4.05-1.77 2.12-1.39 3.42-3.86 3.42-6.39 0-4.26-3.42-7.14-8.45-7.14-4.91 0-9.05 3.05-9.05 6.75 0 1.84 1.12 3.09 2.83 3.09 1.48 0 2.57-1.07 2.57-2.56 0-.76-.23-1.29-.95-2.01-.45-.41-.62-.74-.62-1.05 0-1.08 2.25-2.2 4.36-2.2 3.01 0 4.81 1.67 4.81 4.45 0 4.02-2.83 7.78-5.85 7.78-.14 0-.54-.03-1.03-.08-1.31-.09-1.31-.09-1.57-.09-1 0-1.54.45-1.54 1.26 0 .72.5 1.16 1.3 1.16.24 0 .55-.03.91-.08.62-.14 1.31-.18 1.7-.18 2.13 0 3.56 1.89 3.56 4.68 0 2.16-.5 4.22-1.48 5.94-1.35 2.42-3.42 3.59-6.35 3.59-2.51 0-4.68-1.25-4.68-2.7 0-.48.18-.67.9-.98 1.3-.58 1.85-1.39 1.85-2.61 0-1.58-1.27-2.78-2.88-2.78-1.94 0-3.2 1.51-3.2 3.86 0 4.37 3.33 7.1 8.73 7.1 6.8 0 11.97-4.54 11.97-10.57 0-1.61-.5-3.02-1.44-4.14-1-1.16-1.89-1.71-3.87-2.33"/><path class="Tuplet" fill="none" stroke="#000" stroke-width="2.48" stroke-linecap="square" stroke-linejoin="bevel" d="M1312.03 1257.16v18.6h112.28M1473.11 1275.76h112.28v-18.6"/><path class="Tuplet" d="M1465.41 730.099c2.12-.671 2.97-1.046 4.05-1.765 2.12-1.391 3.42-3.86 3.42-6.391 0-4.265-3.42-7.14-8.45-7.14-4.91 0-9.05 3.046-9.05 6.75 0 1.843 1.12 3.093 2.83 3.093 1.48 0 2.57-1.078 2.57-2.562 0-.766-.23-1.297-.95-2.016-.45-.406-.62-.734-.62-1.047 0-1.078 2.25-2.203 4.36-2.203 3.01 0 4.81 1.672 4.81 4.453 0 4.016-2.83 7.782-5.85 7.782-.14 0-.54-.032-1.03-.079-1.31-.093-1.31-.093-1.57-.093-1 0-1.54.453-1.54 1.265 0 .719.5 1.157 1.3 1.157.24 0 .55-.032.91-.079.62-.14 1.31-.187 1.7-.187 2.13 0 3.56 1.891 3.56 4.687 0 2.157-.5 4.219-1.48 5.938-1.35 2.422-3.42 3.594-6.35 3.594-2.51 0-4.68-1.25-4.68-2.703 0-.485.18-.672.9-.985 1.3-.578 1.85-1.39 1.85-2.609 0-1.578-1.27-2.781-2.88-2.781-1.94 0-3.2 1.515-3.2 3.859 0 4.375 3.33 7.109 8.73 7.109 6.8 0 11.97-4.547 11.97-10.578 0-1.609-.5-3.015-1.44-4.14-1-1.157-1.89-1.704-3.87-2.329"/><path class="Tuplet" fill="none" stroke="#000" stroke-width="2.48" stroke-linecap="square" stroke-linejoin="bevel" d="M1324.43 749.574v-18.6h112.28M1485.51 730.974h112.28v18.6"/><path class="Tuplet" d="M990.562 515.524c2.125-.672 2.969-1.047 4.047-1.766 2.125-1.39 3.422-3.859 3.422-6.39 0-4.266-3.422-7.141-8.453-7.141-4.907 0-9.047 3.047-9.047 6.75 0 1.844 1.125 3.094 2.828 3.094 1.484 0 2.578-1.078 2.578-2.563 0-.765-.234-1.297-.953-2.015-.453-.407-.625-.735-.625-1.047 0-1.078 2.25-2.203 4.359-2.203 3.016 0 4.813 1.671 4.813 4.453 0 4.015-2.828 7.781-5.844 7.781-.141 0-.547-.031-1.031-.078-1.313-.094-1.313-.094-1.578-.094-1 0-1.532.453-1.532 1.266 0 .718.5 1.156 1.297 1.156.235 0 .547-.031.907-.078a8.47 8.47 0 011.703-.188c2.125 0 3.562 1.891 3.562 4.688 0 2.156-.5 4.219-1.484 5.937-1.344 2.422-3.422 3.594-6.344 3.594-2.516 0-4.687-1.25-4.687-2.703 0-.484.187-.672.906-.984 1.297-.579 1.844-1.391 1.844-2.61 0-1.578-1.266-2.781-2.875-2.781-1.938 0-3.204 1.516-3.204 3.859 0 4.375 3.329 7.11 8.735 7.11 6.797 0 11.969-4.547 11.969-10.578 0-1.61-.5-3.016-1.438-4.141-1-1.156-1.891-1.703-3.875-2.328"/><path class="HairpinSegment" fill="none" stroke="#000" stroke-width="2.98" stroke-linecap="square" stroke-linejoin="bevel" d="M2237.68 2426.9l496 14M2237.68 2426.9l496-14M2237.68 2048.52l496 14M2237.68 2048.52l496-14M2237.68 1670.14l496 14M2237.68 1670.14l496-14M2237.68 1291.76l496 14M2237.68 1291.76l496-14"/><path class="PedalSegment" d="M838.116 3545.89c1.344 1.97 4.234 5.33 5.437 6.99 1.188 1.65 1.204 3.39-1.218 5.45-2.641 2.28-5.297 3.7-6.516 4.47-.984.63-7.062 3.2-5.141 6.92 1.594 3.11 5.297.27 7.016-1.56.891-.95 2.078-3.09 3.672-3.09 1.375 0 2.203 1.98 3.062 3.17 1.516 2.06 2.532 2.69 4.829 2.69 2.671 0 4.39-2.94 7.812-5.83 0 0 2.375 5.79 6.375 5.79 4.703 0 10.203-5.68 10.203-5.68 1.453 3.68 6.172 6.67 10.406 5.53 5.5-1.5 8.391-7.56 7.688-13.75-1.828-16.11-19.25-21.66-24.25-22.56-1.313-.24-2.875-.66-3.047.57-.187 1.22 1.484 1.93 1.484 1.93.61.2 1.204.42 1.766.62 10.203 3.89 13.703 9.3 13.703 9.3-9.281 3.18-9.015 12.78-8.734 15.84-.641.83-3.563 3.45-6.688 3.45-3.297 0-4.265-3.95-4.265-3.95s1.843-1.64 4.968-4.33c6.516-5.64 2.735-12.23-2.265-12.23-7.813 0-9.625 11.26-8.063 17.08 0 0-.797 1-2.468 2.03-1.657 1.03-4.204-.41-5.594-1.91-2.531-2.7-3.36-2.42-3.36-2.42s3-2.28 4.219-5.14c1.235-2.88-1.453-7.13-1.453-7.13s-3.594-4.98-4.734-6.65c-1.125-1.66.265-4.21 1.312-6.39 1.063-2.19 2.344-3.32 2.344-3.32 6.5 1.68 7.859 6.71 6.469 7.8-1.86 1.47-4.078-.65-4.797-1.25-.719-.61-1.688-1.65-2.735-.86-1.046.8-.515 2-.062 3 2.672 5.27 7.609 6.19 10.781 3.97 4.063-2.84 3.485-13.8-9.672-16.17-14.531-2.66-23.218 8.81-23.218 14.66 0 4.12 2.953 7.65 6.703 7.65 0 0 6.093.2 6.593-7.19.141-2-.734-2.42-1.328-2.51-.593-.1-1.593.28-1.922 1.89-.406 1.94-1.468 2.66-2.812 2.45-1.75-.26-2.813-3.67.359-8.08 4.297-5.93 11.688-5.81 11.688-5.81s-3.141 5.64-4.328 8.72c0 0-1.813 3.52-.219 5.84m25.953 3.18c2.469 0 3.234 3.37 1.047 5.84-1.797 2-4.25 4.45-4.25 4.45-.766-6.56.719-10.29 3.203-10.29m18.438 16.53c-2.625.53-4.782-2.38-4.782-6.24 0-8.5 5.625-9.34 5.625-9.34 1.172 2.19 2.219 4.81 2.219 9.01 0 5-.984 6.15-3.062 6.57m14.14 4.18c1.781 0 3.235-1.62 3.235-3.62s-1.454-3.63-3.235-3.63c-1.765 0-3.219 1.63-3.219 3.63s1.454 3.62 3.219 3.62"/><path class="PedalSegment" fill="none" stroke="#000" stroke-width="2.73" stroke-linecap="square" stroke-linejoin="bevel" d="M912.782 3566.08h771.028M1683.81 3566.08v-29.76"/><path class="PedalSegment" d="M1730.78 3545.89c1.34 1.97 4.23 5.33 5.44 6.99 1.18 1.65 1.2 3.39-1.22 5.45-2.64 2.28-5.3 3.7-6.52 4.47-.98.63-7.06 3.2-5.14 6.92 1.6 3.11 5.3.27 7.02-1.56.89-.95 2.08-3.09 3.67-3.09 1.37 0 2.2 1.98 3.06 3.17 1.52 2.06 2.53 2.69 4.83 2.69 2.67 0 4.39-2.94 7.81-5.83 0 0 2.38 5.79 6.38 5.79 4.7 0 10.2-5.68 10.2-5.68 1.45 3.68 6.17 6.67 10.41 5.53 5.5-1.5 8.39-7.56 7.68-13.75-1.82-16.11-19.25-21.66-24.25-22.56-1.31-.24-2.87-.66-3.04.57-.19 1.22 1.48 1.93 1.48 1.93.61.2 1.2.42 1.77.62 10.2 3.89 13.7 9.3 13.7 9.3-9.28 3.18-9.02 12.78-8.73 15.84-.64.83-3.57 3.45-6.69 3.45-3.3 0-4.27-3.95-4.27-3.95s1.85-1.64 4.97-4.33c6.52-5.64 2.74-12.23-2.26-12.23-7.82 0-9.63 11.26-8.07 17.08 0 0-.79 1-2.47 2.03-1.65 1.03-4.2-.41-5.59-1.91-2.53-2.7-3.36-2.42-3.36-2.42s3-2.28 4.22-5.14c1.23-2.88-1.45-7.13-1.45-7.13s-3.6-4.98-4.74-6.65c-1.12-1.66.27-4.21 1.32-6.39 1.06-2.19 2.34-3.32 2.34-3.32 6.5 1.68 7.86 6.71 6.47 7.8-1.86 1.47-4.08-.65-4.8-1.25-.72-.61-1.69-1.65-2.73-.86-1.05.8-.52 2-.07 3 2.68 5.27 7.61 6.19 10.79 3.97 4.06-2.84 3.48-13.8-9.68-16.17-14.53-2.66-23.22 8.81-23.22 14.66 0 4.12 2.96 7.65 6.71 7.65 0 0 6.09.2 6.59-7.19.14-2-.73-2.42-1.33-2.51-.59-.1-1.59.28-1.92 1.89-.4 1.94-1.47 2.66-2.81 2.45-1.75-.26-2.81-3.67.36-8.08 4.3-5.93 11.69-5.81 11.69-5.81s-3.14 5.64-4.33 8.72c0 0-1.81 3.52-.22 5.84m25.95 3.18c2.47 0 3.24 3.37 1.05 5.84-1.8 2-4.25 4.45-4.25 4.45-.77-6.56.72-10.29 3.2-10.29m18.44 16.53c-2.63.53-4.78-2.38-4.78-6.24 0-8.5 5.62-9.34 5.62-9.34 1.18 2.19 2.22 4.81 2.22 9.01 0 5-.98 6.15-3.06 6.57m14.14 4.18c1.78 0 3.23-1.62 3.23-3.62s-1.45-3.63-3.23-3.63c-1.77 0-3.22 1.63-3.22 3.63s1.45 3.62 3.22 3.62"/><path class="PedalSegment" fill="none" stroke="#000" stroke-width="2.73" stroke-linecap="square" stroke-linejoin="bevel" d="M1805.44 3566.08h921.64M2727.08 3566.08v-29.76"/><path class="Page" d="M2728 237.973l-.61 2.75c-.5 2.204-.83 2.907-1.26 3.188-.55.391-.66.391-4.13.437h-10.61c1.92-1.656 3.36-2.687 5.5-4.125 7.75-5 9.34-6.218 10.94-8.25 1.87-2.468 2.97-5.39 2.97-7.968 0-5.891-5.77-10.344-13.52-10.344-7.48 0-13.26 4.844-13.26 11.109 0 3.844 2.15 6.328 5.45 6.328 2.86 0 4.67-1.812 4.67-4.671 0-2.375-1.05-3.75-3.58-4.954-.61-.281-.87-.609-.87-1.046 0-1.766 2.97-3.625 5.72-3.625 3.84 0 6.04 2.359 6.04 6.437 0 4.563-1.76 7.797-7.59 14.016-6.16 6.547-8.3 9.015-11.05 12.984v2.578c1.42-.156 2.03-.219 2.86-.219h20.67c1.05 0 1.71.063 3.36.219l1.27-14.844H2728m9.89-6.265c-1.26 1.312-1.42 1.594-1.42 2.469 0 1.156.87 2.031 2.03 2.031 1.2 0 2.25-.985 2.25-2.203 0-.219-.05-.547-.11-.875 1.7-1.375 3.8-2.094 6.11-2.094 4.13 0 6.2 3.031 6.2 8.969 0 6.703-2.36 10.234-6.75 10.234-2.48 0-4.84-1.156-4.84-2.312 0-.329.16-.5.66-.766 2.2-1.047 2.96-2.094 2.96-3.969 0-2.75-1.87-4.5-4.67-4.5-3.18 0-5.28 2.188-5.28 5.61 0 5.5 4.95 9.062 12.55 9.062 9.01 0 15.17-5.5 15.17-13.641 0-7.14-5.78-12.421-13.69-12.421-2.59 0-4.23.437-7.92 2.093l.83-7.093c2.64.546 4.78.828 6.92.828 4.56 0 8.36-1.547 10.39-4.235 1.05-1.375 1.88-3.422 1.88-4.625 0-.39-.18-.609-.44-.609-.22 0-.55.062-.89.172-1.97.484-5.55.765-9.95.765-4.61 0-7.36-.218-10.72-.937-.28 4.625-.28 5.062-.94 14.078l-.33 3.969"/><path class="Bracket" d="M515.787 3242.58c6.35-6.799 18.991-20.846 18.991-46.748 0-32.757-14.159-65.908-14.159-86.192 0-21.913 12.867-42.702 13.26-43.264.394-.618.338-1.405-.056-1.686-.393-.225-1.124 0-1.63.506-.449.562-19.721 20.059-19.721 49.333 0 31.858 12.586 54.052 12.586 95.406 0 7.866-3.371 20.565-12.249 31.465-.618.562-.674 1.573-.112 2.248v.056l.112.112c8.878 10.9 12.249 23.543 12.249 31.409 0 41.41-12.586 63.604-12.586 95.406 0 29.274 19.272 48.883 19.722 49.39.505.505 1.124.786 1.63.505.505-.337.505-.955.055-1.686-.505-.73-13.26-21.351-13.26-43.264 0-20.284 14.16-53.547 14.16-86.248 0-26.24-12.643-40.005-18.992-46.748"/></svg>
