<svg width="3060" height="3960" xmlns="http://www.w3.org/2000/svg" version="1.2" baseProfile="tiny"><path fill="#fff" fill-rule="evenodd" d="M0 0h3060v3960H0V0"/><path class="StaffLines" fill="none" stroke="#000" stroke-width="2.73" stroke-linejoin="bevel" d="M544.838 386.199H2763.78M544.838 410.999H2763.78M544.838 435.799H2763.78M544.838 460.599H2763.78M544.838 485.399H2763.78M544.838 765.189H2763.78M544.838 789.989H2763.78M544.838 814.789H2763.78M544.838 839.589H2763.78M544.838 864.389H2763.78M544.838 1144.18H2763.78M544.838 1168.98H2763.78M544.838 1193.78H2763.78M544.838 1218.58H2763.78M544.838 1243.38H2763.78M544.838 1523.17H2763.78M544.838 1547.97H2763.78M544.838 1572.77H2763.78M544.838 1597.57H2763.78M544.838 1622.37H2763.78M544.838 1902.16H2763.78M544.838 1926.96H2763.78M544.838 1951.76H2763.78M544.838 1976.56H2763.78M544.838 2001.36H2763.78M544.838 2281.15H2763.78M544.838 2305.95H2763.78M544.838 2330.75H2763.78M544.838 2355.55H2763.78M544.838 2380.35H2763.78M544.838 2660.14H2763.78M544.838 2684.94H2763.78M544.838 2709.74H2763.78M544.838 2734.54H2763.78M544.838 2759.34H2763.78M544.838 3067.11H2763.78M544.838 3091.91H2763.78M544.838 3116.71H2763.78M544.838 3141.51H2763.78M544.838 3166.31H2763.78M544.838 3327.51H2763.78M544.838 3352.31H2763.78M544.838 3377.11H2763.78M544.838 3401.91H2763.78M544.838 3426.71H2763.78"/><path class="MeasureNumber" d="M550.151 323.208c.687-3.531 1.484-5.719 3-8.406 1.812-3.157 3.969-4.766 6.359-4.766 1.25 0 2 .484 2 1.25 0 .281-.078.438-.359.953-.359.688-.516 1.156-.516 1.766 0 1.281.953 2.156 2.313 2.156 1.64 0 2.765-1.203 2.765-3 0-2.719-2.562-4.719-6.125-4.719-3.75 0-7.109 2-9.828 5.844-2.797 3.953-4.484 9.031-4.484 13.469 0 5.89 2.922 9.437 7.797 9.437 3 0 5.687-1.187 7.609-3.312 1.75-2 2.828-4.875 2.828-7.516 0-4.078-2.75-6.922-6.75-6.922-2.797 0-4.968 1.203-6.609 3.766m5.328-1.453c2.484 0 3.844 1.719 3.844 4.844 0 5.078-2.688 8.953-6.25 8.953-2.563 0-4.078-1.875-4.078-5.078 0-5 2.765-8.719 6.484-8.719"/><path class="InstrumentName" d="M394.005 3248.36h5.64c4.5 0 6.86-.36 8.907-1.3 3.5-1.7 5.5-4.9 5.5-8.86 0-3.79-1.75-6.7-5.047-8.34-1.953-1-5.063-1.56-8.5-1.56h-17.5v2.36h.89c2.86.04 3.797.2 4.203.7.297.44.297.55.297 3.09v23.8c0 2.56 0 2.66-.297 3.11-.406.5-1.343.7-4.203.7h-.89v2.35h16.797v-2.35h-1.297c-2.86 0-3.813-.2-4.203-.7-.297-.45-.297-.55-.297-3.11v-9.89m0-2.36v-12.8c0-2.29.25-2.54 3.047-2.54h3.203c5.187 0 7.64 2.45 7.64 7.75 0 5.15-2.547 7.59-7.843 7.59h-6.047m30.937-4.89l-8.656.55v2.15h1.812c1.891.05 2.141.35 2.141 2.5V3260.61c-.047.75-.094 1.05-.297 1.3-.344.45-1.297.65-3.453.7h-.203v1.8h12.656v-1.8h-.203c-3.344-.11-3.797-.36-3.797-2.16V3253.06c0-2.45.344-4.7.906-5.86 1.047-2.25 3.297-3.79 5.438-3.79 1.312 0 2.812.7 3.562 1.75.75 1.09 1.094 2.59 1.094 5v10.45c-.047.75-.094 1.05-.297 1.3-.359.45-1.359.65-3.5.7h-.203v1.8h12.656v-1.8h-.203c-3.297-.11-3.75-.36-3.75-2.16v-10.04c0-3.6-.156-4.5-1.047-6.21-1.25-2.39-3.75-3.84-6.75-3.84-3.25 0-5.703 1.5-7.906 4.8v-4.05m33.141-.75c-6.141 0-10.891 5.45-10.891 12.45 0 6.85 4.797 12.35 10.797 12.35 6 0 10.797-5.5 10.797-12.41 0-6.84-4.797-12.39-10.703-12.39m0 2.14c3.5 0 5.453 3.66 5.453 10.25 0 6.66-1.953 10.25-5.547 10.25-3.594 0-5.547-3.59-5.547-10.19 0-6.81 1.891-10.31 5.641-10.31m18.531 16.36c-1.75 0-3.141 1.39-3.141 3.09 0 1.75 1.391 3.16 3.094 3.16a3.15 3.15 0 003.156-3.16c0-1.7-1.406-3.09-3.109-3.09M413.255 2691.13h-29.953l-.75 13.91h2.14c.36-2.5.75-4.41 1.36-6 1.296-3.71 3.703-5.55 7.093-5.55 1.657 0 2.36.55 2.36 1.8v25.79c0 2.57 0 2.66-.313 3.11-.39.5-1.344.71-4.187.71h-1.313v2.34h17.156v-2.34h-1.296c-2.797 0-3.75-.21-4.157-.71-.297-.45-.297-.54-.297-3.11v-25.79c0-1.25.704-1.8 2.344-1.8 3.063 0 5.516 1.7 6.766 4.7.75 1.85 1.25 4 1.64 6.85h2.157l-.75-13.91m10.687-.75l-8.594.56v2.14h1.75c1.891.05 2.141.36 2.141 2.5v19.46c0 6.95-.297 10.75-.891 12.9h1.891l2.453-3.9c2.047 2.7 4.406 3.95 7.5 3.95 6.203 0 10.75-5.3 10.75-12.55 0-7.2-4.203-12.25-10.203-12.25-3.047 0-4.891 1.05-6.797 3.89v-16.7m5.906 15.36c3.75 0 5.844 3.66 5.844 10.2 0 6.35-2.047 9.89-5.703 9.89-3.953 0-6.297-3.64-6.297-9.79 0-6.71 2.156-10.3 6.156-10.3m35.485 5.41c0-3.16-.547-4.75-2-5.96-1.641-1.36-4.094-2-7.297-2-5.641 0-9.75 2.64-9.75 6.3 0 1.84 1.156 3.05 2.906 3.05 1.594 0 2.703-1.05 2.703-2.55 0-.66-.25-1.34-.75-2.05-.312-.36-.359-.45-.359-.7 0-1 2-1.91 4.406-1.91 1.594 0 3.344.5 4.141 1.25.953.82 1.312 2 1.312 4.25v1.96c-5.203.9-6.859 1.29-9.312 2.25-4.344 1.61-6.391 3.9-6.391 7.11 0 3.59 2.797 5.84 7.25 5.84 3.453 0 6.547-1.41 8.703-3.95.797 2.54 2.047 3.54 4.391 3.54 2.25 0 4.609-1.43 4.609-2.89 0-.36-.203-.61-.5-.61-.203 0-.406.07-.75.21-.703.29-1 .36-1.406.36-1.406 0-1.906-.91-1.906-3.46v-10.04m-4.688 6.09c0 3-.156 3.7-1 5-1.25 1.84-3.5 3.09-5.703 3.09-2.297 0-3.953-1.64-3.953-3.89 0-2.11 1.047-3.61 3.25-4.65 1.547-.71 3.5-1.21 7.406-1.85v2.3m16.532 4.45c-1.75 0-3.141 1.39-3.141 3.1 0 1.75 1.391 3.15 3.094 3.15 1.75 0 3.156-1.4 3.156-3.15 0-1.71-1.406-3.1-3.109-3.1M367.255 2312.14h-29.953l-.75 13.91h2.14c.36-2.5.75-4.41 1.36-6 1.296-3.71 3.703-5.55 7.093-5.55 1.657 0 2.36.55 2.36 1.8v25.79c0 2.57 0 2.66-.313 3.11-.39.5-1.344.71-4.187.71h-1.313v2.34h17.156v-2.34h-1.296c-2.797 0-3.75-.21-4.157-.71-.297-.45-.297-.54-.297-3.11v-25.79c0-1.25.704-1.8 2.344-1.8 3.063 0 5.516 1.7 6.766 4.7.75 1.85 1.25 4 1.64 6.85h2.157l-.75-13.91m10.687-.75l-8.594.56v2.14h1.75c1.891.05 2.141.36 2.141 2.5v19.46c0 6.95-.297 10.75-.891 12.9h1.891l2.453-3.9c2.047 2.7 4.406 3.95 7.5 3.95 6.203 0 10.75-5.3 10.75-12.55 0-7.2-4.203-12.25-10.203-12.25-3.047 0-4.891 1.05-6.797 3.89v-16.7m5.906 15.36c3.75 0 5.844 3.66 5.844 10.2 0 6.35-2.047 9.89-5.703 9.89-3.953 0-6.297-3.64-6.297-9.79 0-6.71 2.156-10.3 6.156-10.3m22.891-1.8l-8.656.55v2.16h1.812c1.891.04 2.141.34 2.141 2.5V2344.45c-.047.75-.094 1.05-.297 1.3-.344.45-1.297.66-3.453.7h-.203v1.8h12.656v-1.8h-.203c-3.344-.11-3.797-.36-3.797-2.15v-7.39c0-2.46.344-4.71.906-5.86 1.047-2.25 3.297-3.8 5.438-3.8 1.312 0 2.812.7 3.562 1.75.75 1.09 1.094 2.59 1.094 5v10.45c-.047.75-.094 1.05-.297 1.3-.359.45-1.359.66-3.5.7h-.203v1.8h12.656v-1.8h-.203c-3.297-.11-3.75-.36-3.75-2.15v-10.05c0-3.59-.156-4.5-1.047-6.2-1.25-2.39-3.75-3.85-6.75-3.85-3.25 0-5.703 1.5-7.906 4.8v-4.05m27.391 17.75c-1.75 0-3.141 1.39-3.141 3.1 0 1.75 1.391 3.15 3.094 3.15 1.75 0 3.156-1.4 3.156-3.15 0-1.71-1.406-3.1-3.109-3.1m38.234-12.86c4.547-1.64 6.656-4.18 6.656-8.2 0-5.25-4-8.59-10.203-8.59-5.844 0-10.297 3.45-10.297 8 0 2.04 1.344 3.5 3.297 3.5 1.75 0 2.953-1.21 2.953-3 0-1.1-.406-1.75-1.547-2.55-.5-.36-.656-.55-.656-.91 0-1.39 2.906-2.89 5.75-2.89 3.594 0 5.5 2.25 5.5 6.5 0 4.64-1.906 7.1-5.453 7.1-.453 0-1.297-.05-2.047-.1-.406-.04-.797-.04-1.094-.04-1.062 0-1.609.43-1.609 1.34 0 .84.5 1.25 1.609 1.25.297 0 .688 0 1.141-.05 1-.04 1.797-.04 2.359-.04 3.688 0 5.688 2.64 5.688 7.59 0 5.2-2.5 8.09-7 8.09-3.141 0-6.547-1.68-6.547-3.25 0-.43.109-.54 1.047-1.09 1.406-.84 1.953-1.7 1.953-2.95 0-1.8-1.344-3.14-3.141-3.14-2.156 0-3.562 1.75-3.562 4.39 0 4.86 4.453 8.2 10.859 8.2 7.25 0 11.953-4 11.953-10.16 0-4.68-2.406-7.54-7.609-9M366.255 1933.15h-29.953l-.75 13.91h2.14c.36-2.5.75-4.41 1.36-6 1.296-3.71 3.703-5.55 7.093-5.55 1.657 0 2.36.55 2.36 1.8v25.79c0 2.57 0 2.66-.313 3.11-.39.5-1.344.71-4.187.71h-1.313v2.34h17.156v-2.34h-1.296c-2.797 0-3.75-.21-4.157-.71-.297-.45-.297-.54-.297-3.11v-25.79c0-1.25.704-1.8 2.344-1.8 3.063 0 5.516 1.7 6.766 4.7.75 1.85 1.25 4 1.64 6.85h2.157l-.75-13.91m10.687-.75l-8.594.56v2.14h1.75c1.891.05 2.141.36 2.141 2.5v19.46c0 6.95-.297 10.75-.891 12.9h1.891l2.453-3.9c2.047 2.7 4.406 3.95 7.5 3.95 6.203 0 10.75-5.3 10.75-12.55 0-7.2-4.203-12.25-10.203-12.25-3.047 0-4.891 1.05-6.797 3.89v-16.7m5.906 15.36c3.75 0 5.844 3.66 5.844 10.2 0 6.35-2.047 9.89-5.703 9.89-3.953 0-6.297-3.64-6.297-9.79 0-6.71 2.156-10.3 6.156-10.3m22.891-1.8l-8.656.55v2.16h1.812c1.891.04 2.141.34 2.141 2.5V1965.46c-.047.75-.094 1.05-.297 1.3-.344.45-1.297.66-3.453.7h-.203v1.8h12.656v-1.8h-.203c-3.344-.11-3.797-.36-3.797-2.15v-7.39c0-2.46.344-4.71.906-5.86 1.047-2.25 3.297-3.8 5.438-3.8 1.312 0 2.812.7 3.562 1.75.75 1.09 1.094 2.59 1.094 5v10.45c-.047.75-.094 1.05-.297 1.3-.359.45-1.359.66-3.5.7h-.203v1.8h12.656v-1.8h-.203c-3.297-.11-3.75-.36-3.75-2.15v-10.05c0-3.59-.156-4.5-1.047-6.2-1.25-2.39-3.75-3.85-6.75-3.85-3.25 0-5.703 1.5-7.906 4.8v-4.05m27.391 17.75c-1.75 0-3.141 1.39-3.141 3.1 0 1.75 1.391 3.15 3.094 3.15 1.75 0 3.156-1.4 3.156-3.15 0-1.71-1.406-3.1-3.109-3.1m46.187-5.25h-2.203l-.5 2.55c-.641 3.25-1.047 3.55-4.141 3.55H461.27c3.453-3.6 4.594-4.64 7.797-7.14 4.547-3.5 6.5-5.25 7.656-6.75 1.594-2.21 2.391-4.41 2.391-6.86 0-5.71-4.703-9.75-11.25-9.75-6.344 0-11.203 4.04-11.203 9.4 0 3.14 1.609 5.3 3.953 5.3 1.859 0 3.109-1.25 3.109-3.05 0-1.25-.703-2.4-1.75-2.86-1.859-.75-1.953-.84-1.953-1.5 0-.75.5-1.89 1.203-2.75 1.25-1.54 3.297-2.39 5.641-2.39 4.156 0 6.609 2.55 6.609 6.75 0 3.71-1.75 7.05-5.906 11.46-3.703 3.89-6 6.34-6.844 7.29-1.812 2.1-2.703 3.25-4.906 6.14v1.41h22.547l.953-10.8M367.255 1554.16h-29.953l-.75 13.91h2.14c.36-2.5.75-4.41 1.36-6 1.296-3.71 3.703-5.55 7.093-5.55 1.657 0 2.36.55 2.36 1.8v25.79c0 2.57 0 2.66-.313 3.11-.39.5-1.344.71-4.187.71h-1.313v2.34h17.156v-2.34h-1.296c-2.797 0-3.75-.21-4.157-.71-.297-.45-.297-.54-.297-3.11v-25.79c0-1.25.704-1.8 2.344-1.8 3.063 0 5.516 1.7 6.766 4.7.75 1.85 1.25 4 1.64 6.85h2.157l-.75-13.91m10.687-.75l-8.594.56v2.14h1.75c1.891.05 2.141.36 2.141 2.5v19.46c0 6.95-.297 10.75-.891 12.9h1.891l2.453-3.9c2.047 2.7 4.406 3.95 7.5 3.95 6.203 0 10.75-5.3 10.75-12.55 0-7.2-4.203-12.25-10.203-12.25-3.047 0-4.891 1.05-6.797 3.89v-16.7m5.906 15.36c3.75 0 5.844 3.66 5.844 10.2 0 6.35-2.047 9.89-5.703 9.89-3.953 0-6.297-3.64-6.297-9.79 0-6.71 2.156-10.3 6.156-10.3m22.891-1.8l-8.656.55v2.16h1.812c1.891.04 2.141.34 2.141 2.5V1586.47c-.047.75-.094 1.05-.297 1.3-.344.45-1.297.66-3.453.7h-.203v1.8h12.656v-1.8h-.203c-3.344-.11-3.797-.36-3.797-2.15v-7.39c0-2.46.344-4.71.906-5.86 1.047-2.25 3.297-3.8 5.438-3.8 1.312 0 2.812.7 3.562 1.75.75 1.09 1.094 2.59 1.094 5v10.45c-.047.75-.094 1.05-.297 1.3-.359.45-1.359.66-3.5.7h-.203v1.8h12.656v-1.8h-.203c-3.297-.11-3.75-.36-3.75-2.15v-10.05c0-3.59-.156-4.5-1.047-6.2-1.25-2.39-3.75-3.85-6.75-3.85-3.25 0-5.703 1.5-7.906 4.8v-4.05m27.391 17.75c-1.75 0-3.141 1.39-3.141 3.1 0 1.75 1.391 3.15 3.094 3.15 1.75 0 3.156-1.4 3.156-3.15 0-1.71-1.406-3.1-3.109-3.1m37.031-29.65c-1.688 2.04-6.297 3.59-10.891 3.7v2.14h4.391c2.906.06 3.203.36 3.109 3.16v20.04c0 2.57 0 2.66-.297 3.11-.406.5-1.359.71-4.156.71h-3.25v2.34h19.797v-2.34h-2.75c-2.797 0-3.75-.21-4.141-.71-.359-.45-.359-.5-.359-3.11v-20.64c0-2.81.109-5.15.359-8.4h-1.812M304.255 1175.17h-29.953l-.75 13.91h2.14c.36-2.5.75-4.41 1.36-6 1.296-3.71 3.703-5.55 7.093-5.55 1.657 0 2.36.55 2.36 1.8v25.79c0 2.56 0 2.66-.313 3.11-.39.5-1.344.7-4.187.7h-1.313v2.35h17.156v-2.35h-1.296c-2.797 0-3.75-.2-4.157-.7-.297-.45-.297-.55-.297-3.11v-25.79c0-1.25.704-1.8 2.344-1.8 3.063 0 5.516 1.7 6.766 4.7.75 1.85 1.25 4 1.64 6.85h2.157l-.75-13.91m10.687-.75l-8.594.56v2.14h1.75c1.891.05 2.141.36 2.141 2.5v19.46c0 6.95-.297 10.75-.891 12.9h1.891l2.453-3.9c2.047 2.7 4.406 3.95 7.5 3.95 6.203 0 10.75-5.3 10.75-12.55 0-7.2-4.203-12.25-10.203-12.25-3.047 0-4.891 1.05-6.797 3.89v-16.7m5.906 15.36c3.75 0 5.844 3.65 5.844 10.2 0 6.35-2.047 9.89-5.703 9.89-3.953 0-6.297-3.64-6.297-9.79 0-6.71 2.156-10.3 6.156-10.3m22.891-1.8l-8.656.55v2.15h1.812c1.891.05 2.141.35 2.141 2.5V1207.48c-.047.75-.094 1.05-.297 1.3-.344.45-1.297.65-3.453.7h-.203v1.8h12.656v-1.8h-.203c-3.344-.11-3.797-.36-3.797-2.15v-7.4c0-2.45.344-4.7.906-5.85 1.047-2.25 3.297-3.8 5.438-3.8 1.312 0 2.812.7 3.562 1.75.75 1.09 1.094 2.59 1.094 5v10.45c-.047.75-.094 1.05-.297 1.3-.359.45-1.359.65-3.5.7h-.203v1.8h12.656v-1.8h-.203c-3.297-.11-3.75-.36-3.75-2.15v-10.05c0-3.6-.156-4.5-1.047-6.2-1.25-2.4-3.75-3.85-6.75-3.85-3.25 0-5.703 1.5-7.906 4.8v-4.05m27.391 17.75c-1.75 0-3.141 1.39-3.141 3.1 0 1.75 1.391 3.15 3.094 3.15 1.75 0 3.156-1.4 3.156-3.15 0-1.71-1.406-3.1-3.109-3.1m40.437-18.3h-1.75l-1.453 1.8c-1.797-1.4-3.594-2-6.094-2-4.406 0-7.297 2.85-7.297 7.25 0 1.95.641 3.6 1.75 4.6 1.141 1.04 2.297 1.54 5.297 2.25l2.641.6c3.953.94 5.359 1.94 5.359 3.94 0 2.36-2.047 4-4.953 4-4.25 0-7.25-2.69-8.453-7.69h-2v9.44h1.75l1.75-2.04c2.047 1.65 4.297 2.45 6.859 2.45 4.891 0 8.141-3.05 8.141-7.7 0-2.21-.703-3.9-2.094-5.05-1.203-1.05-2.203-1.45-5.25-2.1l-2.5-.56c-2.75-.59-2.75-.59-3.656-1.09-1.094-.5-1.75-1.55-1.75-2.66 0-2.04 1.906-3.44 4.656-3.44 1.891 0 3.453.65 4.844 2 1.109 1.1 1.656 2.1 2.453 4.4h1.75v-8.4m16.235-.2c-6.141 0-10.891 5.45-10.891 12.45 0 6.85 4.797 12.35 10.797 12.35 6 0 10.797-5.5 10.797-12.41 0-6.84-4.797-12.39-10.703-12.39m0 2.14c3.5 0 5.453 3.66 5.453 10.25 0 6.66-1.953 10.25-5.547 10.25-3.594 0-5.547-3.59-5.547-10.19 0-6.81 1.891-10.31 5.641-10.31m22.593-14.95l-9.25.56v2.14h2.453c1.844.05 2.094.36 2.094 2.5v27.86c-.047.75-.094 1.05-.297 1.3-.359.45-1.297.65-3.453.7h-.344v1.8h12.938v-1.8h-.344c-3.344-.11-3.797-.36-3.797-2.15v-32.91m18.125 12.81c-6.14 0-10.89 5.45-10.89 12.45 0 6.85 4.797 12.35 10.797 12.35 6 0 10.796-5.5 10.796-12.41 0-6.84-4.796-12.39-10.703-12.39m0 2.14c3.5 0 5.453 3.66 5.453 10.25 0 6.66-1.953 10.25-5.546 10.25-3.594 0-5.547-3.59-5.547-10.19 0-6.81 1.89-10.31 5.64-10.31M271.098 796.679v2.36h.907c2.843.047 3.797.203 4.187.703.313.437.313.547.313 3.094v23.796c0 2.563 0 2.657-.313 3.11-.39.5-1.344.703-4.187.703h-.907v2.344h18.157c8.64 0 13.843-3.657 13.843-9.797 0-5-3.14-7.86-10-9.047 2.407-.5 3.5-.953 4.797-1.906 2.063-1.547 3.313-4 3.313-6.5 0-3.25-2-6.407-4.906-7.657-1.797-.796-4.297-1.203-7.25-1.203h-17.954m11 16.266v-11.406c0-1.953.657-2.453 3.297-2.5h2c2.297 0 4.203.39 5.25 1.047 1.797 1.093 2.75 3.203 2.75 6 0 4.953-2.39 6.859-8.843 6.859h-4.454m0 2.344h4.407c7.64 0 10.453 2.047 10.453 7.547 0 3.203-1.11 5.5-3.063 6.453-1.547.797-3.64 1.156-6.797 1.156h-2.093c-2.5 0-3-.5-2.907-3.156v-12m46.188 1.406c0-3.156-.547-4.75-2-5.953-1.641-1.36-4.094-2-7.297-2-5.641 0-9.75 2.64-9.75 6.297 0 1.843 1.156 3.047 2.906 3.047 1.594 0 2.703-1.047 2.703-2.547 0-.657-.25-1.344-.75-2.047-.312-.36-.359-.453-.359-.703 0-1 2-1.907 4.406-1.907 1.594 0 3.344.5 4.141 1.25.953.813 1.312 2 1.312 4.25v1.954c-5.203.906-6.859 1.296-9.312 2.25-4.344 1.609-6.391 3.906-6.391 7.109 0 3.594 2.797 5.844 7.25 5.844 3.453 0 6.547-1.407 8.703-3.953.797 2.546 2.047 3.546 4.391 3.546 2.25 0 4.609-1.437 4.609-2.89 0-.36-.203-.61-.5-.61-.203 0-.406.063-.75.204-.703.296-1 .359-1.406.359-1.406 0-1.906-.906-1.906-3.453v-10.047m-4.688 6.094c0 3-.156 3.703-1 5-1.25 1.843-3.5 3.093-5.703 3.093-2.297 0-3.953-1.64-3.953-3.89 0-2.11 1.047-3.61 3.25-4.656 1.547-.704 3.5-1.204 7.406-1.844v2.297m19.797-13.297l-8.859.547v2.156h2.047c1.906.047 2.156.344 2.156 2.5V828.992c-.047.75-.094 1.047-.297 1.297-.359.453-1.359.656-3.5.703h-.203v1.797h13.344v-1.797h-.891c-3.359-.11-3.797-.36-3.797-2.156v-2.704c.047-8.39 3.047-14.796 6.938-15-.688.813-.891 1.313-.891 2.25 0 1.61 1.141 2.75 2.75 2.75 1.844 0 3.047-1.343 3.047-3.343 0-2.453-1.703-4.047-4.344-4.047-3.156 0-5.859 2.5-7.5 6.953v-6.203m15.422 17.75c-1.75 0-3.14 1.39-3.14 3.094 0 1.75 1.39 3.156 3.093 3.156a3.148 3.148 0 003.157-3.156c0-1.704-1.407-3.094-3.11-3.094m48.235-30.86h-1.844l-2 3c-2.406-2.25-5.547-3.453-9.11-3.453-6.593 0-10.937 4.157-10.937 10.453 0 5.454 2.687 8.157 10.047 10.063l4.75 1.187c3.703.954 4.047 1.063 5.094 1.86 1.5 1.14 2.312 2.797 2.312 4.75 0 2-.766 3.64-2.266 5.047-1.64 1.406-3.296 1.953-6.046 1.953-3.704 0-6.344-1.156-8.704-3.75-2.093-2.297-3.14-4.703-3.89-8.547h-2.156l.203 14.25h1.953l2.25-3.406c3.344 2.75 6.094 3.75 10.5 3.75 7.344 0 12.047-4.297 12.047-11 0-3.157-1-5.75-3-7.657-1.344-1.296-3.297-2.14-7.297-3.14l-5.36-1.36c-4.437-1.14-6.546-3.093-6.546-6.14 0-3.5 2.859-5.906 7.109-5.906 3.5 0 6.344 1.5 8.344 4.343 1.453 2.063 2.406 4.157 3 6.703h2.156l-.609-13m26.687 20.313c0-3.156-.547-4.75-2-5.953-1.641-1.36-4.094-2-7.297-2-5.64 0-9.75 2.64-9.75 6.297 0 1.843 1.156 3.047 2.906 3.047 1.594 0 2.704-1.047 2.704-2.547 0-.657-.25-1.344-.75-2.047-.313-.36-.36-.453-.36-.703 0-1 2-1.907 4.406-1.907 1.594 0 3.344.5 4.141 1.25.953.813 1.313 2 1.313 4.25v1.954c-5.204.906-6.86 1.296-9.313 2.25-4.344 1.609-6.391 3.906-6.391 7.109 0 3.594 2.797 5.844 7.25 5.844 3.454 0 6.547-1.407 8.704-3.953.796 2.546 2.046 3.546 4.39 3.546 2.25 0 4.61-1.437 4.61-2.89 0-.36-.204-.61-.5-.61-.204 0-.407.063-.75.204-.704.296-1 .359-1.407.359-1.406 0-1.906-.906-1.906-3.453v-10.047m-4.687 6.094c0 3-.157 3.703-1 5-1.25 1.843-3.5 3.093-5.704 3.093-2.296 0-3.953-1.64-3.953-3.89 0-2.11 1.047-3.61 3.25-4.656 1.547-.704 3.5-1.204 7.407-1.844v2.297m26.39-2.75l5.703-6.657c1.25-1.437 2.391-2.093 3.75-2.093h.438v-1.797h-10.344v1.797h.953c1.5 0 2.25.343 2.25 1.093 0 .5-.359 1.204-1 2l-3.156 3.813-3.844-4.906c-.297-.407-.5-.797-.5-1.094 0-.656.641-.906 2.203-.906h.688v-1.797h-11.844v1.797c1.844.156 2.547.593 4.156 2.703l6.094 7.64-5.75 6.704c-1.703 1.906-3.156 2.703-4.5 2.656h-.297v1.797h10.547v-1.797h-.75c-1.156 0-1.406-.047-1.75-.203-.406-.25-.703-.703-.703-1.157 0-.343.156-.796.406-1.093l4.203-5 3.797 5.047c.344.5.641 1.156.641 1.5 0 .656-.75.906-2.641.906h-.359v1.797h12.609v-1.797h-.344c-1.765 0-2.906-.656-4.359-2.453l-6.297-8.5m18.141 7.203c-1.75 0-3.141 1.39-3.141 3.094 0 1.75 1.391 3.156 3.094 3.156a3.147 3.147 0 003.156-3.156c0-1.704-1.406-3.094-3.109-3.094M232.505 417.002h-2.11l-11.5 29.14c-1.343 3.907-2.64 5.11-5.5 5.313h-.203v2.344h13.25v-2.344h-1c-2.687 0-4.047-.953-4.047-2.859 0-.641.157-1.25.453-2.094l1.657-4.406h13.25l2.703 6.703c.297.797.39 1.093.39 1.343 0 .813-1.25 1.313-3.093 1.313h-2.11v2.344h15.5v-2.344h-.687c-2.61-.063-3.063-.359-4.203-3.203l-12.75-31.25m-2.453 8.187l5.64 14.203h-11.187l5.547-14.203m27.078 23.063c-1.75 0-3.141 1.39-3.141 3.094 0 1.75 1.391 3.156 3.094 3.156a3.147 3.147 0 003.156-3.156c0-1.704-1.406-3.094-3.109-3.094m48.234-30.86h-1.844l-2 3c-2.406-2.25-5.547-3.453-9.109-3.453-6.594 0-10.938 4.157-10.938 10.453 0 5.454 2.688 8.157 10.047 10.063l4.75 1.187c3.703.954 4.047 1.063 5.094 1.86 1.5 1.14 2.313 2.797 2.313 4.75 0 2-.766 3.64-2.266 5.047-1.641 1.406-3.297 1.953-6.047 1.953-3.703 0-6.344-1.156-8.703-3.75-2.094-2.297-3.141-4.703-3.891-8.547h-2.156l.203 14.25h1.953l2.25-3.406c3.344 2.75 6.094 3.75 10.5 3.75 7.344 0 12.047-4.297 12.047-11 0-3.157-1-5.75-3-7.657-1.344-1.296-3.297-2.14-7.297-3.14l-5.359-1.36c-4.438-1.14-6.547-3.093-6.547-6.14 0-3.5 2.859-5.906 7.109-5.906 3.5 0 6.344 1.5 8.344 4.343 1.453 2.063 2.406 4.157 3 6.703h2.156l-.609-13m26.688 20.313c0-3.156-.547-4.75-2-5.953-1.641-1.36-4.094-2-7.297-2-5.641 0-9.75 2.64-9.75 6.297 0 1.843 1.156 3.047 2.906 3.047 1.594 0 2.703-1.047 2.703-2.547 0-.657-.25-1.344-.75-2.047-.312-.36-.359-.453-.359-.703 0-1 2-1.907 4.406-1.907 1.594 0 3.344.5 4.141 1.25.953.813 1.312 2 1.312 4.25v1.954c-5.203.906-6.859 1.296-9.312 2.25-4.344 1.609-6.391 3.906-6.391 7.109 0 3.594 2.797 5.844 7.25 5.844 3.453 0 6.547-1.407 8.703-3.953.797 2.546 2.047 3.546 4.391 3.546 2.25 0 4.609-1.437 4.609-2.89 0-.36-.203-.61-.5-.61-.203 0-.406.063-.75.204-.703.296-1 .359-1.406.359-1.406 0-1.906-.906-1.906-3.453v-10.047m-4.688 6.094c0 3-.156 3.703-1 5-1.25 1.843-3.5 3.093-5.703 3.093-2.297 0-3.953-1.64-3.953-3.89 0-2.11 1.047-3.61 3.25-4.656 1.547-.704 3.5-1.204 7.406-1.844v2.297m26.391-2.75l5.703-6.657c1.25-1.437 2.39-2.093 3.75-2.093h.437v-1.797h-10.343v1.797h.953c1.5 0 2.25.343 2.25 1.093 0 .5-.36 1.204-1 2l-3.157 3.813-3.843-4.906c-.297-.407-.5-.797-.5-1.094 0-.656.64-.906 2.203-.906h.687v-1.797h-11.843v1.797c1.843.156 2.546.593 4.156 2.703l6.094 7.64-5.75 6.704c-1.704 1.906-3.157 2.703-4.5 2.656h-.297v1.797h10.547v-1.797h-.75c-1.157 0-1.407-.047-1.75-.203-.407-.25-.704-.703-.704-1.157 0-.343.157-.796.407-1.093l4.203-5 3.797 5.047c.343.5.64 1.156.64 1.5 0 .656-.75.906-2.64.906h-.36v1.797h12.61v-1.797h-.344c-1.766 0-2.906-.656-4.359-2.453l-6.297-8.5m18.14 7.203c-1.75 0-3.14 1.39-3.14 3.094 0 1.75 1.39 3.156 3.093 3.156a3.148 3.148 0 003.157-3.156c0-1.704-1.407-3.094-3.11-3.094m40.438-18.297h-1.75l-1.453 1.797c-1.797-1.406-3.594-2-6.094-2-4.406 0-7.297 2.844-7.297 7.25 0 1.953.641 3.594 1.75 4.594 1.141 1.046 2.297 1.546 5.297 2.25l2.641.609c3.953.937 5.359 1.937 5.359 3.937 0 2.36-2.047 4-4.953 4-4.25 0-7.25-2.687-8.453-7.687h-2v9.437h1.75l1.75-2.046c2.047 1.656 4.297 2.453 6.859 2.453 4.891 0 8.141-3.047 8.141-7.703 0-2.204-.703-3.891-2.094-5.047-1.203-1.047-2.203-1.453-5.25-2.094l-2.5-.563c-2.75-.593-2.75-.593-3.656-1.093-1.094-.5-1.75-1.547-1.75-2.657 0-2.046 1.906-3.437 4.656-3.437 1.891 0 3.453.641 4.844 2 1.109 1.094 1.656 2.094 2.453 4.391h1.75v-8.391m16.234-.203c-6.14 0-10.89 5.453-10.89 12.453 0 6.844 4.796 12.344 10.796 12.344 6 0 10.797-5.5 10.797-12.407 0-6.843-4.797-12.39-10.703-12.39m0 2.14c3.5 0 5.453 3.657 5.453 10.25 0 6.657-1.953 10.25-5.547 10.25-3.593 0-5.546-3.593-5.546-10.187 0-6.813 1.89-10.313 5.64-10.313m22.594-14.953l-9.25.563v2.14h2.453c1.844.047 2.094.36 2.094 2.5v27.86c-.047.75-.094 1.047-.297 1.297-.359.453-1.297.656-3.453.703h-.344v1.797h12.938v-1.797h-.344c-3.344-.11-3.797-.36-3.797-2.156v-32.907m18.125 12.813c-6.141 0-10.891 5.453-10.891 12.453 0 6.844 4.797 12.344 10.797 12.344 6 0 10.797-5.5 10.797-12.407 0-6.843-4.797-12.39-10.703-12.39m0 2.14c3.5 0 5.453 3.657 5.453 10.25 0 6.657-1.953 10.25-5.547 10.25-3.594 0-5.547-3.593-5.547-10.187 0-6.813 1.891-10.313 5.641-10.313"/><path class="SlurSegment" stroke="#000" stroke-width="1.74" stroke-linecap="round" stroke-linejoin="round" fill-rule="evenodd" d="M1688.02 3404.39c28.98-71.65 133.61-127.45 209.25-111.6-72.37-9.72-177 46.08-209.25 111.6M791.541 2982.79c71.662-38.05 245.989 6.59 290.549 74.4-46.28-61.08-220.609-105.72-290.549-74.4M1477.9 3057.19c33.52-25.33 85.51-12.93 103.99 24.8-20.09-30.98-72.08-43.38-103.99-24.8M2036.77 3090.79c41.62-57.48 189.19-79.8 245.95-37.2-55.72-35.74-203.29-13.42-245.95 37.2"/><path class="TieSegment" stroke="#000" stroke-width="1.74" stroke-linecap="round" stroke-linejoin="round" fill-rule="evenodd" d="M1144.6 3064.75c9.61-13.39 38.41-13.39 48.02 0-9.61-6.45-38.41-6.45-48.02 0M1202.28 3066.04c15.33-15.11 61.29-15.11 76.61 0-15.32-8.17-61.28-8.17-76.61 0"/><path class="BarLine" stroke="#000" stroke-width="4.46" stroke-linejoin="bevel" d="M547.07 3326.14v101.93M1637.44 3326.14v101.93M2232.13 3326.14v101.93M2761.55 3326.14v101.93M547.07 3065.74v261.77M1637.44 3065.74v261.77M2232.13 3065.74v261.77M2761.55 3065.74v261.77M547.07 2658.77v408.34M1637.44 2658.77v101.93M2232.13 2658.77v101.93M2761.55 2658.77v101.93M547.07 2279.78v380.36M1637.44 2279.78v101.93M2232.13 2279.78v101.93M2761.55 2279.78v101.93M547.07 1900.79v380.36M1637.44 1900.79v101.93M2232.13 1900.79v101.93M2761.55 1900.79v101.93M547.07 1521.8v380.36M1637.44 1521.8v101.93M2232.13 1521.8v101.93M2761.55 1521.8v101.93M547.07 1142.81v380.36M1637.44 1142.81v101.93M2232.13 1142.81v101.93M2761.55 1142.81v101.93M547.07 763.825v380.355M1637.44 763.825v380.355M2232.13 763.825v380.355M2761.55 763.825v380.355M547.07 384.835v380.354M1637.44 384.835v101.928M2232.13 384.835v101.928M2761.55 384.835v101.928"/><path class="Arpeggio" d="M1007.948 3340.043s-.698.59-1.395 1.38c-.294.31-.388.698-.388.992 0 .31.094.496.295.698l1.085 1.1c.201.186.31.388.31.589 0 .403-.31.589-.31.589s-5.456 6.355-6.34 7.347c-.79 1.085-1.1 2.185-1.1 3.177 0 2.077 1.194 3.968 2.092 4.759l4.759 4.759c.294.294.496.403.79.403.496 0 .9-.403.9-.403s.697-.59 1.379-1.38c.31-.31.403-.605.403-.899a.903.903 0 00-.295-.698l-1.1-1.085c-.186-.201-.295-.403-.295-.604 0-.388.295-.682.295-.682s5.363-6.355 6.262-7.347c.79-1.085 1.085-2.185 1.085-3.177 0-2.078-1.194-3.968-2.077-4.759l-4.774-4.759c-.295-.294-.589-.402-.79-.402-.497 0-.791.402-.791.402"/><path class="Arpeggio" d="M1007.948 3318.223s-.698.59-1.395 1.38c-.294.31-.388.698-.388.992 0 .31.094.496.295.698l1.085 1.1c.201.186.31.388.31.589 0 .403-.31.589-.31.589s-5.456 6.355-6.34 7.347c-.79 1.085-1.1 2.185-1.1 3.177 0 2.077 1.194 3.968 2.092 4.759l4.759 4.759c.294.294.496.403.79.403.496 0 .9-.403.9-.403s.697-.59 1.379-1.38c.31-.31.403-.605.403-.899a.903.903 0 00-.295-.698l-1.1-1.085c-.186-.201-.295-.403-.295-.604 0-.388.295-.682.295-.682s5.363-6.355 6.262-7.347c.79-1.085 1.085-2.185 1.085-3.177 0-2.078-1.194-3.968-2.077-4.759l-4.774-4.759c-.295-.294-.589-.402-.79-.402-.497 0-.791.402-.791.402"/><path class="Arpeggio" d="M1007.948 3296.403s-.698.59-1.395 1.38c-.294.31-.388.698-.388.992 0 .31.094.496.295.698l1.085 1.1c.201.186.31.388.31.589 0 .403-.31.589-.31.589s-5.456 6.355-6.34 7.347c-.79 1.085-1.1 2.185-1.1 3.177 0 2.077 1.194 3.968 2.092 4.759l4.759 4.759c.294.294.496.403.79.403.496 0 .9-.403.9-.403s.697-.59 1.379-1.38c.31-.31.403-.605.403-.899a.903.903 0 00-.295-.698l-1.1-1.085c-.186-.201-.295-.403-.295-.604 0-.388.295-.682.295-.682s5.363-6.355 6.262-7.347c.79-1.085 1.085-2.185 1.085-3.177 0-2.078-1.194-3.968-2.077-4.759l-4.774-4.759c-.295-.294-.589-.402-.79-.402-.497 0-.791.402-.791.402"/><path class="Arpeggio" d="M1007.948 3274.573s-.698.59-1.395 1.38c-.294.31-.388.698-.388.992 0 .31.094.496.295.698l1.085 1.1c.201.186.31.388.31.589 0 .403-.31.589-.31.589s-5.456 6.355-6.34 7.347c-.79 1.085-1.1 2.185-1.1 3.177 0 2.077 1.194 3.968 2.092 4.759l4.759 4.759c.294.294.496.403.79.403.496 0 .9-.403.9-.403s.697-.59 1.379-1.38c.31-.31.403-.605.403-.899a.903.903 0 00-.295-.698l-1.1-1.085c-.186-.201-.295-.403-.295-.604 0-.388.295-.682.295-.682s5.363-6.355 6.262-7.347c.79-1.085 1.085-2.185 1.085-3.177 0-2.078-1.194-3.968-2.077-4.759l-4.774-4.759c-.295-.294-.589-.402-.79-.402-.497 0-.791.402-.791.402"/><path class="Arpeggio" d="M1007.948 3252.753s-.698.59-1.395 1.38c-.294.31-.388.698-.388.992 0 .31.094.496.295.698l1.085 1.1c.201.186.31.388.31.589 0 .403-.31.589-.31.589s-5.456 6.355-6.34 7.347c-.79 1.085-1.1 2.185-1.1 3.177 0 2.077 1.194 3.968 2.092 4.759l4.759 4.759c.294.294.496.403.79.403.496 0 .9-.403.9-.403s.697-.59 1.379-1.38c.31-.31.403-.605.403-.899a.903.903 0 00-.295-.698l-1.1-1.085c-.186-.201-.295-.403-.295-.604 0-.388.295-.682.295-.682s5.363-6.355 6.262-7.347c.79-1.085 1.085-2.185 1.085-3.177 0-2.078-1.194-3.968-2.077-4.759l-4.774-4.759c-.295-.294-.589-.402-.79-.402-.497 0-.791.402-.791.402"/><path class="Accidental" d="M985.186 3046.867c-.589-3.86-2.976-7.533-8.029-7.533-4.96 0-7.843 3.069-8.339 3.673l.403-31.852c0-.79-.589-1.38-1.395-1.38h-1.178c-.806 0-1.395.59-1.395 1.38l.496 59.628c0 .791.589 1.38 1.395 1.38.186 0 .589-.093.79-.186.388-.202 6.836-3.379 12.199-9.424 3.767-4.278 5.255-9.13 5.255-13.206 0-.884-.094-1.674-.202-2.48m-6.836 3.875c0 1.488-.402 6.045-2.882 9.827-1.69 2.573-5.053 5.254-6.944 6.742l.294-19.344c.202-.899 1.69-3.766 5.658-3.766 3.58 0 3.874 3.363 3.874 5.456v1.085"/><path class="LedgerLine" stroke="#000" stroke-width="3.97" stroke-linejoin="bevel" d="M766.744 3451.51h49.593M1020.1 3302.71h49.59M1020.1 3277.91h49.59M1942.22 3302.71h49.6M1942.22 3277.91h49.6M766.744 3042.31h49.593M766.744 3017.51h49.593M853.019 3042.31h49.593M853.019 3017.51h49.593M910.7 3042.31h49.593"/><path class="Stem" stroke="#000" stroke-width="2.73" stroke-linejoin="bevel" d="M806.293 3460.73v-161.12M1030.14 3268.84v157.87M1673.27 3430.04v71.07M1743.02 3380.44v106.2M1812.77 3330.84v141.33M1882.52 3318.44v139.27M1952.27 3268.84v108.27M776.789 3008.44v133.07M863.063 3020.84v129.89M920.744 3045.64v111.26M992.951 3058.04v106.58M1067.34 3082.84v89.73M1125.02 3095.24v83.5M1182.7 3095.24v89.67M1268.97 3095.24v80.37M1463.15 3082.84v83.47M1515.14 3095.24v80.37M1567.14 3107.64v77.27M1673.27 3095.24v80.37M2022.02 3132.44v83.47M2091.76 3120.04v80.37M2161.51 3070.44v114.47M2267.97 3095.24v80.37M2561.92 3150.73v-83.62M2598.27 3120.04v74.17M2691.25 3107.64v83.47"/><path class="Note" d="M806.673 3455.881c-1.782-3.286-5.549-5.068-10.121-5.068-3.364 0-7.038.992-10.618 2.882-6.541 3.472-10.509 9.316-10.509 14.385 0 1.379.295 2.774.992 4.06 1.783 3.271 5.549 4.96 10.121 4.96 3.364 0 7.038-.883 10.618-2.774 6.541-3.472 10.509-9.331 10.509-14.384 0-1.395-.294-2.775-.992-4.061M806.673 3369.081c-1.782-3.286-5.549-5.068-10.121-5.068-3.364 0-7.038.992-10.618 2.882-6.541 3.472-10.509 9.316-10.509 14.385 0 1.379.295 2.774.992 4.06 1.783 3.271 5.549 4.96 10.121 4.96 3.364 0 7.038-.883 10.618-2.774 6.541-3.472 10.509-9.331 10.509-14.384 0-1.395-.294-2.775-.992-4.061M1060.028 3331.834c-1.782-3.27-5.549-5.053-10.121-5.053-3.364 0-7.038.992-10.618 2.868-6.541 3.472-10.509 9.331-10.509 14.384 0 1.395.295 2.79.992 4.077 1.783 3.285 5.549 4.975 10.121 4.975 3.364 0 7.038-.899 10.618-2.774 6.541-3.488 10.509-9.347 10.509-14.416 0-1.379-.294-2.774-.992-4.06m-4.262 6.742c-1.69 1.69-5.069 3.767-8.634 5.766-3.565 1.984-7.145 3.472-9.517 3.968-.496.109-.992.202-1.488.202-1.596 0-2.79-.59-3.472-1.891a3.212 3.212 0 01-.496-1.69c0-1.085.682-2.387 1.783-3.472 1.689-1.69 4.96-3.767 8.525-5.75 3.58-1.985 7.145-3.473 9.532-3.969.496-.108.992-.201 1.488-.201 1.581 0 2.868.589 3.565 1.875.295.496.403 1.101.403 1.69 0 1.1-.604 2.278-1.69 3.472"/><path class="Note" d="M1060.028 3307.034c-1.782-3.27-5.549-5.053-10.121-5.053-3.364 0-7.038.992-10.618 2.868-6.541 3.472-10.509 9.331-10.509 14.384 0 1.395.295 2.79.992 4.077 1.783 3.285 5.549 4.975 10.121 4.975 3.364 0 7.038-.899 10.618-2.774 6.541-3.488 10.509-9.347 10.509-14.416 0-1.379-.294-2.774-.992-4.06m-4.262 6.742c-1.69 1.69-5.069 3.767-8.634 5.766-3.565 1.984-7.145 3.472-9.517 3.968-.496.109-.992.202-1.488.202-1.596 0-2.79-.59-3.472-1.891a3.212 3.212 0 01-.496-1.69c0-1.085.682-2.387 1.783-3.472 1.689-1.69 4.96-3.767 8.525-5.75 3.58-1.985 7.145-3.473 9.532-3.969.496-.108.992-.201 1.488-.201 1.581 0 2.868.589 3.565 1.875.295.496.403 1.101.403 1.69 0 1.1-.604 2.278-1.69 3.472M1060.028 3257.434c-1.782-3.27-5.549-5.053-10.121-5.053-3.364 0-7.038.992-10.618 2.868-6.541 3.472-10.509 9.331-10.509 14.384 0 1.395.295 2.79.992 4.077 1.783 3.285 5.549 4.975 10.121 4.975 3.364 0 7.038-.899 10.618-2.774 6.541-3.488 10.509-9.347 10.509-14.416 0-1.379-.294-2.774-.992-4.06m-4.262 6.742c-1.69 1.69-5.069 3.767-8.634 5.766-3.565 1.984-7.145 3.472-9.517 3.968-.496.109-.992.202-1.488.202-1.596 0-2.79-.59-3.472-1.891a3.212 3.212 0 01-.496-1.69c0-1.085.682-2.387 1.783-3.472 1.689-1.69 4.96-3.767 8.525-5.75 3.58-1.985 7.145-3.473 9.532-3.969.496-.108.992-.201 1.488-.201 1.581 0 2.868.589 3.565 1.875.295.496.403 1.101.403 1.69 0 1.1-.604 2.278-1.69 3.472M1703.158 3418.681c-1.782-3.286-5.549-5.068-10.121-5.068-3.364 0-7.038.992-10.618 2.882-6.541 3.472-10.509 9.316-10.509 14.385 0 1.379.295 2.774.992 4.06 1.783 3.271 5.549 4.96 10.121 4.96 3.364 0 7.038-.883 10.618-2.774 6.541-3.472 10.509-9.331 10.509-14.384 0-1.395-.294-2.775-.992-4.061M1772.908 3369.081c-1.782-3.286-5.549-5.068-10.121-5.068-3.364 0-7.038.992-10.618 2.882-6.541 3.472-10.509 9.316-10.509 14.385 0 1.379.295 2.774.992 4.06 1.783 3.271 5.549 4.96 10.121 4.96 3.364 0 7.038-.883 10.618-2.774 6.541-3.472 10.509-9.331 10.509-14.384 0-1.395-.294-2.775-.992-4.061M1842.658 3319.481c-1.782-3.286-5.549-5.068-10.121-5.068-3.364 0-7.038.992-10.618 2.882-6.541 3.472-10.509 9.316-10.509 14.385 0 1.379.295 2.774.992 4.06 1.783 3.271 5.549 4.96 10.121 4.96 3.364 0 7.038-.883 10.618-2.774 6.541-3.472 10.509-9.331 10.509-14.384 0-1.395-.294-2.775-.992-4.061M1912.398 3307.081c-1.782-3.286-5.549-5.068-10.121-5.068-3.364 0-7.038.992-10.618 2.882-6.541 3.472-10.509 9.316-10.509 14.385 0 1.379.295 2.774.992 4.06 1.783 3.271 5.549 4.96 10.121 4.96 3.364 0 7.038-.883 10.618-2.774 6.541-3.472 10.509-9.331 10.509-14.384 0-1.395-.294-2.775-.992-4.061M1982.148 3257.481c-1.782-3.286-5.549-5.068-10.121-5.068-3.364 0-7.038.992-10.618 2.882-6.541 3.472-10.509 9.316-10.509 14.385 0 1.379.295 2.774.992 4.06 1.783 3.271 5.549 4.96 10.121 4.96 3.364 0 7.038-.883 10.618-2.774 6.541-3.472 10.509-9.331 10.509-14.384 0-1.395-.294-2.775-.992-4.061M806.673 2997.081c-1.782-3.286-5.549-5.068-10.121-5.068-3.364 0-7.038.992-10.618 2.882-6.541 3.472-10.509 9.316-10.509 14.385 0 1.379.295 2.774.992 4.06 1.783 3.271 5.549 4.96 10.121 4.96 3.364 0 7.038-.883 10.618-2.774 6.541-3.472 10.509-9.331 10.509-14.384 0-1.395-.294-2.775-.992-4.061M892.947 3009.481c-1.782-3.286-5.549-5.068-10.121-5.068-3.364 0-7.038.992-10.618 2.882-6.541 3.472-10.509 9.316-10.509 14.385 0 1.379.295 2.774.992 4.06 1.783 3.271 5.549 4.96 10.121 4.96 3.364 0 7.038-.883 10.618-2.774 6.541-3.472 10.509-9.331 10.509-14.384 0-1.395-.294-2.775-.992-4.061M950.628 3034.281c-1.782-3.286-5.549-5.068-10.121-5.068-3.364 0-7.038.992-10.618 2.882-6.541 3.472-10.509 9.316-10.509 14.385 0 1.379.295 2.774.992 4.06 1.783 3.271 5.549 4.96 10.121 4.96 3.364 0 7.038-.883 10.618-2.774 6.541-3.472 10.509-9.331 10.509-14.384 0-1.395-.294-2.775-.992-4.061M1022.835 3046.681c-1.782-3.286-5.549-5.068-10.121-5.068-3.364 0-7.038.992-10.618 2.882-6.541 3.472-10.509 9.316-10.509 14.385 0 1.379.295 2.774.992 4.06 1.783 3.271 5.549 4.96 10.121 4.96 3.364 0 7.038-.883 10.618-2.774 6.541-3.472 10.509-9.331 10.509-14.384 0-1.395-.294-2.775-.992-4.061M1097.218 3071.481c-1.782-3.286-5.549-5.068-10.121-5.068-3.364 0-7.038.992-10.618 2.882-6.541 3.472-10.509 9.316-10.509 14.385 0 1.379.295 2.774.992 4.06 1.783 3.271 5.549 4.96 10.121 4.96 3.364 0 7.038-.883 10.618-2.774 6.541-3.472 10.509-9.331 10.509-14.384 0-1.395-.294-2.775-.992-4.061M1154.898 3083.881c-1.782-3.286-5.549-5.068-10.121-5.068-3.364 0-7.038.992-10.618 2.882-6.541 3.472-10.509 9.316-10.509 14.385 0 1.379.295 2.774.992 4.06 1.783 3.271 5.549 4.96 10.121 4.96 3.364 0 7.038-.883 10.618-2.774 6.541-3.472 10.509-9.331 10.509-14.384 0-1.395-.294-2.775-.992-4.061M1212.578 3083.881c-1.782-3.286-5.549-5.068-10.121-5.068-3.364 0-7.038.992-10.618 2.882-6.541 3.472-10.509 9.316-10.509 14.385 0 1.379.295 2.774.992 4.06 1.783 3.271 5.549 4.96 10.121 4.96 3.364 0 7.038-.883 10.618-2.774 6.541-3.472 10.509-9.331 10.509-14.384 0-1.395-.294-2.775-.992-4.061M1298.858 3083.881c-1.782-3.286-5.549-5.068-10.121-5.068-3.364 0-7.038.992-10.618 2.882-6.541 3.472-10.509 9.316-10.509 14.385 0 1.379.295 2.774.992 4.06 1.783 3.271 5.549 4.96 10.121 4.96 3.364 0 7.038-.883 10.618-2.774 6.541-3.472 10.509-9.331 10.509-14.384 0-1.395-.294-2.775-.992-4.061M1493.038 3071.481c-1.782-3.286-5.549-5.068-10.121-5.068-3.364 0-7.038.992-10.618 2.882-6.541 3.472-10.509 9.316-10.509 14.385 0 1.379.295 2.774.992 4.06 1.783 3.271 5.549 4.96 10.121 4.96 3.364 0 7.038-.883 10.618-2.774 6.541-3.472 10.509-9.331 10.509-14.384 0-1.395-.294-2.775-.992-4.061M1545.028 3083.881c-1.782-3.286-5.549-5.068-10.121-5.068-3.364 0-7.038.992-10.618 2.882-6.541 3.472-10.509 9.316-10.509 14.385 0 1.379.295 2.774.992 4.06 1.783 3.271 5.549 4.96 10.121 4.96 3.364 0 7.038-.883 10.618-2.774 6.541-3.472 10.509-9.331 10.509-14.384 0-1.395-.294-2.775-.992-4.061M1597.018 3096.281c-1.782-3.286-5.549-5.068-10.121-5.068-3.364 0-7.038.992-10.618 2.882-6.541 3.472-10.509 9.316-10.509 14.385 0 1.379.295 2.774.992 4.06 1.783 3.271 5.549 4.96 10.121 4.96 3.364 0 7.038-.883 10.618-2.774 6.541-3.472 10.509-9.331 10.509-14.384 0-1.395-.294-2.775-.992-4.061M1703.158 3083.834c-1.782-3.27-5.549-5.053-10.121-5.053-3.364 0-7.038.992-10.618 2.868-6.541 3.472-10.509 9.331-10.509 14.384 0 1.395.295 2.79.992 4.077 1.783 3.285 5.549 4.975 10.121 4.975 3.364 0 7.038-.899 10.618-2.774 6.541-3.488 10.509-9.347 10.509-14.416 0-1.379-.294-2.774-.992-4.06m-4.262 6.742c-1.69 1.69-5.069 3.767-8.634 5.766-3.565 1.984-7.145 3.472-9.517 3.968-.496.109-.992.202-1.488.202-1.596 0-2.79-.59-3.472-1.891a3.212 3.212 0 01-.496-1.69c0-1.085.682-2.387 1.783-3.472 1.689-1.69 4.96-3.767 8.525-5.75 3.58-1.985 7.145-3.473 9.532-3.969.496-.108.992-.201 1.488-.201 1.581 0 2.868.589 3.565 1.875.295.496.403 1.101.403 1.69 0 1.1-.604 2.278-1.69 3.472M2051.898 3121.081c-1.782-3.286-5.549-5.068-10.121-5.068-3.364 0-7.038.992-10.618 2.882-6.541 3.472-10.509 9.316-10.509 14.385 0 1.379.295 2.774.992 4.06 1.783 3.271 5.549 4.96 10.121 4.96 3.364 0 7.038-.883 10.618-2.774 6.541-3.472 10.509-9.331 10.509-14.384 0-1.395-.294-2.775-.992-4.061M2121.648 3108.681c-1.782-3.286-5.549-5.068-10.121-5.068-3.364 0-7.038.992-10.618 2.882-6.541 3.472-10.509 9.316-10.509 14.385 0 1.379.295 2.774.992 4.06 1.783 3.271 5.549 4.96 10.121 4.96 3.364 0 7.038-.883 10.618-2.774 6.541-3.472 10.509-9.331 10.509-14.384 0-1.395-.294-2.775-.992-4.061M2191.398 3059.081c-1.782-3.286-5.549-5.068-10.121-5.068-3.364 0-7.038.992-10.618 2.882-6.541 3.472-10.509 9.316-10.509 14.385 0 1.379.295 2.774.992 4.06 1.783 3.271 5.549 4.96 10.121 4.96 3.364 0 7.038-.883 10.618-2.774 6.541-3.472 10.509-9.331 10.509-14.384 0-1.395-.294-2.775-.992-4.061M2297.848 3083.834c-1.782-3.27-5.549-5.053-10.121-5.053-3.364 0-7.038.992-10.618 2.868-6.541 3.472-10.509 9.331-10.509 14.384 0 1.395.295 2.79.992 4.077 1.783 3.285 5.549 4.975 10.121 4.975 3.364 0 7.038-.899 10.618-2.774 6.541-3.488 10.509-9.347 10.509-14.416 0-1.379-.294-2.774-.992-4.06m-4.262 6.742c-1.69 1.69-5.069 3.767-8.634 5.766-3.565 1.984-7.145 3.472-9.517 3.968-.496.109-.992.202-1.488.202-1.596 0-2.79-.59-3.472-1.891a3.212 3.212 0 01-.496-1.69c0-1.085.682-2.387 1.783-3.472 1.689-1.69 4.96-3.767 8.525-5.75 3.58-1.985 7.145-3.473 9.532-3.969.496-.108.992-.201 1.488-.201 1.581 0 2.868.589 3.565 1.875.295.496.403 1.101.403 1.69 0 1.1-.604 2.278-1.69 3.472M2562.298 3145.881c-1.782-3.286-5.549-5.068-10.121-5.068-3.364 0-7.038.992-10.618 2.882-6.541 3.472-10.509 9.316-10.509 14.385 0 1.379.295 2.774.992 4.06 1.783 3.271 5.549 4.96 10.121 4.96 3.364 0 7.038-.883 10.618-2.774 6.541-3.472 10.509-9.331 10.509-14.384 0-1.395-.294-2.775-.992-4.061M2628.158 3108.681c-1.782-3.286-5.549-5.068-10.121-5.068-3.364 0-7.038.992-10.618 2.882-6.541 3.472-10.509 9.316-10.509 14.385 0 1.379.295 2.774.992 4.06 1.783 3.271 5.549 4.96 10.121 4.96 3.364 0 7.038-.883 10.618-2.774 6.541-3.472 10.509-9.331 10.509-14.384 0-1.395-.294-2.775-.992-4.061M2721.128 3096.281c-1.782-3.286-5.549-5.068-10.121-5.068-3.364 0-7.038.992-10.618 2.882-6.541 3.472-10.509 9.316-10.509 14.385 0 1.379.295 2.774.992 4.06 1.783 3.271 5.549 4.96 10.121 4.96 3.364 0 7.038-.883 10.618-2.774 6.541-3.472 10.509-9.331 10.509-14.384 0-1.395-.294-2.775-.992-4.061"/><path class="Clef" d="M594.345 3327.417c-7.548 0-13.594 4.356-13.702 4.356-5.75 4.262-8.029 9.33-8.928 12.802-.496 1.783-.682 3.565-.682 5.255 0 2.387.388 4.557 1.287 6.448 1.193 2.682 3.472 4.557 6.448 5.549 1.193.403 2.48.604 3.766.604 2.185 0 4.464-.604 6.355-1.689 3.069-1.69 4.96-5.254 4.96-9.13 0-3.472-1.798-6.649-4.774-8.525-2.077-1.394-4.061-1.782-5.75-1.782-1.194 0-2.279.186-3.178.496-.992.388-2.666 1.38-3.472 2.077.31-1.891 1.488-4.759 2.588-6.355 1.086-1.581 3.271-3.565 4.96-4.464 2.48-1.38 5.658-1.984 9.13-1.984 10.122 0 15.082 8.138 15.082 24.8 0 9.238-3.472 18.058-6.448 23.917-3.286 6.54-7.642 12.803-11.517 16.275-10.323 9.424-20.041 13.888-20.134 13.888 0 0-1.489.883-1.101 2.371.31.992 1.194 1.194 1.798 1.194.093 0 .388-.093.496-.093.093 0 11.408-4.666 20.429-11.718 5.069-3.658 9.626-7.626 13.594-11.904a73.558 73.558 0 009.13-12.199c4.355-7.44 6.835-15.175 6.835-21.824 0-8.23-2.17-15.081-6.247-19.933-4.665-5.564-11.702-8.432-20.925-8.432m31.14 12.586c0 2.79 2.185 4.96 4.774 4.96 2.573 0 4.758-2.17 4.758-4.96 0-2.774-2.185-5.053-4.758-5.053-2.589 0-4.774 2.279-4.774 5.053m0 24.506c0 2.774 2.185 5.068 4.774 5.068 2.573 0 4.758-2.294 4.758-5.068 0-2.775-2.185-5.053-4.758-5.053-2.589 0-4.774 2.278-4.774 5.053M631.995 3135.635c-1.225-5.378-3.844-9.176-4.62-10.198-3.161-4.248-7.145-7.068-11.795-8.417-3.084-.868-6.06-.992-8.463-.806a2314.148 2314.148 0 01-2.93-17.205c5.41-6.123 9.006-11.873 11.269-16.136 3.441-6.525 4.573-11.067 4.635-11.268 1.705-5.177 2.061-12.819.96-20.956-.991-7.487-3.068-14.151-5.409-17.375-1.007-1.41-2.061-2.14-3.084-2.14-1.21 0-3.705 1.225-6.572 3.984-2.279 2.17-5.518 6.03-8.06 11.997-2.976 7.006-3.193 16.414-2.837 23.08.372 7.222 1.473 12.864 1.488 12.91.016.094.279 1.582.713 4.124-.217.232-.465.45-.713.697-1.023.992-2.201 2.108-3.58 3.488-.853.852-1.798 1.751-2.79 2.712-8.37 8.076-21.065 20.305-21.065 39.308 0 4.666.899 9.053 2.666 13.036 1.566 3.565 3.844 6.82 6.758 9.672 7.673 7.502 18.182 10.68 25.172 10.525 2.93-.078 5.55-.31 7.92-.76 1.814 9.533 2.946 16.508 2.977 21.809.046 6.463-1.597 10.416-5.456 13.16-2.418 1.72-5.208 2.665-8.277 2.805-2.573.124-4.82-.341-6.231-.744h-.016s-.279-.093-.294-.28c-.016-.185.34-.232.34-.232h.032c1.906-.434 5.44-1.658 7.78-4.929 1.783-2.51 2.651-7.099.822-11.005-1.1-2.371-3.58-5.301-9.16-5.75-2.48-.202-4.728.31-6.712 1.503-1.798 1.07-3.286 2.697-4.324 4.681-2.434 4.666-1.984 10.354 1.116 14.167 2.944 3.596 7.517 5.89 12.911 6.464.853.093 1.69.124 2.527.124 4.402 0 8.757-1.194 12.307-3.38 3.627-2.557 5.735-6.51 6.401-12.09.558-4.603.17-10.477-1.209-18.49-.356-2.078-.899-5.085-1.55-8.805 5.704-1.906 9.827-5.456 13.563-11.268 3.27-5.689 4.2-11.75 2.79-18.012m-33.945 26.01c-4.604-1.21-9.006-3.69-12.726-7.177-1.302-1.209-3.162-3.363-4.619-6.727-1.348-3.146-2.015-6.557-1.953-10.106.062-4.666 1.364-9.455 3.844-14.198 2.899-5.534 7.425-11.02 13.439-16.306a89.206 89.206 0 004.076-3.813c.76 4.231 1.581 8.881 2.449 13.717-3.813 1.256-8.525 4.387-11.61 9.998-3.518 6.51-3.379 11.997-2.65 15.454.93 4.417 3.441 8.153 6.867 10.23.93.558 5.022 2.666 6.85 2.092a1.16 1.16 0 00.776-.666c.511-1.163-.512-1.798-2.046-2.744a27.274 27.274 0 01-1.984-1.317c-3.302-2.465-4.743-6.882-3.674-11.238a12.436 12.436 0 013.674-6.216c1.643-1.534 3.673-2.62 6.029-3.255 2.03 11.16 4.077 22.228 5.704 30.52.124.682.264 1.348.388 2.015-4.34.93-8.65.837-12.834-.263m11.237-32.938c10.261-.465 14.493 6.913 15.376 11.702.465 2.527.465 6.929-1.07 11.114-1.162 3.146-3.595 7.192-8.695 9.238-.062-.418-.14-.852-.217-1.271-1.534-8.711-3.456-19.623-5.394-30.783m-7.27-70.386c1.768-5.688 4.48-8.912 6.464-10.633 1.736-1.503 3.364-2.216 4.278-2.216.14 0 .264.03.357.062.465.14.992.697 1.457 1.565 2.294 4.247 1.55 10.912.217 15.314-1.612 5.363-4.51 10.928-13.237 20.46-.171-1.1-.326-2.139-.481-3.115-1.24-8.215-.914-15.438.946-21.437M594.345 2660.047c-7.548 0-13.594 4.356-13.702 4.356-5.75 4.262-8.029 9.33-8.928 12.802-.496 1.783-.682 3.565-.682 5.255 0 2.387.388 4.557 1.287 6.448 1.193 2.682 3.472 4.557 6.448 5.549 1.193.403 2.48.604 3.766.604 2.185 0 4.464-.604 6.355-1.689 3.069-1.69 4.96-5.254 4.96-9.13 0-3.472-1.798-6.649-4.774-8.525-2.077-1.394-4.061-1.782-5.75-1.782-1.194 0-2.279.186-3.178.496-.992.388-2.666 1.38-3.472 2.077.31-1.891 1.488-4.759 2.588-6.355 1.086-1.581 3.271-3.565 4.96-4.464 2.48-1.38 5.658-1.984 9.13-1.984 10.122 0 15.082 8.138 15.082 24.8 0 9.238-3.472 18.058-6.448 23.917-3.286 6.54-7.642 12.803-11.517 16.275-10.323 9.424-20.041 13.888-20.134 13.888 0 0-1.489.883-1.101 2.371.31.992 1.194 1.194 1.798 1.194.093 0 .388-.093.496-.093.093 0 11.408-4.666 20.429-11.718 5.069-3.658 9.626-7.626 13.594-11.904a73.558 73.558 0 009.13-12.199c4.355-7.44 6.835-15.175 6.835-21.824 0-8.23-2.17-15.081-6.247-19.933-4.665-5.564-11.702-8.432-20.925-8.432m31.14 12.586c0 2.79 2.185 4.96 4.774 4.96 2.573 0 4.758-2.17 4.758-4.96 0-2.774-2.185-5.053-4.758-5.053-2.589 0-4.774 2.279-4.774 5.053m0 24.506c0 2.774 2.185 5.068 4.774 5.068 2.573 0 4.758-2.294 4.758-5.068 0-2.775-2.185-5.053-4.758-5.053-2.589 0-4.774 2.278-4.774 5.053M594.345 2281.057c-7.548 0-13.594 4.356-13.702 4.356-5.75 4.262-8.029 9.33-8.928 12.802-.496 1.783-.682 3.565-.682 5.255 0 2.387.388 4.557 1.287 6.448 1.193 2.682 3.472 4.557 6.448 5.549 1.193.403 2.48.604 3.766.604 2.185 0 4.464-.604 6.355-1.689 3.069-1.69 4.96-5.254 4.96-9.13 0-3.472-1.798-6.649-4.774-8.525-2.077-1.394-4.061-1.782-5.75-1.782-1.194 0-2.279.186-3.178.496-.992.388-2.666 1.38-3.472 2.077.31-1.891 1.488-4.759 2.588-6.355 1.086-1.581 3.271-3.565 4.96-4.464 2.48-1.38 5.658-1.984 9.13-1.984 10.122 0 15.082 8.138 15.082 24.8 0 9.238-3.472 18.058-6.448 23.917-3.286 6.54-7.642 12.803-11.517 16.275-10.323 9.424-20.041 13.888-20.134 13.888 0 0-1.489.883-1.101 2.371.31.992 1.194 1.194 1.798 1.194.093 0 .388-.093.496-.093.093 0 11.408-4.666 20.429-11.718 5.069-3.658 9.626-7.626 13.594-11.904a73.558 73.558 0 009.13-12.199c4.355-7.44 6.835-15.175 6.835-21.824 0-8.23-2.17-15.081-6.247-19.933-4.665-5.564-11.702-8.432-20.925-8.432m31.14 12.586c0 2.79 2.185 4.96 4.774 4.96 2.573 0 4.758-2.17 4.758-4.96 0-2.774-2.185-5.053-4.758-5.053-2.589 0-4.774 2.279-4.774 5.053m0 24.506c0 2.774 2.185 5.068 4.774 5.068 2.573 0 4.758-2.294 4.758-5.068 0-2.775-2.185-5.053-4.758-5.053-2.589 0-4.774 2.278-4.774 5.053M594.345 1902.067c-7.548 0-13.594 4.356-13.702 4.356-5.75 4.262-8.029 9.33-8.928 12.802-.496 1.783-.682 3.565-.682 5.255 0 2.387.388 4.557 1.287 6.448 1.193 2.682 3.472 4.557 6.448 5.549 1.193.403 2.48.604 3.766.604 2.185 0 4.464-.604 6.355-1.689 3.069-1.69 4.96-5.254 4.96-9.13 0-3.472-1.798-6.649-4.774-8.525-2.077-1.394-4.061-1.782-5.75-1.782-1.194 0-2.279.186-3.178.496-.992.388-2.666 1.38-3.472 2.077.31-1.891 1.488-4.759 2.588-6.355 1.086-1.581 3.271-3.565 4.96-4.464 2.48-1.38 5.658-1.984 9.13-1.984 10.122 0 15.082 8.138 15.082 24.8 0 9.238-3.472 18.058-6.448 23.917-3.286 6.54-7.642 12.803-11.517 16.275-10.323 9.424-20.041 13.888-20.134 13.888 0 0-1.489.883-1.101 2.371.31.992 1.194 1.194 1.798 1.194.093 0 .388-.093.496-.093.093 0 11.408-4.666 20.429-11.718 5.069-3.658 9.626-7.626 13.594-11.904a73.558 73.558 0 009.13-12.199c4.355-7.44 6.835-15.175 6.835-21.824 0-8.23-2.17-15.081-6.247-19.933-4.665-5.564-11.702-8.432-20.925-8.432m31.14 12.586c0 2.79 2.185 4.96 4.774 4.96 2.573 0 4.758-2.17 4.758-4.96 0-2.774-2.185-5.053-4.758-5.053-2.589 0-4.774 2.279-4.774 5.053m0 24.506c0 2.774 2.185 5.068 4.774 5.068 2.573 0 4.758-2.294 4.758-5.068 0-2.775-2.185-5.053-4.758-5.053-2.589 0-4.774 2.278-4.774 5.053M594.345 1523.077c-7.548 0-13.594 4.356-13.702 4.356-5.75 4.262-8.029 9.33-8.928 12.802-.496 1.783-.682 3.565-.682 5.255 0 2.387.388 4.557 1.287 6.448 1.193 2.682 3.472 4.557 6.448 5.549 1.193.403 2.48.604 3.766.604 2.185 0 4.464-.604 6.355-1.689 3.069-1.69 4.96-5.254 4.96-9.13 0-3.472-1.798-6.649-4.774-8.525-2.077-1.394-4.061-1.782-5.75-1.782-1.194 0-2.279.186-3.178.496-.992.388-2.666 1.38-3.472 2.077.31-1.891 1.488-4.759 2.588-6.355 1.086-1.581 3.271-3.565 4.96-4.464 2.48-1.38 5.658-1.984 9.13-1.984 10.122 0 15.082 8.138 15.082 24.8 0 9.238-3.472 18.058-6.448 23.917-3.286 6.54-7.642 12.803-11.517 16.275-10.323 9.424-20.041 13.888-20.134 13.888 0 0-1.489.883-1.101 2.371.31.992 1.194 1.194 1.798 1.194.093 0 .388-.093.496-.093.093 0 11.408-4.666 20.429-11.718 5.069-3.658 9.626-7.626 13.594-11.904a73.558 73.558 0 009.13-12.199c4.355-7.44 6.835-15.175 6.835-21.824 0-8.23-2.17-15.081-6.247-19.933-4.665-5.564-11.702-8.432-20.925-8.432m31.14 12.586c0 2.79 2.185 4.96 4.774 4.96 2.573 0 4.758-2.17 4.758-4.96 0-2.774-2.185-5.053-4.758-5.053-2.589 0-4.774 2.279-4.774 5.053m0 24.506c0 2.774 2.185 5.068 4.774 5.068 2.573 0 4.758-2.294 4.758-5.068 0-2.775-2.185-5.053-4.758-5.053-2.589 0-4.774 2.278-4.774 5.053M594.345 1144.087c-7.548 0-13.594 4.356-13.702 4.356-5.75 4.262-8.029 9.33-8.928 12.802-.496 1.783-.682 3.565-.682 5.255 0 2.387.388 4.557 1.287 6.448 1.193 2.682 3.472 4.557 6.448 5.549 1.193.403 2.48.604 3.766.604 2.185 0 4.464-.604 6.355-1.689 3.069-1.69 4.96-5.254 4.96-9.13 0-3.472-1.798-6.649-4.774-8.525-2.077-1.394-4.061-1.782-5.75-1.782-1.194 0-2.279.186-3.178.496-.992.388-2.666 1.38-3.472 2.077.31-1.891 1.488-4.759 2.588-6.355 1.086-1.581 3.271-3.565 4.96-4.464 2.48-1.38 5.658-1.984 9.13-1.984 10.122 0 15.082 8.138 15.082 24.8 0 9.238-3.472 18.058-6.448 23.917-3.286 6.54-7.642 12.803-11.517 16.275-10.323 9.424-20.041 13.888-20.134 13.888 0 0-1.489.883-1.101 2.371.31.992 1.194 1.194 1.798 1.194.093 0 .388-.093.496-.093.093 0 11.408-4.666 20.429-11.718 5.069-3.658 9.626-7.626 13.594-11.904a73.558 73.558 0 009.13-12.199c4.355-7.44 6.835-15.175 6.835-21.824 0-8.23-2.17-15.081-6.247-19.933-4.665-5.564-11.702-8.432-20.925-8.432m31.14 12.586c0 2.79 2.185 4.96 4.774 4.96 2.573 0 4.758-2.17 4.758-4.96 0-2.774-2.185-5.053-4.758-5.053-2.589 0-4.774 2.279-4.774 5.053m0 24.506c0 2.774 2.185 5.068 4.774 5.068 2.573 0 4.758-2.294 4.758-5.068 0-2.775-2.185-5.053-4.758-5.053-2.589 0-4.774 2.278-4.774 5.053M631.995 833.714c-1.225-5.378-3.844-9.176-4.62-10.198-3.161-4.248-7.145-7.068-11.795-8.417-3.084-.868-6.06-.992-8.463-.806a2314.148 2314.148 0 01-2.93-17.205c5.41-6.123 9.006-11.873 11.269-16.136 3.441-6.525 4.573-11.067 4.635-11.268 1.705-5.177 2.061-12.819.96-20.956-.991-7.487-3.068-14.151-5.409-17.375-1.007-1.41-2.061-2.14-3.084-2.14-1.21 0-3.705 1.225-6.572 3.984-2.279 2.17-5.518 6.03-8.06 11.997-2.976 7.006-3.193 16.414-2.837 23.08.372 7.222 1.473 12.864 1.488 12.91.016.094.279 1.582.713 4.124-.217.232-.465.45-.713.697-1.023.992-2.201 2.108-3.58 3.488-.853.852-1.798 1.751-2.79 2.712-8.37 8.076-21.065 20.305-21.065 39.308 0 4.666.899 9.053 2.666 13.036 1.566 3.565 3.844 6.82 6.758 9.672 7.673 7.502 18.182 10.68 25.172 10.525 2.93-.078 5.55-.31 7.92-.76 1.814 9.533 2.946 16.508 2.977 21.809.046 6.463-1.597 10.416-5.456 13.16-2.418 1.72-5.208 2.665-8.277 2.805-2.573.124-4.82-.341-6.231-.744h-.016s-.279-.093-.294-.28c-.016-.185.34-.232.34-.232h.032c1.906-.434 5.44-1.658 7.78-4.929 1.783-2.51 2.651-7.099.822-11.005-1.1-2.371-3.58-5.301-9.16-5.75-2.48-.202-4.728.31-6.712 1.503-1.798 1.07-3.286 2.697-4.324 4.681-2.434 4.666-1.984 10.354 1.116 14.167 2.944 3.596 7.517 5.89 12.911 6.464.853.093 1.69.124 2.527.124 4.402 0 8.757-1.194 12.307-3.38 3.627-2.557 5.735-6.51 6.401-12.09.558-4.603.17-10.477-1.209-18.49-.356-2.078-.899-5.085-1.55-8.805 5.704-1.906 9.827-5.456 13.563-11.268 3.27-5.689 4.2-11.75 2.79-18.012m-33.945 26.01c-4.604-1.21-9.006-3.69-12.726-7.177-1.302-1.209-3.162-3.363-4.619-6.727-1.348-3.146-2.015-6.557-1.953-10.106.062-4.666 1.364-9.455 3.844-14.198 2.899-5.534 7.425-11.02 13.439-16.306a89.206 89.206 0 004.076-3.813c.76 4.231 1.581 8.881 2.449 13.717-3.813 1.256-8.525 4.387-11.61 9.998-3.518 6.51-3.379 11.997-2.65 15.454.93 4.417 3.441 8.153 6.867 10.23.93.558 5.022 2.666 6.85 2.092a1.16 1.16 0 00.776-.666c.511-1.163-.512-1.798-2.046-2.744a27.274 27.274 0 01-1.984-1.317c-3.302-2.465-4.743-6.882-3.674-11.238a12.436 12.436 0 013.674-6.216c1.643-1.534 3.673-2.62 6.029-3.255 2.03 11.16 4.077 22.228 5.704 30.52.124.682.264 1.348.388 2.015-4.34.93-8.65.837-12.834-.263m11.237-32.938c10.261-.465 14.493 6.913 15.376 11.702.465 2.527.465 6.929-1.07 11.114-1.162 3.146-3.595 7.192-8.695 9.238-.062-.418-.14-.852-.217-1.271-1.534-8.711-3.456-19.623-5.394-30.783m-7.27-70.386c1.768-5.688 4.48-8.912 6.464-10.633 1.736-1.503 3.364-2.216 4.278-2.216.14 0 .264.03.357.062.465.14.992.697 1.457 1.565 2.294 4.247 1.55 10.912.217 15.314-1.612 5.363-4.51 10.928-13.237 20.46-.171-1.1-.326-2.139-.481-3.115-1.24-8.215-.914-15.438.946-21.437M631.995 454.724c-1.225-5.378-3.844-9.176-4.62-10.198-3.161-4.248-7.145-7.068-11.795-8.417-3.084-.868-6.06-.992-8.463-.806a2314.148 2314.148 0 01-2.93-17.205c5.41-6.123 9.006-11.873 11.269-16.136 3.441-6.525 4.573-11.067 4.635-11.268 1.705-5.177 2.061-12.819.96-20.956-.991-7.487-3.068-14.151-5.409-17.375-1.007-1.41-2.061-2.14-3.084-2.14-1.21 0-3.705 1.225-6.572 3.984-2.279 2.17-5.518 6.03-8.06 11.997-2.976 7.006-3.193 16.414-2.837 23.08.372 7.222 1.473 12.864 1.488 12.91.016.094.279 1.582.713 4.124-.217.232-.465.45-.713.697-1.023.992-2.201 2.108-3.58 3.488-.853.852-1.798 1.751-2.79 2.712-8.37 8.076-21.065 20.305-21.065 39.308 0 4.666.899 9.053 2.666 13.036 1.566 3.565 3.844 6.82 6.758 9.672 7.673 7.502 18.182 10.68 25.172 10.525 2.93-.078 5.55-.31 7.92-.76 1.814 9.533 2.946 16.508 2.977 21.809.046 6.463-1.597 10.416-5.456 13.16-2.418 1.72-5.208 2.665-8.277 2.805-2.573.124-4.82-.341-6.231-.744h-.016s-.279-.093-.294-.28c-.016-.185.34-.232.34-.232h.032c1.906-.434 5.44-1.658 7.78-4.929 1.783-2.51 2.651-7.099.822-11.005-1.1-2.371-3.58-5.301-9.16-5.75-2.48-.202-4.728.31-6.712 1.503-1.798 1.07-3.286 2.697-4.324 4.681-2.434 4.666-1.984 10.354 1.116 14.167 2.944 3.596 7.517 5.89 12.911 6.464.853.093 1.69.124 2.527.124 4.402 0 8.757-1.194 12.307-3.38 3.627-2.557 5.735-6.51 6.401-12.09.558-4.603.17-10.477-1.209-18.49-.356-2.078-.899-5.085-1.55-8.805 5.704-1.906 9.827-5.456 13.563-11.268 3.27-5.689 4.2-11.75 2.79-18.012m-33.945 26.01c-4.604-1.21-9.006-3.69-12.726-7.177-1.302-1.209-3.162-3.363-4.619-6.727-1.348-3.146-2.015-6.557-1.953-10.106.062-4.666 1.364-9.455 3.844-14.198 2.899-5.534 7.425-11.02 13.439-16.306a89.206 89.206 0 004.076-3.813c.76 4.231 1.581 8.881 2.449 13.717-3.813 1.256-8.525 4.387-11.61 9.998-3.518 6.51-3.379 11.997-2.65 15.454.93 4.417 3.441 8.153 6.867 10.23.93.558 5.022 2.666 6.85 2.092a1.16 1.16 0 00.776-.666c.511-1.163-.512-1.798-2.046-2.744a27.274 27.274 0 01-1.984-1.317c-3.302-2.465-4.743-6.882-3.674-11.238a12.436 12.436 0 013.674-6.216c1.643-1.534 3.673-2.62 6.029-3.255 2.03 11.16 4.077 22.228 5.704 30.52.124.682.264 1.348.388 2.015-4.34.93-8.65.837-12.834-.263m11.237-32.938c10.261-.465 14.493 6.913 15.376 11.702.465 2.527.465 6.929-1.07 11.114-1.162 3.146-3.595 7.192-8.695 9.238-.062-.418-.14-.852-.217-1.271-1.534-8.711-3.456-19.623-5.394-30.783m-7.27-70.386c1.768-5.688 4.48-8.912 6.464-10.633 1.736-1.503 3.364-2.216 4.278-2.216.14 0 .264.03.357.062.465.14.992.697 1.457 1.565 2.294 4.247 1.55 10.912.217 15.314-1.612 5.363-4.51 10.928-13.237 20.46-.171-1.1-.326-2.139-.481-3.115-1.24-8.215-.914-15.438.946-21.437"/><path class="KeySig" d="M704.543 3356.867c-.589-3.86-2.976-7.533-8.029-7.533-4.96 0-7.843 3.069-8.339 3.673l.403-31.852c0-.79-.589-1.38-1.395-1.38h-1.178c-.806 0-1.395.59-1.395 1.38l.496 59.628c0 .791.589 1.38 1.395 1.38.186 0 .589-.093.79-.186.388-.202 6.836-3.379 12.199-9.424 3.767-4.278 5.255-9.13 5.255-13.206 0-.884-.094-1.674-.202-2.48m-6.836 3.875c0 1.488-.402 6.045-2.882 9.827-1.69 2.573-5.053 5.254-6.944 6.742l.294-19.344c.202-.899 1.69-3.766 5.658-3.766 3.58 0 3.874 3.363 3.874 5.456v1.085M679.743 3394.067c-.589-3.86-2.976-7.533-8.029-7.533-4.96 0-7.843 3.069-8.339 3.673l.403-31.852c0-.79-.589-1.38-1.395-1.38h-1.178c-.806 0-1.395.59-1.395 1.38l.496 59.628c0 .791.589 1.38 1.395 1.38.186 0 .589-.093.79-.186.388-.202 6.836-3.379 12.199-9.424 3.767-4.278 5.255-9.13 5.255-13.206 0-.884-.094-1.674-.202-2.48m-6.836 3.875c0 1.488-.402 6.045-2.882 9.827-1.69 2.573-5.053 5.254-6.944 6.742l.294-19.344c.202-.899 1.69-3.766 5.658-3.766 3.58 0 3.874 3.363 3.874 5.456v1.085M704.543 3071.667c-.589-3.86-2.976-7.533-8.029-7.533-4.96 0-7.843 3.069-8.339 3.673l.403-31.852c0-.79-.589-1.38-1.395-1.38h-1.178c-.806 0-1.395.59-1.395 1.38l.496 59.628c0 .791.589 1.38 1.395 1.38.186 0 .589-.093.79-.186.388-.202 6.836-3.379 12.199-9.424 3.767-4.278 5.255-9.13 5.255-13.206 0-.884-.094-1.674-.202-2.48m-6.836 3.875c0 1.488-.402 6.045-2.882 9.827-1.69 2.573-5.053 5.254-6.944 6.742l.294-19.344c.202-.899 1.69-3.766 5.658-3.766 3.58 0 3.874 3.363 3.874 5.456v1.085M679.743 3108.867c-.589-3.86-2.976-7.533-8.029-7.533-4.96 0-7.843 3.069-8.339 3.673l.403-31.852c0-.79-.589-1.38-1.395-1.38h-1.178c-.806 0-1.395.59-1.395 1.38l.496 59.628c0 .791.589 1.38 1.395 1.38.186 0 .589-.093.79-.186.388-.202 6.836-3.379 12.199-9.424 3.767-4.278 5.255-9.13 5.255-13.206 0-.884-.094-1.674-.202-2.48m-6.836 3.875c0 1.488-.402 6.045-2.882 9.827-1.69 2.573-5.053 5.254-6.944 6.742l.294-19.344c.202-.899 1.69-3.766 5.658-3.766 3.58 0 3.874 3.363 3.874 5.456v1.085M704.543 2689.497c-.589-3.86-2.976-7.533-8.029-7.533-4.96 0-7.843 3.069-8.339 3.673l.403-31.852c0-.79-.589-1.38-1.395-1.38h-1.178c-.806 0-1.395.59-1.395 1.38l.496 59.628c0 .791.589 1.38 1.395 1.38.186 0 .589-.093.79-.186.388-.202 6.836-3.379 12.199-9.424 3.767-4.278 5.255-9.13 5.255-13.206 0-.884-.094-1.674-.202-2.48m-6.836 3.875c0 1.488-.402 6.045-2.882 9.827-1.69 2.573-5.053 5.254-6.944 6.742l.294-19.344c.202-.899 1.69-3.766 5.658-3.766 3.58 0 3.874 3.363 3.874 5.456v1.085M679.743 2726.697c-.589-3.86-2.976-7.533-8.029-7.533-4.96 0-7.843 3.069-8.339 3.673l.403-31.852c0-.79-.589-1.38-1.395-1.38h-1.178c-.806 0-1.395.59-1.395 1.38l.496 59.628c0 .791.589 1.38 1.395 1.38.186 0 .589-.093.79-.186.388-.202 6.836-3.379 12.199-9.424 3.767-4.278 5.255-9.13 5.255-13.206 0-.884-.094-1.674-.202-2.48m-6.836 3.875c0 1.488-.402 6.045-2.882 9.827-1.69 2.573-5.053 5.254-6.944 6.742l.294-19.344c.202-.899 1.69-3.766 5.658-3.766 3.58 0 3.874 3.363 3.874 5.456v1.085M704.543 2310.507c-.589-3.86-2.976-7.533-8.029-7.533-4.96 0-7.843 3.069-8.339 3.673l.403-31.852c0-.79-.589-1.38-1.395-1.38h-1.178c-.806 0-1.395.59-1.395 1.38l.496 59.628c0 .791.589 1.38 1.395 1.38.186 0 .589-.093.79-.186.388-.202 6.836-3.379 12.199-9.424 3.767-4.278 5.255-9.13 5.255-13.206 0-.884-.094-1.674-.202-2.48m-6.836 3.875c0 1.488-.402 6.045-2.882 9.827-1.69 2.573-5.053 5.254-6.944 6.742l.294-19.344c.202-.899 1.69-3.766 5.658-3.766 3.58 0 3.874 3.363 3.874 5.456v1.085M679.743 2347.707c-.589-3.86-2.976-7.533-8.029-7.533-4.96 0-7.843 3.069-8.339 3.673l.403-31.852c0-.79-.589-1.38-1.395-1.38h-1.178c-.806 0-1.395.59-1.395 1.38l.496 59.628c0 .791.589 1.38 1.395 1.38.186 0 .589-.093.79-.186.388-.202 6.836-3.379 12.199-9.424 3.767-4.278 5.255-9.13 5.255-13.206 0-.884-.094-1.674-.202-2.48m-6.836 3.875c0 1.488-.402 6.045-2.882 9.827-1.69 2.573-5.053 5.254-6.944 6.742l.294-19.344c.202-.899 1.69-3.766 5.658-3.766 3.58 0 3.874 3.363 3.874 5.456v1.085M704.543 1931.517c-.589-3.86-2.976-7.533-8.029-7.533-4.96 0-7.843 3.069-8.339 3.673l.403-31.852c0-.79-.589-1.38-1.395-1.38h-1.178c-.806 0-1.395.59-1.395 1.38l.496 59.628c0 .791.589 1.38 1.395 1.38.186 0 .589-.093.79-.186.388-.202 6.836-3.379 12.199-9.424 3.767-4.278 5.255-9.13 5.255-13.206 0-.884-.094-1.674-.202-2.48m-6.836 3.875c0 1.488-.402 6.045-2.882 9.827-1.69 2.573-5.053 5.254-6.944 6.742l.294-19.344c.202-.899 1.69-3.766 5.658-3.766 3.58 0 3.874 3.363 3.874 5.456v1.085M679.743 1968.717c-.589-3.86-2.976-7.533-8.029-7.533-4.96 0-7.843 3.069-8.339 3.673l.403-31.852c0-.79-.589-1.38-1.395-1.38h-1.178c-.806 0-1.395.59-1.395 1.38l.496 59.628c0 .791.589 1.38 1.395 1.38.186 0 .589-.093.79-.186.388-.202 6.836-3.379 12.199-9.424 3.767-4.278 5.255-9.13 5.255-13.206 0-.884-.094-1.674-.202-2.48m-6.836 3.875c0 1.488-.402 6.045-2.882 9.827-1.69 2.573-5.053 5.254-6.944 6.742l.294-19.344c.202-.899 1.69-3.766 5.658-3.766 3.58 0 3.874 3.363 3.874 5.456v1.085M704.543 1552.527c-.589-3.86-2.976-7.533-8.029-7.533-4.96 0-7.843 3.069-8.339 3.673l.403-31.852c0-.79-.589-1.38-1.395-1.38h-1.178c-.806 0-1.395.59-1.395 1.38l.496 59.628c0 .791.589 1.38 1.395 1.38.186 0 .589-.093.79-.186.388-.202 6.836-3.379 12.199-9.424 3.767-4.278 5.255-9.13 5.255-13.206 0-.884-.094-1.674-.202-2.48m-6.836 3.875c0 1.488-.402 6.045-2.882 9.827-1.69 2.573-5.053 5.254-6.944 6.742l.294-19.344c.202-.899 1.69-3.766 5.658-3.766 3.58 0 3.874 3.363 3.874 5.456v1.085M679.743 1589.727c-.589-3.86-2.976-7.533-8.029-7.533-4.96 0-7.843 3.069-8.339 3.673l.403-31.852c0-.79-.589-1.38-1.395-1.38h-1.178c-.806 0-1.395.59-1.395 1.38l.496 59.628c0 .791.589 1.38 1.395 1.38.186 0 .589-.093.79-.186.388-.202 6.836-3.379 12.199-9.424 3.767-4.278 5.255-9.13 5.255-13.206 0-.884-.094-1.674-.202-2.48m-6.836 3.875c0 1.488-.402 6.045-2.882 9.827-1.69 2.573-5.053 5.254-6.944 6.742l.294-19.344c.202-.899 1.69-3.766 5.658-3.766 3.58 0 3.874 3.363 3.874 5.456v1.085M704.543 1173.537c-.589-3.86-2.976-7.533-8.029-7.533-4.96 0-7.843 3.069-8.339 3.673l.403-31.852c0-.79-.589-1.38-1.395-1.38h-1.178c-.806 0-1.395.59-1.395 1.38l.496 59.628c0 .791.589 1.38 1.395 1.38.186 0 .589-.093.79-.186.388-.202 6.836-3.379 12.199-9.424 3.767-4.278 5.255-9.13 5.255-13.206 0-.884-.094-1.674-.202-2.48m-6.836 3.875c0 1.488-.402 6.045-2.882 9.827-1.69 2.573-5.053 5.254-6.944 6.742l.294-19.344c.202-.899 1.69-3.766 5.658-3.766 3.58 0 3.874 3.363 3.874 5.456v1.085M679.743 1210.737c-.589-3.86-2.976-7.533-8.029-7.533-4.96 0-7.843 3.069-8.339 3.673l.403-31.852c0-.79-.589-1.38-1.395-1.38h-1.178c-.806 0-1.395.59-1.395 1.38l.496 59.628c0 .791.589 1.38 1.395 1.38.186 0 .589-.093.79-.186.388-.202 6.836-3.379 12.199-9.424 3.767-4.278 5.255-9.13 5.255-13.206 0-.884-.094-1.674-.202-2.48m-6.836 3.875c0 1.488-.402 6.045-2.882 9.827-1.69 2.573-5.053 5.254-6.944 6.742l.294-19.344c.202-.899 1.69-3.766 5.658-3.766 3.58 0 3.874 3.363 3.874 5.456v1.085M682.92 754.68c.605-.108 1.101-.806 1.101-1.395v-5.86c0-.79-.604-1.379-1.395-1.379h-.201l-3.271.698v-14.787h-2.775v15.376l-8.834 1.783v-13.982h-2.775v14.586l-3.875.79c-.589.094-1.085.791-1.085 1.38v5.952-.186c0 .79.589 1.38 1.395 1.38h.295l3.27-.698v16.368l-3.875.806c-.589.093-1.085.79-1.085 1.38v5.75c0 .806.589 1.395 1.395 1.395h.295l3.27-.697v14.787h2.775V782.75l8.834-1.782v13.981h2.775v-14.585l3.767-.698c.604-.093 1.1-.79 1.1-1.38v-5.858c0-.791-.604-1.38-1.395-1.38h-.201l-3.271.682v-16.368l3.767-.682m-15.376 19.53v-16.461l8.834-1.783v16.369l-8.834 1.875M682.92 375.69c.605-.108 1.101-.806 1.101-1.395v-5.86c0-.79-.604-1.379-1.395-1.379h-.201l-3.271.698v-14.787h-2.775v15.376l-8.834 1.783v-13.982h-2.775v14.586l-3.875.79c-.589.094-1.085.791-1.085 1.38v5.952-.186c0 .79.589 1.38 1.395 1.38h.295l3.27-.698v16.368l-3.875.806c-.589.093-1.085.79-1.085 1.38v5.75c0 .806.589 1.395 1.395 1.395h.295l3.27-.697v14.787h2.775V403.76l8.834-1.782v13.981h2.775v-14.585l3.767-.698c.604-.093 1.1-.79 1.1-1.38v-5.858c0-.791-.604-1.38-1.395-1.38h-.201l-3.271.682v-16.368l3.767-.682m-15.376 19.53v-16.461l8.834-1.783v16.369l-8.834 1.875"/><path class="Rest" d="M2113.417 3393.881l-.201-.31c-.093-.093-.295-.294-.589-.682l-11.408-14.09c-.31-.294-.202-1.1 0-1.487l10.106-15.283c.108-.202.202-.496.202-.698v-.884c0-.294-.094-.604-.295-.79l-16.073-21.731s-.791-1.194-1.783-.295c-.992.791-.201 2.077-.201 2.077l7.548 10.323c.388.59.388 1.783 0 2.372l-10.028 15.283c-.093.201-.202.589-.202.79v.9c0 .294.109.588.31.79l11.098 13.795c-.388-.108-1.286-.31-2.48-.31-1.674 0-3.86.403-5.642 1.984-2.185 1.984-3.379 4.774-3.379 7.254 0 1.38.295 2.774 1.085 3.86 2.093 3.177 9.532 12.601 9.532 12.601s.884 1.1 1.783.403c.9-.697.697-1.596.403-2.092-.31-.496-3.472-6.247-3.472-6.247s-.697-1.395-.697-3.177c0-1.287.387-2.868 1.69-4.17 1.177-1.178 2.572-1.581 3.859-1.581 1.286 0 2.386.403 3.177.9l3.875 2.48s1.178.588 1.782-.31c.496-.791.295-1.179 0-1.675M2511.58 3351.814h-29.465c-.806 0-1.395.589-1.395 1.395v10.71c0 .791.589 1.38 1.395 1.38h29.466c.79 0 1.379-.589 1.379-1.38v-10.71c0-.806-.589-1.395-1.38-1.395M1402.03 3096.607c-.743-.28-1.41.062-1.735.666-.326.604-3.488 6.479-7.874 9.718-1.38 1.008-2.961 1.643-4.511 1.969a7.007 7.007 0 001.783-4.697c0-3.921-3.178-7.098-7.084-7.098a7.098 7.098 0 00-7.099 7.098c0 2.976 1.86 5.55 4.48 6.588 1.519.713 3.41 1.162 5.44 1.162 2.821 0 5.905-.821 8.603-2.805 1.255-.915 2.433-2.108 3.502-3.348l-11.299 35.34 2.62.853 13.965-43.742c.233-.728-.062-1.41-.79-1.704M1977.42 3096.607c-.743-.28-1.41.062-1.735.666-.326.604-3.488 6.479-7.874 9.718-1.38 1.008-2.961 1.643-4.511 1.969a7.007 7.007 0 001.783-4.697c0-3.921-3.178-7.098-7.084-7.098a7.098 7.098 0 00-7.099 7.098c0 2.976 1.86 5.55 4.48 6.588 1.519.713 3.41 1.162 5.44 1.162 2.821 0 5.905-.821 8.603-2.805 1.255-.915 2.433-2.108 3.502-3.348l-11.299 35.34 2.62.853 13.965-43.742c.233-.728-.062-1.41-.79-1.704M2441.35 3096.607c-.743-.28-1.41.062-1.735.666-.326.604-3.488 6.479-7.874 9.718-1.38 1.008-2.961 1.643-4.511 1.969a7.007 7.007 0 001.783-4.697c0-3.921-3.178-7.098-7.084-7.098a7.098 7.098 0 00-7.099 7.098c0 2.976 1.86 5.55 4.48 6.588 1.519.713 3.41 1.162 5.44 1.162 2.821 0 5.905-.821 8.603-2.805 1.255-.915 2.433-2.108 3.502-3.348l-11.299 35.34 2.62.853 13.965-43.742c.233-.728-.062-1.41-.79-1.704M2499.46 3096.607c-.743-.28-1.41.062-1.735.666-.326.604-3.488 6.479-7.874 9.718-1.38 1.008-2.961 1.643-4.511 1.969a7.007 7.007 0 001.783-4.697c0-3.921-3.178-7.098-7.084-7.098a7.098 7.098 0 00-7.099 7.098c0 2.976 1.86 5.55 4.48 6.588 1.519.713 3.41 1.162 5.44 1.162 2.821 0 5.905-.821 8.603-2.805 1.255-.915 2.433-2.108 3.502-3.348l-11.299 35.34 2.62.853 13.965-43.742c.233-.728-.062-1.41-.79-1.704M1184.72 2684.444h-29.465c-.806 0-1.395.589-1.395 1.395v10.71c0 .791.589 1.38 1.395 1.38h29.466c.79 0 1.379-.589 1.379-1.38v-10.71c0-.806-.589-1.395-1.38-1.395M1949.53 2684.444h-29.465c-.806 0-1.395.589-1.395 1.395v10.71c0 .791.589 1.38 1.395 1.38h29.466c.79 0 1.379-.589 1.379-1.38v-10.71c0-.806-.589-1.395-1.38-1.395M2511.58 2684.444h-29.465c-.806 0-1.395.589-1.395 1.395v10.71c0 .791.589 1.38 1.395 1.38h29.466c.79 0 1.379-.589 1.379-1.38v-10.71c0-.806-.589-1.395-1.38-1.395M1184.72 2305.454h-29.465c-.806 0-1.395.589-1.395 1.395v10.71c0 .791.589 1.38 1.395 1.38h29.466c.79 0 1.379-.589 1.379-1.38v-10.71c0-.806-.589-1.395-1.38-1.395M1949.53 2305.454h-29.465c-.806 0-1.395.589-1.395 1.395v10.71c0 .791.589 1.38 1.395 1.38h29.466c.79 0 1.379-.589 1.379-1.38v-10.71c0-.806-.589-1.395-1.38-1.395M2511.58 2305.454h-29.465c-.806 0-1.395.589-1.395 1.395v10.71c0 .791.589 1.38 1.395 1.38h29.466c.79 0 1.379-.589 1.379-1.38v-10.71c0-.806-.589-1.395-1.38-1.395M1184.72 1926.464h-29.465c-.806 0-1.395.589-1.395 1.395v10.71c0 .791.589 1.38 1.395 1.38h29.466c.79 0 1.379-.589 1.379-1.38v-10.71c0-.806-.589-1.395-1.38-1.395M1949.53 1926.464h-29.465c-.806 0-1.395.589-1.395 1.395v10.71c0 .791.589 1.38 1.395 1.38h29.466c.79 0 1.379-.589 1.379-1.38v-10.71c0-.806-.589-1.395-1.38-1.395M2511.58 1926.464h-29.465c-.806 0-1.395.589-1.395 1.395v10.71c0 .791.589 1.38 1.395 1.38h29.466c.79 0 1.379-.589 1.379-1.38v-10.71c0-.806-.589-1.395-1.38-1.395M1184.72 1547.474h-29.465c-.806 0-1.395.589-1.395 1.395v10.71c0 .791.589 1.38 1.395 1.38h29.466c.79 0 1.379-.589 1.379-1.38v-10.71c0-.806-.589-1.395-1.38-1.395M1949.53 1547.474h-29.465c-.806 0-1.395.589-1.395 1.395v10.71c0 .791.589 1.38 1.395 1.38h29.466c.79 0 1.379-.589 1.379-1.38v-10.71c0-.806-.589-1.395-1.38-1.395M2511.58 1547.474h-29.465c-.806 0-1.395.589-1.395 1.395v10.71c0 .791.589 1.38 1.395 1.38h29.466c.79 0 1.379-.589 1.379-1.38v-10.71c0-.806-.589-1.395-1.38-1.395M1184.72 1168.484h-29.465c-.806 0-1.395.589-1.395 1.395v10.71c0 .791.589 1.38 1.395 1.38h29.466c.79 0 1.379-.589 1.379-1.38v-10.71c0-.806-.589-1.395-1.38-1.395M1949.53 1168.484h-29.465c-.806 0-1.395.589-1.395 1.395v10.71c0 .791.589 1.38 1.395 1.38h29.466c.79 0 1.379-.589 1.379-1.38v-10.71c0-.806-.589-1.395-1.38-1.395M2511.58 1168.484h-29.465c-.806 0-1.395.589-1.395 1.395v10.71c0 .791.589 1.38 1.395 1.38h29.466c.79 0 1.379-.589 1.379-1.38v-10.71c0-.806-.589-1.395-1.38-1.395M1184.72 789.493h-29.465c-.806 0-1.395.589-1.395 1.395v10.71c0 .791.589 1.38 1.395 1.38h29.466c.79 0 1.379-.589 1.379-1.38v-10.71c0-.806-.589-1.395-1.38-1.395M1949.53 789.493h-29.465c-.806 0-1.395.589-1.395 1.395v10.71c0 .791.589 1.38 1.395 1.38h29.466c.79 0 1.379-.589 1.379-1.38v-10.71c0-.806-.589-1.395-1.38-1.395M2511.58 789.493h-29.465c-.806 0-1.395.589-1.395 1.395v10.71c0 .791.589 1.38 1.395 1.38h29.466c.79 0 1.379-.589 1.379-1.38v-10.71c0-.806-.589-1.395-1.38-1.395M1184.72 410.503h-29.465c-.806 0-1.395.589-1.395 1.395v10.71c0 .791.589 1.38 1.395 1.38h29.466c.79 0 1.379-.589 1.379-1.38v-10.71c0-.806-.589-1.395-1.38-1.395M1949.53 410.503h-29.465c-.806 0-1.395.589-1.395 1.395v10.71c0 .791.589 1.38 1.395 1.38h29.466c.79 0 1.379-.589 1.379-1.38v-10.71c0-.806-.589-1.395-1.38-1.395M2511.58 410.503h-29.465c-.806 0-1.395.589-1.395 1.395v10.71c0 .791.589 1.38 1.395 1.38h29.466c.79 0 1.379-.589 1.379-1.38v-10.71c0-.806-.589-1.395-1.38-1.395"/><path class="Fermata" d="M2305.438 2999.748c-9.315-10.122-17.561-10.71-22.707-10.71-5.162 0-13.3.588-22.63 10.71-4.852 5.363-8.231 15.965-8.231 21.328 0 1.891.403 3.177 1.395 3.177 2.775 0 1.38-8.54 9.718-16.972 7.332-7.332 17.159-7.44 19.546-7.44h.388c2.387 0 12.214.108 19.545 7.44 8.34 8.432 6.944 16.972 9.719 16.972.992 0 1.395-1.193 1.395-3.177 0-5.363-3.27-16.073-8.138-21.328m-29.559 18.941a6.853 6.853 0 006.852 6.851c3.766 0 6.835-3.069 6.835-6.851 0-3.766-3.069-6.836-6.835-6.836-3.782 0-6.852 3.07-6.852 6.836"/><path class="Beam" fill-rule="evenodd" d="M1671.91 3494.78l211.97-43.97v12.66l-211.97 43.97v-12.66M775.425 3135.27l408.635 43.69v12.47l-408.635-43.69v-12.47M861.699 3125.9l264.681 28.3v12.47l-264.681-28.3v-12.47M1461.79 3160.01l106.71 19.09v12.59l-106.71-19.08v-12.6M1461.79 3141.41l106.71 19.09v12.59l-106.71-19.08v-12.6M2020.65 3209.56l142.23-31.61v12.7l-142.23 31.61v-12.7"/><path class="Hook" d="M2564.022 3070.582c-.093-.294-.992-3.767-.992-3.968-.093-.403-.697-.698-1.193-.698-.698 0-1.287.605-1.287 1.287V3089.631c0 .496.403.884.79 1.086 4.17 1.286 12.803 6.758 19.251 17.763 1.783 3.069 4.666 7.238 4.666 15.577 0 7.146-1.1 14.679-2.883 21.623-.295 1.1-.589 2.092.496 2.48 1.085.403 1.488-.388 1.891-1.38 3.565-8.742 4.464-17.871 4.464-24.01v-1.89c-.496-12.803-7.843-22.227-7.843-22.227.295 0-9.13-12.199-11.811-16.368-3.658-5.658-5.456-11.3-5.549-11.703M2692.36 3191.513c0-.201.899-3.58.992-3.875.093-.403 1.891-6.045 5.549-11.703 2.682-4.169 12.106-16.368 11.811-16.368 0 0 7.347-9.424 7.843-22.227v-2.278c0-6.06-.79-14.586-4.278-23.22-.388-.991-.79-1.983-1.876-1.58-1.1.387-.79 1.58-.496 2.666 1.783 6.96 2.775 14.09 2.775 21.235 0 8.339-2.976 12.508-4.759 15.577-6.556 11.005-15.081 16.368-19.25 17.763-.496.202-.791.59-.791 1.086V3191.017c0 .682.589 1.287 1.287 1.287.496 0 1.1-.403 1.193-.791"/><path class="Tuplet" d="M985.223 3208.12c-1.406.86-1.813 1.39-1.813 2.3 0 .86.719 1.48 1.625 1.48 1.172 0 1.844-.86 1.985-2.51 1.39-1.13 2.875-1.63 4.672-1.63 3.328 0 5.172 2.06 5.172 5.8 0 5.86-3.766 10.62-8.407 10.62-2.656 0-4.812-1.26-4.812-2.75 0-.26.047-.36.265-.48 1.172-.55 1.172-.55 1.485-.77.719-.54 1.125-1.36 1.125-2.29 0-1.44-1.125-2.52-2.703-2.52-1.969 0-3.453 1.66-3.453 3.81 0 3.97 3.406 6.85 8.234 6.85 7.281 0 13.172-5.8 13.172-13 0-4.55-3.453-7.74-8.36-7.74-1.937 0-3.515.39-5.671 1.49l2.515-8.52c2.391.5 4.281.72 5.891.72 2.969 0 5.625-.94 7.105-2.52.77-.89 1.22-1.65 1.22-2.25 0-.26-.14-.53-.31-.53-.14 0-.22.03-.5.17-1.48.72-3.37 1.13-5.125 1.13-2.703 0-5.89-.45-9.218-1.3l-4.094 14.44M1518.08 3212.86c2.12-.67 2.97-1.05 4.04-1.77 2.13-1.39 3.43-3.86 3.43-6.39 0-4.26-3.43-7.14-8.46-7.14-4.9 0-9.04 3.05-9.04 6.75 0 1.85 1.12 3.1 2.82 3.1 1.49 0 2.58-1.08 2.58-2.57 0-.76-.23-1.29-.95-2.01-.45-.41-.63-.74-.63-1.05 0-1.08 2.25-2.2 4.36-2.2 3.02 0 4.82 1.67 4.82 4.45 0 4.02-2.83 7.78-5.85 7.78-.14 0-.54-.03-1.03-.08-1.31-.09-1.31-.09-1.58-.09-1 0-1.53.45-1.53 1.27 0 .71.5 1.15 1.3 1.15.23 0 .55-.03.9-.08.63-.14 1.32-.18 1.71-.18 2.12 0 3.56 1.89 3.56 4.68 0 2.16-.5 4.22-1.48 5.94-1.35 2.42-3.43 3.6-6.35 3.6-2.51 0-4.69-1.25-4.69-2.71 0-.48.19-.67.91-.98 1.3-.58 1.84-1.39 1.84-2.61 0-1.58-1.26-2.78-2.87-2.78-1.94 0-3.2 1.51-3.2 3.86 0 4.37 3.32 7.11 8.73 7.11 6.8 0 11.97-4.55 11.97-10.58 0-1.61-.5-3.02-1.44-4.14-1-1.16-1.89-1.71-3.87-2.33M2505.76 3031.95c2.12-.68 2.96-1.05 4.04-1.77 2.13-1.39 3.42-3.86 3.42-6.39 0-4.27-3.42-7.14-8.45-7.14-4.9 0-9.05 3.05-9.05 6.75 0 1.84 1.13 3.09 2.83 3.09 1.49 0 2.58-1.07 2.58-2.56 0-.76-.23-1.3-.95-2.01-.46-.41-.63-.74-.63-1.05 0-1.08 2.25-2.2 4.36-2.2 3.02 0 4.81 1.67 4.81 4.45 0 4.01-2.82 7.78-5.84 7.78-.14 0-.55-.03-1.03-.08-1.31-.09-1.31-.09-1.58-.09-1 0-1.53.45-1.53 1.26 0 .72.5 1.16 1.3 1.16.23 0 .54-.03.9-.08.63-.14 1.32-.19 1.71-.19 2.12 0 3.56 1.89 3.56 4.69 0 2.16-.5 4.22-1.49 5.94-1.34 2.42-3.42 3.59-6.34 3.59-2.51 0-4.69-1.25-4.69-2.7 0-.48.19-.67.91-.98 1.3-.58 1.84-1.4 1.84-2.61 0-1.58-1.26-2.79-2.87-2.79-1.94 0-3.2 1.52-3.2 3.86 0 4.38 3.32 7.11 8.73 7.11 6.8 0 11.97-4.54 11.97-10.57 0-1.61-.5-3.02-1.44-4.15-1-1.15-1.89-1.7-3.87-2.32"/><path class="Tuplet" fill="none" stroke="#000" stroke-width="2.48" stroke-linecap="square" stroke-linejoin="bevel" d="M2427.23 3052.1v-18.6l49.83-.45M2525.86 3032.6l49.82-.46v18.6"/><path class="Tuplet" d="M2663.81 3225.39c2.12-.67 2.97-1.05 4.05-1.77 2.12-1.39 3.42-3.86 3.42-6.39 0-4.26-3.42-7.14-8.45-7.14-4.91 0-9.05 3.05-9.05 6.75 0 1.84 1.12 3.09 2.83 3.09 1.48 0 2.57-1.07 2.57-2.56 0-.76-.23-1.3-.95-2.01-.45-.41-.62-.74-.62-1.05 0-1.08 2.25-2.2 4.36-2.2 3.01 0 4.81 1.67 4.81 4.45 0 4.01-2.83 7.78-5.85 7.78-.14 0-.54-.03-1.03-.08-1.31-.09-1.31-.09-1.57-.09-1 0-1.54.45-1.54 1.26 0 .72.5 1.16 1.3 1.16.24 0 .55-.03.91-.08a8.51 8.51 0 011.7-.19c2.13 0 3.56 1.9 3.56 4.69 0 2.16-.5 4.22-1.48 5.94-1.35 2.42-3.42 3.59-6.35 3.59-2.51 0-4.68-1.25-4.68-2.7 0-.48.18-.67.9-.98 1.3-.58 1.85-1.39 1.85-2.61 0-1.58-1.27-2.78-2.88-2.78-1.94 0-3.2 1.51-3.2 3.85 0 4.38 3.33 7.11 8.73 7.11 6.8 0 11.97-4.54 11.97-10.57 0-1.61-.5-3.02-1.44-4.14-1-1.16-1.89-1.71-3.87-2.33"/><path class="Tuplet" fill="none" stroke="#000" stroke-width="2.48" stroke-linecap="square" stroke-linejoin="bevel" d="M2596.91 3209.21v18.6l38.2-.94M2683.91 3225.66l38.21-.95v-18.6"/><path class="Tempo" d="M2557.54 278.755h-3.3v44.969c-1.14-.672-2.52-1.094-4.1-1.266-.43-.047-.89-.063-1.34-.063-2.72 0-5.66.782-8.39 2.266-3.19 1.719-5.75 4.188-7.17 6.922-1.45 2.766-1.6 5.469-.42 7.641 1.37 2.578 4.39 3.906 7.93 3.906 2.64 0 5.6-.735 8.41-2.25 5.14-2.781 8.36-7.375 8.38-11.375v-50.75M2579.79 331.083h30.23v-6.906h-30.23v6.906m0-12.359h30.23v-6.907h-30.23v6.907m74.68-6.782c1.75-.656 2.6-1.078 3.42-1.687 2.35-1.61 3.68-4.078 3.68-6.891 0-5.531-5.24-9.25-13.03-9.25-9.3 0-15.3 4.985-15.3 12.781 0 4.75 2.22 8.219 6.97 10.75-1.86.594-2.64.829-3.67 1.375-3 1.563-4.61 4.313-4.61 7.797 0 6.485 5.81 10.625 14.93 10.625 9.66 0 16.21-5.531 16.21-13.75 0-5.64-2.77-9.359-8.6-11.75m-3.36-1.265c-2.51-.594-4.37-1.141-5.51-1.563-2.75-1.015-4.56-3.469-4.56-6.109 0-3.313 2.76-5.766 6.48-5.766 4.02 0 6.55 2.641 6.55 6.844 0 2.703-1.03 4.984-2.96 6.594m-7.67 8.578c2.45.672 5.45 1.562 6.95 2.047 3.79 1.312 5.22 2.937 5.22 6 0 4.078-3.36 7.015-8.09 7.015-4.86 0-7.8-2.875-7.8-7.672 0-3.187 1.02-5.218 3.72-7.39m38.52-25.141c-9 0-15.6 9.188-15.6 21.672 0 12.469 6.6 21.656 15.6 21.656 8.81 0 15.54-9.187 15.54-21.359 0-7.078-1.62-12.297-5.17-16.75-2.81-3.406-6.36-5.219-10.37-5.219m-.07 3.125c1.8 0 3.25 1.078 3.91 3 .78 1.985 1.25 8.281 1.25 15.719 0 6.187-.47 12.656-1.01 14.703-.66 2.391-2.1 3.656-4.15 3.656-1.85 0-3.23-1.015-3.95-3-.78-1.984-1.26-8.343-1.26-15.531 0-6.312.48-12.844 1.01-14.891.67-2.39 2.11-3.656 4.2-3.656"/><path class="HairpinSegment" fill="none" stroke="#000" stroke-width="2.98" stroke-linecap="square" stroke-linejoin="bevel" d="M2531.05 3275.61l203 14M2531.05 3275.61l203-14"/><path class="PedalSegment" d="M1686.64 3545.89c1.35 1.97 4.24 5.33 5.44 6.99 1.19 1.65 1.2 3.39-1.22 5.45-2.64 2.28-5.3 3.7-6.51 4.47-.99.63-7.07 3.2-5.15 6.92 1.6 3.11 5.3.27 7.02-1.56.89-.95 2.08-3.09 3.67-3.09 1.38 0 2.21 1.98 3.06 3.17 1.52 2.06 2.54 2.69 4.83 2.69 2.67 0 4.39-2.94 7.82-5.83 0 0 2.37 5.79 6.37 5.79 4.7 0 10.2-5.68 10.2-5.68 1.46 3.68 6.18 6.67 10.41 5.53 5.5-1.5 8.39-7.56 7.69-13.75-1.83-16.11-19.25-21.66-24.25-22.56-1.32-.24-2.88-.66-3.05.57-.19 1.22 1.48 1.93 1.48 1.93.61.2 1.21.42 1.77.62 10.2 3.89 13.7 9.3 13.7 9.3-9.28 3.18-9.01 12.78-8.73 15.84-.64.83-3.56 3.45-6.69 3.45-3.3 0-4.26-3.95-4.26-3.95s1.84-1.64 4.96-4.33c6.52-5.64 2.74-12.23-2.26-12.23-7.81 0-9.63 11.26-8.06 17.08 0 0-.8 1-2.47 2.03-1.66 1.03-4.21-.41-5.6-1.91-2.53-2.7-3.36-2.42-3.36-2.42s3-2.28 4.22-5.14c1.24-2.88-1.45-7.13-1.45-7.13s-3.59-4.98-4.73-6.65c-1.13-1.66.26-4.21 1.31-6.39 1.06-2.19 2.34-3.32 2.34-3.32 6.5 1.68 7.86 6.71 6.47 7.8-1.86 1.47-4.08-.65-4.8-1.25-.71-.61-1.68-1.65-2.73-.86-1.05.8-.52 2-.06 3 2.67 5.27 7.61 6.19 10.78 3.97 4.06-2.84 3.48-13.8-9.67-16.17-14.53-2.66-23.22 8.81-23.22 14.66 0 4.12 2.95 7.65 6.7 7.65 0 0 6.09.2 6.59-7.19.15-2-.73-2.42-1.32-2.51-.6-.1-1.6.28-1.93 1.89-.4 1.94-1.46 2.66-2.81 2.45-1.75-.26-2.81-3.67.36-8.08 4.3-5.93 11.69-5.81 11.69-5.81s-3.14 5.64-4.33 8.72c0 0-1.81 3.52-.22 5.84m25.96 3.18c2.46 0 3.23 3.37 1.04 5.84-1.79 2-4.25 4.45-4.25 4.45-.76-6.56.72-10.29 3.21-10.29m18.43 16.53c-2.62.53-4.78-2.38-4.78-6.24 0-8.5 5.63-9.34 5.63-9.34 1.17 2.19 2.22 4.81 2.22 9.01 0 5-.99 6.15-3.07 6.57m14.14 4.18c1.78 0 3.24-1.62 3.24-3.62s-1.46-3.63-3.24-3.63c-1.76 0-3.22 1.63-3.22 3.63s1.46 3.62 3.22 3.62"/><path class="PedalSegment" fill="none" stroke="#000" stroke-width="2.73" stroke-linecap="square" stroke-linejoin="bevel" d="M1761.31 3566.08h965.77M2727.08 3566.08v-29.76"/><path class="NoteDot" d="M1073.41 3339.91a4.955 4.955 0 004.96 4.96 4.955 4.955 0 004.96-4.96 4.955 4.955 0 00-4.96-4.96 4.955 4.955 0 00-4.96 4.96M1073.41 3315.11a4.955 4.955 0 004.96 4.96 4.955 4.955 0 004.96-4.96 4.955 4.955 0 00-4.96-4.96 4.955 4.955 0 00-4.96 4.96M1073.41 3265.51a4.955 4.955 0 004.96 4.96 4.955 4.955 0 004.96-4.96 4.955 4.955 0 00-4.96-4.96 4.955 4.955 0 00-4.96 4.96"/><path class="Page" d="M2753.06 231.364c2.16-.547 3.08-.891 4.3-1.484 2.91-1.547 4.56-4.235 4.56-7.485 0-5.828-5.17-9.734-12.98-9.734-4.02 0-7.25 1.047-9.56 3.078-1.82 1.594-2.93 3.906-2.93 6 0 2.859 2.16 5 4.96 5 2.64 0 4.45-1.75 4.45-4.344 0-1.484-.59-2.64-2.14-4.125-.28-.265-.39-.437-.39-.656 0-1.047 2.05-2.094 4.19-2.094 3.46 0 5.5 2.532 5.5 6.828 0 4.782-1.6 7.688-4.3 7.688-.44 0-.99-.047-1.86-.266-1.22-.281-1.59-.328-2.2-.328-1.38 0-2.03.594-2.03 1.813 0 1.265.81 2.093 1.96 2.093.39 0 .72-.062 1.66-.171 1.27-.11 1.59-.172 1.98-.172 3.41 0 5.11 2.64 5.11 7.812 0 5.563-2.31 8.688-6.37 8.688-2.31 0-4.74-1.157-4.74-2.313 0-.328.18-.656.5-.984 1.65-1.531 2.04-2.25 2.04-3.844 0-2.594-2.04-4.562-4.74-4.562-2.97 0-4.95 2.14-4.95 5.218 0 5.547 5.39 9.344 13.31 9.344 4.02 0 7.81-.984 10.34-2.75 2.54-1.75 4.18-5.109 4.18-8.625 0-3.469-1.53-6.5-4.07-7.984-1.59-.875-2.86-1.266-5.78-1.641"/><path class="Bracket" d="M515.787 3246.91c6.35-6.799 18.991-20.846 18.991-46.748 0-32.757-14.159-65.908-14.159-86.192 0-21.913 12.867-42.702 13.26-43.264.394-.618.338-1.405-.056-1.686-.393-.225-1.124 0-1.63.506-.449.562-19.721 20.059-19.721 49.333 0 31.858 12.586 54.052 12.586 95.406 0 7.866-3.371 20.565-12.249 31.465-.618.562-.674 1.573-.112 2.248v.056l.112.112c8.878 10.9 12.249 23.543 12.249 31.409 0 41.41-12.586 63.604-12.586 95.406 0 29.274 19.272 48.883 19.722 49.39.505.505 1.124.786 1.63.505.505-.337.505-.955.055-1.686-.505-.73-13.26-21.351-13.26-43.264 0-20.284 14.16-53.547 14.16-86.248 0-26.24-12.643-40.005-18.992-46.748"/></svg>
