<svg width="3060" height="3960" xmlns="http://www.w3.org/2000/svg" version="1.2" baseProfile="tiny"><path fill="#fff" fill-rule="evenodd" d="M0 0h3060v3960H0V0"/><path class="StaffLines" fill="none" stroke="#000" stroke-width="2.73" stroke-linejoin="bevel" d="M544.838 386.199H2763.78M544.838 410.999H2763.78M544.838 435.799H2763.78M544.838 460.599H2763.78M544.838 485.399H2763.78M544.838 762.578H2763.78M544.838 787.378H2763.78M544.838 812.178H2763.78M544.838 836.978H2763.78M544.838 861.778H2763.78M544.838 1138.96H2763.78M544.838 1163.76H2763.78M544.838 1188.56H2763.78M544.838 1213.36H2763.78M544.838 1238.16H2763.78M544.838 1515.34H2763.78M544.838 1540.14H2763.78M544.838 1564.94H2763.78M544.838 1589.74H2763.78M544.838 1614.54H2763.78M544.838 1891.71H2763.78M544.838 1916.51H2763.78M544.838 1941.31H2763.78M544.838 1966.11H2763.78M544.838 1990.91H2763.78M544.838 2268.09H2763.78M544.838 2292.89H2763.78M544.838 2317.69H2763.78M544.838 2342.49H2763.78M544.838 2367.29H2763.78M544.838 2644.47H2763.78M544.838 2669.27H2763.78M544.838 2694.07H2763.78M544.838 2718.87H2763.78M544.838 2743.67H2763.78M544.838 3048.57H2763.78M544.838 3073.37H2763.78M544.838 3098.17H2763.78M544.838 3122.97H2763.78M544.838 3147.77H2763.78M544.838 3308.97H2763.78M544.838 3333.77H2763.78M544.838 3358.57H2763.78M544.838 3383.37H2763.78M544.838 3408.17H2763.78"/><path class="MeasureNumber" d="M559.87 321.802c1.843-.875 2.687-1.36 3.406-1.922 1.719-1.313 2.641-3.156 2.641-5.203 0-3.641-3.079-6.235-7.36-6.235-5.156 0-9.156 3.719-9.156 8.563 0 2.437.844 4 3 5.562-4.719 1.797-7.25 4.719-7.25 8.36 0 3.875 3.203 6.265 8.328 6.265 6.156 0 10.563-3.75 10.563-8.953a6.771 6.771 0 00-1.36-4.078c-.609-.797-1.328-1.406-2.812-2.359m-1.719-.953c-4.078-1.922-5.547-3.485-5.547-5.766 0-2.766 2.469-4.922 5.625-4.922 2.766 0 4.688 1.766 4.688 4.281 0 1.641-.766 3.438-2.079 4.719-.765.766-1.359 1.156-2.687 1.688m-4.234 2.796c1.921.875 2.562 1.188 3.562 1.797 2 1.203 3.078 2.797 3.078 4.594 0 3.078-2.875 5.406-6.64 5.406-3.407 0-5.516-1.922-5.516-5 0-3 1.922-5.359 5.516-6.797m26.75-1.609c1.89-.594 2.64-.922 3.609-1.562 1.875-1.235 3.031-3.438 3.031-5.672 0-3.797-3.031-6.36-7.515-6.36-4.36 0-8.047 2.719-8.047 6 0 1.641 1 2.766 2.531 2.766 1.312 0 2.281-.969 2.281-2.281 0-.688-.203-1.172-.844-1.797-.406-.375-.562-.641-.562-.922 0-.969 2-1.969 3.875-1.969 2.687 0 4.281 1.485 4.281 3.969 0 3.547-2.515 6.906-5.203 6.906-.109 0-.469-.031-.906-.078-1.172-.078-1.172-.078-1.406-.078-.875 0-1.36.406-1.36 1.125 0 .641.438 1.031 1.156 1.031.204 0 .485-.031.797-.078a8.915 8.915 0 011.532-.156c1.875 0 3.156 1.687 3.156 4.156 0 1.922-.438 3.766-1.328 5.281-1.188 2.157-3.032 3.203-5.641 3.203-2.234 0-4.156-1.125-4.156-2.406 0-.437.172-.594.797-.875 1.172-.515 1.64-1.234 1.64-2.312 0-1.407-1.109-2.485-2.547-2.485-1.718 0-2.843 1.36-2.843 3.438 0 3.875 2.953 6.312 7.75 6.312 6.047 0 10.64-4.031 10.64-9.39 0-1.438-.437-2.688-1.281-3.688-.875-1.031-1.672-1.515-3.437-2.078"/><path class="InstrumentName" d="M394.005 3229.82h5.64c4.5 0 6.86-.36 8.907-1.29 3.5-1.71 5.5-4.91 5.5-8.86 0-3.8-1.75-6.71-5.047-8.35-1.953-1-5.063-1.56-8.5-1.56h-17.5v2.36h.89c2.86.05 3.797.2 4.203.7.297.44.297.55.297 3.1v23.79c0 2.57 0 2.66-.297 3.11-.406.5-1.343.71-4.203.71h-.89v2.34h16.797v-2.34h-1.297c-2.86 0-3.813-.21-4.203-.71-.297-.45-.297-.54-.297-3.11v-9.89m0-2.36v-12.79c0-2.3.25-2.55 3.047-2.55h3.203c5.187 0 7.64 2.45 7.64 7.75 0 5.16-2.547 7.59-7.843 7.59h-6.047m30.937-4.89l-8.656.55v2.16h1.812c1.891.04 2.141.34 2.141 2.5V3242.07c-.047.75-.094 1.05-.297 1.3-.344.45-1.297.66-3.453.7h-.203v1.8h12.656v-1.8h-.203c-3.344-.11-3.797-.36-3.797-2.15v-7.39c0-2.46.344-4.71.906-5.86 1.047-2.25 3.297-3.8 5.438-3.8 1.312 0 2.812.7 3.562 1.75.75 1.09 1.094 2.59 1.094 5v10.45c-.047.75-.094 1.05-.297 1.3-.359.45-1.359.66-3.5.7h-.203v1.8h12.656v-1.8h-.203c-3.297-.11-3.75-.36-3.75-2.15v-10.05c0-3.59-.156-4.5-1.047-6.2-1.25-2.39-3.75-3.85-6.75-3.85-3.25 0-5.703 1.5-7.906 4.8v-4.05m33.141-.75c-6.141 0-10.891 5.46-10.891 12.46 0 6.84 4.797 12.34 10.797 12.34 6 0 10.797-5.5 10.797-12.41 0-6.84-4.797-12.39-10.703-12.39m0 2.14c3.5 0 5.453 3.66 5.453 10.25 0 6.66-1.953 10.25-5.547 10.25-3.594 0-5.547-3.59-5.547-10.18 0-6.82 1.891-10.32 5.641-10.32m18.531 16.36c-1.75 0-3.141 1.39-3.141 3.1 0 1.75 1.391 3.15 3.094 3.15 1.75 0 3.156-1.4 3.156-3.15 0-1.71-1.406-3.1-3.109-3.1M413.255 2675.46h-29.953l-.75 13.91h2.14c.36-2.5.75-4.41 1.36-6 1.296-3.7 3.703-5.55 7.093-5.55 1.657 0 2.36.55 2.36 1.8v25.8c0 2.56 0 2.65-.313 3.11-.39.5-1.344.7-4.187.7h-1.313v2.34h17.156v-2.34h-1.296c-2.797 0-3.75-.2-4.157-.7-.297-.46-.297-.55-.297-3.11v-25.8c0-1.25.704-1.8 2.344-1.8 3.063 0 5.516 1.71 6.766 4.71.75 1.84 1.25 4 1.64 6.84h2.157l-.75-13.91m10.687-.75l-8.594.57v2.14h1.75c1.891.04 2.141.36 2.141 2.5v19.45c0 6.95-.297 10.75-.891 12.91h1.891l2.453-3.91c2.047 2.7 4.406 3.95 7.5 3.95 6.203 0 10.75-5.29 10.75-12.54 0-7.21-4.203-12.25-10.203-12.25-3.047 0-4.891 1.04-6.797 3.89v-16.71m5.906 15.36c3.75 0 5.844 3.66 5.844 10.21 0 6.34-2.047 9.89-5.703 9.89-3.953 0-6.297-3.64-6.297-9.8 0-6.7 2.156-10.3 6.156-10.3m35.485 5.41c0-3.16-.547-4.75-2-5.95-1.641-1.36-4.094-2-7.297-2-5.641 0-9.75 2.64-9.75 6.29 0 1.85 1.156 3.05 2.906 3.05 1.594 0 2.703-1.05 2.703-2.55 0-.65-.25-1.34-.75-2.04-.312-.36-.359-.46-.359-.71 0-1 2-1.9 4.406-1.9 1.594 0 3.344.5 4.141 1.25.953.81 1.312 2 1.312 4.25v1.95c-5.203.91-6.859 1.3-9.312 2.25-4.344 1.61-6.391 3.91-6.391 7.11 0 3.59 2.797 5.84 7.25 5.84 3.453 0 6.547-1.4 8.703-3.95.797 2.55 2.047 3.55 4.391 3.55 2.25 0 4.609-1.44 4.609-2.89 0-.36-.203-.61-.5-.61-.203 0-.406.06-.75.2-.703.3-1 .36-1.406.36-1.406 0-1.906-.91-1.906-3.45v-10.05m-4.688 6.09c0 3-.156 3.71-1 5-1.25 1.85-3.5 3.1-5.703 3.1-2.297 0-3.953-1.64-3.953-3.89 0-2.11 1.047-3.61 3.25-4.66 1.547-.7 3.5-1.2 7.406-1.84v2.29m16.532 4.46c-1.75 0-3.141 1.39-3.141 3.09 0 1.75 1.391 3.16 3.094 3.16a3.15 3.15 0 003.156-3.16c0-1.7-1.406-3.09-3.109-3.09M367.255 2299.08h-29.953l-.75 13.91h2.14c.36-2.5.75-4.41 1.36-6 1.296-3.7 3.703-5.55 7.093-5.55 1.657 0 2.36.55 2.36 1.8v25.8c0 2.56 0 2.65-.313 3.11-.39.5-1.344.7-4.187.7h-1.313v2.34h17.156v-2.34h-1.296c-2.797 0-3.75-.2-4.157-.7-.297-.46-.297-.55-.297-3.11v-25.8c0-1.25.704-1.8 2.344-1.8 3.063 0 5.516 1.71 6.766 4.71.75 1.84 1.25 4 1.64 6.84h2.157l-.75-13.91m10.687-.75l-8.594.57v2.14h1.75c1.891.04 2.141.36 2.141 2.5v19.45c0 6.95-.297 10.75-.891 12.91h1.891l2.453-3.91c2.047 2.7 4.406 3.95 7.5 3.95 6.203 0 10.75-5.29 10.75-12.54 0-7.21-4.203-12.25-10.203-12.25-3.047 0-4.891 1.04-6.797 3.89v-16.71m5.906 15.36c3.75 0 5.844 3.66 5.844 10.21 0 6.34-2.047 9.89-5.703 9.89-3.953 0-6.297-3.64-6.297-9.8 0-6.7 2.156-10.3 6.156-10.3m22.891-1.79l-8.656.54v2.16h1.812c1.891.05 2.141.34 2.141 2.5V2331.4c-.047.75-.094 1.04-.297 1.29-.344.46-1.297.66-3.453.71h-.203v1.79h12.656v-1.79h-.203c-3.344-.11-3.797-.36-3.797-2.16V2323.85c0-2.45.344-4.7.906-5.86 1.047-2.25 3.297-3.8 5.438-3.8 1.312 0 2.812.71 3.562 1.75.75 1.1 1.094 2.6 1.094 5V2331.4c-.047.75-.094 1.04-.297 1.29-.359.46-1.359.66-3.5.71h-.203v1.79h12.656v-1.79h-.203c-3.297-.11-3.75-.36-3.75-2.16v-10.05c0-3.59-.156-4.5-1.047-6.2-1.25-2.39-3.75-3.84-6.75-3.84-3.25 0-5.703 1.5-7.906 4.79v-4.04m27.391 17.75c-1.75 0-3.141 1.39-3.141 3.09 0 1.75 1.391 3.16 3.094 3.16a3.15 3.15 0 003.156-3.16c0-1.7-1.406-3.09-3.109-3.09m38.234-12.86c4.547-1.64 6.656-4.19 6.656-8.21 0-5.25-4-8.59-10.203-8.59-5.844 0-10.297 3.45-10.297 8 0 2.05 1.344 3.5 3.297 3.5 1.75 0 2.953-1.2 2.953-3 0-1.09-.406-1.75-1.547-2.55-.5-.36-.656-.54-.656-.9 0-1.39 2.906-2.89 5.75-2.89 3.594 0 5.5 2.25 5.5 6.5 0 4.64-1.906 7.09-5.453 7.09-.453 0-1.297-.05-2.047-.09-.406-.05-.797-.05-1.094-.05-1.062 0-1.609.44-1.609 1.34 0 .85.5 1.25 1.609 1.25.297 0 .688 0 1.141-.04 1-.05 1.797-.05 2.359-.05 3.688 0 5.688 2.64 5.688 7.59 0 5.21-2.5 8.1-7 8.1-3.141 0-6.547-1.69-6.547-3.25 0-.44.109-.55 1.047-1.1 1.406-.84 1.953-1.7 1.953-2.95 0-1.8-1.344-3.14-3.141-3.14-2.156 0-3.562 1.75-3.562 4.39 0 4.86 4.453 8.2 10.859 8.2 7.25 0 11.953-4 11.953-10.15 0-4.69-2.406-7.55-7.609-9M366.255 1922.71h-29.953l-.75 13.9h2.14c.36-2.5.75-4.4 1.36-6 1.296-3.7 3.703-5.55 7.093-5.55 1.657 0 2.36.55 2.36 1.8v25.8c0 2.56 0 2.65-.313 3.11-.39.5-1.344.7-4.187.7h-1.313v2.34h17.156v-2.34h-1.296c-2.797 0-3.75-.2-4.157-.7-.297-.46-.297-.55-.297-3.11v-25.8c0-1.25.704-1.8 2.344-1.8 3.063 0 5.516 1.71 6.766 4.71.75 1.84 1.25 4 1.64 6.84h2.157l-.75-13.9m10.687-.75l-8.594.56v2.14h1.75c1.891.05 2.141.36 2.141 2.5v19.45c0 6.95-.297 10.75-.891 12.91h1.891l2.453-3.91c2.047 2.7 4.406 3.95 7.5 3.95 6.203 0 10.75-5.29 10.75-12.54 0-7.21-4.203-12.25-10.203-12.25-3.047 0-4.891 1.04-6.797 3.89v-16.7m5.906 15.35c3.75 0 5.844 3.66 5.844 10.21 0 6.34-2.047 9.89-5.703 9.89-3.953 0-6.297-3.64-6.297-9.8 0-6.7 2.156-10.3 6.156-10.3m22.891-1.79l-8.656.54v2.16h1.812c1.891.05 2.141.34 2.141 2.5V1955.02c-.047.75-.094 1.04-.297 1.29-.344.46-1.297.66-3.453.71h-.203v1.79h12.656v-1.79h-.203c-3.344-.11-3.797-.36-3.797-2.16V1947.47c0-2.45.344-4.7.906-5.86 1.047-2.25 3.297-3.8 5.438-3.8 1.312 0 2.812.71 3.562 1.75.75 1.1 1.094 2.6 1.094 5V1955.02c-.047.75-.094 1.04-.297 1.29-.359.46-1.359.66-3.5.71h-.203v1.79h12.656v-1.79h-.203c-3.297-.11-3.75-.36-3.75-2.16v-10.05c0-3.59-.156-4.5-1.047-6.2-1.25-2.39-3.75-3.84-6.75-3.84-3.25 0-5.703 1.5-7.906 4.79v-4.04m27.391 17.75c-1.75 0-3.141 1.39-3.141 3.09 0 1.75 1.391 3.16 3.094 3.16a3.15 3.15 0 003.156-3.16c0-1.7-1.406-3.09-3.109-3.09m46.187-5.25h-2.203l-.5 2.54c-.641 3.25-1.047 3.55-4.141 3.55H461.27c3.453-3.59 4.594-4.64 7.797-7.14 4.547-3.5 6.5-5.25 7.656-6.75 1.594-2.2 2.391-4.41 2.391-6.86 0-5.7-4.703-9.75-11.25-9.75-6.344 0-11.203 4.05-11.203 9.41 0 3.14 1.609 5.29 3.953 5.29 1.859 0 3.109-1.25 3.109-3.04 0-1.25-.703-2.41-1.75-2.86-1.859-.75-1.953-.85-1.953-1.5 0-.75.5-1.89 1.203-2.75 1.25-1.55 3.297-2.39 5.641-2.39 4.156 0 6.609 2.54 6.609 6.75 0 3.7-1.75 7.04-5.906 11.45-3.703 3.89-6 6.34-6.844 7.3-1.812 2.09-2.703 3.25-4.906 6.14v1.4h22.547l.953-10.79M367.255 1546.33h-29.953l-.75 13.9h2.14c.36-2.5.75-4.4 1.36-6 1.296-3.7 3.703-5.54 7.093-5.54 1.657 0 2.36.54 2.36 1.79v25.8c0 2.56 0 2.66-.313 3.11-.39.5-1.344.7-4.187.7h-1.313v2.35h17.156v-2.35h-1.296c-2.797 0-3.75-.2-4.157-.7-.297-.45-.297-.55-.297-3.11v-25.8c0-1.25.704-1.79 2.344-1.79 3.063 0 5.516 1.7 6.766 4.7.75 1.84 1.25 4 1.64 6.84h2.157l-.75-13.9m10.687-.75l-8.594.56v2.14h1.75c1.891.05 2.141.36 2.141 2.5v19.45c0 6.96-.297 10.75-.891 12.91h1.891l2.453-3.91c2.047 2.71 4.406 3.96 7.5 3.96 6.203 0 10.75-5.3 10.75-12.55 0-7.2-4.203-12.25-10.203-12.25-3.047 0-4.891 1.05-6.797 3.89v-16.7m5.906 15.36c3.75 0 5.844 3.65 5.844 10.2 0 6.34-2.047 9.89-5.703 9.89-3.953 0-6.297-3.64-6.297-9.8 0-6.7 2.156-10.29 6.156-10.29m22.891-1.8l-8.656.55v2.15h1.812c1.891.05 2.141.35 2.141 2.5V1578.64c-.047.75-.094 1.05-.297 1.3-.344.45-1.297.65-3.453.7h-.203v1.8h12.656v-1.8h-.203c-3.344-.11-3.797-.36-3.797-2.16V1571.09c0-2.45.344-4.7.906-5.86 1.047-2.25 3.297-3.79 5.438-3.79 1.312 0 2.812.7 3.562 1.75.75 1.09 1.094 2.59 1.094 5v10.45c-.047.75-.094 1.05-.297 1.3-.359.45-1.359.65-3.5.7h-.203v1.8h12.656v-1.8h-.203c-3.297-.11-3.75-.36-3.75-2.16v-10.04c0-3.6-.156-4.5-1.047-6.21-1.25-2.39-3.75-3.84-6.75-3.84-3.25 0-5.703 1.5-7.906 4.8v-4.05m27.391 17.75c-1.75 0-3.141 1.39-3.141 3.09 0 1.75 1.391 3.16 3.094 3.16a3.15 3.15 0 003.156-3.16c0-1.7-1.406-3.09-3.109-3.09m37.031-29.66c-1.688 2.05-6.297 3.6-10.891 3.71v2.14h4.391c2.906.06 3.203.36 3.109 3.15v20.05c0 2.56 0 2.66-.297 3.11-.406.5-1.359.7-4.156.7h-3.25v2.35h19.797v-2.35h-2.75c-2.797 0-3.75-.2-4.141-.7-.359-.45-.359-.5-.359-3.11v-20.64c0-2.81.109-5.16.359-8.41h-1.812M304.255 1169.95h-29.953l-.75 13.9h2.14c.36-2.5.75-4.4 1.36-6 1.296-3.7 3.703-5.54 7.093-5.54 1.657 0 2.36.54 2.36 1.79v25.8c0 2.56 0 2.66-.313 3.11-.39.5-1.344.7-4.187.7h-1.313v2.35h17.156v-2.35h-1.296c-2.797 0-3.75-.2-4.157-.7-.297-.45-.297-.55-.297-3.11v-25.8c0-1.25.704-1.79 2.344-1.79 3.063 0 5.516 1.7 6.766 4.7.75 1.84 1.25 4 1.64 6.84h2.157l-.75-13.9m10.687-.75l-8.594.56v2.14h1.75c1.891.05 2.141.36 2.141 2.5v19.45c0 6.96-.297 10.75-.891 12.91h1.891l2.453-3.91c2.047 2.71 4.406 3.96 7.5 3.96 6.203 0 10.75-5.3 10.75-12.55 0-7.2-4.203-12.25-10.203-12.25-3.047 0-4.891 1.05-6.797 3.89v-16.7m5.906 15.36c3.75 0 5.844 3.65 5.844 10.2 0 6.34-2.047 9.89-5.703 9.89-3.953 0-6.297-3.64-6.297-9.8 0-6.7 2.156-10.29 6.156-10.29m22.891-1.8l-8.656.55v2.15h1.812c1.891.05 2.141.35 2.141 2.5V1202.26c-.047.75-.094 1.05-.297 1.3-.344.45-1.297.65-3.453.7h-.203v1.8h12.656v-1.8h-.203c-3.344-.11-3.797-.36-3.797-2.16V1194.71c0-2.45.344-4.7.906-5.86 1.047-2.25 3.297-3.79 5.438-3.79 1.312 0 2.812.7 3.562 1.75.75 1.09 1.094 2.59 1.094 5v10.45c-.047.75-.094 1.05-.297 1.3-.359.45-1.359.65-3.5.7h-.203v1.8h12.656v-1.8h-.203c-3.297-.11-3.75-.36-3.75-2.16v-10.04c0-3.6-.156-4.5-1.047-6.21-1.25-2.39-3.75-3.84-6.75-3.84-3.25 0-5.703 1.5-7.906 4.8v-4.05m27.391 17.75c-1.75 0-3.141 1.39-3.141 3.09 0 1.75 1.391 3.16 3.094 3.16a3.15 3.15 0 003.156-3.16c0-1.7-1.406-3.09-3.109-3.09m40.437-18.3h-1.75l-1.453 1.8c-1.797-1.41-3.594-2-6.094-2-4.406 0-7.297 2.84-7.297 7.25 0 1.95.641 3.59 1.75 4.59 1.141 1.05 2.297 1.55 5.297 2.25l2.641.61c3.953.94 5.359 1.94 5.359 3.94 0 2.36-2.047 4-4.953 4-4.25 0-7.25-2.69-8.453-7.69h-2v9.44h1.75l1.75-2.05c2.047 1.66 4.297 2.46 6.859 2.46 4.891 0 8.141-3.05 8.141-7.71 0-2.2-.703-3.89-2.094-5.04-1.203-1.05-2.203-1.46-5.25-2.1l-2.5-.56c-2.75-.59-2.75-.59-3.656-1.09-1.094-.5-1.75-1.55-1.75-2.66 0-2.05 1.906-3.44 4.656-3.44 1.891 0 3.453.64 4.844 2 1.109 1.1 1.656 2.1 2.453 4.39h1.75v-8.39m16.235-.2c-6.141 0-10.891 5.45-10.891 12.45 0 6.85 4.797 12.35 10.797 12.35 6 0 10.797-5.5 10.797-12.41 0-6.84-4.797-12.39-10.703-12.39m0 2.14c3.5 0 5.453 3.66 5.453 10.25 0 6.66-1.953 10.25-5.547 10.25-3.594 0-5.547-3.59-5.547-10.19 0-6.81 1.891-10.31 5.641-10.31m22.593-14.95l-9.25.56v2.14h2.453c1.844.05 2.094.36 2.094 2.5v27.86c-.047.75-.094 1.05-.297 1.3-.359.45-1.297.65-3.453.7h-.344v1.8h12.938v-1.8h-.344c-3.344-.11-3.797-.36-3.797-2.16v-32.9m18.125 12.81c-6.14 0-10.89 5.45-10.89 12.45 0 6.85 4.797 12.35 10.797 12.35 6 0 10.796-5.5 10.796-12.41 0-6.84-4.796-12.39-10.703-12.39m0 2.14c3.5 0 5.453 3.66 5.453 10.25 0 6.66-1.953 10.25-5.546 10.25-3.594 0-5.547-3.59-5.547-10.19 0-6.81 1.89-10.31 5.64-10.31M271.098 794.068v2.36h.907c2.843.047 3.797.203 4.187.703.313.437.313.547.313 3.094v23.797c0 2.562 0 2.656-.313 3.109-.39.5-1.344.703-4.187.703h-.907v2.344h18.157c8.64 0 13.843-3.656 13.843-9.797 0-5-3.14-7.859-10-9.047 2.407-.5 3.5-.953 4.797-1.906 2.063-1.547 3.313-4 3.313-6.5 0-3.25-2-6.406-4.906-7.656-1.797-.797-4.297-1.204-7.25-1.204h-17.954m11 16.266v-11.406c0-1.953.657-2.453 3.297-2.5h2c2.297 0 4.203.39 5.25 1.047 1.797 1.093 2.75 3.203 2.75 6 0 4.953-2.39 6.859-8.843 6.859h-4.454m0 2.344h4.407c7.64 0 10.453 2.047 10.453 7.547 0 3.203-1.11 5.5-3.063 6.453-1.547.797-3.64 1.156-6.797 1.156h-2.093c-2.5 0-3-.5-2.907-3.156v-12m46.188 1.406c0-3.156-.547-4.75-2-5.953-1.641-1.359-4.094-2-7.297-2-5.641 0-9.75 2.641-9.75 6.297 0 1.844 1.156 3.047 2.906 3.047 1.594 0 2.703-1.047 2.703-2.547 0-.656-.25-1.344-.75-2.047-.312-.359-.359-.453-.359-.703 0-1 2-1.906 4.406-1.906 1.594 0 3.344.5 4.141 1.25.953.812 1.312 2 1.312 4.25v1.953c-5.203.906-6.859 1.297-9.312 2.25-4.344 1.609-6.391 3.906-6.391 7.109 0 3.594 2.797 5.844 7.25 5.844 3.453 0 6.547-1.406 8.703-3.953.797 2.547 2.047 3.547 4.391 3.547 2.25 0 4.609-1.438 4.609-2.891 0-.359-.203-.609-.5-.609-.203 0-.406.062-.75.203-.703.297-1 .359-1.406.359-1.406 0-1.906-.906-1.906-3.453v-10.047m-4.688 6.094c0 3-.156 3.703-1 5-1.25 1.844-3.5 3.094-5.703 3.094-2.297 0-3.953-1.641-3.953-3.891 0-2.109 1.047-3.609 3.25-4.656 1.547-.703 3.5-1.203 7.406-1.844v2.297m19.797-13.297l-8.859.547v2.156h2.047c1.906.047 2.156.344 2.156 2.5v14.297c-.047.75-.094 1.047-.297 1.297-.359.453-1.359.656-3.5.703h-.203v1.797h13.344v-1.797h-.891c-3.359-.109-3.797-.359-3.797-2.156v-2.703c.047-8.391 3.047-14.797 6.938-15-.688.812-.891 1.312-.891 2.25 0 1.609 1.141 2.75 2.75 2.75 1.844 0 3.047-1.344 3.047-3.344 0-2.453-1.703-4.047-4.344-4.047-3.156 0-5.859 2.5-7.5 6.953v-6.203m15.422 17.75c-1.75 0-3.14 1.391-3.14 3.094 0 1.75 1.39 3.156 3.093 3.156a3.148 3.148 0 003.157-3.156c0-1.703-1.407-3.094-3.11-3.094m48.235-30.859h-1.844l-2 3c-2.406-2.25-5.547-3.454-9.11-3.454-6.593 0-10.937 4.157-10.937 10.454 0 5.453 2.687 8.156 10.047 10.062l4.75 1.188c3.703.953 4.047 1.062 5.094 1.859 1.5 1.141 2.312 2.797 2.312 4.75 0 2-.766 3.641-2.266 5.047-1.64 1.406-3.296 1.953-6.046 1.953-3.704 0-6.344-1.156-8.704-3.75-2.093-2.297-3.14-4.703-3.89-8.547h-2.156l.203 14.25h1.953l2.25-3.406c3.344 2.75 6.094 3.75 10.5 3.75 7.344 0 12.047-4.297 12.047-11 0-3.156-1-5.75-3-7.656-1.344-1.297-3.297-2.141-7.297-3.141l-5.36-1.359c-4.437-1.141-6.546-3.094-6.546-6.141 0-3.5 2.859-5.906 7.109-5.906 3.5 0 6.344 1.5 8.344 4.343 1.453 2.063 2.406 4.157 3 6.704h2.156l-.609-13m26.687 20.312c0-3.156-.547-4.75-2-5.953-1.641-1.359-4.094-2-7.297-2-5.64 0-9.75 2.641-9.75 6.297 0 1.844 1.156 3.047 2.906 3.047 1.594 0 2.704-1.047 2.704-2.547 0-.656-.25-1.344-.75-2.047-.313-.359-.36-.453-.36-.703 0-1 2-1.906 4.406-1.906 1.594 0 3.344.5 4.141 1.25.953.812 1.313 2 1.313 4.25v1.953c-5.204.906-6.86 1.297-9.313 2.25-4.344 1.609-6.391 3.906-6.391 7.109 0 3.594 2.797 5.844 7.25 5.844 3.454 0 6.547-1.406 8.704-3.953.796 2.547 2.046 3.547 4.39 3.547 2.25 0 4.61-1.438 4.61-2.891 0-.359-.204-.609-.5-.609-.204 0-.407.062-.75.203-.704.297-1 .359-1.407.359-1.406 0-1.906-.906-1.906-3.453v-10.047m-4.687 6.094c0 3-.157 3.703-1 5-1.25 1.844-3.5 3.094-5.704 3.094-2.296 0-3.953-1.641-3.953-3.891 0-2.109 1.047-3.609 3.25-4.656 1.547-.703 3.5-1.203 7.407-1.844v2.297m26.39-2.75l5.703-6.656c1.25-1.438 2.391-2.094 3.75-2.094h.438v-1.797h-10.344v1.797h.953c1.5 0 2.25.344 2.25 1.094 0 .5-.359 1.203-1 2l-3.156 3.812-3.844-4.906c-.297-.406-.5-.797-.5-1.094 0-.656.641-.906 2.203-.906h.688v-1.797h-11.844v1.797c1.844.156 2.547.594 4.156 2.703l6.094 7.641-5.75 6.703c-1.703 1.906-3.156 2.703-4.5 2.656h-.297v1.797h10.547v-1.797h-.75c-1.156 0-1.406-.047-1.75-.203-.406-.25-.703-.703-.703-1.156 0-.344.156-.797.406-1.094l4.203-5 3.797 5.047c.344.5.641 1.156.641 1.5 0 .656-.75.906-2.641.906h-.359v1.797h12.609v-1.797h-.344c-1.765 0-2.906-.656-4.359-2.453l-6.297-8.5m18.141 7.203c-1.75 0-3.141 1.391-3.141 3.094 0 1.75 1.391 3.156 3.094 3.156a3.147 3.147 0 003.156-3.156c0-1.703-1.406-3.094-3.109-3.094M232.505 417.002h-2.11l-11.5 29.14c-1.343 3.907-2.64 5.11-5.5 5.313h-.203v2.344h13.25v-2.344h-1c-2.687 0-4.047-.953-4.047-2.859 0-.641.157-1.25.453-2.094l1.657-4.406h13.25l2.703 6.703c.297.797.39 1.093.39 1.343 0 .813-1.25 1.313-3.093 1.313h-2.11v2.344h15.5v-2.344h-.687c-2.61-.063-3.063-.359-4.203-3.203l-12.75-31.25m-2.453 8.187l5.64 14.203h-11.187l5.547-14.203m27.078 23.063c-1.75 0-3.141 1.39-3.141 3.094 0 1.75 1.391 3.156 3.094 3.156a3.147 3.147 0 003.156-3.156c0-1.704-1.406-3.094-3.109-3.094m48.234-30.86h-1.844l-2 3c-2.406-2.25-5.547-3.453-9.109-3.453-6.594 0-10.938 4.157-10.938 10.453 0 5.454 2.688 8.157 10.047 10.063l4.75 1.187c3.703.954 4.047 1.063 5.094 1.86 1.5 1.14 2.313 2.797 2.313 4.75 0 2-.766 3.64-2.266 5.047-1.641 1.406-3.297 1.953-6.047 1.953-3.703 0-6.344-1.156-8.703-3.75-2.094-2.297-3.141-4.703-3.891-8.547h-2.156l.203 14.25h1.953l2.25-3.406c3.344 2.75 6.094 3.75 10.5 3.75 7.344 0 12.047-4.297 12.047-11 0-3.157-1-5.75-3-7.657-1.344-1.296-3.297-2.14-7.297-3.14l-5.359-1.36c-4.438-1.14-6.547-3.093-6.547-6.14 0-3.5 2.859-5.906 7.109-5.906 3.5 0 6.344 1.5 8.344 4.343 1.453 2.063 2.406 4.157 3 6.703h2.156l-.609-13m26.688 20.313c0-3.156-.547-4.75-2-5.953-1.641-1.36-4.094-2-7.297-2-5.641 0-9.75 2.64-9.75 6.297 0 1.843 1.156 3.047 2.906 3.047 1.594 0 2.703-1.047 2.703-2.547 0-.657-.25-1.344-.75-2.047-.312-.36-.359-.453-.359-.703 0-1 2-1.907 4.406-1.907 1.594 0 3.344.5 4.141 1.25.953.813 1.312 2 1.312 4.25v1.954c-5.203.906-6.859 1.296-9.312 2.25-4.344 1.609-6.391 3.906-6.391 7.109 0 3.594 2.797 5.844 7.25 5.844 3.453 0 6.547-1.407 8.703-3.953.797 2.546 2.047 3.546 4.391 3.546 2.25 0 4.609-1.437 4.609-2.89 0-.36-.203-.61-.5-.61-.203 0-.406.063-.75.204-.703.296-1 .359-1.406.359-1.406 0-1.906-.906-1.906-3.453v-10.047m-4.688 6.094c0 3-.156 3.703-1 5-1.25 1.843-3.5 3.093-5.703 3.093-2.297 0-3.953-1.64-3.953-3.89 0-2.11 1.047-3.61 3.25-4.656 1.547-.704 3.5-1.204 7.406-1.844v2.297m26.391-2.75l5.703-6.657c1.25-1.437 2.39-2.093 3.75-2.093h.437v-1.797h-10.343v1.797h.953c1.5 0 2.25.343 2.25 1.093 0 .5-.36 1.204-1 2l-3.157 3.813-3.843-4.906c-.297-.407-.5-.797-.5-1.094 0-.656.64-.906 2.203-.906h.687v-1.797h-11.843v1.797c1.843.156 2.546.593 4.156 2.703l6.094 7.64-5.75 6.704c-1.704 1.906-3.157 2.703-4.5 2.656h-.297v1.797h10.547v-1.797h-.75c-1.157 0-1.407-.047-1.75-.203-.407-.25-.704-.703-.704-1.157 0-.343.157-.796.407-1.093l4.203-5 3.797 5.047c.343.5.64 1.156.64 1.5 0 .656-.75.906-2.64.906h-.36v1.797h12.61v-1.797h-.344c-1.766 0-2.906-.656-4.359-2.453l-6.297-8.5m18.14 7.203c-1.75 0-3.14 1.39-3.14 3.094 0 1.75 1.39 3.156 3.093 3.156a3.148 3.148 0 003.157-3.156c0-1.704-1.407-3.094-3.11-3.094m40.438-18.297h-1.75l-1.453 1.797c-1.797-1.406-3.594-2-6.094-2-4.406 0-7.297 2.844-7.297 7.25 0 1.953.641 3.594 1.75 4.594 1.141 1.046 2.297 1.546 5.297 2.25l2.641.609c3.953.937 5.359 1.937 5.359 3.937 0 2.36-2.047 4-4.953 4-4.25 0-7.25-2.687-8.453-7.687h-2v9.437h1.75l1.75-2.046c2.047 1.656 4.297 2.453 6.859 2.453 4.891 0 8.141-3.047 8.141-7.703 0-2.204-.703-3.891-2.094-5.047-1.203-1.047-2.203-1.453-5.25-2.094l-2.5-.563c-2.75-.593-2.75-.593-3.656-1.093-1.094-.5-1.75-1.547-1.75-2.657 0-2.046 1.906-3.437 4.656-3.437 1.891 0 3.453.641 4.844 2 1.109 1.094 1.656 2.094 2.453 4.391h1.75v-8.391m16.234-.203c-6.14 0-10.89 5.453-10.89 12.453 0 6.844 4.796 12.344 10.796 12.344 6 0 10.797-5.5 10.797-12.407 0-6.843-4.797-12.39-10.703-12.39m0 2.14c3.5 0 5.453 3.657 5.453 10.25 0 6.657-1.953 10.25-5.547 10.25-3.593 0-5.546-3.593-5.546-10.187 0-6.813 1.89-10.313 5.64-10.313m22.594-14.953l-9.25.563v2.14h2.453c1.844.047 2.094.36 2.094 2.5v27.86c-.047.75-.094 1.047-.297 1.297-.359.453-1.297.656-3.453.703h-.344v1.797h12.938v-1.797h-.344c-3.344-.11-3.797-.36-3.797-2.156v-32.907m18.125 12.813c-6.141 0-10.891 5.453-10.891 12.453 0 6.844 4.797 12.344 10.797 12.344 6 0 10.797-5.5 10.797-12.407 0-6.843-4.797-12.39-10.703-12.39m0 2.14c3.5 0 5.453 3.657 5.453 10.25 0 6.657-1.953 10.25-5.547 10.25-3.594 0-5.547-3.593-5.547-10.187 0-6.813 1.891-10.313 5.641-10.313"/><path class="SlurSegment" stroke="#000" stroke-width="1.74" stroke-linecap="round" stroke-linejoin="round" fill-rule="evenodd" d="M807.661 3299.05c30.683-58.03 121.185-89.03 181.002-62-57.567-20.46-148.068 10.54-181.002 62M1139.21 3253.32c47.91-42 139.77-37.88 183.73 8.23-44.27-39.17-136.13-43.29-183.73-8.23M1590.44 3253.08c61.3-47.61 180.47-43.49 238.35 8.24-58.12-44.79-177.29-48.91-238.35-8.24M936.239 3120.49c5.773 5.48 23.094 5.48 28.868 0-5.774 8.95-23.095 8.95-28.868 0"/><path class="BarLine" stroke="#000" stroke-width="4.46" stroke-linejoin="bevel" d="M547.07 3307.61v101.92M1073.87 3307.61v101.92M1503.92 3307.61v101.92M1982.93 3307.61v101.92M2761.55 3307.61v101.92M547.07 3047.21v261.76M1073.87 3047.21v261.76M1503.92 3047.21v261.76M1982.93 3047.21v261.76M2761.55 3047.21v261.76M547.07 2643.11v405.46M1073.87 2643.11v101.93M1503.92 2643.11v101.93M1982.93 2643.11v101.93M2761.55 2643.11v101.93M547.07 2266.73v377.74M1073.87 2266.73v101.93M1503.92 2266.73v101.93M1982.93 2266.73v101.93M2761.55 2266.73v101.93M547.07 1890.35v377.74M1073.87 1890.35v101.93M1503.92 1890.35v101.93M1982.93 1890.35v101.93M2761.55 1890.35v101.93M547.07 1513.97v377.74M1073.87 1513.97v101.93M1503.92 1513.97v101.93M1982.93 1513.97v101.93M2761.55 1513.97v101.93M547.07 1137.59v377.75M1073.87 1137.59v101.93M1503.92 1137.59v101.93M1982.93 1137.59v101.93M2761.55 1137.59v101.93M547.07 761.214v377.746M1073.87 761.214v377.746M1503.92 761.214v377.746M1982.93 761.214v377.746M2761.55 761.214v377.746M547.07 384.835v377.743M1073.87 384.835v101.928M1503.92 384.835v101.928M1982.93 384.835v101.928M2761.55 384.835v101.928"/><path class="StemSlash" stroke="#000" stroke-width="2.73" stroke-linejoin="bevel" d="M965.794 3057.25l-31.588 19.84"/><path class="Accidental" d="M1544.191 3414.82c-.186-.202-.496-.295-.79-.295-.094 0-.295.093-.388.093l-12.508 3.472v-17.36h-2.775v49.104c0 .79.589 1.287 1.395 1.287h.388l12.508-3.472v17.36h2.666v-49.104c0-.388-.186-.884-.496-1.086m-2.17 24.599l-11.516 3.178v-16.276l11.516-3.27v16.368M1618.681 3365.22c-.186-.202-.496-.295-.79-.295-.094 0-.295.093-.388.093l-12.508 3.472v-17.36h-2.775v49.104c0 .79.589 1.287 1.395 1.287h.388l12.508-3.472v17.36h2.666v-49.104c0-.388-.186-.884-.496-1.086m-2.17 24.599l-11.516 3.178v-16.276l11.516-3.27v16.368M1684.481 3328.02c-.186-.202-.496-.295-.79-.295-.094 0-.295.093-.388.093l-12.508 3.472v-17.36h-2.775v49.104c0 .79.589 1.287 1.395 1.287h.388l12.508-3.472v17.36h2.666v-49.104c0-.388-.186-.884-.496-1.086m-2.17 24.599l-11.516 3.178v-16.276l11.516-3.27v16.368M1753.763 3313.527c-.589-3.86-2.976-7.533-8.029-7.533-4.96 0-7.843 3.069-8.339 3.673l.403-31.852c0-.79-.589-1.38-1.395-1.38h-1.178c-.806 0-1.395.59-1.395 1.38l.496 59.628c0 .791.589 1.38 1.395 1.38.186 0 .589-.093.79-.186.388-.202 6.836-3.379 12.199-9.424 3.767-4.278 5.255-9.13 5.255-13.206 0-.884-.094-1.674-.202-2.48m-6.836 3.875c0 1.488-.402 6.045-2.882 9.827-1.69 2.573-5.053 5.254-6.944 6.742l.294-19.344c.202-.899 1.69-3.766 5.658-3.766 3.58 0 3.874 3.363 3.874 5.456v1.085M2026.673 3425.127c-.589-3.86-2.976-7.533-8.029-7.533-4.96 0-7.843 3.069-8.339 3.673l.403-31.852c0-.79-.589-1.38-1.395-1.38h-1.178c-.806 0-1.395.59-1.395 1.38l.496 59.628c0 .791.589 1.38 1.395 1.38.186 0 .589-.093.79-.186.388-.202 6.836-3.379 12.199-9.424 3.767-4.278 5.255-9.13 5.255-13.206 0-.884-.094-1.674-.202-2.48m-6.836 3.875c0 1.488-.402 6.045-2.882 9.827-1.69 2.573-5.053 5.254-6.944 6.742l.294-19.344c.202-.899 1.69-3.766 5.658-3.766 3.58 0 3.874 3.363 3.874 5.456v1.085M2104.333 3375.527c-.589-3.86-2.976-7.533-8.029-7.533-4.96 0-7.843 3.069-8.339 3.673l.403-31.852c0-.79-.589-1.38-1.395-1.38h-1.178c-.806 0-1.395.59-1.395 1.38l.496 59.628c0 .791.589 1.38 1.395 1.38.186 0 .589-.093.79-.186.388-.202 6.836-3.379 12.199-9.424 3.767-4.278 5.255-9.13 5.255-13.206 0-.884-.094-1.674-.202-2.48m-6.836 3.875c0 1.488-.402 6.045-2.882 9.827-1.69 2.573-5.053 5.254-6.944 6.742l.294-19.344c.202-.899 1.69-3.766 5.658-3.766 3.58 0 3.874 3.363 3.874 5.456v1.085M2173.323 3338.327c-.589-3.86-2.976-7.533-8.029-7.533-4.96 0-7.843 3.069-8.339 3.673l.403-31.852c0-.79-.589-1.38-1.395-1.38h-1.178c-.806 0-1.395.59-1.395 1.38l.496 59.628c0 .791.589 1.38 1.395 1.38.186 0 .589-.093.79-.186.388-.202 6.836-3.379 12.199-9.424 3.767-4.278 5.255-9.13 5.255-13.206 0-.884-.094-1.674-.202-2.48m-6.836 3.875c0 1.488-.402 6.045-2.882 9.827-1.69 2.573-5.053 5.254-6.944 6.742l.294-19.344c.202-.899 1.69-3.766 5.658-3.766 3.58 0 3.874 3.363 3.874 5.456v1.085M1544.191 3166.82c-.186-.202-.496-.295-.79-.295-.094 0-.295.093-.388.093l-12.508 3.472v-17.36h-2.775v49.104c0 .79.589 1.287 1.395 1.287h.388l12.508-3.472v17.36h2.666v-49.104c0-.388-.186-.884-.496-1.086m-2.17 24.599l-11.516 3.178v-16.276l11.516-3.27v16.368M1890.283 3139.927c-.589-3.86-2.976-7.533-8.029-7.533-4.96 0-7.843 3.069-8.339 3.673l.403-31.852c0-.79-.589-1.38-1.395-1.38h-1.178c-.806 0-1.395.59-1.395 1.38l.496 59.628c0 .791.589 1.38 1.395 1.38.186 0 .589-.093.79-.186.388-.202 6.836-3.379 12.199-9.424 3.767-4.278 5.255-9.13 5.255-13.206 0-.884-.094-1.674-.202-2.48m-6.836 3.875c0 1.488-.402 6.045-2.882 9.827-1.69 2.573-5.053 5.254-6.944 6.742l.294-19.344c.202-.899 1.69-3.766 5.658-3.766 3.58 0 3.874 3.363 3.874 5.456v1.085M2026.673 3177.127c-.589-3.86-2.976-7.533-8.029-7.533-4.96 0-7.843 3.069-8.339 3.673l.403-31.852c0-.79-.589-1.38-1.395-1.38h-1.178c-.806 0-1.395.59-1.395 1.38l.496 59.628c0 .791.589 1.38 1.395 1.38.186 0 .589-.093.79-.186.388-.202 6.836-3.379 12.199-9.424 3.767-4.278 5.255-9.13 5.255-13.206 0-.884-.094-1.674-.202-2.48m-6.836 3.875c0 1.488-.402 6.045-2.882 9.827-1.69 2.573-5.053 5.254-6.944 6.742l.294-19.344c.202-.899 1.69-3.766 5.658-3.766 3.58 0 3.874 3.363 3.874 5.456v1.085M2534.903 3090.327c-.589-3.86-2.976-7.533-8.029-7.533-4.96 0-7.843 3.069-8.339 3.673l.403-31.852c0-.79-.589-1.38-1.395-1.38h-1.178c-.806 0-1.395.59-1.395 1.38l.496 59.628c0 .791.589 1.38 1.395 1.38.186 0 .589-.093.79-.186.388-.202 6.836-3.379 12.199-9.424 3.767-4.278 5.255-9.13 5.255-13.206 0-.884-.094-1.674-.202-2.48m-6.836 3.875c0 1.488-.402 6.045-2.882 9.827-1.69 2.573-5.053 5.254-6.944 6.742l.294-19.344c.202-.899 1.69-3.766 5.658-3.766 3.58 0 3.874 3.363 3.874 5.456v1.085"/><path class="LedgerLine" stroke="#000" stroke-width="3.97" stroke-linejoin="bevel" d="M963.867 3284.17h49.593M963.867 3259.37h49.593M1550.89 3432.97h49.59M2033.07 3432.97h49.6M963.867 3023.77h49.593M1347.76 3172.57h49.59M1550.89 3172.57h49.59M2033.07 3172.57h49.6M2229.56 3222.17h49.59M2229.56 3197.37h49.59M2229.56 3172.57h49.59M2288.08 3172.57h49.59"/><path class="Stem" stroke="#000" stroke-width="2.73" stroke-linejoin="bevel" d="M792.909 3324.7v157.87M837.952 3349.5v118.6M882.995 3324.7v128.94M928.039 3299.9v139.27M973.911 3262.7v95.87M1139.21 3417.4v-114.63M1188.83 3367.8v-79.5M1238.45 3330.6v-56.76M1288.07 3318.2v-58.83M1308.19 3312.3v83.47M1590.44 3429.8v-127.03M1656.24 3380.2v-91.67M1722.05 3343v-68.7M1791.03 3318.2v-58.83M1814.03 3312.3v83.47M2072.62 3429.8v-120.83M2141.61 3380.2v-86.73M2210.59 3343v-65.03M792.909 3051.9v123.77M973.911 3014.7v160.97"/><path class="Stem" stroke="#000" stroke-width="1.91" stroke-linejoin="bevel" d="M946.565 3095.95v-58.54"/><path class="Stem" stroke="#000" stroke-width="2.73" stroke-linejoin="bevel" d="M1139.21 3144.6v-105.33M1387.31 3169.4v-83.63M1453.17 3119.8v-80.53M1590.44 3181.8v-151.83M1927.55 3144.6v-83.63M2072.62 3181.8v-133.23M2269.11 3219v-127.03M2327.63 3181.8v-96.03M2386.15 3157v-77.43M2444.67 3132.2v-127.03M2503.19 3070.2v-65.03M2572.17 3095v-89.83M2630.69 3119.8v-80.53M2667.05 3076.7v80.37"/><path class="Note" d="M822.793 3400.141c-1.782-3.286-5.549-5.068-10.121-5.068-3.364 0-7.038.992-10.618 2.882-6.541 3.472-10.509 9.316-10.509 14.385 0 1.379.295 2.774.992 4.06 1.783 3.271 5.549 4.96 10.121 4.96 3.364 0 7.038-.883 10.618-2.774 6.541-3.472 10.509-9.331 10.509-14.384 0-1.395-.294-2.775-.992-4.061M822.793 3313.341c-1.782-3.286-5.549-5.068-10.121-5.068-3.364 0-7.038.992-10.618 2.882-6.541 3.472-10.509 9.316-10.509 14.385 0 1.379.295 2.774.992 4.06 1.783 3.271 5.549 4.96 10.121 4.96 3.364 0 7.038-.883 10.618-2.774 6.541-3.472 10.509-9.331 10.509-14.384 0-1.395-.294-2.775-.992-4.061M867.836 3338.141c-1.782-3.286-5.549-5.068-10.121-5.068-3.364 0-7.038.992-10.618 2.882-6.541 3.472-10.509 9.316-10.509 14.385 0 1.379.295 2.774.992 4.06 1.783 3.271 5.549 4.96 10.121 4.96 3.364 0 7.038-.883 10.618-2.774 6.541-3.472 10.509-9.331 10.509-14.384 0-1.395-.294-2.775-.992-4.061M912.879 3313.341c-1.782-3.286-5.549-5.068-10.121-5.068-3.364 0-7.038.992-10.618 2.882-6.541 3.472-10.509 9.316-10.509 14.385 0 1.379.295 2.774.992 4.06 1.783 3.271 5.549 4.96 10.121 4.96 3.364 0 7.038-.883 10.618-2.774 6.541-3.472 10.509-9.331 10.509-14.384 0-1.395-.294-2.775-.992-4.061M957.923 3288.541c-1.782-3.286-5.549-5.068-10.121-5.068-3.364 0-7.038.992-10.618 2.882-6.541 3.472-10.509 9.316-10.509 14.385 0 1.379.295 2.774.992 4.06 1.783 3.271 5.549 4.96 10.121 4.96 3.364 0 7.038-.883 10.618-2.774 6.541-3.472 10.509-9.331 10.509-14.384 0-1.395-.294-2.775-.992-4.061M1003.795 3251.294c-1.782-3.27-5.549-5.053-10.121-5.053-3.364 0-7.038.992-10.618 2.868-6.541 3.472-10.509 9.331-10.509 14.384 0 1.395.295 2.79.992 4.077 1.783 3.285 5.549 4.975 10.121 4.975 3.364 0 7.038-.899 10.618-2.774 6.541-3.488 10.509-9.347 10.509-14.416 0-1.379-.294-2.774-.992-4.06m-4.262 6.742c-1.69 1.69-5.069 3.767-8.634 5.766-3.565 1.984-7.145 3.472-9.517 3.968-.496.109-.992.202-1.488.202-1.596 0-2.79-.59-3.472-1.891a3.212 3.212 0 01-.496-1.69c0-1.085.682-2.387 1.783-3.472 1.689-1.69 4.96-3.767 8.525-5.75 3.58-1.985 7.145-3.473 9.532-3.969.496-.108.992-.201 1.488-.201 1.581 0 2.868.589 3.565 1.875.295.496.403 1.101.403 1.69 0 1.1-.604 2.278-1.69 3.472M1139.598 3412.541c-1.782-3.286-5.549-5.068-10.121-5.068-3.364 0-7.038.992-10.618 2.882-6.541 3.472-10.509 9.316-10.509 14.385 0 1.379.295 2.774.992 4.06 1.783 3.271 5.549 4.96 10.121 4.96 3.364 0 7.038-.883 10.618-2.774 6.541-3.472 10.509-9.331 10.509-14.384 0-1.395-.294-2.775-.992-4.061M1189.218 3362.941c-1.782-3.286-5.549-5.068-10.121-5.068-3.364 0-7.038.992-10.618 2.882-6.541 3.472-10.509 9.316-10.509 14.385 0 1.379.295 2.774.992 4.06 1.783 3.271 5.549 4.96 10.121 4.96 3.364 0 7.038-.883 10.618-2.774 6.541-3.472 10.509-9.331 10.509-14.384 0-1.395-.294-2.775-.992-4.061M1238.828 3325.741c-1.782-3.286-5.549-5.068-10.121-5.068-3.364 0-7.038.992-10.618 2.882-6.541 3.472-10.509 9.316-10.509 14.385 0 1.379.295 2.774.992 4.06 1.783 3.271 5.549 4.96 10.121 4.96 3.364 0 7.038-.883 10.618-2.774 6.541-3.472 10.509-9.331 10.509-14.384 0-1.395-.294-2.775-.992-4.061M1288.448 3313.341c-1.782-3.286-5.549-5.068-10.121-5.068-3.364 0-7.038.992-10.618 2.882-6.541 3.472-10.509 9.316-10.509 14.385 0 1.379.295 2.774.992 4.06 1.783 3.271 5.549 4.96 10.121 4.96 3.364 0 7.038-.883 10.618-2.774 6.541-3.472 10.509-9.331 10.509-14.384 0-1.395-.294-2.775-.992-4.061M1338.068 3300.894c-1.782-3.27-5.549-5.053-10.121-5.053-3.364 0-7.038.992-10.618 2.868-6.541 3.472-10.509 9.331-10.509 14.384 0 1.395.295 2.79.992 4.077 1.783 3.285 5.549 4.975 10.121 4.975 3.364 0 7.038-.899 10.618-2.774 6.541-3.488 10.509-9.347 10.509-14.416 0-1.379-.294-2.774-.992-4.06m-4.262 6.742c-1.69 1.69-5.069 3.767-8.634 5.766-3.565 1.984-7.145 3.472-9.517 3.968-.496.109-.992.202-1.488.202-1.596 0-2.79-.59-3.472-1.891a3.212 3.212 0 01-.496-1.69c0-1.085.682-2.387 1.783-3.472 1.689-1.69 4.96-3.767 8.525-5.75 3.58-1.985 7.145-3.473 9.532-3.969.496-.108.992-.201 1.488-.201 1.581 0 2.868.589 3.565 1.875.295.496.403 1.101.403 1.69 0 1.1-.604 2.278-1.69 3.472M1590.818 3424.941c-1.782-3.286-5.549-5.068-10.121-5.068-3.364 0-7.038.992-10.618 2.882-6.541 3.472-10.509 9.316-10.509 14.385 0 1.379.295 2.774.992 4.06 1.783 3.271 5.549 4.96 10.121 4.96 3.364 0 7.038-.883 10.618-2.774 6.541-3.472 10.509-9.331 10.509-14.384 0-1.395-.294-2.775-.992-4.061M1656.618 3375.341c-1.782-3.286-5.549-5.068-10.121-5.068-3.364 0-7.038.992-10.618 2.882-6.541 3.472-10.509 9.316-10.509 14.385 0 1.379.295 2.774.992 4.06 1.783 3.271 5.549 4.96 10.121 4.96 3.364 0 7.038-.883 10.618-2.774 6.541-3.472 10.509-9.331 10.509-14.384 0-1.395-.294-2.775-.992-4.061M1722.428 3338.141c-1.782-3.286-5.549-5.068-10.121-5.068-3.364 0-7.038.992-10.618 2.882-6.541 3.472-10.509 9.316-10.509 14.385 0 1.379.295 2.774.992 4.06 1.783 3.271 5.549 4.96 10.121 4.96 3.364 0 7.038-.883 10.618-2.774 6.541-3.472 10.509-9.331 10.509-14.384 0-1.395-.294-2.775-.992-4.061M1791.408 3313.341c-1.782-3.286-5.549-5.068-10.121-5.068-3.364 0-7.038.992-10.618 2.882-6.541 3.472-10.509 9.316-10.509 14.385 0 1.379.295 2.774.992 4.06 1.783 3.271 5.549 4.96 10.121 4.96 3.364 0 7.038-.883 10.618-2.774 6.541-3.472 10.509-9.331 10.509-14.384 0-1.395-.294-2.775-.992-4.061M1843.918 3300.894c-1.782-3.27-5.549-5.053-10.121-5.053-3.364 0-7.038.992-10.618 2.868-6.541 3.472-10.509 9.331-10.509 14.384 0 1.395.295 2.79.992 4.077 1.783 3.285 5.549 4.975 10.121 4.975 3.364 0 7.038-.899 10.618-2.774 6.541-3.488 10.509-9.347 10.509-14.416 0-1.379-.294-2.774-.992-4.06m-4.262 6.742c-1.69 1.69-5.069 3.767-8.634 5.766-3.565 1.984-7.145 3.472-9.517 3.968-.496.109-.992.202-1.488.202-1.596 0-2.79-.59-3.472-1.891a3.212 3.212 0 01-.496-1.69c0-1.085.682-2.387 1.783-3.472 1.689-1.69 4.96-3.767 8.525-5.75 3.58-1.985 7.145-3.473 9.532-3.969.496-.108.992-.201 1.488-.201 1.581 0 2.868.589 3.565 1.875.295.496.403 1.101.403 1.69 0 1.1-.604 2.278-1.69 3.472M2072.998 3424.941c-1.782-3.286-5.549-5.068-10.121-5.068-3.364 0-7.038.992-10.618 2.882-6.541 3.472-10.509 9.316-10.509 14.385 0 1.379.295 2.774.992 4.06 1.783 3.271 5.549 4.96 10.121 4.96 3.364 0 7.038-.883 10.618-2.774 6.541-3.472 10.509-9.331 10.509-14.384 0-1.395-.294-2.775-.992-4.061M2141.988 3375.341c-1.782-3.286-5.549-5.068-10.121-5.068-3.364 0-7.038.992-10.618 2.882-6.541 3.472-10.509 9.316-10.509 14.385 0 1.379.295 2.774.992 4.06 1.783 3.271 5.549 4.96 10.121 4.96 3.364 0 7.038-.883 10.618-2.774 6.541-3.472 10.509-9.331 10.509-14.384 0-1.395-.294-2.775-.992-4.061M2210.968 3338.141c-1.782-3.286-5.549-5.068-10.121-5.068-3.364 0-7.038.992-10.618 2.882-6.541 3.472-10.509 9.316-10.509 14.385 0 1.379.295 2.774.992 4.06 1.783 3.271 5.549 4.96 10.121 4.96 3.364 0 7.038-.883 10.618-2.774 6.541-3.472 10.509-9.331 10.509-14.384 0-1.395-.294-2.775-.992-4.061M822.793 3090.094c-1.782-3.27-5.549-5.053-10.121-5.053-3.364 0-7.038.992-10.618 2.868-6.541 3.472-10.509 9.331-10.509 14.384 0 1.395.295 2.79.992 4.077 1.783 3.285 5.549 4.975 10.121 4.975 3.364 0 7.038-.899 10.618-2.774 6.541-3.488 10.509-9.347 10.509-14.416 0-1.379-.294-2.774-.992-4.06m-4.262 6.742c-1.69 1.69-5.069 3.767-8.634 5.766-3.565 1.984-7.145 3.472-9.517 3.968-.496.109-.992.202-1.488.202-1.596 0-2.79-.59-3.472-1.891a3.212 3.212 0 01-.496-1.69c0-1.085.682-2.387 1.783-3.472 1.689-1.69 4.96-3.767 8.525-5.75 3.58-1.985 7.145-3.473 9.532-3.969.496-.108.992-.201 1.488-.201 1.581 0 2.868.589 3.565 1.875.295.496.403 1.101.403 1.69 0 1.1-.604 2.278-1.69 3.472M822.793 3040.494c-1.782-3.27-5.549-5.053-10.121-5.053-3.364 0-7.038.992-10.618 2.868-6.541 3.472-10.509 9.331-10.509 14.384 0 1.395.295 2.79.992 4.077 1.783 3.285 5.549 4.975 10.121 4.975 3.364 0 7.038-.899 10.618-2.774 6.541-3.488 10.509-9.347 10.509-14.416 0-1.379-.294-2.774-.992-4.06m-4.262 6.742c-1.69 1.69-5.069 3.767-8.634 5.766-3.565 1.984-7.145 3.472-9.517 3.968-.496.109-.992.202-1.488.202-1.596 0-2.79-.59-3.472-1.891a3.212 3.212 0 01-.496-1.69c0-1.085.682-2.387 1.783-3.472 1.689-1.69 4.96-3.767 8.525-5.75 3.58-1.985 7.145-3.473 9.532-3.969.496-.108.992-.201 1.488-.201 1.581 0 2.868.589 3.565 1.875.295.496.403 1.101.403 1.69 0 1.1-.604 2.278-1.69 3.472M1003.795 3090.094c-1.782-3.27-5.549-5.053-10.121-5.053-3.364 0-7.038.992-10.618 2.868-6.541 3.472-10.509 9.331-10.509 14.384 0 1.395.295 2.79.992 4.077 1.783 3.285 5.549 4.975 10.121 4.975 3.364 0 7.038-.899 10.618-2.774 6.541-3.488 10.509-9.347 10.509-14.416 0-1.379-.294-2.774-.992-4.06m-4.262 6.742c-1.69 1.69-5.069 3.767-8.634 5.766-3.565 1.984-7.145 3.472-9.517 3.968-.496.109-.992.202-1.488.202-1.596 0-2.79-.59-3.472-1.891a3.212 3.212 0 01-.496-1.69c0-1.085.682-2.387 1.783-3.472 1.689-1.69 4.96-3.767 8.525-5.75 3.58-1.985 7.145-3.473 9.532-3.969.496-.108.992-.201 1.488-.201 1.581 0 2.868.589 3.565 1.875.295.496.403 1.101.403 1.69 0 1.1-.604 2.278-1.69 3.472M1003.795 3003.294c-1.782-3.27-5.549-5.053-10.121-5.053-3.364 0-7.038.992-10.618 2.868-6.541 3.472-10.509 9.331-10.509 14.384 0 1.395.295 2.79.992 4.077 1.783 3.285 5.549 4.975 10.121 4.975 3.364 0 7.038-.899 10.618-2.774 6.541-3.488 10.509-9.347 10.509-14.416 0-1.379-.294-2.774-.992-4.06m-4.262 6.742c-1.69 1.69-5.069 3.767-8.634 5.766-3.565 1.984-7.145 3.472-9.517 3.968-.496.109-.992.202-1.488.202-1.596 0-2.79-.59-3.472-1.891a3.212 3.212 0 01-.496-1.69c0-1.085.682-2.387 1.783-3.472 1.689-1.69 4.96-3.767 8.525-5.75 3.58-1.985 7.145-3.473 9.532-3.969.496-.108.992-.201 1.488-.201 1.581 0 2.868.589 3.565 1.875.295.496.403 1.101.403 1.69 0 1.1-.604 2.278-1.69 3.472M946.83 3092.55c-1.247-2.3-3.884-3.548-7.084-3.548-2.355 0-4.926.694-7.433 2.018-4.578 2.43-7.356 6.52-7.356 10.069 0 .965.206 1.942.694 2.842 1.248 2.29 3.885 3.472 7.085 3.472 2.355 0 4.926-.618 7.433-1.942 4.578-2.43 7.356-6.531 7.356-10.069 0-.976-.206-1.942-.694-2.842M1139.598 3139.694c-1.782-3.27-5.549-5.053-10.121-5.053-3.364 0-7.038.992-10.618 2.868-6.541 3.472-10.509 9.331-10.509 14.384 0 1.395.295 2.79.992 4.077 1.783 3.285 5.549 4.975 10.121 4.975 3.364 0 7.038-.899 10.618-2.774 6.541-3.488 10.509-9.347 10.509-14.416 0-1.379-.294-2.774-.992-4.06m-4.262 6.742c-1.69 1.69-5.069 3.767-8.634 5.766-3.565 1.984-7.145 3.472-9.517 3.968-.496.109-.992.202-1.488.202-1.596 0-2.79-.59-3.472-1.891a3.212 3.212 0 01-.496-1.69c0-1.085.682-2.387 1.783-3.472 1.689-1.69 4.96-3.767 8.525-5.75 3.58-1.985 7.145-3.473 9.532-3.969.496-.108.992-.201 1.488-.201 1.581 0 2.868.589 3.565 1.875.295.496.403 1.101.403 1.69 0 1.1-.604 2.278-1.69 3.472"/><path class="Note" d="M1139.598 3114.894c-1.782-3.27-5.549-5.053-10.121-5.053-3.364 0-7.038.992-10.618 2.868-6.541 3.472-10.509 9.331-10.509 14.384 0 1.395.295 2.79.992 4.077 1.783 3.285 5.549 4.975 10.121 4.975 3.364 0 7.038-.899 10.618-2.774 6.541-3.488 10.509-9.347 10.509-14.416 0-1.379-.294-2.774-.992-4.06m-4.262 6.742c-1.69 1.69-5.069 3.767-8.634 5.766-3.565 1.984-7.145 3.472-9.517 3.968-.496.109-.992.202-1.488.202-1.596 0-2.79-.59-3.472-1.891a3.212 3.212 0 01-.496-1.69c0-1.085.682-2.387 1.783-3.472 1.689-1.69 4.96-3.767 8.525-5.75 3.58-1.985 7.145-3.473 9.532-3.969.496-.108.992-.201 1.488-.201 1.581 0 2.868.589 3.565 1.875.295.496.403 1.101.403 1.69 0 1.1-.604 2.278-1.69 3.472M1387.688 3164.541c-1.782-3.286-5.549-5.068-10.121-5.068-3.364 0-7.038.992-10.618 2.882-6.541 3.472-10.509 9.316-10.509 14.385 0 1.379.295 2.774.992 4.06 1.783 3.271 5.549 4.96 10.121 4.96 3.364 0 7.038-.883 10.618-2.774 6.541-3.472 10.509-9.331 10.509-14.384 0-1.395-.294-2.775-.992-4.061M1453.548 3114.941c-1.782-3.286-5.549-5.068-10.121-5.068-3.364 0-7.038.992-10.618 2.882-6.541 3.472-10.509 9.316-10.509 14.385 0 1.379.295 2.774.992 4.06 1.783 3.271 5.549 4.96 10.121 4.96 3.364 0 7.038-.883 10.618-2.774 6.541-3.472 10.509-9.331 10.509-14.384 0-1.395-.294-2.775-.992-4.061M1590.818 3176.894c-1.782-3.27-5.549-5.053-10.121-5.053-3.364 0-7.038.992-10.618 2.868-6.541 3.472-10.509 9.331-10.509 14.384 0 1.395.295 2.79.992 4.077 1.783 3.285 5.549 4.975 10.121 4.975 3.364 0 7.038-.899 10.618-2.774 6.541-3.488 10.509-9.347 10.509-14.416 0-1.379-.294-2.774-.992-4.06m-4.262 6.742c-1.69 1.69-5.069 3.767-8.634 5.766-3.565 1.984-7.145 3.472-9.517 3.968-.496.109-.992.202-1.488.202-1.596 0-2.79-.59-3.472-1.891a3.212 3.212 0 01-.496-1.69c0-1.085.682-2.387 1.783-3.472 1.689-1.69 4.96-3.767 8.525-5.75 3.58-1.985 7.145-3.473 9.532-3.969.496-.108.992-.201 1.488-.201 1.581 0 2.868.589 3.565 1.875.295.496.403 1.101.403 1.69 0 1.1-.604 2.278-1.69 3.472M1590.818 3102.494c-1.782-3.27-5.549-5.053-10.121-5.053-3.364 0-7.038.992-10.618 2.868-6.541 3.472-10.509 9.331-10.509 14.384 0 1.395.295 2.79.992 4.077 1.783 3.285 5.549 4.975 10.121 4.975 3.364 0 7.038-.899 10.618-2.774 6.541-3.488 10.509-9.347 10.509-14.416 0-1.379-.294-2.774-.992-4.06m-4.262 6.742c-1.69 1.69-5.069 3.767-8.634 5.766-3.565 1.984-7.145 3.472-9.517 3.968-.496.109-.992.202-1.488.202-1.596 0-2.79-.59-3.472-1.891a3.212 3.212 0 01-.496-1.69c0-1.085.682-2.387 1.783-3.472 1.689-1.69 4.96-3.767 8.525-5.75 3.58-1.985 7.145-3.473 9.532-3.969.496-.108.992-.201 1.488-.201 1.581 0 2.868.589 3.565 1.875.295.496.403 1.101.403 1.69 0 1.1-.604 2.278-1.69 3.472M1927.938 3139.741c-1.782-3.286-5.549-5.068-10.121-5.068-3.364 0-7.038.992-10.618 2.882-6.541 3.472-10.509 9.316-10.509 14.385 0 1.379.295 2.774.992 4.06 1.783 3.271 5.549 4.96 10.121 4.96 3.364 0 7.038-.883 10.618-2.774 6.541-3.472 10.509-9.331 10.509-14.384 0-1.395-.294-2.775-.992-4.061M2072.998 3176.941c-1.782-3.286-5.549-5.068-10.121-5.068-3.364 0-7.038.992-10.618 2.882-6.541 3.472-10.509 9.316-10.509 14.385 0 1.379.295 2.774.992 4.06 1.783 3.271 5.549 4.96 10.121 4.96 3.364 0 7.038-.883 10.618-2.774 6.541-3.472 10.509-9.331 10.509-14.384 0-1.395-.294-2.775-.992-4.061"/><path class="Note" d="M2072.998 3152.141c-1.782-3.286-5.549-5.068-10.121-5.068-3.364 0-7.038.992-10.618 2.882-6.541 3.472-10.509 9.316-10.509 14.385 0 1.379.295 2.774.992 4.06 1.783 3.271 5.549 4.96 10.121 4.96 3.364 0 7.038-.883 10.618-2.774 6.541-3.472 10.509-9.331 10.509-14.384 0-1.395-.294-2.775-.992-4.061"/><path class="Note" d="M2072.998 3127.341c-1.782-3.286-5.549-5.068-10.121-5.068-3.364 0-7.038.992-10.618 2.882-6.541 3.472-10.509 9.316-10.509 14.385 0 1.379.295 2.774.992 4.06 1.783 3.271 5.549 4.96 10.121 4.96 3.364 0 7.038-.883 10.618-2.774 6.541-3.472 10.509-9.331 10.509-14.384 0-1.395-.294-2.775-.992-4.061M2269.488 3214.141c-1.782-3.286-5.549-5.068-10.121-5.068-3.364 0-7.038.992-10.618 2.882-6.541 3.472-10.509 9.316-10.509 14.385 0 1.379.295 2.774.992 4.06 1.783 3.271 5.549 4.96 10.121 4.96 3.364 0 7.038-.883 10.618-2.774 6.541-3.472 10.509-9.331 10.509-14.384 0-1.395-.294-2.775-.992-4.061M2328.008 3176.941c-1.782-3.286-5.549-5.068-10.121-5.068-3.364 0-7.038.992-10.618 2.882-6.541 3.472-10.509 9.316-10.509 14.385 0 1.379.295 2.774.992 4.06 1.783 3.271 5.549 4.96 10.121 4.96 3.364 0 7.038-.883 10.618-2.774 6.541-3.472 10.509-9.331 10.509-14.384 0-1.395-.294-2.775-.992-4.061M2386.528 3152.141c-1.782-3.286-5.549-5.068-10.121-5.068-3.364 0-7.038.992-10.618 2.882-6.541 3.472-10.509 9.316-10.509 14.385 0 1.379.295 2.774.992 4.06 1.783 3.271 5.549 4.96 10.121 4.96 3.364 0 7.038-.883 10.618-2.774 6.541-3.472 10.509-9.331 10.509-14.384 0-1.395-.294-2.775-.992-4.061M2445.048 3127.341c-1.782-3.286-5.549-5.068-10.121-5.068-3.364 0-7.038.992-10.618 2.882-6.541 3.472-10.509 9.316-10.509 14.385 0 1.379.295 2.774.992 4.06 1.783 3.271 5.549 4.96 10.121 4.96 3.364 0 7.038-.883 10.618-2.774 6.541-3.472 10.509-9.331 10.509-14.384 0-1.395-.294-2.775-.992-4.061M2503.568 3065.341c-1.782-3.286-5.549-5.068-10.121-5.068-3.364 0-7.038.992-10.618 2.882-6.541 3.472-10.509 9.316-10.509 14.385 0 1.379.295 2.774.992 4.06 1.783 3.271 5.549 4.96 10.121 4.96 3.364 0 7.038-.883 10.618-2.774 6.541-3.472 10.509-9.331 10.509-14.384 0-1.395-.294-2.775-.992-4.061M2572.548 3090.141c-1.782-3.286-5.549-5.068-10.121-5.068-3.364 0-7.038.992-10.618 2.882-6.541 3.472-10.509 9.316-10.509 14.385 0 1.379.295 2.774.992 4.06 1.783 3.271 5.549 4.96 10.121 4.96 3.364 0 7.038-.883 10.618-2.774 6.541-3.472 10.509-9.331 10.509-14.384 0-1.395-.294-2.775-.992-4.061M2631.068 3114.941c-1.782-3.286-5.549-5.068-10.121-5.068-3.364 0-7.038.992-10.618 2.882-6.541 3.472-10.509 9.316-10.509 14.385 0 1.379.295 2.774.992 4.06 1.783 3.271 5.549 4.96 10.121 4.96 3.364 0 7.038-.883 10.618-2.774 6.541-3.472 10.509-9.331 10.509-14.384 0-1.395-.294-2.775-.992-4.061M2696.928 3065.341c-1.782-3.286-5.549-5.068-10.121-5.068-3.364 0-7.038.992-10.618 2.882-6.541 3.472-10.509 9.316-10.509 14.385 0 1.379.295 2.774.992 4.06 1.783 3.271 5.549 4.96 10.121 4.96 3.364 0 7.038-.883 10.618-2.774 6.541-3.472 10.509-9.331 10.509-14.384 0-1.395-.294-2.775-.992-4.061"/><path class="Clef" d="M594.345 3308.877c-7.548 0-13.594 4.356-13.702 4.356-5.75 4.262-8.029 9.33-8.928 12.802-.496 1.783-.682 3.565-.682 5.255 0 2.387.388 4.557 1.287 6.448 1.193 2.682 3.472 4.557 6.448 5.549 1.193.403 2.48.604 3.766.604 2.185 0 4.464-.604 6.355-1.689 3.069-1.69 4.96-5.254 4.96-9.13 0-3.472-1.798-6.649-4.774-8.525-2.077-1.394-4.061-1.782-5.75-1.782-1.194 0-2.279.186-3.178.496-.992.388-2.666 1.38-3.472 2.077.31-1.891 1.488-4.759 2.588-6.355 1.086-1.581 3.271-3.565 4.96-4.464 2.48-1.38 5.658-1.984 9.13-1.984 10.122 0 15.082 8.138 15.082 24.8 0 9.238-3.472 18.058-6.448 23.917-3.286 6.54-7.642 12.803-11.517 16.275-10.323 9.424-20.041 13.888-20.134 13.888 0 0-1.489.883-1.101 2.371.31.992 1.194 1.194 1.798 1.194.093 0 .388-.093.496-.093.093 0 11.408-4.666 20.429-11.718 5.069-3.658 9.626-7.626 13.594-11.904a73.558 73.558 0 009.13-12.199c4.355-7.44 6.835-15.175 6.835-21.824 0-8.23-2.17-15.081-6.247-19.933-4.665-5.564-11.702-8.432-20.925-8.432m31.14 12.586c0 2.79 2.185 4.96 4.774 4.96 2.573 0 4.758-2.17 4.758-4.96 0-2.774-2.185-5.053-4.758-5.053-2.589 0-4.774 2.279-4.774 5.053m0 24.506c0 2.774 2.185 5.068 4.774 5.068 2.573 0 4.758-2.294 4.758-5.068 0-2.775-2.185-5.053-4.758-5.053-2.589 0-4.774 2.278-4.774 5.053M631.995 3117.095c-1.225-5.378-3.844-9.176-4.62-10.198-3.161-4.248-7.145-7.068-11.795-8.417-3.084-.868-6.06-.992-8.463-.806a2314.148 2314.148 0 01-2.93-17.205c5.41-6.123 9.006-11.873 11.269-16.136 3.441-6.525 4.573-11.067 4.635-11.268 1.705-5.177 2.061-12.819.96-20.956-.991-7.487-3.068-14.151-5.409-17.375-1.007-1.41-2.061-2.14-3.084-2.14-1.21 0-3.705 1.225-6.572 3.984-2.279 2.17-5.518 6.03-8.06 11.997-2.976 7.006-3.193 16.414-2.837 23.08.372 7.222 1.473 12.864 1.488 12.91.016.094.279 1.582.713 4.124-.217.232-.465.45-.713.697-1.023.992-2.201 2.108-3.58 3.488-.853.852-1.798 1.751-2.79 2.712-8.37 8.076-21.065 20.305-21.065 39.308 0 4.666.899 9.053 2.666 13.036 1.566 3.565 3.844 6.82 6.758 9.672 7.673 7.502 18.182 10.68 25.172 10.525 2.93-.078 5.55-.31 7.92-.76 1.814 9.533 2.946 16.508 2.977 21.809.046 6.463-1.597 10.416-5.456 13.16-2.418 1.72-5.208 2.665-8.277 2.805-2.573.124-4.82-.341-6.231-.744h-.016s-.279-.093-.294-.28c-.016-.185.34-.232.34-.232h.032c1.906-.434 5.44-1.658 7.78-4.929 1.783-2.51 2.651-7.099.822-11.005-1.1-2.371-3.58-5.301-9.16-5.75-2.48-.202-4.728.31-6.712 1.503-1.798 1.07-3.286 2.697-4.324 4.681-2.434 4.666-1.984 10.354 1.116 14.167 2.944 3.596 7.517 5.89 12.911 6.464.853.093 1.69.124 2.527.124 4.402 0 8.757-1.194 12.307-3.38 3.627-2.557 5.735-6.51 6.401-12.09.558-4.603.17-10.477-1.209-18.49-.356-2.078-.899-5.085-1.55-8.805 5.704-1.906 9.827-5.456 13.563-11.268 3.27-5.689 4.2-11.75 2.79-18.012m-33.945 26.01c-4.604-1.21-9.006-3.69-12.726-7.177-1.302-1.209-3.162-3.363-4.619-6.727-1.348-3.146-2.015-6.557-1.953-10.106.062-4.666 1.364-9.455 3.844-14.198 2.899-5.534 7.425-11.02 13.439-16.306a89.206 89.206 0 004.076-3.813c.76 4.231 1.581 8.881 2.449 13.717-3.813 1.256-8.525 4.387-11.61 9.998-3.518 6.51-3.379 11.997-2.65 15.454.93 4.417 3.441 8.153 6.867 10.23.93.558 5.022 2.666 6.85 2.092a1.16 1.16 0 00.776-.666c.511-1.163-.512-1.798-2.046-2.744a27.274 27.274 0 01-1.984-1.317c-3.302-2.465-4.743-6.882-3.674-11.238a12.436 12.436 0 013.674-6.216c1.643-1.534 3.673-2.62 6.029-3.255 2.03 11.16 4.077 22.228 5.704 30.52.124.682.264 1.348.388 2.015-4.34.93-8.65.837-12.834-.263m11.237-32.938c10.261-.465 14.493 6.913 15.376 11.702.465 2.527.465 6.929-1.07 11.114-1.162 3.146-3.595 7.192-8.695 9.238-.062-.418-.14-.852-.217-1.271-1.534-8.711-3.456-19.623-5.394-30.783m-7.27-70.386c1.768-5.688 4.48-8.912 6.464-10.633 1.736-1.503 3.364-2.216 4.278-2.216.14 0 .264.03.357.062.465.14.992.697 1.457 1.565 2.294 4.247 1.55 10.912.217 15.314-1.612 5.363-4.51 10.928-13.237 20.46-.171-1.1-.326-2.139-.481-3.115-1.24-8.215-.914-15.438.946-21.437M594.345 2644.377c-7.548 0-13.594 4.356-13.702 4.356-5.75 4.262-8.029 9.33-8.928 12.802-.496 1.783-.682 3.565-.682 5.255 0 2.387.388 4.557 1.287 6.448 1.193 2.682 3.472 4.557 6.448 5.549 1.193.403 2.48.604 3.766.604 2.185 0 4.464-.604 6.355-1.689 3.069-1.69 4.96-5.254 4.96-9.13 0-3.472-1.798-6.649-4.774-8.525-2.077-1.394-4.061-1.782-5.75-1.782-1.194 0-2.279.186-3.178.496-.992.388-2.666 1.38-3.472 2.077.31-1.891 1.488-4.759 2.588-6.355 1.086-1.581 3.271-3.565 4.96-4.464 2.48-1.38 5.658-1.984 9.13-1.984 10.122 0 15.082 8.138 15.082 24.8 0 9.238-3.472 18.058-6.448 23.917-3.286 6.54-7.642 12.803-11.517 16.275-10.323 9.424-20.041 13.888-20.134 13.888 0 0-1.489.883-1.101 2.371.31.992 1.194 1.194 1.798 1.194.093 0 .388-.093.496-.093.093 0 11.408-4.666 20.429-11.718 5.069-3.658 9.626-7.626 13.594-11.904a73.558 73.558 0 009.13-12.199c4.355-7.44 6.835-15.175 6.835-21.824 0-8.23-2.17-15.081-6.247-19.933-4.665-5.564-11.702-8.432-20.925-8.432m31.14 12.586c0 2.79 2.185 4.96 4.774 4.96 2.573 0 4.758-2.17 4.758-4.96 0-2.774-2.185-5.053-4.758-5.053-2.589 0-4.774 2.279-4.774 5.053m0 24.506c0 2.774 2.185 5.068 4.774 5.068 2.573 0 4.758-2.294 4.758-5.068 0-2.775-2.185-5.053-4.758-5.053-2.589 0-4.774 2.278-4.774 5.053M594.345 2267.997c-7.548 0-13.594 4.356-13.702 4.356-5.75 4.262-8.029 9.33-8.928 12.802-.496 1.783-.682 3.565-.682 5.255 0 2.387.388 4.557 1.287 6.448 1.193 2.682 3.472 4.557 6.448 5.549 1.193.403 2.48.604 3.766.604 2.185 0 4.464-.604 6.355-1.689 3.069-1.69 4.96-5.254 4.96-9.13 0-3.472-1.798-6.649-4.774-8.525-2.077-1.394-4.061-1.782-5.75-1.782-1.194 0-2.279.186-3.178.496-.992.388-2.666 1.38-3.472 2.077.31-1.891 1.488-4.759 2.588-6.355 1.086-1.581 3.271-3.565 4.96-4.464 2.48-1.38 5.658-1.984 9.13-1.984 10.122 0 15.082 8.138 15.082 24.8 0 9.238-3.472 18.058-6.448 23.917-3.286 6.54-7.642 12.803-11.517 16.275-10.323 9.424-20.041 13.888-20.134 13.888 0 0-1.489.883-1.101 2.371.31.992 1.194 1.194 1.798 1.194.093 0 .388-.093.496-.093.093 0 11.408-4.666 20.429-11.718 5.069-3.658 9.626-7.626 13.594-11.904a73.558 73.558 0 009.13-12.199c4.355-7.44 6.835-15.175 6.835-21.824 0-8.23-2.17-15.081-6.247-19.933-4.665-5.564-11.702-8.432-20.925-8.432m31.14 12.586c0 2.79 2.185 4.96 4.774 4.96 2.573 0 4.758-2.17 4.758-4.96 0-2.774-2.185-5.053-4.758-5.053-2.589 0-4.774 2.279-4.774 5.053m0 24.506c0 2.774 2.185 5.068 4.774 5.068 2.573 0 4.758-2.294 4.758-5.068 0-2.775-2.185-5.053-4.758-5.053-2.589 0-4.774 2.278-4.774 5.053M594.345 1891.617c-7.548 0-13.594 4.356-13.702 4.356-5.75 4.262-8.029 9.33-8.928 12.802-.496 1.783-.682 3.565-.682 5.255 0 2.387.388 4.557 1.287 6.448 1.193 2.682 3.472 4.557 6.448 5.549 1.193.403 2.48.604 3.766.604 2.185 0 4.464-.604 6.355-1.689 3.069-1.69 4.96-5.254 4.96-9.13 0-3.472-1.798-6.649-4.774-8.525-2.077-1.394-4.061-1.782-5.75-1.782-1.194 0-2.279.186-3.178.496-.992.388-2.666 1.38-3.472 2.077.31-1.891 1.488-4.759 2.588-6.355 1.086-1.581 3.271-3.565 4.96-4.464 2.48-1.38 5.658-1.984 9.13-1.984 10.122 0 15.082 8.138 15.082 24.8 0 9.238-3.472 18.058-6.448 23.917-3.286 6.54-7.642 12.803-11.517 16.275-10.323 9.424-20.041 13.888-20.134 13.888 0 0-1.489.883-1.101 2.371.31.992 1.194 1.194 1.798 1.194.093 0 .388-.093.496-.093.093 0 11.408-4.666 20.429-11.718 5.069-3.658 9.626-7.626 13.594-11.904a73.558 73.558 0 009.13-12.199c4.355-7.44 6.835-15.175 6.835-21.824 0-8.23-2.17-15.081-6.247-19.933-4.665-5.564-11.702-8.432-20.925-8.432m31.14 12.586c0 2.79 2.185 4.96 4.774 4.96 2.573 0 4.758-2.17 4.758-4.96 0-2.774-2.185-5.053-4.758-5.053-2.589 0-4.774 2.279-4.774 5.053m0 24.506c0 2.774 2.185 5.068 4.774 5.068 2.573 0 4.758-2.294 4.758-5.068 0-2.775-2.185-5.053-4.758-5.053-2.589 0-4.774 2.278-4.774 5.053M594.345 1515.247c-7.548 0-13.594 4.356-13.702 4.356-5.75 4.262-8.029 9.33-8.928 12.802-.496 1.783-.682 3.565-.682 5.255 0 2.387.388 4.557 1.287 6.448 1.193 2.682 3.472 4.557 6.448 5.549 1.193.403 2.48.604 3.766.604 2.185 0 4.464-.604 6.355-1.689 3.069-1.69 4.96-5.254 4.96-9.13 0-3.472-1.798-6.649-4.774-8.525-2.077-1.394-4.061-1.782-5.75-1.782-1.194 0-2.279.186-3.178.496-.992.388-2.666 1.38-3.472 2.077.31-1.891 1.488-4.759 2.588-6.355 1.086-1.581 3.271-3.565 4.96-4.464 2.48-1.38 5.658-1.984 9.13-1.984 10.122 0 15.082 8.138 15.082 24.8 0 9.238-3.472 18.058-6.448 23.917-3.286 6.54-7.642 12.803-11.517 16.275-10.323 9.424-20.041 13.888-20.134 13.888 0 0-1.489.883-1.101 2.371.31.992 1.194 1.194 1.798 1.194.093 0 .388-.093.496-.093.093 0 11.408-4.666 20.429-11.718 5.069-3.658 9.626-7.626 13.594-11.904a73.558 73.558 0 009.13-12.199c4.355-7.44 6.835-15.175 6.835-21.824 0-8.23-2.17-15.081-6.247-19.933-4.665-5.564-11.702-8.432-20.925-8.432m31.14 12.586c0 2.79 2.185 4.96 4.774 4.96 2.573 0 4.758-2.17 4.758-4.96 0-2.774-2.185-5.053-4.758-5.053-2.589 0-4.774 2.279-4.774 5.053m0 24.506c0 2.774 2.185 5.068 4.774 5.068 2.573 0 4.758-2.294 4.758-5.068 0-2.775-2.185-5.053-4.758-5.053-2.589 0-4.774 2.278-4.774 5.053M594.345 1138.867c-7.548 0-13.594 4.356-13.702 4.356-5.75 4.262-8.029 9.33-8.928 12.802-.496 1.783-.682 3.565-.682 5.255 0 2.387.388 4.557 1.287 6.448 1.193 2.682 3.472 4.557 6.448 5.549 1.193.403 2.48.604 3.766.604 2.185 0 4.464-.604 6.355-1.689 3.069-1.69 4.96-5.254 4.96-9.13 0-3.472-1.798-6.649-4.774-8.525-2.077-1.394-4.061-1.782-5.75-1.782-1.194 0-2.279.186-3.178.496-.992.388-2.666 1.38-3.472 2.077.31-1.891 1.488-4.759 2.588-6.355 1.086-1.581 3.271-3.565 4.96-4.464 2.48-1.38 5.658-1.984 9.13-1.984 10.122 0 15.082 8.138 15.082 24.8 0 9.238-3.472 18.058-6.448 23.917-3.286 6.54-7.642 12.803-11.517 16.275-10.323 9.424-20.041 13.888-20.134 13.888 0 0-1.489.883-1.101 2.371.31.992 1.194 1.194 1.798 1.194.093 0 .388-.093.496-.093.093 0 11.408-4.666 20.429-11.718 5.069-3.658 9.626-7.626 13.594-11.904a73.558 73.558 0 009.13-12.199c4.355-7.44 6.835-15.175 6.835-21.824 0-8.23-2.17-15.081-6.247-19.933-4.665-5.564-11.702-8.432-20.925-8.432m31.14 12.586c0 2.79 2.185 4.96 4.774 4.96 2.573 0 4.758-2.17 4.758-4.96 0-2.774-2.185-5.053-4.758-5.053-2.589 0-4.774 2.279-4.774 5.053m0 24.506c0 2.774 2.185 5.068 4.774 5.068 2.573 0 4.758-2.294 4.758-5.068 0-2.775-2.185-5.053-4.758-5.053-2.589 0-4.774 2.278-4.774 5.053M631.995 831.103c-1.225-5.378-3.844-9.176-4.62-10.198-3.161-4.248-7.145-7.068-11.795-8.417-3.084-.868-6.06-.992-8.463-.806a2314.148 2314.148 0 01-2.93-17.205c5.41-6.123 9.006-11.873 11.269-16.136 3.441-6.525 4.573-11.067 4.635-11.268 1.705-5.177 2.061-12.819.96-20.956-.991-7.487-3.068-14.151-5.409-17.375-1.007-1.41-2.061-2.14-3.084-2.14-1.21 0-3.705 1.225-6.572 3.984-2.279 2.17-5.518 6.03-8.06 11.997-2.976 7.006-3.193 16.414-2.837 23.08.372 7.222 1.473 12.864 1.488 12.91.016.094.279 1.582.713 4.124-.217.232-.465.45-.713.697-1.023.992-2.201 2.108-3.58 3.488-.853.852-1.798 1.751-2.79 2.712-8.37 8.076-21.065 20.305-21.065 39.308 0 4.666.899 9.053 2.666 13.036 1.566 3.565 3.844 6.82 6.758 9.672 7.673 7.502 18.182 10.68 25.172 10.525 2.93-.078 5.55-.31 7.92-.76 1.814 9.533 2.946 16.508 2.977 21.809.046 6.463-1.597 10.416-5.456 13.16-2.418 1.72-5.208 2.665-8.277 2.805-2.573.124-4.82-.341-6.231-.744h-.016s-.279-.093-.294-.28c-.016-.185.34-.232.34-.232h.032c1.906-.434 5.44-1.658 7.78-4.929 1.783-2.51 2.651-7.099.822-11.005-1.1-2.371-3.58-5.301-9.16-5.75-2.48-.202-4.728.31-6.712 1.503-1.798 1.07-3.286 2.697-4.324 4.681-2.434 4.666-1.984 10.354 1.116 14.167 2.944 3.596 7.517 5.89 12.911 6.464.853.093 1.69.124 2.527.124 4.402 0 8.757-1.194 12.307-3.38 3.627-2.557 5.735-6.51 6.401-12.09.558-4.603.17-10.477-1.209-18.49-.356-2.078-.899-5.085-1.55-8.805 5.704-1.906 9.827-5.456 13.563-11.268 3.27-5.689 4.2-11.75 2.79-18.012m-33.945 26.01c-4.604-1.21-9.006-3.69-12.726-7.177-1.302-1.209-3.162-3.363-4.619-6.727-1.348-3.146-2.015-6.557-1.953-10.106.062-4.666 1.364-9.455 3.844-14.198 2.899-5.534 7.425-11.02 13.439-16.306a89.206 89.206 0 004.076-3.813c.76 4.231 1.581 8.881 2.449 13.717-3.813 1.256-8.525 4.387-11.61 9.998-3.518 6.51-3.379 11.997-2.65 15.454.93 4.417 3.441 8.153 6.867 10.23.93.558 5.022 2.666 6.85 2.092a1.16 1.16 0 00.776-.666c.511-1.163-.512-1.798-2.046-2.744a27.274 27.274 0 01-1.984-1.317c-3.302-2.465-4.743-6.882-3.674-11.238a12.436 12.436 0 013.674-6.216c1.643-1.534 3.673-2.62 6.029-3.255 2.03 11.16 4.077 22.228 5.704 30.52.124.682.264 1.348.388 2.015-4.34.93-8.65.837-12.834-.263m11.237-32.938c10.261-.465 14.493 6.913 15.376 11.702.465 2.527.465 6.929-1.07 11.114-1.162 3.146-3.595 7.192-8.695 9.238-.062-.418-.14-.852-.217-1.271-1.534-8.711-3.456-19.623-5.394-30.783m-7.27-70.386c1.768-5.688 4.48-8.912 6.464-10.633 1.736-1.503 3.364-2.216 4.278-2.216.14 0 .264.03.357.062.465.14.992.697 1.457 1.565 2.294 4.247 1.55 10.912.217 15.314-1.612 5.363-4.51 10.928-13.237 20.46-.171-1.1-.326-2.139-.481-3.115-1.24-8.215-.914-15.438.946-21.437M631.995 454.724c-1.225-5.378-3.844-9.176-4.62-10.198-3.161-4.248-7.145-7.068-11.795-8.417-3.084-.868-6.06-.992-8.463-.806a2314.148 2314.148 0 01-2.93-17.205c5.41-6.123 9.006-11.873 11.269-16.136 3.441-6.525 4.573-11.067 4.635-11.268 1.705-5.177 2.061-12.819.96-20.956-.991-7.487-3.068-14.151-5.409-17.375-1.007-1.41-2.061-2.14-3.084-2.14-1.21 0-3.705 1.225-6.572 3.984-2.279 2.17-5.518 6.03-8.06 11.997-2.976 7.006-3.193 16.414-2.837 23.08.372 7.222 1.473 12.864 1.488 12.91.016.094.279 1.582.713 4.124-.217.232-.465.45-.713.697-1.023.992-2.201 2.108-3.58 3.488-.853.852-1.798 1.751-2.79 2.712-8.37 8.076-21.065 20.305-21.065 39.308 0 4.666.899 9.053 2.666 13.036 1.566 3.565 3.844 6.82 6.758 9.672 7.673 7.502 18.182 10.68 25.172 10.525 2.93-.078 5.55-.31 7.92-.76 1.814 9.533 2.946 16.508 2.977 21.809.046 6.463-1.597 10.416-5.456 13.16-2.418 1.72-5.208 2.665-8.277 2.805-2.573.124-4.82-.341-6.231-.744h-.016s-.279-.093-.294-.28c-.016-.185.34-.232.34-.232h.032c1.906-.434 5.44-1.658 7.78-4.929 1.783-2.51 2.651-7.099.822-11.005-1.1-2.371-3.58-5.301-9.16-5.75-2.48-.202-4.728.31-6.712 1.503-1.798 1.07-3.286 2.697-4.324 4.681-2.434 4.666-1.984 10.354 1.116 14.167 2.944 3.596 7.517 5.89 12.911 6.464.853.093 1.69.124 2.527.124 4.402 0 8.757-1.194 12.307-3.38 3.627-2.557 5.735-6.51 6.401-12.09.558-4.603.17-10.477-1.209-18.49-.356-2.078-.899-5.085-1.55-8.805 5.704-1.906 9.827-5.456 13.563-11.268 3.27-5.689 4.2-11.75 2.79-18.012m-33.945 26.01c-4.604-1.21-9.006-3.69-12.726-7.177-1.302-1.209-3.162-3.363-4.619-6.727-1.348-3.146-2.015-6.557-1.953-10.106.062-4.666 1.364-9.455 3.844-14.198 2.899-5.534 7.425-11.02 13.439-16.306a89.206 89.206 0 004.076-3.813c.76 4.231 1.581 8.881 2.449 13.717-3.813 1.256-8.525 4.387-11.61 9.998-3.518 6.51-3.379 11.997-2.65 15.454.93 4.417 3.441 8.153 6.867 10.23.93.558 5.022 2.666 6.85 2.092a1.16 1.16 0 00.776-.666c.511-1.163-.512-1.798-2.046-2.744a27.274 27.274 0 01-1.984-1.317c-3.302-2.465-4.743-6.882-3.674-11.238a12.436 12.436 0 013.674-6.216c1.643-1.534 3.673-2.62 6.029-3.255 2.03 11.16 4.077 22.228 5.704 30.52.124.682.264 1.348.388 2.015-4.34.93-8.65.837-12.834-.263m11.237-32.938c10.261-.465 14.493 6.913 15.376 11.702.465 2.527.465 6.929-1.07 11.114-1.162 3.146-3.595 7.192-8.695 9.238-.062-.418-.14-.852-.217-1.271-1.534-8.711-3.456-19.623-5.394-30.783m-7.27-70.386c1.768-5.688 4.48-8.912 6.464-10.633 1.736-1.503 3.364-2.216 4.278-2.216.14 0 .264.03.357.062.465.14.992.697 1.457 1.565 2.294 4.247 1.55 10.912.217 15.314-1.612 5.363-4.51 10.928-13.237 20.46-.171-1.1-.326-2.139-.481-3.115-1.24-8.215-.914-15.438.946-21.437"/><path class="KeySig" d="M729.343 3387.927c-.589-3.86-2.976-7.533-8.029-7.533-4.96 0-7.843 3.069-8.339 3.673l.403-31.852c0-.79-.589-1.38-1.395-1.38h-1.178c-.806 0-1.395.59-1.395 1.38l.496 59.628c0 .791.589 1.38 1.395 1.38.186 0 .589-.093.79-.186.388-.202 6.836-3.379 12.199-9.424 3.767-4.278 5.255-9.13 5.255-13.206 0-.884-.094-1.674-.202-2.48m-6.836 3.875c0 1.488-.402 6.045-2.882 9.827-1.69 2.573-5.053 5.254-6.944 6.742l.294-19.344c.202-.899 1.69-3.766 5.658-3.766 3.58 0 3.874 3.363 3.874 5.456v1.085M704.543 3338.327c-.589-3.86-2.976-7.533-8.029-7.533-4.96 0-7.843 3.069-8.339 3.673l.403-31.852c0-.79-.589-1.38-1.395-1.38h-1.178c-.806 0-1.395.59-1.395 1.38l.496 59.628c0 .791.589 1.38 1.395 1.38.186 0 .589-.093.79-.186.388-.202 6.836-3.379 12.199-9.424 3.767-4.278 5.255-9.13 5.255-13.206 0-.884-.094-1.674-.202-2.48m-6.836 3.875c0 1.488-.402 6.045-2.882 9.827-1.69 2.573-5.053 5.254-6.944 6.742l.294-19.344c.202-.899 1.69-3.766 5.658-3.766 3.58 0 3.874 3.363 3.874 5.456v1.085M679.743 3375.527c-.589-3.86-2.976-7.533-8.029-7.533-4.96 0-7.843 3.069-8.339 3.673l.403-31.852c0-.79-.589-1.38-1.395-1.38h-1.178c-.806 0-1.395.59-1.395 1.38l.496 59.628c0 .791.589 1.38 1.395 1.38.186 0 .589-.093.79-.186.388-.202 6.836-3.379 12.199-9.424 3.767-4.278 5.255-9.13 5.255-13.206 0-.884-.094-1.674-.202-2.48m-6.836 3.875c0 1.488-.402 6.045-2.882 9.827-1.69 2.573-5.053 5.254-6.944 6.742l.294-19.344c.202-.899 1.69-3.766 5.658-3.766 3.58 0 3.874 3.363 3.874 5.456v1.085M729.343 3102.727c-.589-3.86-2.976-7.533-8.029-7.533-4.96 0-7.843 3.069-8.339 3.673l.403-31.852c0-.79-.589-1.38-1.395-1.38h-1.178c-.806 0-1.395.59-1.395 1.38l.496 59.628c0 .791.589 1.38 1.395 1.38.186 0 .589-.093.79-.186.388-.202 6.836-3.379 12.199-9.424 3.767-4.278 5.255-9.13 5.255-13.206 0-.884-.094-1.674-.202-2.48m-6.836 3.875c0 1.488-.402 6.045-2.882 9.827-1.69 2.573-5.053 5.254-6.944 6.742l.294-19.344c.202-.899 1.69-3.766 5.658-3.766 3.58 0 3.874 3.363 3.874 5.456v1.085M704.543 3053.127c-.589-3.86-2.976-7.533-8.029-7.533-4.96 0-7.843 3.069-8.339 3.673l.403-31.852c0-.79-.589-1.38-1.395-1.38h-1.178c-.806 0-1.395.59-1.395 1.38l.496 59.628c0 .791.589 1.38 1.395 1.38.186 0 .589-.093.79-.186.388-.202 6.836-3.379 12.199-9.424 3.767-4.278 5.255-9.13 5.255-13.206 0-.884-.094-1.674-.202-2.48m-6.836 3.875c0 1.488-.402 6.045-2.882 9.827-1.69 2.573-5.053 5.254-6.944 6.742l.294-19.344c.202-.899 1.69-3.766 5.658-3.766 3.58 0 3.874 3.363 3.874 5.456v1.085M679.743 3090.327c-.589-3.86-2.976-7.533-8.029-7.533-4.96 0-7.843 3.069-8.339 3.673l.403-31.852c0-.79-.589-1.38-1.395-1.38h-1.178c-.806 0-1.395.59-1.395 1.38l.496 59.628c0 .791.589 1.38 1.395 1.38.186 0 .589-.093.79-.186.388-.202 6.836-3.379 12.199-9.424 3.767-4.278 5.255-9.13 5.255-13.206 0-.884-.094-1.674-.202-2.48m-6.836 3.875c0 1.488-.402 6.045-2.882 9.827-1.69 2.573-5.053 5.254-6.944 6.742l.294-19.344c.202-.899 1.69-3.766 5.658-3.766 3.58 0 3.874 3.363 3.874 5.456v1.085M729.343 2723.427c-.589-3.86-2.976-7.533-8.029-7.533-4.96 0-7.843 3.069-8.339 3.673l.403-31.852c0-.79-.589-1.38-1.395-1.38h-1.178c-.806 0-1.395.59-1.395 1.38l.496 59.628c0 .791.589 1.38 1.395 1.38.186 0 .589-.093.79-.186.388-.202 6.836-3.379 12.199-9.424 3.767-4.278 5.255-9.13 5.255-13.206 0-.884-.094-1.674-.202-2.48m-6.836 3.875c0 1.488-.402 6.045-2.882 9.827-1.69 2.573-5.053 5.254-6.944 6.742l.294-19.344c.202-.899 1.69-3.766 5.658-3.766 3.58 0 3.874 3.363 3.874 5.456v1.085M704.543 2673.827c-.589-3.86-2.976-7.533-8.029-7.533-4.96 0-7.843 3.069-8.339 3.673l.403-31.852c0-.79-.589-1.38-1.395-1.38h-1.178c-.806 0-1.395.59-1.395 1.38l.496 59.628c0 .791.589 1.38 1.395 1.38.186 0 .589-.093.79-.186.388-.202 6.836-3.379 12.199-9.424 3.767-4.278 5.255-9.13 5.255-13.206 0-.884-.094-1.674-.202-2.48m-6.836 3.875c0 1.488-.402 6.045-2.882 9.827-1.69 2.573-5.053 5.254-6.944 6.742l.294-19.344c.202-.899 1.69-3.766 5.658-3.766 3.58 0 3.874 3.363 3.874 5.456v1.085M679.743 2711.027c-.589-3.86-2.976-7.533-8.029-7.533-4.96 0-7.843 3.069-8.339 3.673l.403-31.852c0-.79-.589-1.38-1.395-1.38h-1.178c-.806 0-1.395.59-1.395 1.38l.496 59.628c0 .791.589 1.38 1.395 1.38.186 0 .589-.093.79-.186.388-.202 6.836-3.379 12.199-9.424 3.767-4.278 5.255-9.13 5.255-13.206 0-.884-.094-1.674-.202-2.48m-6.836 3.875c0 1.488-.402 6.045-2.882 9.827-1.69 2.573-5.053 5.254-6.944 6.742l.294-19.344c.202-.899 1.69-3.766 5.658-3.766 3.58 0 3.874 3.363 3.874 5.456v1.085M729.343 2347.047c-.589-3.86-2.976-7.533-8.029-7.533-4.96 0-7.843 3.069-8.339 3.673l.403-31.852c0-.79-.589-1.38-1.395-1.38h-1.178c-.806 0-1.395.59-1.395 1.38l.496 59.628c0 .791.589 1.38 1.395 1.38.186 0 .589-.093.79-.186.388-.202 6.836-3.379 12.199-9.424 3.767-4.278 5.255-9.13 5.255-13.206 0-.884-.094-1.674-.202-2.48m-6.836 3.875c0 1.488-.402 6.045-2.882 9.827-1.69 2.573-5.053 5.254-6.944 6.742l.294-19.344c.202-.899 1.69-3.766 5.658-3.766 3.58 0 3.874 3.363 3.874 5.456v1.085M704.543 2297.447c-.589-3.86-2.976-7.533-8.029-7.533-4.96 0-7.843 3.069-8.339 3.673l.403-31.852c0-.79-.589-1.38-1.395-1.38h-1.178c-.806 0-1.395.59-1.395 1.38l.496 59.628c0 .791.589 1.38 1.395 1.38.186 0 .589-.093.79-.186.388-.202 6.836-3.379 12.199-9.424 3.767-4.278 5.255-9.13 5.255-13.206 0-.884-.094-1.674-.202-2.48m-6.836 3.875c0 1.488-.402 6.045-2.882 9.827-1.69 2.573-5.053 5.254-6.944 6.742l.294-19.344c.202-.899 1.69-3.766 5.658-3.766 3.58 0 3.874 3.363 3.874 5.456v1.085M679.743 2334.647c-.589-3.86-2.976-7.533-8.029-7.533-4.96 0-7.843 3.069-8.339 3.673l.403-31.852c0-.79-.589-1.38-1.395-1.38h-1.178c-.806 0-1.395.59-1.395 1.38l.496 59.628c0 .791.589 1.38 1.395 1.38.186 0 .589-.093.79-.186.388-.202 6.836-3.379 12.199-9.424 3.767-4.278 5.255-9.13 5.255-13.206 0-.884-.094-1.674-.202-2.48m-6.836 3.875c0 1.488-.402 6.045-2.882 9.827-1.69 2.573-5.053 5.254-6.944 6.742l.294-19.344c.202-.899 1.69-3.766 5.658-3.766 3.58 0 3.874 3.363 3.874 5.456v1.085M729.343 1970.667c-.589-3.86-2.976-7.533-8.029-7.533-4.96 0-7.843 3.069-8.339 3.673l.403-31.852c0-.79-.589-1.38-1.395-1.38h-1.178c-.806 0-1.395.59-1.395 1.38l.496 59.628c0 .791.589 1.38 1.395 1.38.186 0 .589-.093.79-.186.388-.202 6.836-3.379 12.199-9.424 3.767-4.278 5.255-9.13 5.255-13.206 0-.884-.094-1.674-.202-2.48m-6.836 3.875c0 1.488-.402 6.045-2.882 9.827-1.69 2.573-5.053 5.254-6.944 6.742l.294-19.344c.202-.899 1.69-3.766 5.658-3.766 3.58 0 3.874 3.363 3.874 5.456v1.085M704.543 1921.067c-.589-3.86-2.976-7.533-8.029-7.533-4.96 0-7.843 3.069-8.339 3.673l.403-31.852c0-.79-.589-1.38-1.395-1.38h-1.178c-.806 0-1.395.59-1.395 1.38l.496 59.628c0 .791.589 1.38 1.395 1.38.186 0 .589-.093.79-.186.388-.202 6.836-3.379 12.199-9.424 3.767-4.278 5.255-9.13 5.255-13.206 0-.884-.094-1.674-.202-2.48m-6.836 3.875c0 1.488-.402 6.045-2.882 9.827-1.69 2.573-5.053 5.254-6.944 6.742l.294-19.344c.202-.899 1.69-3.766 5.658-3.766 3.58 0 3.874 3.363 3.874 5.456v1.085M679.743 1958.267c-.589-3.86-2.976-7.533-8.029-7.533-4.96 0-7.843 3.069-8.339 3.673l.403-31.852c0-.79-.589-1.38-1.395-1.38h-1.178c-.806 0-1.395.59-1.395 1.38l.496 59.628c0 .791.589 1.38 1.395 1.38.186 0 .589-.093.79-.186.388-.202 6.836-3.379 12.199-9.424 3.767-4.278 5.255-9.13 5.255-13.206 0-.884-.094-1.674-.202-2.48m-6.836 3.875c0 1.488-.402 6.045-2.882 9.827-1.69 2.573-5.053 5.254-6.944 6.742l.294-19.344c.202-.899 1.69-3.766 5.658-3.766 3.58 0 3.874 3.363 3.874 5.456v1.085M729.343 1594.297c-.589-3.86-2.976-7.533-8.029-7.533-4.96 0-7.843 3.069-8.339 3.673l.403-31.852c0-.79-.589-1.38-1.395-1.38h-1.178c-.806 0-1.395.59-1.395 1.38l.496 59.628c0 .791.589 1.38 1.395 1.38.186 0 .589-.093.79-.186.388-.202 6.836-3.379 12.199-9.424 3.767-4.278 5.255-9.13 5.255-13.206 0-.884-.094-1.674-.202-2.48m-6.836 3.875c0 1.488-.402 6.045-2.882 9.827-1.69 2.573-5.053 5.254-6.944 6.742l.294-19.344c.202-.899 1.69-3.766 5.658-3.766 3.58 0 3.874 3.363 3.874 5.456v1.085M704.543 1544.697c-.589-3.86-2.976-7.533-8.029-7.533-4.96 0-7.843 3.069-8.339 3.673l.403-31.852c0-.79-.589-1.38-1.395-1.38h-1.178c-.806 0-1.395.59-1.395 1.38l.496 59.628c0 .791.589 1.38 1.395 1.38.186 0 .589-.093.79-.186.388-.202 6.836-3.379 12.199-9.424 3.767-4.278 5.255-9.13 5.255-13.206 0-.884-.094-1.674-.202-2.48m-6.836 3.875c0 1.488-.402 6.045-2.882 9.827-1.69 2.573-5.053 5.254-6.944 6.742l.294-19.344c.202-.899 1.69-3.766 5.658-3.766 3.58 0 3.874 3.363 3.874 5.456v1.085M679.743 1581.897c-.589-3.86-2.976-7.533-8.029-7.533-4.96 0-7.843 3.069-8.339 3.673l.403-31.852c0-.79-.589-1.38-1.395-1.38h-1.178c-.806 0-1.395.59-1.395 1.38l.496 59.628c0 .791.589 1.38 1.395 1.38.186 0 .589-.093.79-.186.388-.202 6.836-3.379 12.199-9.424 3.767-4.278 5.255-9.13 5.255-13.206 0-.884-.094-1.674-.202-2.48m-6.836 3.875c0 1.488-.402 6.045-2.882 9.827-1.69 2.573-5.053 5.254-6.944 6.742l.294-19.344c.202-.899 1.69-3.766 5.658-3.766 3.58 0 3.874 3.363 3.874 5.456v1.085M729.343 1217.917c-.589-3.86-2.976-7.533-8.029-7.533-4.96 0-7.843 3.069-8.339 3.673l.403-31.852c0-.79-.589-1.38-1.395-1.38h-1.178c-.806 0-1.395.59-1.395 1.38l.496 59.628c0 .791.589 1.38 1.395 1.38.186 0 .589-.093.79-.186.388-.202 6.836-3.379 12.199-9.424 3.767-4.278 5.255-9.13 5.255-13.206 0-.884-.094-1.674-.202-2.48m-6.836 3.875c0 1.488-.402 6.045-2.882 9.827-1.69 2.573-5.053 5.254-6.944 6.742l.294-19.344c.202-.899 1.69-3.766 5.658-3.766 3.58 0 3.874 3.363 3.874 5.456v1.085M704.543 1168.317c-.589-3.86-2.976-7.533-8.029-7.533-4.96 0-7.843 3.069-8.339 3.673l.403-31.852c0-.79-.589-1.38-1.395-1.38h-1.178c-.806 0-1.395.59-1.395 1.38l.496 59.628c0 .791.589 1.38 1.395 1.38.186 0 .589-.093.79-.186.388-.202 6.836-3.379 12.199-9.424 3.767-4.278 5.255-9.13 5.255-13.206 0-.884-.094-1.674-.202-2.48m-6.836 3.875c0 1.488-.402 6.045-2.882 9.827-1.69 2.573-5.053 5.254-6.944 6.742l.294-19.344c.202-.899 1.69-3.766 5.658-3.766 3.58 0 3.874 3.363 3.874 5.456v1.085M679.743 1205.517c-.589-3.86-2.976-7.533-8.029-7.533-4.96 0-7.843 3.069-8.339 3.673l.403-31.852c0-.79-.589-1.38-1.395-1.38h-1.178c-.806 0-1.395.59-1.395 1.38l.496 59.628c0 .791.589 1.38 1.395 1.38.186 0 .589-.093.79-.186.388-.202 6.836-3.379 12.199-9.424 3.767-4.278 5.255-9.13 5.255-13.206 0-.884-.094-1.674-.202-2.48m-6.836 3.875c0 1.488-.402 6.045-2.882 9.827-1.69 2.573-5.053 5.254-6.944 6.742l.294-19.344c.202-.899 1.69-3.766 5.658-3.766 3.58 0 3.874 3.363 3.874 5.456v1.085"/><path class="Rest" d="M2261.257 3375.341l-.201-.31c-.093-.093-.295-.294-.589-.682l-11.408-14.09c-.31-.294-.202-1.1 0-1.487l10.106-15.283c.108-.202.202-.496.202-.698v-.884c0-.294-.094-.604-.295-.79l-16.073-21.731s-.791-1.194-1.783-.295c-.992.791-.201 2.077-.201 2.077l7.548 10.323c.388.59.388 1.783 0 2.372l-10.028 15.283c-.093.201-.202.589-.202.79v.9c0 .294.109.588.31.79l11.098 13.795c-.388-.108-1.286-.31-2.48-.31-1.674 0-3.86.403-5.642 1.984-2.185 1.984-3.379 4.774-3.379 7.254 0 1.38.295 2.774 1.085 3.86 2.093 3.177 9.532 12.601 9.532 12.601s.884 1.1 1.783.403c.9-.697.697-1.596.403-2.092-.31-.496-3.472-6.247-3.472-6.247s-.697-1.395-.697-3.177c0-1.287.387-2.868 1.69-4.17 1.177-1.178 2.572-1.581 3.859-1.581 1.286 0 2.386.403 3.177.9l3.875 2.48s1.178.588 1.782-.31c.496-.791.295-1.179 0-1.675M2413.8 3346.867v10.711c0 1.395 0 1.395 1.395 1.395h29.466c1.379 0 1.379 0 1.379-1.395v-10.71c0-1.395 0-1.395-1.38-1.395h-29.465c-1.395 0-1.395 0-1.395 1.394M1333.34 3078.067c-.743-.28-1.41.062-1.735.666-.326.604-3.488 6.479-7.874 9.718-1.38 1.008-2.961 1.643-4.511 1.969a7.007 7.007 0 001.783-4.697c0-3.921-3.178-7.098-7.084-7.098a7.098 7.098 0 00-7.099 7.098c0 2.976 1.86 5.55 4.48 6.588 1.519.713 3.41 1.162 5.44 1.162 2.821 0 5.905-.821 8.603-2.805 1.255-.915 2.433-2.108 3.502-3.348l-11.299 35.34 2.62.853 13.965-43.742c.233-.728-.062-1.41-.79-1.704M915.338 2668.774h-29.466c-.806 0-1.395.589-1.395 1.395v10.71c0 .791.589 1.38 1.395 1.38h29.466c.79 0 1.379-.589 1.379-1.38v-10.71c0-.806-.589-1.395-1.38-1.395M1303.64 2668.774h-29.465c-.806 0-1.395.589-1.395 1.395v10.71c0 .791.589 1.38 1.395 1.38h29.466c.79 0 1.379-.589 1.379-1.38v-10.71c0-.806-.589-1.395-1.38-1.395M1758.17 2668.774h-29.465c-.806 0-1.395.589-1.395 1.395v10.71c0 .791.589 1.38 1.395 1.38h29.466c.79 0 1.379-.589 1.379-1.38v-10.71c0-.806-.589-1.395-1.38-1.395M2386.98 2668.774h-29.465c-.806 0-1.395.589-1.395 1.395v10.71c0 .791.589 1.38 1.395 1.38h29.466c.79 0 1.379-.589 1.379-1.38v-10.71c0-.806-.589-1.395-1.38-1.395M915.338 2292.394h-29.466c-.806 0-1.395.589-1.395 1.395v10.71c0 .791.589 1.38 1.395 1.38h29.466c.79 0 1.379-.589 1.379-1.38v-10.71c0-.806-.589-1.395-1.38-1.395M1303.64 2292.394h-29.465c-.806 0-1.395.589-1.395 1.395v10.71c0 .791.589 1.38 1.395 1.38h29.466c.79 0 1.379-.589 1.379-1.38v-10.71c0-.806-.589-1.395-1.38-1.395M1758.17 2292.394h-29.465c-.806 0-1.395.589-1.395 1.395v10.71c0 .791.589 1.38 1.395 1.38h29.466c.79 0 1.379-.589 1.379-1.38v-10.71c0-.806-.589-1.395-1.38-1.395M2386.98 2292.394h-29.465c-.806 0-1.395.589-1.395 1.395v10.71c0 .791.589 1.38 1.395 1.38h29.466c.79 0 1.379-.589 1.379-1.38v-10.71c0-.806-.589-1.395-1.38-1.395M915.338 1916.014h-29.466c-.806 0-1.395.589-1.395 1.395v10.71c0 .791.589 1.38 1.395 1.38h29.466c.79 0 1.379-.589 1.379-1.38v-10.71c0-.806-.589-1.395-1.38-1.395M1303.64 1916.014h-29.465c-.806 0-1.395.589-1.395 1.395v10.71c0 .791.589 1.38 1.395 1.38h29.466c.79 0 1.379-.589 1.379-1.38v-10.71c0-.806-.589-1.395-1.38-1.395M1758.17 1916.014h-29.465c-.806 0-1.395.589-1.395 1.395v10.71c0 .791.589 1.38 1.395 1.38h29.466c.79 0 1.379-.589 1.379-1.38v-10.71c0-.806-.589-1.395-1.38-1.395M2386.98 1916.014h-29.465c-.806 0-1.395.589-1.395 1.395v10.71c0 .791.589 1.38 1.395 1.38h29.466c.79 0 1.379-.589 1.379-1.38v-10.71c0-.806-.589-1.395-1.38-1.395M915.338 1539.644h-29.466c-.806 0-1.395.589-1.395 1.395v10.71c0 .791.589 1.38 1.395 1.38h29.466c.79 0 1.379-.589 1.379-1.38v-10.71c0-.806-.589-1.395-1.38-1.395M1303.64 1539.644h-29.465c-.806 0-1.395.589-1.395 1.395v10.71c0 .791.589 1.38 1.395 1.38h29.466c.79 0 1.379-.589 1.379-1.38v-10.71c0-.806-.589-1.395-1.38-1.395M1758.17 1539.644h-29.465c-.806 0-1.395.589-1.395 1.395v10.71c0 .791.589 1.38 1.395 1.38h29.466c.79 0 1.379-.589 1.379-1.38v-10.71c0-.806-.589-1.395-1.38-1.395M2386.98 1539.644h-29.465c-.806 0-1.395.589-1.395 1.395v10.71c0 .791.589 1.38 1.395 1.38h29.466c.79 0 1.379-.589 1.379-1.38v-10.71c0-.806-.589-1.395-1.38-1.395M915.338 1163.264h-29.466c-.806 0-1.395.589-1.395 1.395v10.71c0 .791.589 1.38 1.395 1.38h29.466c.79 0 1.379-.589 1.379-1.38v-10.71c0-.806-.589-1.395-1.38-1.395M1303.64 1163.264h-29.465c-.806 0-1.395.589-1.395 1.395v10.71c0 .791.589 1.38 1.395 1.38h29.466c.79 0 1.379-.589 1.379-1.38v-10.71c0-.806-.589-1.395-1.38-1.395M1758.17 1163.264h-29.465c-.806 0-1.395.589-1.395 1.395v10.71c0 .791.589 1.38 1.395 1.38h29.466c.79 0 1.379-.589 1.379-1.38v-10.71c0-.806-.589-1.395-1.38-1.395M2386.98 1163.264h-29.465c-.806 0-1.395.589-1.395 1.395v10.71c0 .791.589 1.38 1.395 1.38h29.466c.79 0 1.379-.589 1.379-1.38v-10.71c0-.806-.589-1.395-1.38-1.395M915.338 786.882h-29.466c-.806 0-1.395.589-1.395 1.395v10.71c0 .791.589 1.38 1.395 1.38h29.466c.79 0 1.379-.589 1.379-1.38v-10.71c0-.806-.589-1.395-1.38-1.395M1303.64 786.882h-29.465c-.806 0-1.395.589-1.395 1.395v10.71c0 .791.589 1.38 1.395 1.38h29.466c.79 0 1.379-.589 1.379-1.38v-10.71c0-.806-.589-1.395-1.38-1.395M1758.17 786.882h-29.465c-.806 0-1.395.589-1.395 1.395v10.71c0 .791.589 1.38 1.395 1.38h29.466c.79 0 1.379-.589 1.379-1.38v-10.71c0-.806-.589-1.395-1.38-1.395M2386.98 786.882h-29.465c-.806 0-1.395.589-1.395 1.395v10.71c0 .791.589 1.38 1.395 1.38h29.466c.79 0 1.379-.589 1.379-1.38v-10.71c0-.806-.589-1.395-1.38-1.395M915.338 410.503h-29.466c-.806 0-1.395.589-1.395 1.395v10.71c0 .791.589 1.38 1.395 1.38h29.466c.79 0 1.379-.589 1.379-1.38v-10.71c0-.806-.589-1.395-1.38-1.395M1303.64 410.503h-29.465c-.806 0-1.395.589-1.395 1.395v10.71c0 .791.589 1.38 1.395 1.38h29.466c.79 0 1.379-.589 1.379-1.38v-10.71c0-.806-.589-1.395-1.38-1.395M1758.17 410.503h-29.465c-.806 0-1.395.589-1.395 1.395v10.71c0 .791.589 1.38 1.395 1.38h29.466c.79 0 1.379-.589 1.379-1.38v-10.71c0-.806-.589-1.395-1.38-1.395M2386.98 410.503h-29.465c-.806 0-1.395.589-1.395 1.395v10.71c0 .791.589 1.38 1.395 1.38h29.466c.79 0 1.379-.589 1.379-1.38v-10.71c0-.806-.589-1.395-1.38-1.395"/><path class="Beam" fill-rule="evenodd" d="M791.545 3476.06l137.858-44.28v13.03l-137.858 44.27v-13.02M1137.85 3297.11l151.59-44.2v12.92l-151.59 44.19v-12.91M1589.07 3297.02l203.32-43.99v12.68l-203.32 43.99v-12.68M2071.26 3303.23l140.69-31.61v12.7l-140.69 31.62v-12.71M2267.74 3086.02l119.77-12.68v12.46l-119.77 12.69v-12.47M2443.3 2998.97h130.24v12.4H2443.3v-12.4"/><path class="Hook" d="M948.04 3039.84c-.065-.206-.694-2.636-.694-2.777-.065-.282-.488-.488-.835-.488a.92.92 0 00-.901.9V3053.175c0 .347.282.619.553.76 2.919.9 8.962 4.73 13.476 12.434 1.248 2.148 3.266 5.067 3.266 10.904 0 5.002-.77 10.275-2.018 15.136-.206.77-.412 1.464.347 1.736.76.282 1.042-.272 1.324-.966 2.495-6.12 3.125-12.51 3.125-16.807v-1.323c-.348-8.962-5.49-15.56-5.49-15.56.206 0-6.391-8.538-8.268-11.457-2.56-3.96-3.82-7.91-3.885-8.192M1389.412 3089.242c-.093-.294-.992-3.767-.992-3.968-.093-.403-.697-.698-1.193-.698-.698 0-1.287.605-1.287 1.287V3108.291c0 .496.403.884.79 1.086 4.17 1.286 12.803 6.758 19.251 17.763 1.783 3.069 4.666 7.238 4.666 15.577 0 7.146-1.1 14.679-2.883 21.623-.295 1.1-.589 2.092.496 2.48 1.085.403 1.488-.388 1.891-1.38 3.565-8.742 4.464-17.871 4.464-24.01v-1.89c-.496-12.803-7.843-22.227-7.843-22.227.295 0-9.13-12.199-11.811-16.368-3.658-5.658-5.456-11.3-5.549-11.703M2632.802 3042.742c-.093-.294-.992-3.767-.992-3.968-.093-.403-.697-.698-1.193-.698-.698 0-1.287.605-1.287 1.287V3061.791c0 .496.403.884.79 1.086 4.17 1.286 12.803 6.758 19.251 17.763 1.783 3.069 4.666 7.238 4.666 15.577 0 7.146-1.1 14.679-2.883 21.623-.295 1.1-.589 2.092.496 2.48 1.085.403 1.488-.388 1.891-1.38 3.565-8.742 4.464-17.871 4.464-24.01v-1.89c-.496-12.803-7.843-22.227-7.843-22.227.295 0-9.13-12.199-11.811-16.368-3.658-5.658-5.456-11.3-5.549-11.703"/><path class="Tuplet" d="M2144.54 3238.53c2.12-.67 2.97-1.05 4.05-1.76 2.12-1.4 3.42-3.86 3.42-6.4 0-4.26-3.42-7.14-8.46-7.14-4.9 0-9.04 3.05-9.04 6.75 0 1.85 1.12 3.1 2.83 3.1 1.48 0 2.57-1.08 2.57-2.56 0-.77-.23-1.3-.95-2.02-.45-.41-.62-.73-.62-1.05 0-1.08 2.25-2.2 4.35-2.2 3.02 0 4.82 1.67 4.82 4.45 0 4.02-2.83 7.78-5.85 7.78-.14 0-.54-.03-1.03-.07-1.31-.1-1.31-.1-1.58-.1-1 0-1.53.46-1.53 1.27 0 .72.5 1.15 1.3 1.15.23 0 .55-.03.91-.07a8.51 8.51 0 011.7-.19c2.12 0 3.56 1.89 3.56 4.69 0 2.15-.5 4.21-1.48 5.93-1.35 2.43-3.42 3.6-6.35 3.6-2.51 0-4.68-1.25-4.68-2.71 0-.48.18-.67.9-.98 1.3-.58 1.85-1.39 1.85-2.61 0-1.58-1.27-2.78-2.88-2.78-1.94 0-3.2 1.51-3.2 3.86 0 4.37 3.33 7.11 8.73 7.11 6.8 0 11.97-4.55 11.97-10.58 0-1.61-.5-3.02-1.44-4.14-1-1.16-1.89-1.7-3.87-2.33M2330.56 3016.69c2.13-.67 2.97-1.04 4.05-1.76 2.12-1.39 3.42-3.86 3.42-6.39 0-4.27-3.42-7.14-8.45-7.14-4.91 0-9.05 3.04-9.05 6.75 0 1.84 1.13 3.09 2.83 3.09 1.48 0 2.58-1.08 2.58-2.56 0-.77-.24-1.3-.96-2.02-.45-.4-.62-.73-.62-1.04 0-1.08 2.25-2.21 4.36-2.21 3.01 0 4.81 1.68 4.81 4.46 0 4.01-2.83 7.78-5.84 7.78-.14 0-.55-.03-1.03-.08-1.32-.09-1.32-.09-1.58-.09-1 0-1.53.45-1.53 1.26 0 .72.5 1.16 1.29 1.16.24 0 .55-.03.91-.08a8.51 8.51 0 011.7-.19c2.13 0 3.56 1.89 3.56 4.69 0 2.16-.5 4.22-1.48 5.94-1.34 2.42-3.42 3.59-6.34 3.59-2.52 0-4.69-1.25-4.69-2.7 0-.49.19-.67.91-.99 1.29-.57 1.84-1.39 1.84-2.61 0-1.57-1.27-2.78-2.88-2.78-1.93 0-3.2 1.52-3.2 3.86 0 4.38 3.33 7.11 8.74 7.11 6.79 0 11.96-4.55 11.96-10.58 0-1.61-.5-3.01-1.43-4.14-1-1.15-1.89-1.7-3.88-2.33M2511.35 2965.73c2.13-.67 2.97-1.05 4.05-1.76 2.13-1.4 3.42-3.86 3.42-6.4 0-4.26-3.42-7.14-8.45-7.14-4.91 0-9.05 3.05-9.05 6.75 0 1.85 1.13 3.1 2.83 3.1 1.48 0 2.58-1.08 2.58-2.56 0-.77-.24-1.3-.95-2.02-.46-.41-.63-.73-.63-1.05 0-1.08 2.25-2.2 4.36-2.2 3.02 0 4.81 1.67 4.81 4.45 0 4.02-2.83 7.78-5.84 7.78-.14 0-.55-.03-1.03-.07-1.32-.1-1.32-.1-1.58-.1-1 0-1.53.46-1.53 1.27 0 .72.5 1.15 1.29 1.15.24 0 .55-.03.91-.07.63-.14 1.31-.19 1.7-.19 2.13 0 3.57 1.89 3.57 4.69 0 2.15-.5 4.21-1.49 5.93-1.34 2.43-3.42 3.6-6.34 3.6-2.52 0-4.69-1.25-4.69-2.71 0-.48.19-.67.91-.98 1.29-.58 1.84-1.39 1.84-2.61 0-1.58-1.26-2.78-2.87-2.78-1.94 0-3.21 1.51-3.21 3.86 0 4.37 3.33 7.11 8.74 7.11 6.79 0 11.97-4.55 11.97-10.58 0-1.61-.5-3.02-1.44-4.14-1-1.16-1.89-1.7-3.88-2.33M2659.37 3006.03c2.12-.67 2.97-1.05 4.04-1.76 2.13-1.4 3.43-3.86 3.43-6.4 0-4.26-3.43-7.14-8.46-7.14-4.9 0-9.04 3.05-9.04 6.75 0 1.85 1.12 3.1 2.82 3.1 1.49 0 2.58-1.08 2.58-2.56 0-.77-.23-1.3-.95-2.02-.45-.41-.63-.73-.63-1.05 0-1.08 2.25-2.2 4.36-2.2 3.02 0 4.82 1.67 4.82 4.45 0 4.02-2.83 7.78-5.85 7.78-.14 0-.55-.03-1.03-.07-1.31-.1-1.31-.1-1.58-.1-1 0-1.53.46-1.53 1.27 0 .72.5 1.15 1.3 1.15.23 0 .54-.03.9-.07.63-.14 1.32-.19 1.71-.19 2.12 0 3.56 1.89 3.56 4.69 0 2.15-.5 4.21-1.48 5.93-1.35 2.43-3.43 3.6-6.35 3.6-2.51 0-4.69-1.25-4.69-2.71 0-.48.19-.67.91-.98 1.3-.58 1.84-1.39 1.84-2.61 0-1.58-1.26-2.78-2.87-2.78-1.94 0-3.2 1.51-3.2 3.86 0 4.37 3.32 7.11 8.73 7.11 6.8 0 11.97-4.55 11.97-10.58 0-1.61-.5-3.02-1.44-4.14-1-1.16-1.89-1.7-3.87-2.33"/><path class="Tuplet" fill="none" stroke="#000" stroke-width="2.48" stroke-linecap="square" stroke-linejoin="bevel" d="M2612.22 3025.51v-18.6h18.45M2679.47 3006.91h18.45v18.6"/><path class="PedalSegment" d="M806.279 3527.54c1.344 1.96 4.234 5.32 5.437 6.98 1.188 1.66 1.204 3.39-1.218 5.45-2.641 2.28-5.297 3.71-6.516 4.47-.984.63-7.062 3.21-5.141 6.92 1.594 3.11 5.297.27 7.016-1.56.891-.95 2.078-3.09 3.672-3.09 1.375 0 2.203 1.98 3.062 3.17 1.516 2.06 2.532 2.69 4.829 2.69 2.671 0 4.39-2.94 7.812-5.83 0 0 2.375 5.8 6.375 5.8 4.703 0 10.203-5.69 10.203-5.69 1.453 3.69 6.172 6.67 10.406 5.53 5.5-1.5 8.391-7.56 7.688-13.75-1.828-16.11-19.25-21.66-24.25-22.56-1.313-.24-2.875-.66-3.047.58-.187 1.21 1.484 1.92 1.484 1.92.61.2 1.204.42 1.766.62 10.203 3.89 13.703 9.3 13.703 9.3-9.281 3.19-9.015 12.78-8.734 15.84-.641.83-3.563 3.46-6.688 3.46-3.297 0-4.265-3.96-4.265-3.96s1.843-1.64 4.968-4.33c6.516-5.64 2.735-12.23-2.265-12.23-7.813 0-9.625 11.27-8.063 17.08 0 0-.797 1-2.468 2.03-1.657 1.03-4.204-.41-5.594-1.91-2.531-2.7-3.36-2.42-3.36-2.42s3-2.28 4.219-5.14c1.235-2.87-1.453-7.12-1.453-7.12s-3.594-4.99-4.734-6.66c-1.125-1.66.265-4.2 1.312-6.39 1.063-2.19 2.344-3.31 2.344-3.31 6.5 1.67 7.859 6.7 6.469 7.79-1.86 1.47-4.078-.65-4.797-1.25-.719-.61-1.688-1.65-2.735-.86-1.046.8-.515 2-.062 3 2.672 5.27 7.609 6.19 10.781 3.97 4.063-2.84 3.485-13.79-9.672-16.17-14.531-2.66-23.218 8.81-23.218 14.66 0 4.12 2.953 7.65 6.703 7.65 0 0 6.093.21 6.593-7.18.141-2-.734-2.43-1.328-2.52-.593-.09-1.593.28-1.922 1.89-.406 1.94-1.468 2.66-2.812 2.45-1.75-.26-2.813-3.67.359-8.07 4.297-5.94 11.688-5.82 11.688-5.82s-3.141 5.64-4.328 8.72c0 0-1.813 3.52-.219 5.85m25.953 3.17c2.469 0 3.234 3.37 1.047 5.84-1.797 2-4.25 4.45-4.25 4.45-.766-6.56.719-10.29 3.203-10.29m18.438 16.53c-2.625.53-4.782-2.38-4.782-6.24 0-8.5 5.625-9.34 5.625-9.34 1.172 2.19 2.219 4.81 2.219 9.02 0 5-.984 6.14-3.062 6.56m14.14 4.19c1.781 0 3.235-1.63 3.235-3.63s-1.454-3.62-3.235-3.62c-1.765 0-3.219 1.62-3.219 3.62s1.454 3.63 3.219 3.63"/><path class="PedalSegment" fill="none" stroke="#000" stroke-width="2.73" stroke-linecap="square" stroke-linejoin="bevel" d="M880.945 3547.72h158.465M1039.41 3547.72v-29.76"/><path class="PedalSegment" d="M1123.08 3527.54c1.34 1.96 4.24 5.32 5.44 6.98 1.19 1.66 1.2 3.39-1.22 5.45-2.64 2.28-5.3 3.71-6.52 4.47-.98.63-7.06 3.21-5.14 6.92 1.6 3.11 5.3.27 7.02-1.56.89-.95 2.08-3.09 3.67-3.09 1.38 0 2.2 1.98 3.06 3.17 1.52 2.06 2.53 2.69 4.83 2.69 2.67 0 4.39-2.94 7.81-5.83 0 0 2.38 5.8 6.38 5.8 4.7 0 10.2-5.69 10.2-5.69 1.46 3.69 6.17 6.67 10.41 5.53 5.5-1.5 8.39-7.56 7.69-13.75-1.83-16.11-19.25-21.66-24.25-22.56-1.32-.24-2.88-.66-3.05.58-.19 1.21 1.48 1.92 1.48 1.92.61.2 1.21.42 1.77.62 10.2 3.89 13.7 9.3 13.7 9.3-9.28 3.19-9.01 12.78-8.73 15.84-.64.83-3.56 3.46-6.69 3.46-3.3 0-4.27-3.96-4.27-3.96s1.85-1.64 4.97-4.33c6.52-5.64 2.74-12.23-2.26-12.23-7.81 0-9.63 11.27-8.06 17.08 0 0-.8 1-2.47 2.03-1.66 1.03-4.21-.41-5.6-1.91-2.53-2.7-3.36-2.42-3.36-2.42s3-2.28 4.22-5.14c1.24-2.87-1.45-7.12-1.45-7.12s-3.59-4.99-4.74-6.66c-1.12-1.66.27-4.2 1.32-6.39 1.06-2.19 2.34-3.31 2.34-3.31 6.5 1.67 7.86 6.7 6.47 7.79-1.86 1.47-4.08-.65-4.8-1.25-.72-.61-1.68-1.65-2.73-.86-1.05.8-.52 2-.06 3 2.67 5.27 7.61 6.19 10.78 3.97 4.06-2.84 3.48-13.79-9.67-16.17-14.54-2.66-23.22 8.81-23.22 14.66 0 4.12 2.95 7.65 6.7 7.65 0 0 6.09.21 6.59-7.18.14-2-.73-2.43-1.32-2.52-.6-.09-1.6.28-1.93 1.89-.4 1.94-1.47 2.66-2.81 2.45-1.75-.26-2.81-3.67.36-8.07 4.3-5.94 11.69-5.82 11.69-5.82s-3.14 5.64-4.33 8.72c0 0-1.81 3.52-.22 5.85m25.95 3.17c2.47 0 3.24 3.37 1.05 5.84-1.8 2-4.25 4.45-4.25 4.45-.76-6.56.72-10.29 3.2-10.29m18.44 16.53c-2.62.53-4.78-2.38-4.78-6.24 0-8.5 5.63-9.34 5.63-9.34 1.17 2.19 2.21 4.81 2.21 9.02 0 5-.98 6.14-3.06 6.56m14.14 4.19c1.78 0 3.24-1.63 3.24-3.63s-1.46-3.62-3.24-3.62c-1.76 0-3.22 1.62-3.22 3.62s1.46 3.63 3.22 3.63"/><path class="PedalSegment" fill="none" stroke="#000" stroke-width="2.73" stroke-linecap="square" stroke-linejoin="bevel" d="M1197.75 3547.72h271.71M1469.46 3547.72v-29.76"/><path class="PedalSegment" d="M1574.3 3527.54c1.35 1.96 4.24 5.32 5.44 6.98 1.19 1.66 1.2 3.39-1.22 5.45-2.64 2.28-5.3 3.71-6.52 4.47-.98.63-7.06 3.21-5.14 6.92 1.6 3.11 5.3.27 7.02-1.56.89-.95 2.08-3.09 3.67-3.09 1.38 0 2.2 1.98 3.06 3.17 1.52 2.06 2.54 2.69 4.83 2.69 2.67 0 4.39-2.94 7.81-5.83 0 0 2.38 5.8 6.38 5.8 4.7 0 10.2-5.69 10.2-5.69 1.46 3.69 6.17 6.67 10.41 5.53 5.5-1.5 8.39-7.56 7.69-13.75-1.83-16.11-19.25-21.66-24.25-22.56-1.32-.24-2.88-.66-3.05.58-.19 1.21 1.48 1.92 1.48 1.92.61.2 1.21.42 1.77.62 10.2 3.89 13.7 9.3 13.7 9.3-9.28 3.19-9.01 12.78-8.73 15.84-.64.83-3.56 3.46-6.69 3.46-3.3 0-4.26-3.96-4.26-3.96s1.84-1.64 4.96-4.33c6.52-5.64 2.74-12.23-2.26-12.23-7.81 0-9.63 11.27-8.06 17.08 0 0-.8 1-2.47 2.03-1.66 1.03-4.21-.41-5.6-1.91-2.53-2.7-3.36-2.42-3.36-2.42s3-2.28 4.22-5.14c1.24-2.87-1.45-7.12-1.45-7.12s-3.59-4.99-4.73-6.66c-1.13-1.66.26-4.2 1.31-6.39 1.06-2.19 2.34-3.31 2.34-3.31 6.5 1.67 7.86 6.7 6.47 7.79-1.86 1.47-4.08-.65-4.8-1.25-.72-.61-1.68-1.65-2.73-.86-1.05.8-.52 2-.06 3 2.67 5.27 7.61 6.19 10.78 3.97 4.06-2.84 3.48-13.79-9.67-16.17-14.54-2.66-23.22 8.81-23.22 14.66 0 4.12 2.95 7.65 6.7 7.65 0 0 6.09.21 6.59-7.18.14-2-.73-2.43-1.32-2.52-.6-.09-1.6.28-1.93 1.89-.4 1.94-1.46 2.66-2.81 2.45-1.75-.26-2.81-3.67.36-8.07 4.3-5.94 11.69-5.82 11.69-5.82s-3.14 5.64-4.33 8.72c0 0-1.81 3.52-.22 5.85m25.95 3.17c2.47 0 3.24 3.37 1.05 5.84-1.8 2-4.25 4.45-4.25 4.45-.76-6.56.72-10.29 3.2-10.29m18.44 16.53c-2.62.53-4.78-2.38-4.78-6.24 0-8.5 5.63-9.34 5.63-9.34 1.17 2.19 2.21 4.81 2.21 9.02 0 5-.98 6.14-3.06 6.56m14.14 4.19c1.78 0 3.24-1.63 3.24-3.63s-1.46-3.62-3.24-3.62c-1.76 0-3.22 1.62-3.22 3.62s1.46 3.63 3.22 3.63"/><path class="PedalSegment" fill="none" stroke="#000" stroke-width="2.73" stroke-linecap="square" stroke-linejoin="bevel" d="M1648.97 3547.72h299.5M1948.47 3547.72v-29.76"/><path class="PedalSegment" d="M2056.49 3527.54c1.34 1.96 4.23 5.32 5.44 6.98 1.18 1.66 1.2 3.39-1.22 5.45-2.64 2.28-5.3 3.71-6.52 4.47-.98.63-7.06 3.21-5.14 6.92 1.6 3.11 5.3.27 7.02-1.56.89-.95 2.08-3.09 3.67-3.09 1.37 0 2.2 1.98 3.06 3.17 1.52 2.06 2.53 2.69 4.83 2.69 2.67 0 4.39-2.94 7.81-5.83 0 0 2.38 5.8 6.38 5.8 4.7 0 10.2-5.69 10.2-5.69 1.45 3.69 6.17 6.67 10.41 5.53 5.5-1.5 8.39-7.56 7.68-13.75-1.82-16.11-19.25-21.66-24.25-22.56-1.31-.24-2.87-.66-3.04.58-.19 1.21 1.48 1.92 1.48 1.92.61.2 1.2.42 1.77.62 10.2 3.89 13.7 9.3 13.7 9.3-9.28 3.19-9.02 12.78-8.73 15.84-.64.83-3.57 3.46-6.69 3.46-3.3 0-4.27-3.96-4.27-3.96s1.85-1.64 4.97-4.33c6.52-5.64 2.74-12.23-2.26-12.23-7.82 0-9.63 11.27-8.07 17.08 0 0-.79 1-2.47 2.03-1.65 1.03-4.2-.41-5.59-1.91-2.53-2.7-3.36-2.42-3.36-2.42s3-2.28 4.22-5.14c1.23-2.87-1.45-7.12-1.45-7.12s-3.6-4.99-4.74-6.66c-1.12-1.66.27-4.2 1.32-6.39 1.06-2.19 2.34-3.31 2.34-3.31 6.5 1.67 7.86 6.7 6.47 7.79-1.86 1.47-4.08-.65-4.8-1.25-.72-.61-1.69-1.65-2.73-.86-1.05.8-.52 2-.07 3 2.68 5.27 7.61 6.19 10.79 3.97 4.06-2.84 3.48-13.79-9.68-16.17-14.53-2.66-23.22 8.81-23.22 14.66 0 4.12 2.96 7.65 6.71 7.65 0 0 6.09.21 6.59-7.18.14-2-.73-2.43-1.33-2.52-.59-.09-1.59.28-1.92 1.89-.4 1.94-1.47 2.66-2.81 2.45-1.75-.26-2.81-3.67.36-8.07 4.3-5.94 11.69-5.82 11.69-5.82s-3.14 5.64-4.33 8.72c0 0-1.81 3.52-.22 5.85m25.95 3.17c2.47 0 3.24 3.37 1.05 5.84-1.8 2-4.25 4.45-4.25 4.45-.77-6.56.72-10.29 3.2-10.29m18.44 16.53c-2.63.53-4.78-2.38-4.78-6.24 0-8.5 5.62-9.34 5.62-9.34 1.18 2.19 2.22 4.81 2.22 9.02 0 5-.98 6.14-3.06 6.56m14.14 4.19c1.78 0 3.23-1.63 3.23-3.63s-1.45-3.62-3.23-3.62c-1.77 0-3.22 1.62-3.22 3.62s1.45 3.63 3.22 3.63"/><path class="PedalSegment" fill="none" stroke="#000" stroke-width="2.73" stroke-linecap="square" stroke-linejoin="bevel" d="M2131.15 3547.72h632.63"/><path class="NoteDot" d="M1604.2 3184.97a4.955 4.955 0 004.96 4.96 4.955 4.955 0 004.96-4.96 4.955 4.955 0 00-4.96-4.96 4.955 4.955 0 00-4.96 4.96M1604.2 3110.57a4.955 4.955 0 004.96 4.96 4.955 4.955 0 004.96-4.96 4.955 4.955 0 00-4.96-4.96 4.955 4.955 0 00-4.96 4.96"/><path class="Page" d="M2721.06 231.364c2.16-.547 3.08-.891 4.3-1.484 2.91-1.547 4.56-4.235 4.56-7.485 0-5.828-5.17-9.734-12.98-9.734-4.02 0-7.25 1.047-9.56 3.078-1.82 1.594-2.93 3.906-2.93 6 0 2.859 2.16 5 4.96 5 2.64 0 4.45-1.75 4.45-4.344 0-1.484-.59-2.64-2.14-4.125-.28-.265-.39-.437-.39-.656 0-1.047 2.05-2.094 4.19-2.094 3.46 0 5.5 2.532 5.5 6.828 0 4.782-1.6 7.688-4.3 7.688-.44 0-.99-.047-1.86-.266-1.22-.281-1.59-.328-2.2-.328-1.38 0-2.03.594-2.03 1.813 0 1.265.81 2.093 1.96 2.093.39 0 .72-.062 1.66-.171 1.27-.11 1.59-.172 1.98-.172 3.41 0 5.11 2.64 5.11 7.812 0 5.563-2.31 8.688-6.37 8.688-2.31 0-4.74-1.157-4.74-2.313 0-.328.18-.656.5-.984 1.65-1.531 2.04-2.25 2.04-3.844 0-2.594-2.04-4.562-4.74-4.562-2.97 0-4.95 2.14-4.95 5.218 0 5.547 5.39 9.344 13.31 9.344 4.02 0 7.81-.984 10.34-2.75 2.54-1.75 4.18-5.109 4.18-8.625 0-3.469-1.53-6.5-4.07-7.984-1.59-.875-2.86-1.266-5.78-1.641m31.57 0c2.15-.547 3.07-.891 4.29-1.484 2.91-1.547 4.56-4.235 4.56-7.485 0-5.828-5.17-9.734-12.98-9.734-4.02 0-7.25 1.047-9.56 3.078-1.81 1.594-2.92 3.906-2.92 6 0 2.859 2.15 5 4.95 5 2.64 0 4.45-1.75 4.45-4.344 0-1.484-.59-2.64-2.14-4.125-.28-.265-.39-.437-.39-.656 0-1.047 2.05-2.094 4.19-2.094 3.47 0 5.5 2.532 5.5 6.828 0 4.782-1.6 7.688-4.3 7.688-.44 0-.98-.047-1.86-.266-1.22-.281-1.59-.328-2.2-.328-1.38 0-2.03.594-2.03 1.813 0 1.265.81 2.093 1.97 2.093.39 0 .72-.062 1.65-.171 1.27-.11 1.6-.172 1.99-.172 3.4 0 5.11 2.64 5.11 7.812 0 5.563-2.32 8.688-6.38 8.688-2.31 0-4.73-1.157-4.73-2.313 0-.328.17-.656.5-.984 1.64-1.531 2.03-2.25 2.03-3.844 0-2.594-2.03-4.562-4.74-4.562-2.96 0-4.95 2.14-4.95 5.218 0 5.547 5.39 9.344 13.31 9.344 4.02 0 7.82-.984 10.35-2.75 2.53-1.75 4.17-5.109 4.17-8.625 0-3.469-1.53-6.5-4.06-7.984-1.6-.875-2.86-1.266-5.78-1.641"/><path class="Bracket" d="M515.787 3228.37c6.35-6.799 18.991-20.846 18.991-46.748 0-32.757-14.159-65.908-14.159-86.192 0-21.913 12.867-42.702 13.26-43.264.394-.618.338-1.405-.056-1.686-.393-.225-1.124 0-1.63.506-.449.562-19.721 20.059-19.721 49.333 0 31.858 12.586 54.052 12.586 95.406 0 7.866-3.371 20.565-12.249 31.465-.618.562-.674 1.573-.112 2.248v.056l.112.112c8.878 10.9 12.249 23.543 12.249 31.409 0 41.41-12.586 63.604-12.586 95.406 0 29.274 19.272 48.883 19.722 49.39.505.505 1.124.786 1.63.505.505-.337.505-.955.055-1.686-.505-.73-13.26-21.351-13.26-43.264 0-20.284 14.16-53.547 14.16-86.248 0-26.24-12.643-40.005-18.992-46.748"/></svg>
