<svg width="3060" height="3960" xmlns="http://www.w3.org/2000/svg" version="1.2" baseProfile="tiny"><path fill="#fff" fill-rule="evenodd" d="M0 0h3060v3960H0V0"/><path class="StaffLines" fill="none" stroke="#000" stroke-width="2.73" stroke-linejoin="bevel" d="M544.838 386.199H2763.78M544.838 410.999H2763.78M544.838 435.799H2763.78M544.838 460.599H2763.78M544.838 485.399H2763.78M544.838 754.412H2763.78M544.838 779.212H2763.78M544.838 804.012H2763.78M544.838 828.812H2763.78M544.838 853.612H2763.78M544.838 1122.63H2763.78M544.838 1147.43H2763.78M544.838 1172.23H2763.78M544.838 1197.03H2763.78M544.838 1221.83H2763.78M544.838 1490.84H2763.78M544.838 1515.64H2763.78M544.838 1540.44H2763.78M544.838 1565.24H2763.78M544.838 1590.04H2763.78M544.838 1859.05H2763.78M544.838 1883.85H2763.78M544.838 1908.65H2763.78M544.838 1933.45H2763.78M544.838 1958.25H2763.78M544.838 2227.27H2763.78M544.838 2252.07H2763.78M544.838 2276.87H2763.78M544.838 2301.67H2763.78M544.838 2326.47H2763.78M544.838 2595.48H2763.78M544.838 2620.28H2763.78M544.838 2645.08H2763.78M544.838 2669.88H2763.78M544.838 2694.68H2763.78M544.838 2990.59H2763.78M544.838 3015.39H2763.78M544.838 3040.19H2763.78M544.838 3064.99H2763.78M544.838 3089.79H2763.78M544.838 3251H2763.78M544.838 3275.8H2763.78M544.838 3300.6H2763.78M544.838 3325.4H2763.78M544.838 3350.2H2763.78"/><path class="MeasureNumber" d="M561.198 308.286h-1.156c-2.204 1.641-6.438 3.031-9.329 3.031l-.468 1.766h2.75c2.437 0 2.718.078 2.718.797 0 .359 0 .359-.39 1.797l-4.281 16c-.532 2-.563 2.125-.922 2.484-.407.391-1.25.516-3.36.563h-1.718l-.204 1.875h14.797l.235-1.875h-2.157c-2.593 0-3.156-.204-3.156-1.079 0-.281.156-1.203.36-1.968l6.281-23.391m10.187 14.922c.688-3.531 1.485-5.719 3-8.406 1.813-3.157 3.969-4.766 6.36-4.766 1.25 0 2 .484 2 1.25 0 .281-.078.438-.36.953-.359.688-.515 1.156-.515 1.766 0 1.281.953 2.156 2.312 2.156 1.641 0 2.766-1.203 2.766-3 0-2.719-2.563-4.719-6.125-4.719-3.75 0-7.11 2-9.828 5.844-2.797 3.953-4.485 9.031-4.485 13.469 0 5.89 2.922 9.437 7.797 9.437 3 0 5.688-1.187 7.61-3.312 1.75-2 2.828-4.875 2.828-7.516 0-4.078-2.75-6.922-6.75-6.922-2.797 0-4.969 1.203-6.61 3.766m5.328-1.453c2.485 0 3.844 1.719 3.844 4.844 0 5.078-2.687 8.953-6.25 8.953-2.562 0-4.078-1.875-4.078-5.078 0-5 2.766-8.719 6.484-8.719"/><path class="InstrumentName" d="M394.005 3171.85h5.64c4.5 0 6.86-.36 8.907-1.3 3.5-1.7 5.5-4.91 5.5-8.86 0-3.8-1.75-6.7-5.047-8.34-1.953-1-5.063-1.56-8.5-1.56h-17.5v2.35h.89c2.86.05 3.797.21 4.203.71.297.44.297.54.297 3.09v23.8c0 2.56 0 2.65-.297 3.11-.406.5-1.343.7-4.203.7h-.89v2.34h16.797v-2.34h-1.297c-2.86 0-3.813-.2-4.203-.7-.297-.46-.297-.55-.297-3.11v-9.89m0-2.36v-12.8c0-2.3.25-2.55 3.047-2.55h3.203c5.187 0 7.64 2.46 7.64 7.75 0 5.16-2.547 7.6-7.843 7.6h-6.047m30.937-4.89l-8.656.54v2.16h1.812c1.891.05 2.141.34 2.141 2.5V3184.1c-.047.75-.094 1.04-.297 1.29-.344.46-1.297.66-3.453.71h-.203v1.79h12.656v-1.79h-.203c-3.344-.11-3.797-.36-3.797-2.16V3176.55c0-2.45.344-4.7.906-5.86 1.047-2.25 3.297-3.8 5.438-3.8 1.312 0 2.812.71 3.562 1.75.75 1.1 1.094 2.6 1.094 5V3184.1c-.047.75-.094 1.04-.297 1.29-.359.46-1.359.66-3.5.71h-.203v1.79h12.656v-1.79h-.203c-3.297-.11-3.75-.36-3.75-2.16v-10.05c0-3.59-.156-4.5-1.047-6.2-1.25-2.39-3.75-3.84-6.75-3.84-3.25 0-5.703 1.5-7.906 4.79v-4.04m33.141-.75c-6.141 0-10.891 5.45-10.891 12.45 0 6.84 4.797 12.34 10.797 12.34 6 0 10.797-5.5 10.797-12.4 0-6.85-4.797-12.39-10.703-12.39m0 2.14c3.5 0 5.453 3.65 5.453 10.25 0 6.65-1.953 10.25-5.547 10.25-3.594 0-5.547-3.6-5.547-10.19 0-6.81 1.891-10.31 5.641-10.31m18.531 16.36c-1.75 0-3.141 1.39-3.141 3.09 0 1.75 1.391 3.16 3.094 3.16a3.15 3.15 0 003.156-3.16c0-1.7-1.406-3.09-3.109-3.09M413.255 2626.47h-29.953l-.75 13.91h2.14c.36-2.5.75-4.41 1.36-6 1.296-3.71 3.703-5.55 7.093-5.55 1.657 0 2.36.55 2.36 1.8v25.79c0 2.57 0 2.66-.313 3.11-.39.5-1.344.71-4.187.71h-1.313v2.34h17.156v-2.34h-1.296c-2.797 0-3.75-.21-4.157-.71-.297-.45-.297-.54-.297-3.11v-25.79c0-1.25.704-1.8 2.344-1.8 3.063 0 5.516 1.7 6.766 4.7.75 1.85 1.25 4 1.64 6.85h2.157l-.75-13.91m10.687-.75l-8.594.56v2.14h1.75c1.891.05 2.141.36 2.141 2.5v19.46c0 6.95-.297 10.75-.891 12.9h1.891l2.453-3.9c2.047 2.7 4.406 3.95 7.5 3.95 6.203 0 10.75-5.3 10.75-12.55 0-7.2-4.203-12.25-10.203-12.25-3.047 0-4.891 1.05-6.797 3.89v-16.7m5.906 15.36c3.75 0 5.844 3.66 5.844 10.2 0 6.35-2.047 9.89-5.703 9.89-3.953 0-6.297-3.64-6.297-9.79 0-6.71 2.156-10.3 6.156-10.3m35.485 5.41c0-3.16-.547-4.75-2-5.96-1.641-1.36-4.094-2-7.297-2-5.641 0-9.75 2.64-9.75 6.3 0 1.84 1.156 3.05 2.906 3.05 1.594 0 2.703-1.05 2.703-2.55 0-.66-.25-1.34-.75-2.05-.312-.36-.359-.45-.359-.7 0-1 2-1.91 4.406-1.91 1.594 0 3.344.5 4.141 1.25.953.82 1.312 2 1.312 4.25v1.96c-5.203.9-6.859 1.29-9.312 2.25-4.344 1.61-6.391 3.9-6.391 7.11 0 3.59 2.797 5.84 7.25 5.84 3.453 0 6.547-1.41 8.703-3.95.797 2.54 2.047 3.54 4.391 3.54 2.25 0 4.609-1.43 4.609-2.89 0-.36-.203-.61-.5-.61-.203 0-.406.07-.75.21-.703.29-1 .36-1.406.36-1.406 0-1.906-.91-1.906-3.46v-10.04m-4.688 6.09c0 3-.156 3.7-1 5-1.25 1.84-3.5 3.09-5.703 3.09-2.297 0-3.953-1.64-3.953-3.89 0-2.11 1.047-3.61 3.25-4.65 1.547-.71 3.5-1.21 7.406-1.85v2.3m16.532 4.45c-1.75 0-3.141 1.39-3.141 3.1 0 1.75 1.391 3.15 3.094 3.15 1.75 0 3.156-1.4 3.156-3.15 0-1.71-1.406-3.1-3.109-3.1M367.255 2258.26h-29.953l-.75 13.9h2.14c.36-2.5.75-4.4 1.36-6 1.296-3.7 3.703-5.54 7.093-5.54 1.657 0 2.36.54 2.36 1.79v25.8c0 2.56 0 2.66-.313 3.11-.39.5-1.344.7-4.187.7h-1.313v2.35h17.156v-2.35h-1.296c-2.797 0-3.75-.2-4.157-.7-.297-.45-.297-.55-.297-3.11v-25.8c0-1.25.704-1.79 2.344-1.79 3.063 0 5.516 1.7 6.766 4.7.75 1.84 1.25 4 1.64 6.84h2.157l-.75-13.9m10.687-.75l-8.594.56v2.14h1.75c1.891.05 2.141.36 2.141 2.5v19.45c0 6.96-.297 10.75-.891 12.91h1.891l2.453-3.91c2.047 2.71 4.406 3.96 7.5 3.96 6.203 0 10.75-5.3 10.75-12.55 0-7.2-4.203-12.25-10.203-12.25-3.047 0-4.891 1.05-6.797 3.89v-16.7m5.906 15.36c3.75 0 5.844 3.65 5.844 10.2 0 6.34-2.047 9.89-5.703 9.89-3.953 0-6.297-3.64-6.297-9.8 0-6.7 2.156-10.29 6.156-10.29m22.891-1.8l-8.656.55v2.15h1.812c1.891.05 2.141.35 2.141 2.5V2290.57c-.047.75-.094 1.05-.297 1.3-.344.45-1.297.65-3.453.7h-.203v1.8h12.656v-1.8h-.203c-3.344-.11-3.797-.36-3.797-2.16V2283.02c0-2.45.344-4.7.906-5.86 1.047-2.25 3.297-3.79 5.438-3.79 1.312 0 2.812.7 3.562 1.75.75 1.09 1.094 2.59 1.094 5v10.45c-.047.75-.094 1.05-.297 1.3-.359.45-1.359.65-3.5.7h-.203v1.8h12.656v-1.8h-.203c-3.297-.11-3.75-.36-3.75-2.16v-10.04c0-3.6-.156-4.5-1.047-6.21-1.25-2.39-3.75-3.84-6.75-3.84-3.25 0-5.703 1.5-7.906 4.8v-4.05m27.391 17.75c-1.75 0-3.141 1.39-3.141 3.09 0 1.75 1.391 3.16 3.094 3.16a3.15 3.15 0 003.156-3.16c0-1.7-1.406-3.09-3.109-3.09m38.234-12.86c4.547-1.64 6.656-4.19 6.656-8.2 0-5.25-4-8.6-10.203-8.6-5.844 0-10.297 3.46-10.297 8 0 2.05 1.344 3.5 3.297 3.5 1.75 0 2.953-1.2 2.953-3 0-1.09-.406-1.75-1.547-2.54-.5-.36-.656-.55-.656-.91 0-1.39 2.906-2.89 5.75-2.89 3.594 0 5.5 2.25 5.5 6.5 0 4.64-1.906 7.09-5.453 7.09-.453 0-1.297-.04-2.047-.09-.406-.05-.797-.05-1.094-.05-1.062 0-1.609.44-1.609 1.35 0 .84.5 1.25 1.609 1.25.297 0 .688 0 1.141-.05 1-.05 1.797-.05 2.359-.05 3.688 0 5.688 2.64 5.688 7.6 0 5.2-2.5 8.09-7 8.09-3.141 0-6.547-1.69-6.547-3.25 0-.44.109-.55 1.047-1.09 1.406-.85 1.953-1.71 1.953-2.96 0-1.79-1.344-3.14-3.141-3.14-2.156 0-3.562 1.75-3.562 4.39 0 4.86 4.453 8.21 10.859 8.21 7.25 0 11.953-4 11.953-10.16 0-4.69-2.406-7.55-7.609-9M366.255 1890.04h-29.953l-.75 13.91h2.14c.36-2.5.75-4.41 1.36-6 1.296-3.7 3.703-5.55 7.093-5.55 1.657 0 2.36.55 2.36 1.8v25.8c0 2.56 0 2.65-.313 3.11-.39.5-1.344.7-4.187.7h-1.313v2.34h17.156v-2.34h-1.296c-2.797 0-3.75-.2-4.157-.7-.297-.46-.297-.55-.297-3.11v-25.8c0-1.25.704-1.8 2.344-1.8 3.063 0 5.516 1.71 6.766 4.71.75 1.84 1.25 4 1.64 6.84h2.157l-.75-13.91m10.687-.75l-8.594.57v2.14h1.75c1.891.04 2.141.36 2.141 2.5v19.45c0 6.95-.297 10.75-.891 12.91h1.891l2.453-3.91c2.047 2.7 4.406 3.95 7.5 3.95 6.203 0 10.75-5.29 10.75-12.54 0-7.21-4.203-12.25-10.203-12.25-3.047 0-4.891 1.04-6.797 3.89v-16.71m5.906 15.36c3.75 0 5.844 3.66 5.844 10.21 0 6.34-2.047 9.89-5.703 9.89-3.953 0-6.297-3.64-6.297-9.8 0-6.7 2.156-10.3 6.156-10.3m22.891-1.79l-8.656.54v2.16h1.812c1.891.05 2.141.34 2.141 2.5V1922.36c-.047.75-.094 1.04-.297 1.29-.344.46-1.297.66-3.453.71h-.203v1.79h12.656v-1.79h-.203c-3.344-.11-3.797-.36-3.797-2.16V1914.81c0-2.45.344-4.7.906-5.86 1.047-2.25 3.297-3.8 5.438-3.8 1.312 0 2.812.71 3.562 1.75.75 1.1 1.094 2.6 1.094 5V1922.36c-.047.75-.094 1.04-.297 1.29-.359.46-1.359.66-3.5.71h-.203v1.79h12.656v-1.79h-.203c-3.297-.11-3.75-.36-3.75-2.16v-10.05c0-3.59-.156-4.5-1.047-6.2-1.25-2.39-3.75-3.84-6.75-3.84-3.25 0-5.703 1.5-7.906 4.79v-4.04m27.391 17.75c-1.75 0-3.141 1.39-3.141 3.09 0 1.75 1.391 3.16 3.094 3.16a3.15 3.15 0 003.156-3.16c0-1.7-1.406-3.09-3.109-3.09m46.187-5.25h-2.203l-.5 2.54c-.641 3.25-1.047 3.55-4.141 3.55H461.27c3.453-3.59 4.594-4.64 7.797-7.14 4.547-3.5 6.5-5.25 7.656-6.75 1.594-2.2 2.391-4.41 2.391-6.86 0-5.7-4.703-9.75-11.25-9.75-6.344 0-11.203 4.05-11.203 9.41 0 3.14 1.609 5.29 3.953 5.29 1.859 0 3.109-1.25 3.109-3.04 0-1.25-.703-2.41-1.75-2.86-1.859-.75-1.953-.85-1.953-1.5 0-.75.5-1.89 1.203-2.75 1.25-1.55 3.297-2.39 5.641-2.39 4.156 0 6.609 2.54 6.609 6.75 0 3.7-1.75 7.04-5.906 11.45-3.703 3.89-6 6.34-6.844 7.3-1.812 2.09-2.703 3.25-4.906 6.14v1.4h22.547l.953-10.79M367.255 1521.83h-29.953l-.75 13.91h2.14c.36-2.5.75-4.41 1.36-6 1.296-3.71 3.703-5.55 7.093-5.55 1.657 0 2.36.55 2.36 1.8v25.79c0 2.57 0 2.66-.313 3.11-.39.5-1.344.71-4.187.71h-1.313v2.34h17.156v-2.34h-1.296c-2.797 0-3.75-.21-4.157-.71-.297-.45-.297-.54-.297-3.11v-25.79c0-1.25.704-1.8 2.344-1.8 3.063 0 5.516 1.7 6.766 4.7.75 1.85 1.25 4 1.64 6.85h2.157l-.75-13.91m10.687-.75l-8.594.56v2.14h1.75c1.891.05 2.141.36 2.141 2.5v19.46c0 6.95-.297 10.75-.891 12.9h1.891l2.453-3.9c2.047 2.7 4.406 3.95 7.5 3.95 6.203 0 10.75-5.3 10.75-12.55 0-7.2-4.203-12.25-10.203-12.25-3.047 0-4.891 1.05-6.797 3.89v-16.7m5.906 15.36c3.75 0 5.844 3.66 5.844 10.2 0 6.35-2.047 9.89-5.703 9.89-3.953 0-6.297-3.64-6.297-9.79 0-6.71 2.156-10.3 6.156-10.3m22.891-1.8l-8.656.55v2.16h1.812c1.891.04 2.141.34 2.141 2.5V1554.14c-.047.75-.094 1.05-.297 1.3-.344.45-1.297.66-3.453.7h-.203v1.8h12.656v-1.8h-.203c-3.344-.11-3.797-.36-3.797-2.15v-7.39c0-2.46.344-4.71.906-5.86 1.047-2.25 3.297-3.8 5.438-3.8 1.312 0 2.812.7 3.562 1.75.75 1.09 1.094 2.59 1.094 5v10.45c-.047.75-.094 1.05-.297 1.3-.359.45-1.359.66-3.5.7h-.203v1.8h12.656v-1.8h-.203c-3.297-.11-3.75-.36-3.75-2.15v-10.05c0-3.59-.156-4.5-1.047-6.2-1.25-2.39-3.75-3.85-6.75-3.85-3.25 0-5.703 1.5-7.906 4.8v-4.05m27.391 17.75c-1.75 0-3.141 1.39-3.141 3.1 0 1.75 1.391 3.15 3.094 3.15 1.75 0 3.156-1.4 3.156-3.15 0-1.71-1.406-3.1-3.109-3.1m37.031-29.65c-1.688 2.04-6.297 3.59-10.891 3.7v2.14h4.391c2.906.06 3.203.36 3.109 3.16v20.04c0 2.57 0 2.66-.297 3.11-.406.5-1.359.71-4.156.71h-3.25v2.34h19.797v-2.34h-2.75c-2.797 0-3.75-.21-4.141-.71-.359-.45-.359-.5-.359-3.11v-20.64c0-2.81.109-5.15.359-8.4h-1.812M304.255 1153.62h-29.953l-.75 13.9h2.14c.36-2.5.75-4.4 1.36-6 1.296-3.7 3.703-5.54 7.093-5.54 1.657 0 2.36.54 2.36 1.79v25.8c0 2.56 0 2.66-.313 3.11-.39.5-1.344.7-4.187.7h-1.313v2.35h17.156v-2.35h-1.296c-2.797 0-3.75-.2-4.157-.7-.297-.45-.297-.55-.297-3.11v-25.8c0-1.25.704-1.79 2.344-1.79 3.063 0 5.516 1.7 6.766 4.7.75 1.84 1.25 4 1.64 6.84h2.157l-.75-13.9m10.687-.75l-8.594.56v2.14h1.75c1.891.05 2.141.36 2.141 2.5v19.45c0 6.96-.297 10.75-.891 12.91h1.891l2.453-3.91c2.047 2.71 4.406 3.96 7.5 3.96 6.203 0 10.75-5.3 10.75-12.55 0-7.2-4.203-12.25-10.203-12.25-3.047 0-4.891 1.05-6.797 3.89v-16.7m5.906 15.36c3.75 0 5.844 3.65 5.844 10.2 0 6.34-2.047 9.89-5.703 9.89-3.953 0-6.297-3.64-6.297-9.8 0-6.7 2.156-10.29 6.156-10.29m22.891-1.8l-8.656.55v2.15h1.812c1.891.05 2.141.35 2.141 2.5V1185.93c-.047.75-.094 1.05-.297 1.3-.344.45-1.297.65-3.453.7h-.203v1.8h12.656v-1.8h-.203c-3.344-.11-3.797-.36-3.797-2.16V1178.38c0-2.45.344-4.7.906-5.86 1.047-2.25 3.297-3.79 5.438-3.79 1.312 0 2.812.7 3.562 1.75.75 1.09 1.094 2.59 1.094 5v10.45c-.047.75-.094 1.05-.297 1.3-.359.45-1.359.65-3.5.7h-.203v1.8h12.656v-1.8h-.203c-3.297-.11-3.75-.36-3.75-2.16v-10.04c0-3.6-.156-4.5-1.047-6.21-1.25-2.39-3.75-3.84-6.75-3.84-3.25 0-5.703 1.5-7.906 4.8v-4.05m27.391 17.75c-1.75 0-3.141 1.39-3.141 3.09 0 1.75 1.391 3.16 3.094 3.16a3.15 3.15 0 003.156-3.16c0-1.7-1.406-3.09-3.109-3.09m40.437-18.3h-1.75l-1.453 1.8c-1.797-1.41-3.594-2-6.094-2-4.406 0-7.297 2.84-7.297 7.25 0 1.95.641 3.59 1.75 4.59 1.141 1.05 2.297 1.55 5.297 2.25l2.641.61c3.953.94 5.359 1.94 5.359 3.94 0 2.36-2.047 4-4.953 4-4.25 0-7.25-2.69-8.453-7.69h-2v9.44h1.75l1.75-2.05c2.047 1.66 4.297 2.46 6.859 2.46 4.891 0 8.141-3.05 8.141-7.71 0-2.2-.703-3.89-2.094-5.04-1.203-1.05-2.203-1.46-5.25-2.1l-2.5-.56c-2.75-.59-2.75-.59-3.656-1.09-1.094-.5-1.75-1.55-1.75-2.66 0-2.05 1.906-3.44 4.656-3.44 1.891 0 3.453.64 4.844 2 1.109 1.1 1.656 2.1 2.453 4.39h1.75v-8.39m16.235-.2c-6.141 0-10.891 5.45-10.891 12.45 0 6.85 4.797 12.35 10.797 12.35 6 0 10.797-5.5 10.797-12.41 0-6.84-4.797-12.39-10.703-12.39m0 2.14c3.5 0 5.453 3.66 5.453 10.25 0 6.66-1.953 10.25-5.547 10.25-3.594 0-5.547-3.59-5.547-10.19 0-6.81 1.891-10.31 5.641-10.31m22.593-14.95l-9.25.56v2.14h2.453c1.844.05 2.094.36 2.094 2.5v27.86c-.047.75-.094 1.05-.297 1.3-.359.45-1.297.65-3.453.7h-.344v1.8h12.938v-1.8h-.344c-3.344-.11-3.797-.36-3.797-2.16v-32.9m18.125 12.81c-6.14 0-10.89 5.45-10.89 12.45 0 6.85 4.797 12.35 10.797 12.35 6 0 10.796-5.5 10.796-12.41 0-6.84-4.796-12.39-10.703-12.39m0 2.14c3.5 0 5.453 3.66 5.453 10.25 0 6.66-1.953 10.25-5.546 10.25-3.594 0-5.547-3.59-5.547-10.19 0-6.81 1.89-10.31 5.64-10.31M271.098 785.903v2.359h.907c2.843.047 3.797.203 4.187.703.313.438.313.547.313 3.094v23.797c0 2.562 0 2.656-.313 3.109-.39.5-1.344.703-4.187.703h-.907v2.344h18.157c8.64 0 13.843-3.656 13.843-9.797 0-5-3.14-7.859-10-9.047 2.407-.5 3.5-.953 4.797-1.906 2.063-1.547 3.313-4 3.313-6.5 0-3.25-2-6.406-4.906-7.656-1.797-.797-4.297-1.203-7.25-1.203h-17.954m11 16.265v-11.406c0-1.953.657-2.453 3.297-2.5h2c2.297 0 4.203.391 5.25 1.047 1.797 1.094 2.75 3.203 2.75 6 0 4.953-2.39 6.859-8.843 6.859h-4.454m0 2.344h4.407c7.64 0 10.453 2.047 10.453 7.547 0 3.203-1.11 5.5-3.063 6.453-1.547.797-3.64 1.156-6.797 1.156h-2.093c-2.5 0-3-.5-2.907-3.156v-12m46.188 1.406c0-3.156-.547-4.75-2-5.953-1.641-1.359-4.094-2-7.297-2-5.641 0-9.75 2.641-9.75 6.297 0 1.844 1.156 3.047 2.906 3.047 1.594 0 2.703-1.047 2.703-2.547 0-.656-.25-1.344-.75-2.047-.312-.359-.359-.453-.359-.703 0-1 2-1.906 4.406-1.906 1.594 0 3.344.5 4.141 1.25.953.812 1.312 2 1.312 4.25v1.953c-5.203.906-6.859 1.297-9.312 2.25-4.344 1.609-6.391 3.906-6.391 7.109 0 3.594 2.797 5.844 7.25 5.844 3.453 0 6.547-1.406 8.703-3.953.797 2.547 2.047 3.547 4.391 3.547 2.25 0 4.609-1.438 4.609-2.891 0-.359-.203-.609-.5-.609-.203 0-.406.062-.75.203-.703.297-1 .359-1.406.359-1.406 0-1.906-.906-1.906-3.453v-10.047m-4.688 6.094c0 3-.156 3.703-1 5-1.25 1.844-3.5 3.094-5.703 3.094-2.297 0-3.953-1.641-3.953-3.891 0-2.109 1.047-3.609 3.25-4.656 1.547-.703 3.5-1.203 7.406-1.844v2.297m19.797-13.297l-8.859.547v2.156h2.047c1.906.047 2.156.344 2.156 2.5v14.297c-.047.75-.094 1.047-.297 1.297-.359.453-1.359.656-3.5.703h-.203v1.797h13.344v-1.797h-.891c-3.359-.109-3.797-.359-3.797-2.156v-2.703c.047-8.391 3.047-14.797 6.938-15-.688.812-.891 1.312-.891 2.25 0 1.609 1.141 2.75 2.75 2.75 1.844 0 3.047-1.344 3.047-3.344 0-2.453-1.703-4.047-4.344-4.047-3.156 0-5.859 2.5-7.5 6.953v-6.203m15.422 17.75c-1.75 0-3.14 1.391-3.14 3.094 0 1.75 1.39 3.156 3.093 3.156a3.148 3.148 0 003.157-3.156c0-1.703-1.407-3.094-3.11-3.094m48.235-30.859h-1.844l-2 3c-2.406-2.25-5.547-3.453-9.11-3.453-6.593 0-10.937 4.156-10.937 10.453 0 5.453 2.687 8.156 10.047 10.062l4.75 1.188c3.703.953 4.047 1.062 5.094 1.859 1.5 1.141 2.312 2.797 2.312 4.75 0 2-.766 3.641-2.266 5.047-1.64 1.406-3.296 1.953-6.046 1.953-3.704 0-6.344-1.156-8.704-3.75-2.093-2.297-3.14-4.703-3.89-8.547h-2.156l.203 14.25h1.953l2.25-3.406c3.344 2.75 6.094 3.75 10.5 3.75 7.344 0 12.047-4.297 12.047-11 0-3.156-1-5.75-3-7.656-1.344-1.297-3.297-2.141-7.297-3.141l-5.36-1.359c-4.437-1.141-6.546-3.094-6.546-6.141 0-3.5 2.859-5.906 7.109-5.906 3.5 0 6.344 1.5 8.344 4.344 1.453 2.062 2.406 4.156 3 6.703h2.156l-.609-13m26.687 20.312c0-3.156-.547-4.75-2-5.953-1.641-1.359-4.094-2-7.297-2-5.64 0-9.75 2.641-9.75 6.297 0 1.844 1.156 3.047 2.906 3.047 1.594 0 2.704-1.047 2.704-2.547 0-.656-.25-1.344-.75-2.047-.313-.359-.36-.453-.36-.703 0-1 2-1.906 4.406-1.906 1.594 0 3.344.5 4.141 1.25.953.812 1.313 2 1.313 4.25v1.953c-5.204.906-6.86 1.297-9.313 2.25-4.344 1.609-6.391 3.906-6.391 7.109 0 3.594 2.797 5.844 7.25 5.844 3.454 0 6.547-1.406 8.704-3.953.796 2.547 2.046 3.547 4.39 3.547 2.25 0 4.61-1.438 4.61-2.891 0-.359-.204-.609-.5-.609-.204 0-.407.062-.75.203-.704.297-1 .359-1.407.359-1.406 0-1.906-.906-1.906-3.453v-10.047m-4.687 6.094c0 3-.157 3.703-1 5-1.25 1.844-3.5 3.094-5.704 3.094-2.296 0-3.953-1.641-3.953-3.891 0-2.109 1.047-3.609 3.25-4.656 1.547-.703 3.5-1.203 7.407-1.844v2.297m26.39-2.75l5.703-6.656c1.25-1.438 2.391-2.094 3.75-2.094h.438v-1.797h-10.344v1.797h.953c1.5 0 2.25.344 2.25 1.094 0 .5-.359 1.203-1 2l-3.156 3.812-3.844-4.906c-.297-.406-.5-.797-.5-1.094 0-.656.641-.906 2.203-.906h.688v-1.797h-11.844v1.797c1.844.156 2.547.594 4.156 2.703l6.094 7.641-5.75 6.703c-1.703 1.906-3.156 2.703-4.5 2.656h-.297v1.797h10.547v-1.797h-.75c-1.156 0-1.406-.047-1.75-.203-.406-.25-.703-.703-.703-1.156 0-.344.156-.797.406-1.094l4.203-5 3.797 5.047c.344.5.641 1.156.641 1.5 0 .656-.75.906-2.641.906h-.359v1.797h12.609v-1.797h-.344c-1.765 0-2.906-.656-4.359-2.453l-6.297-8.5m18.141 7.203c-1.75 0-3.141 1.391-3.141 3.094 0 1.75 1.391 3.156 3.094 3.156a3.147 3.147 0 003.156-3.156c0-1.703-1.406-3.094-3.109-3.094M232.505 417.002h-2.11l-11.5 29.14c-1.343 3.907-2.64 5.11-5.5 5.313h-.203v2.344h13.25v-2.344h-1c-2.687 0-4.047-.953-4.047-2.859 0-.641.157-1.25.453-2.094l1.657-4.406h13.25l2.703 6.703c.297.797.39 1.093.39 1.343 0 .813-1.25 1.313-3.093 1.313h-2.11v2.344h15.5v-2.344h-.687c-2.61-.063-3.063-.359-4.203-3.203l-12.75-31.25m-2.453 8.187l5.64 14.203h-11.187l5.547-14.203m27.078 23.063c-1.75 0-3.141 1.39-3.141 3.094 0 1.75 1.391 3.156 3.094 3.156a3.147 3.147 0 003.156-3.156c0-1.704-1.406-3.094-3.109-3.094m48.234-30.86h-1.844l-2 3c-2.406-2.25-5.547-3.453-9.109-3.453-6.594 0-10.938 4.157-10.938 10.453 0 5.454 2.688 8.157 10.047 10.063l4.75 1.187c3.703.954 4.047 1.063 5.094 1.86 1.5 1.14 2.313 2.797 2.313 4.75 0 2-.766 3.64-2.266 5.047-1.641 1.406-3.297 1.953-6.047 1.953-3.703 0-6.344-1.156-8.703-3.75-2.094-2.297-3.141-4.703-3.891-8.547h-2.156l.203 14.25h1.953l2.25-3.406c3.344 2.75 6.094 3.75 10.5 3.75 7.344 0 12.047-4.297 12.047-11 0-3.157-1-5.75-3-7.657-1.344-1.296-3.297-2.14-7.297-3.14l-5.359-1.36c-4.438-1.14-6.547-3.093-6.547-6.14 0-3.5 2.859-5.906 7.109-5.906 3.5 0 6.344 1.5 8.344 4.343 1.453 2.063 2.406 4.157 3 6.703h2.156l-.609-13m26.688 20.313c0-3.156-.547-4.75-2-5.953-1.641-1.36-4.094-2-7.297-2-5.641 0-9.75 2.64-9.75 6.297 0 1.843 1.156 3.047 2.906 3.047 1.594 0 2.703-1.047 2.703-2.547 0-.657-.25-1.344-.75-2.047-.312-.36-.359-.453-.359-.703 0-1 2-1.907 4.406-1.907 1.594 0 3.344.5 4.141 1.25.953.813 1.312 2 1.312 4.25v1.954c-5.203.906-6.859 1.296-9.312 2.25-4.344 1.609-6.391 3.906-6.391 7.109 0 3.594 2.797 5.844 7.25 5.844 3.453 0 6.547-1.407 8.703-3.953.797 2.546 2.047 3.546 4.391 3.546 2.25 0 4.609-1.437 4.609-2.89 0-.36-.203-.61-.5-.61-.203 0-.406.063-.75.204-.703.296-1 .359-1.406.359-1.406 0-1.906-.906-1.906-3.453v-10.047m-4.688 6.094c0 3-.156 3.703-1 5-1.25 1.843-3.5 3.093-5.703 3.093-2.297 0-3.953-1.64-3.953-3.89 0-2.11 1.047-3.61 3.25-4.656 1.547-.704 3.5-1.204 7.406-1.844v2.297m26.391-2.75l5.703-6.657c1.25-1.437 2.39-2.093 3.75-2.093h.437v-1.797h-10.343v1.797h.953c1.5 0 2.25.343 2.25 1.093 0 .5-.36 1.204-1 2l-3.157 3.813-3.843-4.906c-.297-.407-.5-.797-.5-1.094 0-.656.64-.906 2.203-.906h.687v-1.797h-11.843v1.797c1.843.156 2.546.593 4.156 2.703l6.094 7.64-5.75 6.704c-1.704 1.906-3.157 2.703-4.5 2.656h-.297v1.797h10.547v-1.797h-.75c-1.157 0-1.407-.047-1.75-.203-.407-.25-.704-.703-.704-1.157 0-.343.157-.796.407-1.093l4.203-5 3.797 5.047c.343.5.64 1.156.64 1.5 0 .656-.75.906-2.64.906h-.36v1.797h12.61v-1.797h-.344c-1.766 0-2.906-.656-4.359-2.453l-6.297-8.5m18.14 7.203c-1.75 0-3.14 1.39-3.14 3.094 0 1.75 1.39 3.156 3.093 3.156a3.148 3.148 0 003.157-3.156c0-1.704-1.407-3.094-3.11-3.094m40.438-18.297h-1.75l-1.453 1.797c-1.797-1.406-3.594-2-6.094-2-4.406 0-7.297 2.844-7.297 7.25 0 1.953.641 3.594 1.75 4.594 1.141 1.046 2.297 1.546 5.297 2.25l2.641.609c3.953.937 5.359 1.937 5.359 3.937 0 2.36-2.047 4-4.953 4-4.25 0-7.25-2.687-8.453-7.687h-2v9.437h1.75l1.75-2.046c2.047 1.656 4.297 2.453 6.859 2.453 4.891 0 8.141-3.047 8.141-7.703 0-2.204-.703-3.891-2.094-5.047-1.203-1.047-2.203-1.453-5.25-2.094l-2.5-.563c-2.75-.593-2.75-.593-3.656-1.093-1.094-.5-1.75-1.547-1.75-2.657 0-2.046 1.906-3.437 4.656-3.437 1.891 0 3.453.641 4.844 2 1.109 1.094 1.656 2.094 2.453 4.391h1.75v-8.391m16.234-.203c-6.14 0-10.89 5.453-10.89 12.453 0 6.844 4.796 12.344 10.796 12.344 6 0 10.797-5.5 10.797-12.407 0-6.843-4.797-12.39-10.703-12.39m0 2.14c3.5 0 5.453 3.657 5.453 10.25 0 6.657-1.953 10.25-5.547 10.25-3.593 0-5.546-3.593-5.546-10.187 0-6.813 1.89-10.313 5.64-10.313m22.594-14.953l-9.25.563v2.14h2.453c1.844.047 2.094.36 2.094 2.5v27.86c-.047.75-.094 1.047-.297 1.297-.359.453-1.297.656-3.453.703h-.344v1.797h12.938v-1.797h-.344c-3.344-.11-3.797-.36-3.797-2.156v-32.907m18.125 12.813c-6.141 0-10.891 5.453-10.891 12.453 0 6.844 4.797 12.344 10.797 12.344 6 0 10.797-5.5 10.797-12.407 0-6.843-4.797-12.39-10.703-12.39m0 2.14c3.5 0 5.453 3.657 5.453 10.25 0 6.657-1.953 10.25-5.547 10.25-3.594 0-5.547-3.593-5.547-10.187 0-6.813 1.891-10.313 5.641-10.313"/><path class="SlurSegment" stroke="#000" stroke-width="1.74" stroke-linecap="round" stroke-linejoin="round" fill-rule="evenodd" d="M2579 2993.07c24.75-42.05 88.25-54.45 127-24.8-37.42-22.83-100.92-10.43-127 24.8"/><path class="TieSegment" stroke="#000" stroke-width="1.74" stroke-linecap="round" stroke-linejoin="round" fill-rule="evenodd" d="M895.419 3092.15c11.685 6.45 46.741 6.45 58.427 0-11.686 13.39-46.742 13.39-58.427 0M895.419 3013.04c11.685-13.39 46.741-13.39 58.427 0-11.686-6.45-46.742-6.45-58.427 0M1212.31 2988.24c8.56-13.39 34.21-13.39 42.77 0-8.56-6.45-34.21-6.45-42.77 0"/><path class="BarLine" stroke="#000" stroke-width="4.46" stroke-linejoin="bevel" d="M547.07 3249.63v101.93M1420.33 3249.63v101.93M1973.65 3249.63v101.93M2761.55 3249.63v101.93M547.07 2989.23V3251M1420.33 2989.23V3251M1973.65 2989.23V3251M2761.55 2989.23V3251M547.07 2594.12v396.47M1420.33 2594.12v101.92M1973.65 2594.12v101.92M2761.55 2594.12v101.92M547.07 2225.9v369.58M1420.33 2225.9v101.93M1973.65 2225.9v101.93M2761.55 2225.9v101.93M547.07 1857.69v369.58M1420.33 1857.69v101.93M1973.65 1857.69v101.93M2761.55 1857.69v101.93M547.07 1489.48v369.57M1420.33 1489.48v101.92M1973.65 1489.48v101.92M2761.55 1489.48v101.92M547.07 1121.26v369.58M1420.33 1121.26v101.93M1973.65 1121.26v101.93M2761.55 1121.26v101.93M547.07 753.048v369.582M1420.33 753.048v369.582M1973.65 753.048v369.582M2761.55 753.048v369.582M547.07 384.835v369.577M1420.33 384.835v101.928M1973.65 384.835v101.928M2761.55 384.835v101.928"/><path class="Accidental" d="M1775.583 3205.957c-.589-3.86-2.976-7.533-8.029-7.533-4.96 0-7.843 3.069-8.339 3.673l.403-31.852c0-.79-.589-1.38-1.395-1.38h-1.178c-.806 0-1.395.59-1.395 1.38l.496 59.628c0 .791.589 1.38 1.395 1.38.186 0 .589-.093.79-.186.388-.202 6.836-3.379 12.199-9.424 3.767-4.278 5.255-9.13 5.255-13.206 0-.884-.094-1.674-.202-2.48m-6.836 3.875c0 1.488-.402 6.045-2.882 9.827-1.69 2.573-5.053 5.254-6.944 6.742l.294-19.344c.202-.899 1.69-3.766 5.658-3.766 3.58 0 3.874 3.363 3.874 5.456v1.085M2134.203 3243.157c-.589-3.86-2.976-7.533-8.029-7.533-4.96 0-7.843 3.069-8.339 3.673l.403-31.852c0-.79-.589-1.38-1.395-1.38h-1.178c-.806 0-1.395.59-1.395 1.38l.496 59.628c0 .791.589 1.38 1.395 1.38.186 0 .589-.093.79-.186.388-.202 6.836-3.379 12.199-9.424 3.767-4.278 5.255-9.13 5.255-13.206 0-.884-.094-1.674-.202-2.48m-6.836 3.875c0 1.488-.402 6.045-2.882 9.827-1.69 2.573-5.053 5.254-6.944 6.742l.294-19.344c.202-.899 1.69-3.766 5.658-3.766 3.58 0 3.874 3.363 3.874 5.456v1.085"/><path class="LedgerLine" stroke="#000" stroke-width="3.97" stroke-linejoin="bevel" d="M766.744 3375h49.593M949.034 3226.2h49.592M1235.12 3226.2h49.59M1781.99 3226.2h49.59M2195.42 3114.59h49.59M2385.91 3114.59h49.6M2487.51 3114.59h49.59"/><path class="Stem" stroke="#000" stroke-width="2.73" stroke-linejoin="bevel" d="M776.789 3390.73v52.47M1108.83 3341.13V3406M988.582 3272.62v-105.33M1274.66 3272.62v-105.33M1485.67 3347.02v-83.62M1556.94 3241.93v108.27M1691.25 3241.93v145.47M1792.03 3217.13v142.37M2009.49 3328.73v71.07M2072.98 3279.13v99.86M2141.97 3254.33v102.07M2395.96 3241.93v154.77M2593.76 3322.22v-80.52M806.293 3074.22v-120.83M890.187 3074.22v-120.83M988.582 3074.22v-120.83M1072.48 3074.22v-120.83M1138.34 3074.22v-120.83M1192.73 3018.73v83.46M1245.16 3018.73v77.26M1297.59 3043.53v64.86M1350.03 3055.93v64.86M1485.67 3061.82v-80.53M1586.45 3049.42v-77.43M1639.59 3043.53v83.46M1691.25 3031.13v77.26M1821.54 3049.42v-77.43M1904.19 3061.82v-80.53M2038.99 3074.22v-83.63M2234.97 3111.42v-71.23M2298.47 3099.02v-74.33M2361.96 3074.22v-65.03M2425.46 3111.42v-130.13M2527.06 3111.42v-120.83M2564.25 3018.73v71.06M2627.75 3006.33v71.06M2691.25 2993.93v71.06"/><path class="Note" d="M806.673 3379.324c-1.782-3.27-5.549-5.053-10.121-5.053-3.364 0-7.038.992-10.618 2.868-6.541 3.472-10.509 9.331-10.509 14.384 0 1.395.295 2.79.992 4.077 1.783 3.285 5.549 4.975 10.121 4.975 3.364 0 7.038-.899 10.618-2.774 6.541-3.488 10.509-9.347 10.509-14.416 0-1.379-.294-2.774-.992-4.06m-4.262 6.742c-1.69 1.69-5.069 3.767-8.634 5.766-3.565 1.984-7.145 3.472-9.517 3.968-.496.109-.992.202-1.488.202-1.596 0-2.79-.59-3.472-1.891a3.212 3.212 0 01-.496-1.69c0-1.085.682-2.387 1.783-3.472 1.689-1.69 4.96-3.767 8.525-5.75 3.58-1.985 7.145-3.473 9.532-3.969.496-.108.992-.201 1.488-.201 1.581 0 2.868.589 3.565 1.875.295.496.403 1.101.403 1.69 0 1.1-.604 2.278-1.69 3.472M1138.718 3329.724c-1.782-3.27-5.549-5.053-10.121-5.053-3.364 0-7.038.992-10.618 2.868-6.541 3.472-10.509 9.331-10.509 14.384 0 1.395.295 2.79.992 4.077 1.783 3.285 5.549 4.975 10.121 4.975 3.364 0 7.038-.899 10.618-2.774 6.541-3.488 10.509-9.347 10.509-14.416 0-1.379-.294-2.774-.992-4.06m-4.262 6.742c-1.69 1.69-5.069 3.767-8.634 5.766-3.565 1.984-7.145 3.472-9.517 3.968-.496.109-.992.202-1.488.202-1.596 0-2.79-.59-3.472-1.891a3.212 3.212 0 01-.496-1.69c0-1.085.682-2.387 1.783-3.472 1.689-1.69 4.96-3.767 8.525-5.75 3.58-1.985 7.145-3.473 9.532-3.969.496-.108.992-.201 1.488-.201 1.581 0 2.868.589 3.565 1.875.295.496.403 1.101.403 1.69 0 1.1-.604 2.278-1.69 3.472M988.962 3267.771c-1.782-3.286-5.549-5.068-10.121-5.068-3.364 0-7.038.992-10.618 2.882-6.541 3.472-10.509 9.316-10.509 14.385 0 1.379.295 2.774.992 4.06 1.783 3.271 5.549 4.96 10.121 4.96 3.364 0 7.038-.883 10.618-2.774 6.541-3.472 10.509-9.331 10.509-14.384 0-1.395-.294-2.775-.992-4.061"/><path class="Note" d="M988.962 3242.971c-1.782-3.286-5.549-5.068-10.121-5.068-3.364 0-7.038.992-10.618 2.882-6.541 3.472-10.509 9.316-10.509 14.385 0 1.379.295 2.774.992 4.06 1.783 3.271 5.549 4.96 10.121 4.96 3.364 0 7.038-.883 10.618-2.774 6.541-3.472 10.509-9.331 10.509-14.384 0-1.395-.294-2.775-.992-4.061"/><path class="Note" d="M988.962 3218.171c-1.782-3.286-5.549-5.068-10.121-5.068-3.364 0-7.038.992-10.618 2.882-6.541 3.472-10.509 9.316-10.509 14.385 0 1.379.295 2.774.992 4.06 1.783 3.271 5.549 4.96 10.121 4.96 3.364 0 7.038-.883 10.618-2.774 6.541-3.472 10.509-9.331 10.509-14.384 0-1.395-.294-2.775-.992-4.061M1275.048 3267.771c-1.782-3.286-5.549-5.068-10.121-5.068-3.364 0-7.038.992-10.618 2.882-6.541 3.472-10.509 9.316-10.509 14.385 0 1.379.295 2.774.992 4.06 1.783 3.271 5.549 4.96 10.121 4.96 3.364 0 7.038-.883 10.618-2.774 6.541-3.472 10.509-9.331 10.509-14.384 0-1.395-.294-2.775-.992-4.061"/><path class="Note" d="M1275.048 3242.971c-1.782-3.286-5.549-5.068-10.121-5.068-3.364 0-7.038.992-10.618 2.882-6.541 3.472-10.509 9.316-10.509 14.385 0 1.379.295 2.774.992 4.06 1.783 3.271 5.549 4.96 10.121 4.96 3.364 0 7.038-.883 10.618-2.774 6.541-3.472 10.509-9.331 10.509-14.384 0-1.395-.294-2.775-.992-4.061"/><path class="Note" d="M1275.048 3218.171c-1.782-3.286-5.549-5.068-10.121-5.068-3.364 0-7.038.992-10.618 2.882-6.541 3.472-10.509 9.316-10.509 14.385 0 1.379.295 2.774.992 4.06 1.783 3.271 5.549 4.96 10.121 4.96 3.364 0 7.038-.883 10.618-2.774 6.541-3.472 10.509-9.331 10.509-14.384 0-1.395-.294-2.775-.992-4.061M1486.048 3342.171c-1.782-3.286-5.549-5.068-10.121-5.068-3.364 0-7.038.992-10.618 2.882-6.541 3.472-10.509 9.316-10.509 14.385 0 1.379.295 2.774.992 4.06 1.783 3.271 5.549 4.96 10.121 4.96 3.364 0 7.038-.883 10.618-2.774 6.541-3.472 10.509-9.331 10.509-14.384 0-1.395-.294-2.775-.992-4.061M1586.828 3255.371c-1.782-3.286-5.549-5.068-10.121-5.068-3.364 0-7.038.992-10.618 2.882-6.541 3.472-10.509 9.316-10.509 14.385 0 1.379.295 2.774.992 4.06 1.783 3.271 5.549 4.96 10.121 4.96 3.364 0 7.038-.883 10.618-2.774 6.541-3.472 10.509-9.331 10.509-14.384 0-1.395-.294-2.775-.992-4.061M1557.328 3242.971c-1.782-3.286-5.549-5.068-10.121-5.068-3.364 0-7.038.992-10.618 2.882-6.541 3.472-10.509 9.316-10.509 14.385 0 1.379.295 2.774.992 4.06 1.783 3.271 5.549 4.96 10.121 4.96 3.364 0 7.038-.883 10.618-2.774 6.541-3.472 10.509-9.331 10.509-14.384 0-1.395-.294-2.775-.992-4.061"/><path class="Note" d="M1586.828 3230.571c-1.782-3.286-5.549-5.068-10.121-5.068-3.364 0-7.038.992-10.618 2.882-6.541 3.472-10.509 9.316-10.509 14.385 0 1.379.295 2.774.992 4.06 1.783 3.271 5.549 4.96 10.121 4.96 3.364 0 7.038-.883 10.618-2.774 6.541-3.472 10.509-9.331 10.509-14.384 0-1.395-.294-2.775-.992-4.061M1721.138 3304.971c-1.782-3.286-5.549-5.068-10.121-5.068-3.364 0-7.038.992-10.618 2.882-6.541 3.472-10.509 9.316-10.509 14.385 0 1.379.295 2.774.992 4.06 1.783 3.271 5.549 4.96 10.121 4.96 3.364 0 7.038-.883 10.618-2.774 6.541-3.472 10.509-9.331 10.509-14.384 0-1.395-.294-2.775-.992-4.061M1721.138 3255.371c-1.782-3.286-5.549-5.068-10.121-5.068-3.364 0-7.038.992-10.618 2.882-6.541 3.472-10.509 9.316-10.509 14.385 0 1.379.295 2.774.992 4.06 1.783 3.271 5.549 4.96 10.121 4.96 3.364 0 7.038-.883 10.618-2.774 6.541-3.472 10.509-9.331 10.509-14.384 0-1.395-.294-2.775-.992-4.061"/><path class="Note" d="M1721.138 3230.571c-1.782-3.286-5.549-5.068-10.121-5.068-3.364 0-7.038.992-10.618 2.882-6.541 3.472-10.509 9.316-10.509 14.385 0 1.379.295 2.774.992 4.06 1.783 3.271 5.549 4.96 10.121 4.96 3.364 0 7.038-.883 10.618-2.774 6.541-3.472 10.509-9.331 10.509-14.384 0-1.395-.294-2.775-.992-4.061M1821.918 3267.771c-1.782-3.286-5.549-5.068-10.121-5.068-3.364 0-7.038.992-10.618 2.882-6.541 3.472-10.509 9.316-10.509 14.385 0 1.379.295 2.774.992 4.06 1.783 3.271 5.549 4.96 10.121 4.96 3.364 0 7.038-.883 10.618-2.774 6.541-3.472 10.509-9.331 10.509-14.384 0-1.395-.294-2.775-.992-4.061"/><path class="Note" d="M1821.918 3242.971c-1.782-3.286-5.549-5.068-10.121-5.068-3.364 0-7.038.992-10.618 2.882-6.541 3.472-10.509 9.316-10.509 14.385 0 1.379.295 2.774.992 4.06 1.783 3.271 5.549 4.96 10.121 4.96 3.364 0 7.038-.883 10.618-2.774 6.541-3.472 10.509-9.331 10.509-14.384 0-1.395-.294-2.775-.992-4.061M1821.918 3205.771c-1.782-3.286-5.549-5.068-10.121-5.068-3.364 0-7.038.992-10.618 2.882-6.541 3.472-10.509 9.316-10.509 14.385 0 1.379.295 2.774.992 4.06 1.783 3.271 5.549 4.96 10.121 4.96 3.364 0 7.038-.883 10.618-2.774 6.541-3.472 10.509-9.331 10.509-14.384 0-1.395-.294-2.775-.992-4.061M2039.368 3317.371c-1.782-3.286-5.549-5.068-10.121-5.068-3.364 0-7.038.992-10.618 2.882-6.541 3.472-10.509 9.316-10.509 14.385 0 1.379.295 2.774.992 4.06 1.783 3.271 5.549 4.96 10.121 4.96 3.364 0 7.038-.883 10.618-2.774 6.541-3.472 10.509-9.331 10.509-14.384 0-1.395-.294-2.775-.992-4.061M2102.868 3267.771c-1.782-3.286-5.549-5.068-10.121-5.068-3.364 0-7.038.992-10.618 2.882-6.541 3.472-10.509 9.316-10.509 14.385 0 1.379.295 2.774.992 4.06 1.783 3.271 5.549 4.96 10.121 4.96 3.364 0 7.038-.883 10.618-2.774 6.541-3.472 10.509-9.331 10.509-14.384 0-1.395-.294-2.775-.992-4.061M2171.848 3242.971c-1.782-3.286-5.549-5.068-10.121-5.068-3.364 0-7.038.992-10.618 2.882-6.541 3.472-10.509 9.316-10.509 14.385 0 1.379.295 2.774.992 4.06 1.783 3.271 5.549 4.96 10.121 4.96 3.364 0 7.038-.883 10.618-2.774 6.541-3.472 10.509-9.331 10.509-14.384 0-1.395-.294-2.775-.992-4.061M2425.838 3317.371c-1.782-3.286-5.549-5.068-10.121-5.068-3.364 0-7.038.992-10.618 2.882-6.541 3.472-10.509 9.316-10.509 14.385 0 1.379.295 2.774.992 4.06 1.783 3.271 5.549 4.96 10.121 4.96 3.364 0 7.038-.883 10.618-2.774 6.541-3.472 10.509-9.331 10.509-14.384 0-1.395-.294-2.775-.992-4.061M2396.338 3242.971c-1.782-3.286-5.549-5.068-10.121-5.068-3.364 0-7.038.992-10.618 2.882-6.541 3.472-10.509 9.316-10.509 14.385 0 1.379.295 2.774.992 4.06 1.783 3.271 5.549 4.96 10.121 4.96 3.364 0 7.038-.883 10.618-2.774 6.541-3.472 10.509-9.331 10.509-14.384 0-1.395-.294-2.775-.992-4.061"/><path class="Note" d="M2425.838 3230.571c-1.782-3.286-5.549-5.068-10.121-5.068-3.364 0-7.038.992-10.618 2.882-6.541 3.472-10.509 9.316-10.509 14.385 0 1.379.295 2.774.992 4.06 1.783 3.271 5.549 4.96 10.121 4.96 3.364 0 7.038-.883 10.618-2.774 6.541-3.472 10.509-9.331 10.509-14.384 0-1.395-.294-2.775-.992-4.061M2594.138 3317.371c-1.782-3.286-5.549-5.068-10.121-5.068-3.364 0-7.038.992-10.618 2.882-6.541 3.472-10.509 9.316-10.509 14.385 0 1.379.295 2.774.992 4.06 1.783 3.271 5.549 4.96 10.121 4.96 3.364 0 7.038-.883 10.618-2.774 6.541-3.472 10.509-9.331 10.509-14.384 0-1.395-.294-2.775-.992-4.061M806.673 3069.361c-1.782-3.286-5.549-5.068-10.121-5.068-3.364 0-7.038.992-10.618 2.882-6.541 3.472-10.509 9.316-10.509 14.385 0 1.379.295 2.774.992 4.06 1.783 3.271 5.549 4.96 10.121 4.96 3.364 0 7.038-.883 10.618-2.774 6.541-3.472 10.509-9.331 10.509-14.384 0-1.395-.294-2.775-.992-4.061M806.673 3019.761c-1.782-3.286-5.549-5.068-10.121-5.068-3.364 0-7.038.992-10.618 2.882-6.541 3.472-10.509 9.316-10.509 14.385 0 1.379.295 2.774.992 4.06 1.783 3.271 5.549 4.96 10.121 4.96 3.364 0 7.038-.883 10.618-2.774 6.541-3.472 10.509-9.331 10.509-14.384 0-1.395-.294-2.775-.992-4.061M890.566 3069.361c-1.782-3.286-5.549-5.068-10.121-5.068-3.364 0-7.038.992-10.618 2.882-6.541 3.472-10.509 9.316-10.509 14.385 0 1.379.295 2.774.992 4.06 1.783 3.271 5.549 4.96 10.121 4.96 3.364 0 7.038-.883 10.618-2.774 6.541-3.472 10.509-9.331 10.509-14.384 0-1.395-.294-2.775-.992-4.061M890.566 3019.761c-1.782-3.286-5.549-5.068-10.121-5.068-3.364 0-7.038.992-10.618 2.882-6.541 3.472-10.509 9.316-10.509 14.385 0 1.379.295 2.774.992 4.06 1.783 3.271 5.549 4.96 10.121 4.96 3.364 0 7.038-.883 10.618-2.774 6.541-3.472 10.509-9.331 10.509-14.384 0-1.395-.294-2.775-.992-4.061M988.962 3069.361c-1.782-3.286-5.549-5.068-10.121-5.068-3.364 0-7.038.992-10.618 2.882-6.541 3.472-10.509 9.316-10.509 14.385 0 1.379.295 2.774.992 4.06 1.783 3.271 5.549 4.96 10.121 4.96 3.364 0 7.038-.883 10.618-2.774 6.541-3.472 10.509-9.331 10.509-14.384 0-1.395-.294-2.775-.992-4.061M988.962 3019.761c-1.782-3.286-5.549-5.068-10.121-5.068-3.364 0-7.038.992-10.618 2.882-6.541 3.472-10.509 9.316-10.509 14.385 0 1.379.295 2.774.992 4.06 1.783 3.271 5.549 4.96 10.121 4.96 3.364 0 7.038-.883 10.618-2.774 6.541-3.472 10.509-9.331 10.509-14.384 0-1.395-.294-2.775-.992-4.061M1072.858 3069.361c-1.782-3.286-5.549-5.068-10.121-5.068-3.364 0-7.038.992-10.618 2.882-6.541 3.472-10.509 9.316-10.509 14.385 0 1.379.295 2.774.992 4.06 1.783 3.271 5.549 4.96 10.121 4.96 3.364 0 7.038-.883 10.618-2.774 6.541-3.472 10.509-9.331 10.509-14.384 0-1.395-.294-2.775-.992-4.061M1072.858 3019.761c-1.782-3.286-5.549-5.068-10.121-5.068-3.364 0-7.038.992-10.618 2.882-6.541 3.472-10.509 9.316-10.509 14.385 0 1.379.295 2.774.992 4.06 1.783 3.271 5.549 4.96 10.121 4.96 3.364 0 7.038-.883 10.618-2.774 6.541-3.472 10.509-9.331 10.509-14.384 0-1.395-.294-2.775-.992-4.061M1138.718 3069.361c-1.782-3.286-5.549-5.068-10.121-5.068-3.364 0-7.038.992-10.618 2.882-6.541 3.472-10.509 9.316-10.509 14.385 0 1.379.295 2.774.992 4.06 1.783 3.271 5.549 4.96 10.121 4.96 3.364 0 7.038-.883 10.618-2.774 6.541-3.472 10.509-9.331 10.509-14.384 0-1.395-.294-2.775-.992-4.061M1138.718 3019.761c-1.782-3.286-5.549-5.068-10.121-5.068-3.364 0-7.038.992-10.618 2.882-6.541 3.472-10.509 9.316-10.509 14.385 0 1.379.295 2.774.992 4.06 1.783 3.271 5.549 4.96 10.121 4.96 3.364 0 7.038-.883 10.618-2.774 6.541-3.472 10.509-9.331 10.509-14.384 0-1.395-.294-2.775-.992-4.061M1222.608 3007.361c-1.782-3.286-5.549-5.068-10.121-5.068-3.364 0-7.038.992-10.618 2.882-6.541 3.472-10.509 9.316-10.509 14.385 0 1.379.295 2.774.992 4.06 1.783 3.271 5.549 4.96 10.121 4.96 3.364 0 7.038-.883 10.618-2.774 6.541-3.472 10.509-9.331 10.509-14.384 0-1.395-.294-2.775-.992-4.061M1275.048 3007.361c-1.782-3.286-5.549-5.068-10.121-5.068-3.364 0-7.038.992-10.618 2.882-6.541 3.472-10.509 9.316-10.509 14.385 0 1.379.295 2.774.992 4.06 1.783 3.271 5.549 4.96 10.121 4.96 3.364 0 7.038-.883 10.618-2.774 6.541-3.472 10.509-9.331 10.509-14.384 0-1.395-.294-2.775-.992-4.061M1327.478 3032.161c-1.782-3.286-5.549-5.068-10.121-5.068-3.364 0-7.038.992-10.618 2.882-6.541 3.472-10.509 9.316-10.509 14.385 0 1.379.295 2.774.992 4.06 1.783 3.271 5.549 4.96 10.121 4.96 3.364 0 7.038-.883 10.618-2.774 6.541-3.472 10.509-9.331 10.509-14.384 0-1.395-.294-2.775-.992-4.061M1379.908 3044.561c-1.782-3.286-5.549-5.068-10.121-5.068-3.364 0-7.038.992-10.618 2.882-6.541 3.472-10.509 9.316-10.509 14.385 0 1.379.295 2.774.992 4.06 1.783 3.271 5.549 4.96 10.121 4.96 3.364 0 7.038-.883 10.618-2.774 6.541-3.472 10.509-9.331 10.509-14.384 0-1.395-.294-2.775-.992-4.061M1486.048 3056.961c-1.782-3.286-5.549-5.068-10.121-5.068-3.364 0-7.038.992-10.618 2.882-6.541 3.472-10.509 9.316-10.509 14.385 0 1.379.295 2.774.992 4.06 1.783 3.271 5.549 4.96 10.121 4.96 3.364 0 7.038-.883 10.618-2.774 6.541-3.472 10.509-9.331 10.509-14.384 0-1.395-.294-2.775-.992-4.061M1586.828 3044.561c-1.782-3.286-5.549-5.068-10.121-5.068-3.364 0-7.038.992-10.618 2.882-6.541 3.472-10.509 9.316-10.509 14.385 0 1.379.295 2.774.992 4.06 1.783 3.271 5.549 4.96 10.121 4.96 3.364 0 7.038-.883 10.618-2.774 6.541-3.472 10.509-9.331 10.509-14.384 0-1.395-.294-2.775-.992-4.061M1669.478 3032.161c-1.782-3.286-5.549-5.068-10.121-5.068-3.364 0-7.038.992-10.618 2.882-6.541 3.472-10.509 9.316-10.509 14.385 0 1.379.295 2.774.992 4.06 1.783 3.271 5.549 4.96 10.121 4.96 3.364 0 7.038-.883 10.618-2.774 6.541-3.472 10.509-9.331 10.509-14.384 0-1.395-.294-2.775-.992-4.061M1721.138 3019.761c-1.782-3.286-5.549-5.068-10.121-5.068-3.364 0-7.038.992-10.618 2.882-6.541 3.472-10.509 9.316-10.509 14.385 0 1.379.295 2.774.992 4.06 1.783 3.271 5.549 4.96 10.121 4.96 3.364 0 7.038-.883 10.618-2.774 6.541-3.472 10.509-9.331 10.509-14.384 0-1.395-.294-2.775-.992-4.061M1821.918 3044.561c-1.782-3.286-5.549-5.068-10.121-5.068-3.364 0-7.038.992-10.618 2.882-6.541 3.472-10.509 9.316-10.509 14.385 0 1.379.295 2.774.992 4.06 1.783 3.271 5.549 4.96 10.121 4.96 3.364 0 7.038-.883 10.618-2.774 6.541-3.472 10.509-9.331 10.509-14.384 0-1.395-.294-2.775-.992-4.061M1904.568 3056.961c-1.782-3.286-5.549-5.068-10.121-5.068-3.364 0-7.038.992-10.618 2.882-6.541 3.472-10.509 9.316-10.509 14.385 0 1.379.295 2.774.992 4.06 1.783 3.271 5.549 4.96 10.121 4.96 3.364 0 7.038-.883 10.618-2.774 6.541-3.472 10.509-9.331 10.509-14.384 0-1.395-.294-2.775-.992-4.061M2039.368 3069.361c-1.782-3.286-5.549-5.068-10.121-5.068-3.364 0-7.038.992-10.618 2.882-6.541 3.472-10.509 9.316-10.509 14.385 0 1.379.295 2.774.992 4.06 1.783 3.271 5.549 4.96 10.121 4.96 3.364 0 7.038-.883 10.618-2.774 6.541-3.472 10.509-9.331 10.509-14.384 0-1.395-.294-2.775-.992-4.061M2235.348 3106.561c-1.782-3.286-5.549-5.068-10.121-5.068-3.364 0-7.038.992-10.618 2.882-6.541 3.472-10.509 9.316-10.509 14.385 0 1.379.295 2.774.992 4.06 1.783 3.271 5.549 4.96 10.121 4.96 3.364 0 7.038-.883 10.618-2.774 6.541-3.472 10.509-9.331 10.509-14.384 0-1.395-.294-2.775-.992-4.061M2298.848 3094.161c-1.782-3.286-5.549-5.068-10.121-5.068-3.364 0-7.038.992-10.618 2.882-6.541 3.472-10.509 9.316-10.509 14.385 0 1.379.295 2.774.992 4.06 1.783 3.271 5.549 4.96 10.121 4.96 3.364 0 7.038-.883 10.618-2.774 6.541-3.472 10.509-9.331 10.509-14.384 0-1.395-.294-2.775-.992-4.061M2362.348 3069.361c-1.782-3.286-5.549-5.068-10.121-5.068-3.364 0-7.038.992-10.618 2.882-6.541 3.472-10.509 9.316-10.509 14.385 0 1.379.295 2.774.992 4.06 1.783 3.271 5.549 4.96 10.121 4.96 3.364 0 7.038-.883 10.618-2.774 6.541-3.472 10.509-9.331 10.509-14.384 0-1.395-.294-2.775-.992-4.061M2425.838 3106.561c-1.782-3.286-5.549-5.068-10.121-5.068-3.364 0-7.038.992-10.618 2.882-6.541 3.472-10.509 9.316-10.509 14.385 0 1.379.295 2.774.992 4.06 1.783 3.271 5.549 4.96 10.121 4.96 3.364 0 7.038-.883 10.618-2.774 6.541-3.472 10.509-9.331 10.509-14.384 0-1.395-.294-2.775-.992-4.061"/><path class="Note" d="M2455.348 3094.161c-1.782-3.286-5.549-5.068-10.121-5.068-3.364 0-7.038.992-10.618 2.882-6.541 3.472-10.509 9.316-10.509 14.385 0 1.379.295 2.774.992 4.06 1.783 3.271 5.549 4.96 10.121 4.96 3.364 0 7.038-.883 10.618-2.774 6.541-3.472 10.509-9.331 10.509-14.384 0-1.395-.294-2.775-.992-4.061M2425.838 3069.361c-1.782-3.286-5.549-5.068-10.121-5.068-3.364 0-7.038.992-10.618 2.882-6.541 3.472-10.509 9.316-10.509 14.385 0 1.379.295 2.774.992 4.06 1.783 3.271 5.549 4.96 10.121 4.96 3.364 0 7.038-.883 10.618-2.774 6.541-3.472 10.509-9.331 10.509-14.384 0-1.395-.294-2.775-.992-4.061"/><path class="Note" d="M2455.348 3056.961c-1.782-3.286-5.549-5.068-10.121-5.068-3.364 0-7.038.992-10.618 2.882-6.541 3.472-10.509 9.316-10.509 14.385 0 1.379.295 2.774.992 4.06 1.783 3.271 5.549 4.96 10.121 4.96 3.364 0 7.038-.883 10.618-2.774 6.541-3.472 10.509-9.331 10.509-14.384 0-1.395-.294-2.775-.992-4.061M2527.438 3106.561c-1.782-3.286-5.549-5.068-10.121-5.068-3.364 0-7.038.992-10.618 2.882-6.541 3.472-10.509 9.316-10.509 14.385 0 1.379.295 2.774.992 4.06 1.783 3.271 5.549 4.96 10.121 4.96 3.364 0 7.038-.883 10.618-2.774 6.541-3.472 10.509-9.331 10.509-14.384 0-1.395-.294-2.775-.992-4.061"/><path class="Note" d="M2556.948 3094.161c-1.782-3.286-5.549-5.068-10.121-5.068-3.364 0-7.038.992-10.618 2.882-6.541 3.472-10.509 9.316-10.509 14.385 0 1.379.295 2.774.992 4.06 1.783 3.271 5.549 4.96 10.121 4.96 3.364 0 7.038-.883 10.618-2.774 6.541-3.472 10.509-9.331 10.509-14.384 0-1.395-.294-2.775-.992-4.061M2527.438 3069.361c-1.782-3.286-5.549-5.068-10.121-5.068-3.364 0-7.038.992-10.618 2.882-6.541 3.472-10.509 9.316-10.509 14.385 0 1.379.295 2.774.992 4.06 1.783 3.271 5.549 4.96 10.121 4.96 3.364 0 7.038-.883 10.618-2.774 6.541-3.472 10.509-9.331 10.509-14.384 0-1.395-.294-2.775-.992-4.061M2594.138 3007.361c-1.782-3.286-5.549-5.068-10.121-5.068-3.364 0-7.038.992-10.618 2.882-6.541 3.472-10.509 9.316-10.509 14.385 0 1.379.295 2.774.992 4.06 1.783 3.271 5.549 4.96 10.121 4.96 3.364 0 7.038-.883 10.618-2.774 6.541-3.472 10.509-9.331 10.509-14.384 0-1.395-.294-2.775-.992-4.061M2657.638 2994.961c-1.782-3.286-5.549-5.068-10.121-5.068-3.364 0-7.038.992-10.618 2.882-6.541 3.472-10.509 9.316-10.509 14.385 0 1.379.295 2.774.992 4.06 1.783 3.271 5.549 4.96 10.121 4.96 3.364 0 7.038-.883 10.618-2.774 6.541-3.472 10.509-9.331 10.509-14.384 0-1.395-.294-2.775-.992-4.061M2721.128 2982.561c-1.782-3.286-5.549-5.068-10.121-5.068-3.364 0-7.038.992-10.618 2.882-6.541 3.472-10.509 9.316-10.509 14.385 0 1.379.295 2.774.992 4.06 1.783 3.271 5.549 4.96 10.121 4.96 3.364 0 7.038-.883 10.618-2.774 6.541-3.472 10.509-9.331 10.509-14.384 0-1.395-.294-2.775-.992-4.061"/><path class="Clef" d="M594.345 3250.907c-7.548 0-13.594 4.356-13.702 4.356-5.75 4.262-8.029 9.33-8.928 12.802-.496 1.783-.682 3.565-.682 5.255 0 2.387.388 4.557 1.287 6.448 1.193 2.682 3.472 4.557 6.448 5.549 1.193.403 2.48.604 3.766.604 2.185 0 4.464-.604 6.355-1.689 3.069-1.69 4.96-5.254 4.96-9.13 0-3.472-1.798-6.649-4.774-8.525-2.077-1.394-4.061-1.782-5.75-1.782-1.194 0-2.279.186-3.178.496-.992.388-2.666 1.38-3.472 2.077.31-1.891 1.488-4.759 2.588-6.355 1.086-1.581 3.271-3.565 4.96-4.464 2.48-1.38 5.658-1.984 9.13-1.984 10.122 0 15.082 8.138 15.082 24.8 0 9.238-3.472 18.058-6.448 23.917-3.286 6.54-7.642 12.803-11.517 16.275-10.323 9.424-20.041 13.888-20.134 13.888 0 0-1.489.883-1.101 2.371.31.992 1.194 1.194 1.798 1.194.093 0 .388-.093.496-.093.093 0 11.408-4.666 20.429-11.718 5.069-3.658 9.626-7.626 13.594-11.904a73.558 73.558 0 009.13-12.199c4.355-7.44 6.835-15.175 6.835-21.824 0-8.23-2.17-15.081-6.247-19.933-4.665-5.564-11.702-8.432-20.925-8.432m31.14 12.586c0 2.79 2.185 4.96 4.774 4.96 2.573 0 4.758-2.17 4.758-4.96 0-2.774-2.185-5.053-4.758-5.053-2.589 0-4.774 2.279-4.774 5.053m0 24.506c0 2.774 2.185 5.068 4.774 5.068 2.573 0 4.758-2.294 4.758-5.068 0-2.775-2.185-5.053-4.758-5.053-2.589 0-4.774 2.278-4.774 5.053M631.995 3059.115c-1.225-5.378-3.844-9.176-4.62-10.198-3.161-4.248-7.145-7.068-11.795-8.417-3.084-.868-6.06-.992-8.463-.806a2314.148 2314.148 0 01-2.93-17.205c5.41-6.123 9.006-11.873 11.269-16.136 3.441-6.525 4.573-11.067 4.635-11.268 1.705-5.177 2.061-12.819.96-20.956-.991-7.487-3.068-14.151-5.409-17.375-1.007-1.41-2.061-2.14-3.084-2.14-1.21 0-3.705 1.225-6.572 3.984-2.279 2.17-5.518 6.03-8.06 11.997-2.976 7.006-3.193 16.414-2.837 23.08.372 7.222 1.473 12.864 1.488 12.91.016.094.279 1.582.713 4.124-.217.232-.465.45-.713.697-1.023.992-2.201 2.108-3.58 3.488-.853.852-1.798 1.751-2.79 2.712-8.37 8.076-21.065 20.305-21.065 39.308 0 4.666.899 9.053 2.666 13.036 1.566 3.565 3.844 6.82 6.758 9.672 7.673 7.502 18.182 10.68 25.172 10.525 2.93-.078 5.55-.31 7.92-.76 1.814 9.533 2.946 16.508 2.977 21.809.046 6.463-1.597 10.416-5.456 13.16-2.418 1.72-5.208 2.665-8.277 2.805-2.573.124-4.82-.341-6.231-.744h-.016s-.279-.093-.294-.28c-.016-.185.34-.232.34-.232h.032c1.906-.434 5.44-1.658 7.78-4.929 1.783-2.51 2.651-7.099.822-11.005-1.1-2.371-3.58-5.301-9.16-5.75-2.48-.202-4.728.31-6.712 1.503-1.798 1.07-3.286 2.697-4.324 4.681-2.434 4.666-1.984 10.354 1.116 14.167 2.944 3.596 7.517 5.89 12.911 6.464.853.093 1.69.124 2.527.124 4.402 0 8.757-1.194 12.307-3.38 3.627-2.557 5.735-6.51 6.401-12.09.558-4.603.17-10.477-1.209-18.49-.356-2.078-.899-5.085-1.55-8.805 5.704-1.906 9.827-5.456 13.563-11.268 3.27-5.689 4.2-11.75 2.79-18.012m-33.945 26.01c-4.604-1.21-9.006-3.69-12.726-7.177-1.302-1.209-3.162-3.363-4.619-6.727-1.348-3.146-2.015-6.557-1.953-10.106.062-4.666 1.364-9.455 3.844-14.198 2.899-5.534 7.425-11.02 13.439-16.306a89.206 89.206 0 004.076-3.813c.76 4.231 1.581 8.881 2.449 13.717-3.813 1.256-8.525 4.387-11.61 9.998-3.518 6.51-3.379 11.997-2.65 15.454.93 4.417 3.441 8.153 6.867 10.23.93.558 5.022 2.666 6.85 2.092a1.16 1.16 0 00.776-.666c.511-1.163-.512-1.798-2.046-2.744a27.274 27.274 0 01-1.984-1.317c-3.302-2.465-4.743-6.882-3.674-11.238a12.436 12.436 0 013.674-6.216c1.643-1.534 3.673-2.62 6.029-3.255 2.03 11.16 4.077 22.228 5.704 30.52.124.682.264 1.348.388 2.015-4.34.93-8.65.837-12.834-.263m11.237-32.938c10.261-.465 14.493 6.913 15.376 11.702.465 2.527.465 6.929-1.07 11.114-1.162 3.146-3.595 7.192-8.695 9.238-.062-.418-.14-.852-.217-1.271-1.534-8.711-3.456-19.623-5.394-30.783m-7.27-70.386c1.768-5.688 4.48-8.912 6.464-10.633 1.736-1.503 3.364-2.216 4.278-2.216.14 0 .264.03.357.062.465.14.992.697 1.457 1.565 2.294 4.247 1.55 10.912.217 15.314-1.612 5.363-4.51 10.928-13.237 20.46-.171-1.1-.326-2.139-.481-3.115-1.24-8.215-.914-15.438.946-21.437M594.345 2595.387c-7.548 0-13.594 4.356-13.702 4.356-5.75 4.262-8.029 9.33-8.928 12.802-.496 1.783-.682 3.565-.682 5.255 0 2.387.388 4.557 1.287 6.448 1.193 2.682 3.472 4.557 6.448 5.549 1.193.403 2.48.604 3.766.604 2.185 0 4.464-.604 6.355-1.689 3.069-1.69 4.96-5.254 4.96-9.13 0-3.472-1.798-6.649-4.774-8.525-2.077-1.394-4.061-1.782-5.75-1.782-1.194 0-2.279.186-3.178.496-.992.388-2.666 1.38-3.472 2.077.31-1.891 1.488-4.759 2.588-6.355 1.086-1.581 3.271-3.565 4.96-4.464 2.48-1.38 5.658-1.984 9.13-1.984 10.122 0 15.082 8.138 15.082 24.8 0 9.238-3.472 18.058-6.448 23.917-3.286 6.54-7.642 12.803-11.517 16.275-10.323 9.424-20.041 13.888-20.134 13.888 0 0-1.489.883-1.101 2.371.31.992 1.194 1.194 1.798 1.194.093 0 .388-.093.496-.093.093 0 11.408-4.666 20.429-11.718 5.069-3.658 9.626-7.626 13.594-11.904a73.558 73.558 0 009.13-12.199c4.355-7.44 6.835-15.175 6.835-21.824 0-8.23-2.17-15.081-6.247-19.933-4.665-5.564-11.702-8.432-20.925-8.432m31.14 12.586c0 2.79 2.185 4.96 4.774 4.96 2.573 0 4.758-2.17 4.758-4.96 0-2.774-2.185-5.053-4.758-5.053-2.589 0-4.774 2.279-4.774 5.053m0 24.506c0 2.774 2.185 5.068 4.774 5.068 2.573 0 4.758-2.294 4.758-5.068 0-2.775-2.185-5.053-4.758-5.053-2.589 0-4.774 2.278-4.774 5.053M594.345 2227.177c-7.548 0-13.594 4.356-13.702 4.356-5.75 4.262-8.029 9.33-8.928 12.802-.496 1.783-.682 3.565-.682 5.255 0 2.387.388 4.557 1.287 6.448 1.193 2.682 3.472 4.557 6.448 5.549 1.193.403 2.48.604 3.766.604 2.185 0 4.464-.604 6.355-1.689 3.069-1.69 4.96-5.254 4.96-9.13 0-3.472-1.798-6.649-4.774-8.525-2.077-1.394-4.061-1.782-5.75-1.782-1.194 0-2.279.186-3.178.496-.992.388-2.666 1.38-3.472 2.077.31-1.891 1.488-4.759 2.588-6.355 1.086-1.581 3.271-3.565 4.96-4.464 2.48-1.38 5.658-1.984 9.13-1.984 10.122 0 15.082 8.138 15.082 24.8 0 9.238-3.472 18.058-6.448 23.917-3.286 6.54-7.642 12.803-11.517 16.275-10.323 9.424-20.041 13.888-20.134 13.888 0 0-1.489.883-1.101 2.371.31.992 1.194 1.194 1.798 1.194.093 0 .388-.093.496-.093.093 0 11.408-4.666 20.429-11.718 5.069-3.658 9.626-7.626 13.594-11.904a73.558 73.558 0 009.13-12.199c4.355-7.44 6.835-15.175 6.835-21.824 0-8.23-2.17-15.081-6.247-19.933-4.665-5.564-11.702-8.432-20.925-8.432m31.14 12.586c0 2.79 2.185 4.96 4.774 4.96 2.573 0 4.758-2.17 4.758-4.96 0-2.774-2.185-5.053-4.758-5.053-2.589 0-4.774 2.279-4.774 5.053m0 24.506c0 2.774 2.185 5.068 4.774 5.068 2.573 0 4.758-2.294 4.758-5.068 0-2.775-2.185-5.053-4.758-5.053-2.589 0-4.774 2.278-4.774 5.053M594.345 1858.957c-7.548 0-13.594 4.356-13.702 4.356-5.75 4.262-8.029 9.33-8.928 12.802-.496 1.783-.682 3.565-.682 5.255 0 2.387.388 4.557 1.287 6.448 1.193 2.682 3.472 4.557 6.448 5.549 1.193.403 2.48.604 3.766.604 2.185 0 4.464-.604 6.355-1.689 3.069-1.69 4.96-5.254 4.96-9.13 0-3.472-1.798-6.649-4.774-8.525-2.077-1.394-4.061-1.782-5.75-1.782-1.194 0-2.279.186-3.178.496-.992.388-2.666 1.38-3.472 2.077.31-1.891 1.488-4.759 2.588-6.355 1.086-1.581 3.271-3.565 4.96-4.464 2.48-1.38 5.658-1.984 9.13-1.984 10.122 0 15.082 8.138 15.082 24.8 0 9.238-3.472 18.058-6.448 23.917-3.286 6.54-7.642 12.803-11.517 16.275-10.323 9.424-20.041 13.888-20.134 13.888 0 0-1.489.883-1.101 2.371.31.992 1.194 1.194 1.798 1.194.093 0 .388-.093.496-.093.093 0 11.408-4.666 20.429-11.718 5.069-3.658 9.626-7.626 13.594-11.904a73.558 73.558 0 009.13-12.199c4.355-7.44 6.835-15.175 6.835-21.824 0-8.23-2.17-15.081-6.247-19.933-4.665-5.564-11.702-8.432-20.925-8.432m31.14 12.586c0 2.79 2.185 4.96 4.774 4.96 2.573 0 4.758-2.17 4.758-4.96 0-2.774-2.185-5.053-4.758-5.053-2.589 0-4.774 2.279-4.774 5.053m0 24.506c0 2.774 2.185 5.068 4.774 5.068 2.573 0 4.758-2.294 4.758-5.068 0-2.775-2.185-5.053-4.758-5.053-2.589 0-4.774 2.278-4.774 5.053M594.345 1490.747c-7.548 0-13.594 4.356-13.702 4.356-5.75 4.262-8.029 9.33-8.928 12.802-.496 1.783-.682 3.565-.682 5.255 0 2.387.388 4.557 1.287 6.448 1.193 2.682 3.472 4.557 6.448 5.549 1.193.403 2.48.604 3.766.604 2.185 0 4.464-.604 6.355-1.689 3.069-1.69 4.96-5.254 4.96-9.13 0-3.472-1.798-6.649-4.774-8.525-2.077-1.394-4.061-1.782-5.75-1.782-1.194 0-2.279.186-3.178.496-.992.388-2.666 1.38-3.472 2.077.31-1.891 1.488-4.759 2.588-6.355 1.086-1.581 3.271-3.565 4.96-4.464 2.48-1.38 5.658-1.984 9.13-1.984 10.122 0 15.082 8.138 15.082 24.8 0 9.238-3.472 18.058-6.448 23.917-3.286 6.54-7.642 12.803-11.517 16.275-10.323 9.424-20.041 13.888-20.134 13.888 0 0-1.489.883-1.101 2.371.31.992 1.194 1.194 1.798 1.194.093 0 .388-.093.496-.093.093 0 11.408-4.666 20.429-11.718 5.069-3.658 9.626-7.626 13.594-11.904a73.558 73.558 0 009.13-12.199c4.355-7.44 6.835-15.175 6.835-21.824 0-8.23-2.17-15.081-6.247-19.933-4.665-5.564-11.702-8.432-20.925-8.432m31.14 12.586c0 2.79 2.185 4.96 4.774 4.96 2.573 0 4.758-2.17 4.758-4.96 0-2.774-2.185-5.053-4.758-5.053-2.589 0-4.774 2.279-4.774 5.053m0 24.506c0 2.774 2.185 5.068 4.774 5.068 2.573 0 4.758-2.294 4.758-5.068 0-2.775-2.185-5.053-4.758-5.053-2.589 0-4.774 2.278-4.774 5.053M594.345 1122.537c-7.548 0-13.594 4.356-13.702 4.356-5.75 4.262-8.029 9.33-8.928 12.802-.496 1.783-.682 3.565-.682 5.255 0 2.387.388 4.557 1.287 6.448 1.193 2.682 3.472 4.557 6.448 5.549 1.193.403 2.48.604 3.766.604 2.185 0 4.464-.604 6.355-1.689 3.069-1.69 4.96-5.254 4.96-9.13 0-3.472-1.798-6.649-4.774-8.525-2.077-1.394-4.061-1.782-5.75-1.782-1.194 0-2.279.186-3.178.496-.992.388-2.666 1.38-3.472 2.077.31-1.891 1.488-4.759 2.588-6.355 1.086-1.581 3.271-3.565 4.96-4.464 2.48-1.38 5.658-1.984 9.13-1.984 10.122 0 15.082 8.138 15.082 24.8 0 9.238-3.472 18.058-6.448 23.917-3.286 6.54-7.642 12.803-11.517 16.275-10.323 9.424-20.041 13.888-20.134 13.888 0 0-1.489.883-1.101 2.371.31.992 1.194 1.194 1.798 1.194.093 0 .388-.093.496-.093.093 0 11.408-4.666 20.429-11.718 5.069-3.658 9.626-7.626 13.594-11.904a73.558 73.558 0 009.13-12.199c4.355-7.44 6.835-15.175 6.835-21.824 0-8.23-2.17-15.081-6.247-19.933-4.665-5.564-11.702-8.432-20.925-8.432m31.14 12.586c0 2.79 2.185 4.96 4.774 4.96 2.573 0 4.758-2.17 4.758-4.96 0-2.774-2.185-5.053-4.758-5.053-2.589 0-4.774 2.279-4.774 5.053m0 24.506c0 2.774 2.185 5.068 4.774 5.068 2.573 0 4.758-2.294 4.758-5.068 0-2.775-2.185-5.053-4.758-5.053-2.589 0-4.774 2.278-4.774 5.053M631.995 822.937c-1.225-5.378-3.844-9.176-4.62-10.198-3.161-4.248-7.145-7.068-11.795-8.417-3.084-.868-6.06-.992-8.463-.806a2314.148 2314.148 0 01-2.93-17.205c5.41-6.123 9.006-11.873 11.269-16.136 3.441-6.525 4.573-11.067 4.635-11.268 1.705-5.177 2.061-12.819.96-20.956-.991-7.487-3.068-14.151-5.409-17.375-1.007-1.41-2.061-2.14-3.084-2.14-1.21 0-3.705 1.225-6.572 3.984-2.279 2.17-5.518 6.03-8.06 11.997-2.976 7.006-3.193 16.414-2.837 23.08.372 7.222 1.473 12.864 1.488 12.91.016.094.279 1.582.713 4.124-.217.232-.465.45-.713.697-1.023.992-2.201 2.108-3.58 3.488-.853.852-1.798 1.751-2.79 2.712-8.37 8.076-21.065 20.305-21.065 39.308 0 4.666.899 9.053 2.666 13.036 1.566 3.565 3.844 6.82 6.758 9.672 7.673 7.502 18.182 10.68 25.172 10.525 2.93-.078 5.55-.31 7.92-.76 1.814 9.533 2.946 16.508 2.977 21.809.046 6.463-1.597 10.416-5.456 13.16-2.418 1.72-5.208 2.665-8.277 2.805-2.573.124-4.82-.341-6.231-.744h-.016s-.279-.093-.294-.28c-.016-.185.34-.232.34-.232h.032c1.906-.434 5.44-1.658 7.78-4.929 1.783-2.51 2.651-7.099.822-11.005-1.1-2.371-3.58-5.301-9.16-5.75-2.48-.202-4.728.31-6.712 1.503-1.798 1.07-3.286 2.697-4.324 4.681-2.434 4.666-1.984 10.354 1.116 14.167 2.944 3.596 7.517 5.89 12.911 6.464.853.093 1.69.124 2.527.124 4.402 0 8.757-1.194 12.307-3.38 3.627-2.557 5.735-6.51 6.401-12.09.558-4.603.17-10.477-1.209-18.49-.356-2.078-.899-5.085-1.55-8.805 5.704-1.906 9.827-5.456 13.563-11.268 3.27-5.689 4.2-11.75 2.79-18.012m-33.945 26.01c-4.604-1.21-9.006-3.69-12.726-7.177-1.302-1.209-3.162-3.363-4.619-6.727-1.348-3.146-2.015-6.557-1.953-10.106.062-4.666 1.364-9.455 3.844-14.198 2.899-5.534 7.425-11.02 13.439-16.306a89.206 89.206 0 004.076-3.813c.76 4.231 1.581 8.881 2.449 13.717-3.813 1.256-8.525 4.387-11.61 9.998-3.518 6.51-3.379 11.997-2.65 15.454.93 4.417 3.441 8.153 6.867 10.23.93.558 5.022 2.666 6.85 2.092a1.16 1.16 0 00.776-.666c.511-1.163-.512-1.798-2.046-2.744a27.274 27.274 0 01-1.984-1.317c-3.302-2.465-4.743-6.882-3.674-11.238a12.436 12.436 0 013.674-6.216c1.643-1.534 3.673-2.62 6.029-3.255 2.03 11.16 4.077 22.228 5.704 30.52.124.682.264 1.348.388 2.015-4.34.93-8.65.837-12.834-.263m11.237-32.938c10.261-.465 14.493 6.913 15.376 11.702.465 2.527.465 6.929-1.07 11.114-1.162 3.146-3.595 7.192-8.695 9.238-.062-.418-.14-.852-.217-1.271-1.534-8.711-3.456-19.623-5.394-30.783m-7.27-70.386c1.768-5.688 4.48-8.912 6.464-10.633 1.736-1.503 3.364-2.216 4.278-2.216.14 0 .264.03.357.062.465.14.992.697 1.457 1.565 2.294 4.247 1.55 10.912.217 15.314-1.612 5.363-4.51 10.928-13.237 20.46-.171-1.1-.326-2.139-.481-3.115-1.24-8.215-.914-15.438.946-21.437M631.995 454.724c-1.225-5.378-3.844-9.176-4.62-10.198-3.161-4.248-7.145-7.068-11.795-8.417-3.084-.868-6.06-.992-8.463-.806a2314.148 2314.148 0 01-2.93-17.205c5.41-6.123 9.006-11.873 11.269-16.136 3.441-6.525 4.573-11.067 4.635-11.268 1.705-5.177 2.061-12.819.96-20.956-.991-7.487-3.068-14.151-5.409-17.375-1.007-1.41-2.061-2.14-3.084-2.14-1.21 0-3.705 1.225-6.572 3.984-2.279 2.17-5.518 6.03-8.06 11.997-2.976 7.006-3.193 16.414-2.837 23.08.372 7.222 1.473 12.864 1.488 12.91.016.094.279 1.582.713 4.124-.217.232-.465.45-.713.697-1.023.992-2.201 2.108-3.58 3.488-.853.852-1.798 1.751-2.79 2.712-8.37 8.076-21.065 20.305-21.065 39.308 0 4.666.899 9.053 2.666 13.036 1.566 3.565 3.844 6.82 6.758 9.672 7.673 7.502 18.182 10.68 25.172 10.525 2.93-.078 5.55-.31 7.92-.76 1.814 9.533 2.946 16.508 2.977 21.809.046 6.463-1.597 10.416-5.456 13.16-2.418 1.72-5.208 2.665-8.277 2.805-2.573.124-4.82-.341-6.231-.744h-.016s-.279-.093-.294-.28c-.016-.185.34-.232.34-.232h.032c1.906-.434 5.44-1.658 7.78-4.929 1.783-2.51 2.651-7.099.822-11.005-1.1-2.371-3.58-5.301-9.16-5.75-2.48-.202-4.728.31-6.712 1.503-1.798 1.07-3.286 2.697-4.324 4.681-2.434 4.666-1.984 10.354 1.116 14.167 2.944 3.596 7.517 5.89 12.911 6.464.853.093 1.69.124 2.527.124 4.402 0 8.757-1.194 12.307-3.38 3.627-2.557 5.735-6.51 6.401-12.09.558-4.603.17-10.477-1.209-18.49-.356-2.078-.899-5.085-1.55-8.805 5.704-1.906 9.827-5.456 13.563-11.268 3.27-5.689 4.2-11.75 2.79-18.012m-33.945 26.01c-4.604-1.21-9.006-3.69-12.726-7.177-1.302-1.209-3.162-3.363-4.619-6.727-1.348-3.146-2.015-6.557-1.953-10.106.062-4.666 1.364-9.455 3.844-14.198 2.899-5.534 7.425-11.02 13.439-16.306a89.206 89.206 0 004.076-3.813c.76 4.231 1.581 8.881 2.449 13.717-3.813 1.256-8.525 4.387-11.61 9.998-3.518 6.51-3.379 11.997-2.65 15.454.93 4.417 3.441 8.153 6.867 10.23.93.558 5.022 2.666 6.85 2.092a1.16 1.16 0 00.776-.666c.511-1.163-.512-1.798-2.046-2.744a27.274 27.274 0 01-1.984-1.317c-3.302-2.465-4.743-6.882-3.674-11.238a12.436 12.436 0 013.674-6.216c1.643-1.534 3.673-2.62 6.029-3.255 2.03 11.16 4.077 22.228 5.704 30.52.124.682.264 1.348.388 2.015-4.34.93-8.65.837-12.834-.263m11.237-32.938c10.261-.465 14.493 6.913 15.376 11.702.465 2.527.465 6.929-1.07 11.114-1.162 3.146-3.595 7.192-8.695 9.238-.062-.418-.14-.852-.217-1.271-1.534-8.711-3.456-19.623-5.394-30.783m-7.27-70.386c1.768-5.688 4.48-8.912 6.464-10.633 1.736-1.503 3.364-2.216 4.278-2.216.14 0 .264.03.357.062.465.14.992.697 1.457 1.565 2.294 4.247 1.55 10.912.217 15.314-1.612 5.363-4.51 10.928-13.237 20.46-.171-1.1-.326-2.139-.481-3.115-1.24-8.215-.914-15.438.946-21.437"/><path class="KeySig" d="M704.543 3280.357c-.589-3.86-2.976-7.533-8.029-7.533-4.96 0-7.843 3.069-8.339 3.673l.403-31.852c0-.79-.589-1.38-1.395-1.38h-1.178c-.806 0-1.395.59-1.395 1.38l.496 59.628c0 .791.589 1.38 1.395 1.38.186 0 .589-.093.79-.186.388-.202 6.836-3.379 12.199-9.424 3.767-4.278 5.255-9.13 5.255-13.206 0-.884-.094-1.674-.202-2.48m-6.836 3.875c0 1.488-.402 6.045-2.882 9.827-1.69 2.573-5.053 5.254-6.944 6.742l.294-19.344c.202-.899 1.69-3.766 5.658-3.766 3.58 0 3.874 3.363 3.874 5.456v1.085M679.743 3317.557c-.589-3.86-2.976-7.533-8.029-7.533-4.96 0-7.843 3.069-8.339 3.673l.403-31.852c0-.79-.589-1.38-1.395-1.38h-1.178c-.806 0-1.395.59-1.395 1.38l.496 59.628c0 .791.589 1.38 1.395 1.38.186 0 .589-.093.79-.186.388-.202 6.836-3.379 12.199-9.424 3.767-4.278 5.255-9.13 5.255-13.206 0-.884-.094-1.674-.202-2.48m-6.836 3.875c0 1.488-.402 6.045-2.882 9.827-1.69 2.573-5.053 5.254-6.944 6.742l.294-19.344c.202-.899 1.69-3.766 5.658-3.766 3.58 0 3.874 3.363 3.874 5.456v1.085M704.543 2995.147c-.589-3.86-2.976-7.533-8.029-7.533-4.96 0-7.843 3.069-8.339 3.673l.403-31.852c0-.79-.589-1.38-1.395-1.38h-1.178c-.806 0-1.395.59-1.395 1.38l.496 59.628c0 .791.589 1.38 1.395 1.38.186 0 .589-.093.79-.186.388-.202 6.836-3.379 12.199-9.424 3.767-4.278 5.255-9.13 5.255-13.206 0-.884-.094-1.674-.202-2.48m-6.836 3.875c0 1.488-.402 6.045-2.882 9.827-1.69 2.573-5.053 5.254-6.944 6.742l.294-19.344c.202-.899 1.69-3.766 5.658-3.766 3.58 0 3.874 3.363 3.874 5.456v1.085M679.743 3032.347c-.589-3.86-2.976-7.533-8.029-7.533-4.96 0-7.843 3.069-8.339 3.673l.403-31.852c0-.79-.589-1.38-1.395-1.38h-1.178c-.806 0-1.395.59-1.395 1.38l.496 59.628c0 .791.589 1.38 1.395 1.38.186 0 .589-.093.79-.186.388-.202 6.836-3.379 12.199-9.424 3.767-4.278 5.255-9.13 5.255-13.206 0-.884-.094-1.674-.202-2.48m-6.836 3.875c0 1.488-.402 6.045-2.882 9.827-1.69 2.573-5.053 5.254-6.944 6.742l.294-19.344c.202-.899 1.69-3.766 5.658-3.766 3.58 0 3.874 3.363 3.874 5.456v1.085M704.543 2624.837c-.589-3.86-2.976-7.533-8.029-7.533-4.96 0-7.843 3.069-8.339 3.673l.403-31.852c0-.79-.589-1.38-1.395-1.38h-1.178c-.806 0-1.395.59-1.395 1.38l.496 59.628c0 .791.589 1.38 1.395 1.38.186 0 .589-.093.79-.186.388-.202 6.836-3.379 12.199-9.424 3.767-4.278 5.255-9.13 5.255-13.206 0-.884-.094-1.674-.202-2.48m-6.836 3.875c0 1.488-.402 6.045-2.882 9.827-1.69 2.573-5.053 5.254-6.944 6.742l.294-19.344c.202-.899 1.69-3.766 5.658-3.766 3.58 0 3.874 3.363 3.874 5.456v1.085M679.743 2662.037c-.589-3.86-2.976-7.533-8.029-7.533-4.96 0-7.843 3.069-8.339 3.673l.403-31.852c0-.79-.589-1.38-1.395-1.38h-1.178c-.806 0-1.395.59-1.395 1.38l.496 59.628c0 .791.589 1.38 1.395 1.38.186 0 .589-.093.79-.186.388-.202 6.836-3.379 12.199-9.424 3.767-4.278 5.255-9.13 5.255-13.206 0-.884-.094-1.674-.202-2.48m-6.836 3.875c0 1.488-.402 6.045-2.882 9.827-1.69 2.573-5.053 5.254-6.944 6.742l.294-19.344c.202-.899 1.69-3.766 5.658-3.766 3.58 0 3.874 3.363 3.874 5.456v1.085M704.543 2256.627c-.589-3.86-2.976-7.533-8.029-7.533-4.96 0-7.843 3.069-8.339 3.673l.403-31.852c0-.79-.589-1.38-1.395-1.38h-1.178c-.806 0-1.395.59-1.395 1.38l.496 59.628c0 .791.589 1.38 1.395 1.38.186 0 .589-.093.79-.186.388-.202 6.836-3.379 12.199-9.424 3.767-4.278 5.255-9.13 5.255-13.206 0-.884-.094-1.674-.202-2.48m-6.836 3.875c0 1.488-.402 6.045-2.882 9.827-1.69 2.573-5.053 5.254-6.944 6.742l.294-19.344c.202-.899 1.69-3.766 5.658-3.766 3.58 0 3.874 3.363 3.874 5.456v1.085M679.743 2293.827c-.589-3.86-2.976-7.533-8.029-7.533-4.96 0-7.843 3.069-8.339 3.673l.403-31.852c0-.79-.589-1.38-1.395-1.38h-1.178c-.806 0-1.395.59-1.395 1.38l.496 59.628c0 .791.589 1.38 1.395 1.38.186 0 .589-.093.79-.186.388-.202 6.836-3.379 12.199-9.424 3.767-4.278 5.255-9.13 5.255-13.206 0-.884-.094-1.674-.202-2.48m-6.836 3.875c0 1.488-.402 6.045-2.882 9.827-1.69 2.573-5.053 5.254-6.944 6.742l.294-19.344c.202-.899 1.69-3.766 5.658-3.766 3.58 0 3.874 3.363 3.874 5.456v1.085M704.543 1888.407c-.589-3.86-2.976-7.533-8.029-7.533-4.96 0-7.843 3.069-8.339 3.673l.403-31.852c0-.79-.589-1.38-1.395-1.38h-1.178c-.806 0-1.395.59-1.395 1.38l.496 59.628c0 .791.589 1.38 1.395 1.38.186 0 .589-.093.79-.186.388-.202 6.836-3.379 12.199-9.424 3.767-4.278 5.255-9.13 5.255-13.206 0-.884-.094-1.674-.202-2.48m-6.836 3.875c0 1.488-.402 6.045-2.882 9.827-1.69 2.573-5.053 5.254-6.944 6.742l.294-19.344c.202-.899 1.69-3.766 5.658-3.766 3.58 0 3.874 3.363 3.874 5.456v1.085M679.743 1925.607c-.589-3.86-2.976-7.533-8.029-7.533-4.96 0-7.843 3.069-8.339 3.673l.403-31.852c0-.79-.589-1.38-1.395-1.38h-1.178c-.806 0-1.395.59-1.395 1.38l.496 59.628c0 .791.589 1.38 1.395 1.38.186 0 .589-.093.79-.186.388-.202 6.836-3.379 12.199-9.424 3.767-4.278 5.255-9.13 5.255-13.206 0-.884-.094-1.674-.202-2.48m-6.836 3.875c0 1.488-.402 6.045-2.882 9.827-1.69 2.573-5.053 5.254-6.944 6.742l.294-19.344c.202-.899 1.69-3.766 5.658-3.766 3.58 0 3.874 3.363 3.874 5.456v1.085M704.543 1520.197c-.589-3.86-2.976-7.533-8.029-7.533-4.96 0-7.843 3.069-8.339 3.673l.403-31.852c0-.79-.589-1.38-1.395-1.38h-1.178c-.806 0-1.395.59-1.395 1.38l.496 59.628c0 .791.589 1.38 1.395 1.38.186 0 .589-.093.79-.186.388-.202 6.836-3.379 12.199-9.424 3.767-4.278 5.255-9.13 5.255-13.206 0-.884-.094-1.674-.202-2.48m-6.836 3.875c0 1.488-.402 6.045-2.882 9.827-1.69 2.573-5.053 5.254-6.944 6.742l.294-19.344c.202-.899 1.69-3.766 5.658-3.766 3.58 0 3.874 3.363 3.874 5.456v1.085M679.743 1557.397c-.589-3.86-2.976-7.533-8.029-7.533-4.96 0-7.843 3.069-8.339 3.673l.403-31.852c0-.79-.589-1.38-1.395-1.38h-1.178c-.806 0-1.395.59-1.395 1.38l.496 59.628c0 .791.589 1.38 1.395 1.38.186 0 .589-.093.79-.186.388-.202 6.836-3.379 12.199-9.424 3.767-4.278 5.255-9.13 5.255-13.206 0-.884-.094-1.674-.202-2.48m-6.836 3.875c0 1.488-.402 6.045-2.882 9.827-1.69 2.573-5.053 5.254-6.944 6.742l.294-19.344c.202-.899 1.69-3.766 5.658-3.766 3.58 0 3.874 3.363 3.874 5.456v1.085M704.543 1151.987c-.589-3.86-2.976-7.533-8.029-7.533-4.96 0-7.843 3.069-8.339 3.673l.403-31.852c0-.79-.589-1.38-1.395-1.38h-1.178c-.806 0-1.395.59-1.395 1.38l.496 59.628c0 .791.589 1.38 1.395 1.38.186 0 .589-.093.79-.186.388-.202 6.836-3.379 12.199-9.424 3.767-4.278 5.255-9.13 5.255-13.206 0-.884-.094-1.674-.202-2.48m-6.836 3.875c0 1.488-.402 6.045-2.882 9.827-1.69 2.573-5.053 5.254-6.944 6.742l.294-19.344c.202-.899 1.69-3.766 5.658-3.766 3.58 0 3.874 3.363 3.874 5.456v1.085M679.743 1189.187c-.589-3.86-2.976-7.533-8.029-7.533-4.96 0-7.843 3.069-8.339 3.673l.403-31.852c0-.79-.589-1.38-1.395-1.38h-1.178c-.806 0-1.395.59-1.395 1.38l.496 59.628c0 .791.589 1.38 1.395 1.38.186 0 .589-.093.79-.186.388-.202 6.836-3.379 12.199-9.424 3.767-4.278 5.255-9.13 5.255-13.206 0-.884-.094-1.674-.202-2.48m-6.836 3.875c0 1.488-.402 6.045-2.882 9.827-1.69 2.573-5.053 5.254-6.944 6.742l.294-19.344c.202-.899 1.69-3.766 5.658-3.766 3.58 0 3.874 3.363 3.874 5.456v1.085M682.92 743.903c.605-.108 1.101-.806 1.101-1.395v-5.86c0-.79-.604-1.379-1.395-1.379h-.201l-3.271.698V721.18h-2.775v15.376l-8.834 1.783v-13.982h-2.775v14.586l-3.875.79c-.589.094-1.085.791-1.085 1.38v5.952-.186c0 .79.589 1.38 1.395 1.38h.295l3.27-.698v16.368l-3.875.806c-.589.093-1.085.79-1.085 1.38v5.75c0 .806.589 1.395 1.395 1.395h.295l3.27-.697v14.787h2.775v-15.377l8.834-1.782v13.981h2.775v-14.585l3.767-.698c.604-.093 1.1-.79 1.1-1.38v-5.858c0-.791-.604-1.38-1.395-1.38h-.201l-3.271.682v-16.368l3.767-.682m-15.376 19.53v-16.461l8.834-1.783v16.369l-8.834 1.875M682.92 375.69c.605-.108 1.101-.806 1.101-1.395v-5.86c0-.79-.604-1.379-1.395-1.379h-.201l-3.271.698v-14.787h-2.775v15.376l-8.834 1.783v-13.982h-2.775v14.586l-3.875.79c-.589.094-1.085.791-1.085 1.38v5.952-.186c0 .79.589 1.38 1.395 1.38h.295l3.27-.698v16.368l-3.875.806c-.589.093-1.085.79-1.085 1.38v5.75c0 .806.589 1.395 1.395 1.395h.295l3.27-.697v14.787h2.775V403.76l8.834-1.782v13.981h2.775v-14.585l3.767-.698c.604-.093 1.1-.79 1.1-1.38v-5.858c0-.791-.604-1.38-1.395-1.38h-.201l-3.271.682v-16.368l3.767-.682m-15.376 19.53v-16.461l8.834-1.783v16.369l-8.834 1.875"/><path class="Rest" d="M798.442 3267.771l-.201-.31c-.093-.093-.295-.294-.589-.682l-11.408-14.09c-.31-.294-.202-1.1 0-1.487l10.106-15.283c.108-.202.202-.496.202-.698v-.884c0-.294-.094-.604-.295-.79l-16.073-21.731s-.791-1.194-1.783-.295c-.992.791-.201 2.077-.201 2.077l7.548 10.323c.388.59.388 1.783 0 2.372l-10.028 15.283c-.093.201-.202.589-.202.79v.9c0 .294.109.588.31.79l11.098 13.795c-.388-.108-1.286-.31-2.48-.31-1.674 0-3.86.403-5.642 1.984-2.185 1.984-3.379 4.774-3.379 7.254 0 1.38.295 2.774 1.085 3.86 2.093 3.177 9.532 12.601 9.532 12.601s.884 1.1 1.783.403c.9-.697.697-1.596.403-2.092-.31-.496-3.472-6.247-3.472-6.247s-.697-1.395-.697-3.177c0-1.287.387-2.868 1.69-4.17 1.177-1.178 2.572-1.581 3.859-1.581 1.286 0 2.386.403 3.177.9l3.875 2.48s1.178.588 1.782-.31c.496-.791.295-1.179 0-1.675M1130.487 3267.771l-.201-.31c-.093-.093-.295-.294-.589-.682l-11.408-14.09c-.31-.294-.202-1.1 0-1.487l10.106-15.283c.108-.202.202-.496.202-.698v-.884c0-.294-.094-.604-.295-.79l-16.073-21.731s-.791-1.194-1.783-.295c-.992.791-.201 2.077-.201 2.077l7.548 10.323c.388.59.388 1.783 0 2.372l-10.028 15.283c-.093.201-.202.589-.202.79v.9c0 .294.109.588.31.79l11.098 13.795c-.388-.108-1.286-.31-2.48-.31-1.674 0-3.86.403-5.642 1.984-2.185 1.984-3.379 4.774-3.379 7.254 0 1.38.295 2.774 1.085 3.86 2.093 3.177 9.532 12.601 9.532 12.601s.884 1.1 1.783.403c.9-.697.697-1.596.403-2.092-.31-.496-3.472-6.247-3.472-6.247s-.697-1.395-.697-3.177c0-1.287.387-2.868 1.69-4.17 1.177-1.178 2.572-1.581 3.859-1.581 1.286 0 2.386.403 3.177.9l3.875 2.48s1.178.588 1.782-.31c.496-.791.295-1.179 0-1.675M2227.117 3317.371l-.201-.31c-.093-.093-.295-.294-.589-.682l-11.408-14.09c-.31-.294-.202-1.1 0-1.487l10.106-15.283c.108-.202.202-.496.202-.698v-.884c0-.294-.094-.604-.295-.79l-16.073-21.731s-.791-1.194-1.783-.295c-.992.791-.201 2.077-.201 2.077l7.548 10.323c.388.59.388 1.783 0 2.372l-10.028 15.283c-.093.201-.202.589-.202.79v.9c0 .294.109.588.31.79l11.098 13.795c-.388-.108-1.286-.31-2.48-.31-1.674 0-3.86.403-5.642 1.984-2.185 1.984-3.379 4.774-3.379 7.254 0 1.38.295 2.774 1.085 3.86 2.093 3.177 9.532 12.601 9.532 12.601s.884 1.1 1.783.403c.9-.697.697-1.596.403-2.092-.31-.496-3.472-6.247-3.472-6.247s-.697-1.395-.697-3.177c0-1.287.387-2.868 1.69-4.17 1.177-1.178 2.572-1.581 3.859-1.581 1.286 0 2.386.403 3.177.9l3.875 2.48s1.178.588 1.782-.31c.496-.791.295-1.179 0-1.675M1076.16 2619.784h-29.465c-.806 0-1.395.589-1.395 1.395v10.71c0 .791.589 1.38 1.395 1.38h29.466c.79 0 1.379-.589 1.379-1.38v-10.71c0-.806-.589-1.395-1.38-1.395M1711.73 2619.784h-29.465c-.806 0-1.395.589-1.395 1.395v10.71c0 .791.589 1.38 1.395 1.38h29.466c.79 0 1.379-.589 1.379-1.38v-10.71c0-.806-.589-1.395-1.38-1.395M2382.34 2619.784h-29.465c-.806 0-1.395.589-1.395 1.395v10.71c0 .791.589 1.38 1.395 1.38h29.466c.79 0 1.379-.589 1.379-1.38v-10.71c0-.806-.589-1.395-1.38-1.395M1076.16 2251.574h-29.465c-.806 0-1.395.589-1.395 1.395v10.71c0 .791.589 1.38 1.395 1.38h29.466c.79 0 1.379-.589 1.379-1.38v-10.71c0-.806-.589-1.395-1.38-1.395M1711.73 2251.574h-29.465c-.806 0-1.395.589-1.395 1.395v10.71c0 .791.589 1.38 1.395 1.38h29.466c.79 0 1.379-.589 1.379-1.38v-10.71c0-.806-.589-1.395-1.38-1.395M2382.34 2251.574h-29.465c-.806 0-1.395.589-1.395 1.395v10.71c0 .791.589 1.38 1.395 1.38h29.466c.79 0 1.379-.589 1.379-1.38v-10.71c0-.806-.589-1.395-1.38-1.395M1076.16 1883.354h-29.465c-.806 0-1.395.589-1.395 1.395v10.71c0 .791.589 1.38 1.395 1.38h29.466c.79 0 1.379-.589 1.379-1.38v-10.71c0-.806-.589-1.395-1.38-1.395M1711.73 1883.354h-29.465c-.806 0-1.395.589-1.395 1.395v10.71c0 .791.589 1.38 1.395 1.38h29.466c.79 0 1.379-.589 1.379-1.38v-10.71c0-.806-.589-1.395-1.38-1.395M2382.34 1883.354h-29.465c-.806 0-1.395.589-1.395 1.395v10.71c0 .791.589 1.38 1.395 1.38h29.466c.79 0 1.379-.589 1.379-1.38v-10.71c0-.806-.589-1.395-1.38-1.395M1076.16 1515.144h-29.465c-.806 0-1.395.589-1.395 1.395v10.71c0 .791.589 1.38 1.395 1.38h29.466c.79 0 1.379-.589 1.379-1.38v-10.71c0-.806-.589-1.395-1.38-1.395M1711.73 1515.144h-29.465c-.806 0-1.395.589-1.395 1.395v10.71c0 .791.589 1.38 1.395 1.38h29.466c.79 0 1.379-.589 1.379-1.38v-10.71c0-.806-.589-1.395-1.38-1.395M2382.34 1515.144h-29.465c-.806 0-1.395.589-1.395 1.395v10.71c0 .791.589 1.38 1.395 1.38h29.466c.79 0 1.379-.589 1.379-1.38v-10.71c0-.806-.589-1.395-1.38-1.395M1076.16 1146.934h-29.465c-.806 0-1.395.589-1.395 1.395v10.71c0 .791.589 1.38 1.395 1.38h29.466c.79 0 1.379-.589 1.379-1.38v-10.71c0-.806-.589-1.395-1.38-1.395M1711.73 1146.934h-29.465c-.806 0-1.395.589-1.395 1.395v10.71c0 .791.589 1.38 1.395 1.38h29.466c.79 0 1.379-.589 1.379-1.38v-10.71c0-.806-.589-1.395-1.38-1.395M2382.34 1146.934h-29.465c-.806 0-1.395.589-1.395 1.395v10.71c0 .791.589 1.38 1.395 1.38h29.466c.79 0 1.379-.589 1.379-1.38v-10.71c0-.806-.589-1.395-1.38-1.395M1076.16 778.716h-29.465c-.806 0-1.395.589-1.395 1.395v10.71c0 .791.589 1.38 1.395 1.38h29.466c.79 0 1.379-.589 1.379-1.38v-10.71c0-.806-.589-1.395-1.38-1.395M1711.73 778.716h-29.465c-.806 0-1.395.589-1.395 1.395v10.71c0 .791.589 1.38 1.395 1.38h29.466c.79 0 1.379-.589 1.379-1.38v-10.71c0-.806-.589-1.395-1.38-1.395M2382.34 778.716h-29.465c-.806 0-1.395.589-1.395 1.395v10.71c0 .791.589 1.38 1.395 1.38h29.466c.79 0 1.379-.589 1.379-1.38v-10.71c0-.806-.589-1.395-1.38-1.395M1076.16 410.503h-29.465c-.806 0-1.395.589-1.395 1.395v10.71c0 .791.589 1.38 1.395 1.38h29.466c.79 0 1.379-.589 1.379-1.38v-10.71c0-.806-.589-1.395-1.38-1.395M1711.73 410.503h-29.465c-.806 0-1.395.589-1.395 1.395v10.71c0 .791.589 1.38 1.395 1.38h29.466c.79 0 1.379-.589 1.379-1.38v-10.71c0-.806-.589-1.395-1.38-1.395M2382.34 410.503h-29.465c-.806 0-1.395.589-1.395 1.395v10.71c0 .791.589 1.38 1.395 1.38h29.466c.79 0 1.379-.589 1.379-1.38v-10.71c0-.806-.589-1.395-1.38-1.395"/><path class="Articulation" d="M1585.992 3211.513h-28.567c-.806 0-1.395.589-1.395 1.38v1.782c0 .806.589 1.395 1.395 1.395h28.567c.79 0 1.395-.589 1.395-1.395v-1.783c0-.79-.605-1.379-1.395-1.379M1720.292 3211.513h-28.567c-.806 0-1.395.589-1.395 1.38v1.782c0 .806.589 1.395 1.395 1.395h28.567c.79 0 1.395-.589 1.395-1.395v-1.783c0-.79-.605-1.379-1.395-1.379M1821.072 3186.713h-28.567c-.806 0-1.395.589-1.395 1.38v1.782c0 .806.589 1.395 1.395 1.395h28.567c.79 0 1.395-.589 1.395-1.395v-1.783c0-.79-.605-1.379-1.395-1.379"/><path class="Beam" fill-rule="evenodd" d="M2008.12 3393.27l135.21-44.29v13.05l-135.21 44.29v-13.05M1243.8 3089.62l107.59 25.45v12.74l-107.59-25.44v-12.75M2233.6 3034.48l129.73-31.67v12.77l-129.73 31.66v-12.76M2562.89 3083.48l129.72-25.33v12.63l-129.72 25.33v-12.63"/><path class="Hook" d="M892.295 2956.862c-.093-.294-.992-3.767-.992-3.968-.093-.403-.697-.698-1.193-.698-.698 0-1.287.605-1.287 1.287V2975.911c0 .496.403.884.79 1.086 4.17 1.286 12.803 6.758 19.251 17.763 1.783 3.069 4.666 7.238 4.666 15.577 0 7.146-1.1 14.679-2.883 21.623-.295 1.1-.589 2.092.496 2.48 1.085.403 1.488-.388 1.891-1.38 3.565-8.742 4.464-17.871 4.464-24.01v-1.89c-.496-12.803-7.843-22.227-7.843-22.227.295 0-9.13-12.199-11.811-16.368-3.658-5.658-5.456-11.3-5.549-11.703M1074.582 2956.862c-.093-.294-.992-3.767-.992-3.968-.093-.403-.697-.698-1.193-.698-.698 0-1.287.605-1.287 1.287V2975.911c0 .496.403.884.79 1.086 4.17 1.286 12.803 6.758 19.251 17.763 1.783 3.069 4.666 7.238 4.666 15.577 0 7.146-1.1 14.679-2.883 21.623-.295 1.1-.589 2.092.496 2.48 1.085.403 1.488-.388 1.891-1.38 3.565-8.742 4.464-17.871 4.464-24.01v-1.89c-.496-12.803-7.843-22.227-7.843-22.227.295 0-9.13-12.199-11.811-16.368-3.658-5.658-5.456-11.3-5.549-11.703M1193.84 3102.593c0-.201.899-3.58.992-3.875.093-.403 1.891-6.045 5.549-11.703 2.682-4.169 12.106-16.368 11.811-16.368 0 0 7.347-9.424 7.843-22.227v-2.278c0-6.06-.79-14.586-4.278-23.22-.388-.991-.79-1.983-1.876-1.58-1.1.387-.79 1.58-.496 2.666 1.783 6.96 2.775 14.09 2.775 21.235 0 8.339-2.976 12.508-4.759 15.577-6.556 11.005-15.081 16.368-19.25 17.763-.496.202-.791.59-.791 1.086V3102.097c0 .682.589 1.287 1.287 1.287.496 0 1.1-.403 1.193-.791M1640.71 3127.393c0-.201.899-3.58.992-3.875.093-.403 1.891-6.045 5.549-11.703 2.682-4.169 12.106-16.368 11.811-16.368 0 0 7.347-9.424 7.843-22.227v-2.278c0-6.06-.79-14.586-4.278-23.22-.388-.991-.79-1.983-1.876-1.58-1.1.387-.79 1.58-.496 2.666 1.783 6.96 2.775 14.09 2.775 21.235 0 8.339-2.976 12.508-4.759 15.577-6.556 11.005-15.081 16.368-19.25 17.763-.496.202-.791.59-.791 1.086V3126.897c0 .682.589 1.287 1.287 1.287.496 0 1.1-.403 1.193-.791M1906.292 2984.762c-.093-.294-.992-3.767-.992-3.968-.093-.403-.697-.698-1.193-.698-.698 0-1.287.605-1.287 1.287V3003.811c0 .496.403.884.79 1.086 4.17 1.286 12.803 6.758 19.251 17.763 1.783 3.069 4.666 7.238 4.666 15.577 0 7.146-1.1 14.679-2.883 21.623-.295 1.1-.589 2.092.496 2.48 1.085.403 1.488-.388 1.891-1.38 3.565-8.742 4.464-17.871 4.464-24.01v-1.89c-.496-12.803-7.843-22.227-7.843-22.227.295 0-9.13-12.199-11.811-16.368-3.658-5.658-5.456-11.3-5.549-11.703M2529.172 2994.062c-.093-.294-.992-3.767-.992-3.968-.093-.403-.697-.698-1.193-.698-.698 0-1.287.605-1.287 1.287V3013.111c0 .496.403.884.79 1.086 4.17 1.286 12.803 6.758 19.251 17.763 1.783 3.069 4.666 7.238 4.666 15.577 0 7.146-1.1 14.679-2.883 21.623-.295 1.1-.589 2.092.496 2.48 1.085.403 1.488-.388 1.891-1.38 3.565-8.742 4.464-17.871 4.464-24.01v-1.89c-.496-12.803-7.843-22.227-7.843-22.227.295 0-9.13-12.199-11.811-16.368-3.658-5.658-5.456-11.3-5.549-11.703"/><path class="Tuplet" d="M2078.66 3436.8c2.12-.67 2.97-1.04 4.05-1.76 2.12-1.39 3.42-3.86 3.42-6.39 0-4.27-3.42-7.14-8.46-7.14-4.9 0-9.04 3.04-9.04 6.75 0 1.84 1.12 3.09 2.83 3.09 1.48 0 2.57-1.08 2.57-2.56 0-.77-.23-1.3-.95-2.02-.45-.41-.62-.73-.62-1.05 0-1.07 2.25-2.2 4.36-2.2 3.01 0 4.81 1.67 4.81 4.45 0 4.02-2.83 7.79-5.85 7.79-.14 0-.54-.04-1.03-.08-1.31-.1-1.31-.1-1.58-.1-1 0-1.53.46-1.53 1.27 0 .72.5 1.16 1.3 1.16.23 0 .55-.04.91-.08a8.51 8.51 0 011.7-.19c2.12 0 3.56 1.89 3.56 4.69 0 2.15-.5 4.22-1.48 5.93-1.35 2.43-3.42 3.6-6.35 3.6-2.51 0-4.68-1.25-4.68-2.7 0-.49.18-.68.9-.99 1.3-.58 1.85-1.39 1.85-2.61 0-1.58-1.27-2.78-2.88-2.78-1.94 0-3.2 1.52-3.2 3.86 0 4.37 3.33 7.11 8.73 7.11 6.8 0 11.97-4.55 11.97-10.58 0-1.61-.5-3.01-1.44-4.14-1-1.16-1.89-1.7-3.87-2.33M850.185 2919.29c2.125-.67 2.968-1.05 4.046-1.77 2.125-1.39 3.422-3.86 3.422-6.39 0-4.26-3.422-7.14-8.453-7.14-4.906 0-9.047 3.05-9.047 6.75 0 1.84 1.125 3.09 2.828 3.09 1.485 0 2.579-1.07 2.579-2.56 0-.76-.235-1.29-.954-2.01-.453-.41-.625-.74-.625-1.05 0-1.08 2.25-2.2 4.36-2.2 3.015 0 4.812 1.67 4.812 4.45 0 4.02-2.828 7.78-5.843 7.78-.141 0-.547-.03-1.032-.08-1.312-.09-1.312-.09-1.578-.09-1 0-1.531.45-1.531 1.26 0 .72.5 1.16 1.297 1.16.234 0 .547-.03.906-.08a8.457 8.457 0 011.703-.18c2.125 0 3.563 1.89 3.563 4.68 0 2.16-.5 4.22-1.485 5.94-1.343 2.42-3.422 3.59-6.343 3.59-2.516 0-4.688-1.25-4.688-2.7 0-.48.188-.67.906-.98 1.297-.58 1.844-1.39 1.844-2.61 0-1.58-1.266-2.78-2.875-2.78-1.937 0-3.203 1.51-3.203 3.86 0 4.37 3.328 7.1 8.734 7.1 6.797 0 11.969-4.54 11.969-10.57 0-1.61-.5-3.02-1.437-4.14-1-1.16-1.891-1.71-3.875-2.33"/><path class="Tuplet" fill="none" stroke="#000" stroke-width="2.48" stroke-linecap="square" stroke-linejoin="bevel" d="M787.825 2938.76v-18.6h33.663M870.288 2920.16h33.663v18.6"/><path class="Tuplet" d="M1032.47 2919.29c2.13-.67 2.97-1.05 4.05-1.77 2.13-1.39 3.42-3.86 3.42-6.39 0-4.26-3.42-7.14-8.45-7.14-4.91 0-9.05 3.05-9.05 6.75 0 1.84 1.13 3.09 2.83 3.09 1.49 0 2.58-1.07 2.58-2.56 0-.76-.24-1.29-.95-2.01-.46-.41-.63-.74-.63-1.05 0-1.08 2.25-2.2 4.36-2.2 3.02 0 4.81 1.67 4.81 4.45 0 4.02-2.83 7.78-5.84 7.78-.14 0-.55-.03-1.03-.08-1.31-.09-1.31-.09-1.58-.09-1 0-1.53.45-1.53 1.26 0 .72.5 1.16 1.3 1.16.23 0 .54-.03.9-.08.63-.14 1.31-.18 1.7-.18 2.13 0 3.57 1.89 3.57 4.68 0 2.16-.5 4.22-1.49 5.94-1.34 2.42-3.42 3.59-6.34 3.59-2.52 0-4.69-1.25-4.69-2.7 0-.48.19-.67.91-.98 1.29-.58 1.84-1.39 1.84-2.61 0-1.58-1.26-2.78-2.87-2.78-1.94 0-3.21 1.51-3.21 3.86 0 4.37 3.33 7.1 8.74 7.1 6.79 0 11.97-4.54 11.97-10.57 0-1.61-.5-3.02-1.44-4.14-1-1.16-1.89-1.71-3.88-2.33"/><path class="Tuplet" fill="none" stroke="#000" stroke-width="2.48" stroke-linecap="square" stroke-linejoin="bevel" d="M970.114 2938.76v-18.6h33.666M1052.58 2920.16h33.66v18.6"/><path class="Tuplet" d="M1176.03 2920.16c2.12-.68 2.97-1.05 4.04-1.77 2.13-1.39 3.43-3.86 3.43-6.39 0-4.27-3.43-7.14-8.46-7.14-4.9 0-9.04 3.05-9.04 6.75 0 1.84 1.12 3.09 2.82 3.09 1.49 0 2.58-1.08 2.58-2.56 0-.77-.23-1.3-.95-2.02-.45-.4-.63-.73-.63-1.04 0-1.08 2.25-2.21 4.36-2.21 3.02 0 4.82 1.68 4.82 4.46 0 4.01-2.83 7.78-5.85 7.78-.14 0-.54-.03-1.03-.08-1.31-.09-1.31-.09-1.58-.09-1 0-1.53.45-1.53 1.26 0 .72.5 1.16 1.3 1.16.23 0 .55-.03.9-.08.63-.14 1.32-.19 1.71-.19 2.12 0 3.56 1.89 3.56 4.69 0 2.16-.5 4.22-1.48 5.94-1.35 2.42-3.43 3.59-6.35 3.59-2.51 0-4.69-1.25-4.69-2.7 0-.49.19-.67.91-.99 1.3-.57 1.84-1.39 1.84-2.6 0-1.58-1.26-2.79-2.87-2.79-1.94 0-3.2 1.52-3.2 3.86 0 4.38 3.32 7.11 8.73 7.11 6.8 0 11.97-4.54 11.97-10.58 0-1.6-.5-3.01-1.44-4.14-1-1.15-1.89-1.7-3.87-2.32"/><path class="Tuplet" fill="none" stroke="#000" stroke-width="2.48" stroke-linecap="square" stroke-linejoin="bevel" d="M1119.87 2939.63v-18.6h27.46M1196.13 2921.03h27.46v18.6"/><path class="Tuplet" d="M1300.53 3145.72c2.12-.67 2.96-1.04 4.04-1.76 2.13-1.39 3.42-3.86 3.42-6.39 0-4.27-3.42-7.14-8.45-7.14-4.91 0-9.05 3.04-9.05 6.75 0 1.84 1.13 3.09 2.83 3.09 1.49 0 2.58-1.08 2.58-2.56 0-.77-.23-1.3-.95-2.02-.46-.4-.63-.73-.63-1.04 0-1.08 2.25-2.21 4.36-2.21 3.02 0 4.81 1.68 4.81 4.46 0 4.01-2.82 7.78-5.84 7.78-.14 0-.55-.03-1.03-.08-1.31-.09-1.31-.09-1.58-.09-1 0-1.53.45-1.53 1.26 0 .72.5 1.16 1.3 1.16.23 0 .54-.03.9-.08.63-.14 1.32-.19 1.71-.19 2.12 0 3.56 1.89 3.56 4.69 0 2.16-.5 4.22-1.49 5.94-1.34 2.42-3.42 3.59-6.34 3.59-2.52 0-4.69-1.25-4.69-2.7 0-.49.19-.67.91-.99 1.3-.57 1.84-1.39 1.84-2.61 0-1.57-1.26-2.78-2.87-2.78-1.94 0-3.21 1.52-3.21 3.86 0 4.38 3.33 7.11 8.74 7.11 6.8 0 11.97-4.55 11.97-10.58 0-1.61-.5-3.01-1.44-4.14-1-1.15-1.89-1.7-3.87-2.33M1623.52 2938.76c2.12-.68 2.97-1.05 4.04-1.77 2.13-1.39 3.43-3.86 3.43-6.39 0-4.27-3.43-7.14-8.46-7.14-4.9 0-9.04 3.05-9.04 6.75 0 1.84 1.12 3.09 2.82 3.09 1.49 0 2.58-1.08 2.58-2.56 0-.77-.23-1.3-.95-2.02-.45-.4-.63-.73-.63-1.04 0-1.08 2.25-2.21 4.36-2.21 3.02 0 4.82 1.68 4.82 4.46 0 4.01-2.83 7.78-5.85 7.78-.14 0-.54-.03-1.03-.08-1.31-.09-1.31-.09-1.58-.09-1 0-1.53.45-1.53 1.26 0 .72.5 1.16 1.3 1.16.23 0 .55-.03.91-.08a8.51 8.51 0 011.7-.19c2.12 0 3.56 1.89 3.56 4.69 0 2.16-.5 4.22-1.48 5.94-1.35 2.42-3.43 3.59-6.35 3.59-2.51 0-4.68-1.25-4.68-2.7 0-.49.18-.67.9-.99 1.3-.57 1.85-1.39 1.85-2.6 0-1.58-1.27-2.79-2.88-2.79-1.94 0-3.2 1.52-3.2 3.86 0 4.38 3.33 7.11 8.73 7.11 6.8 0 11.97-4.54 11.97-10.58 0-1.6-.5-3.01-1.44-4.14-1-1.15-1.89-1.7-3.87-2.32"/><path class="Tuplet" fill="none" stroke="#000" stroke-width="2.48" stroke-linecap="square" stroke-linejoin="bevel" d="M1567.98 2958.23v-18.6h26.84M1643.62 2939.63h26.84v18.6"/><path class="Tuplet" d="M1864.81 2938.76c2.12-.68 2.96-1.05 4.04-1.77 2.13-1.39 3.42-3.86 3.42-6.39 0-4.27-3.42-7.14-8.45-7.14-4.9 0-9.05 3.05-9.05 6.75 0 1.84 1.13 3.09 2.83 3.09 1.49 0 2.58-1.08 2.58-2.56 0-.77-.23-1.3-.95-2.02-.46-.4-.63-.73-.63-1.04 0-1.08 2.25-2.21 4.36-2.21 3.02 0 4.81 1.68 4.81 4.46 0 4.01-2.82 7.78-5.84 7.78-.14 0-.55-.03-1.03-.08-1.31-.09-1.31-.09-1.58-.09-1 0-1.53.45-1.53 1.26 0 .72.5 1.16 1.3 1.16.23 0 .54-.03.9-.08.63-.14 1.32-.19 1.71-.19 2.12 0 3.56 1.89 3.56 4.69 0 2.16-.5 4.22-1.49 5.94-1.34 2.42-3.42 3.59-6.34 3.59-2.51 0-4.69-1.25-4.69-2.7 0-.49.19-.67.91-.99 1.3-.57 1.84-1.39 1.84-2.6 0-1.58-1.26-2.79-2.87-2.79-1.94 0-3.2 1.52-3.2 3.86 0 4.38 3.32 7.11 8.73 7.11 6.8 0 11.97-4.54 11.97-10.58 0-1.6-.5-3.01-1.44-4.14-1-1.15-1.89-1.7-3.87-2.32"/><path class="Tuplet" fill="none" stroke="#000" stroke-width="2.48" stroke-linecap="square" stroke-linejoin="bevel" d="M1803.07 2958.23v-18.6h33.04M1884.91 2939.63h33.04v18.6"/><path class="Tuplet" d="M2301.4 2958.72c2.12-.67 2.97-1.05 4.05-1.77 2.12-1.39 3.42-3.86 3.42-6.39 0-4.26-3.42-7.14-8.45-7.14-4.91 0-9.05 3.05-9.05 6.75 0 1.85 1.12 3.1 2.83 3.1 1.48 0 2.57-1.08 2.57-2.57 0-.76-.23-1.29-.95-2.01-.45-.41-.62-.74-.62-1.05 0-1.08 2.25-2.2 4.36-2.2 3.01 0 4.81 1.67 4.81 4.45 0 4.02-2.83 7.78-5.85 7.78-.14 0-.54-.03-1.03-.08-1.31-.09-1.31-.09-1.57-.09-1 0-1.54.45-1.54 1.27 0 .72.5 1.15 1.3 1.15.24 0 .55-.03.91-.08.62-.14 1.31-.18 1.7-.18 2.13 0 3.56 1.89 3.56 4.68 0 2.16-.5 4.22-1.48 5.94-1.35 2.42-3.42 3.6-6.35 3.6-2.51 0-4.68-1.25-4.68-2.71 0-.48.18-.67.9-.98 1.3-.58 1.85-1.39 1.85-2.61 0-1.58-1.27-2.78-2.88-2.78-1.94 0-3.2 1.51-3.2 3.86 0 4.37 3.33 7.11 8.73 7.11 6.8 0 11.97-4.55 11.97-10.58 0-1.61-.5-3.02-1.44-4.14-1-1.16-1.89-1.71-3.87-2.33M2478.21 2948.06c2.12-.68 2.96-1.05 4.04-1.77 2.13-1.39 3.42-3.86 3.42-6.39 0-4.27-3.42-7.14-8.45-7.14-4.91 0-9.05 3.05-9.05 6.75 0 1.84 1.13 3.09 2.83 3.09 1.49 0 2.58-1.08 2.58-2.56 0-.77-.23-1.3-.95-2.02-.46-.4-.63-.73-.63-1.04 0-1.08 2.25-2.21 4.36-2.21 3.02 0 4.81 1.68 4.81 4.46 0 4.01-2.82 7.78-5.84 7.78-.14 0-.55-.03-1.03-.08-1.31-.09-1.31-.09-1.58-.09-1 0-1.53.45-1.53 1.26 0 .72.5 1.16 1.3 1.16.23 0 .54-.03.9-.08.63-.14 1.32-.19 1.71-.19 2.12 0 3.56 1.89 3.56 4.69 0 2.16-.5 4.22-1.49 5.94-1.34 2.42-3.42 3.59-6.34 3.59-2.52 0-4.69-1.25-4.69-2.7 0-.49.19-.67.91-.99 1.3-.57 1.84-1.39 1.84-2.6 0-1.58-1.26-2.79-2.87-2.79-1.94 0-3.21 1.52-3.21 3.86 0 4.38 3.33 7.11 8.74 7.11 6.8 0 11.97-4.54 11.97-10.58 0-1.6-.5-3.01-1.44-4.14-1-1.15-1.89-1.7-3.87-2.32"/><path class="Tuplet" fill="none" stroke="#000" stroke-width="2.48" stroke-linecap="square" stroke-linejoin="bevel" d="M2406.99 2967.53v-18.6h42.52M2498.31 2948.93h42.51v18.6"/><path class="Tuplet" d="M2630.68 3126.8c2.13-.67 2.97-1.04 4.05-1.76 2.12-1.39 3.42-3.86 3.42-6.39 0-4.27-3.42-7.14-8.45-7.14-4.91 0-9.05 3.04-9.05 6.75 0 1.84 1.13 3.09 2.83 3.09 1.48 0 2.58-1.08 2.58-2.56 0-.77-.24-1.3-.96-2.02-.45-.41-.62-.73-.62-1.05 0-1.07 2.25-2.2 4.36-2.2 3.01 0 4.81 1.67 4.81 4.45 0 4.02-2.83 7.79-5.84 7.79-.14 0-.55-.04-1.03-.08-1.32-.1-1.32-.1-1.58-.1-1 0-1.53.46-1.53 1.27 0 .72.5 1.16 1.29 1.16.24 0 .55-.04.91-.08a8.51 8.51 0 011.7-.19c2.13 0 3.57 1.89 3.57 4.69 0 2.15-.5 4.22-1.49 5.93-1.34 2.43-3.42 3.6-6.34 3.6-2.52 0-4.69-1.25-4.69-2.7 0-.49.19-.68.91-.99 1.29-.58 1.84-1.39 1.84-2.61 0-1.58-1.27-2.78-2.88-2.78-1.93 0-3.2 1.52-3.2 3.86 0 4.37 3.33 7.11 8.74 7.11 6.79 0 11.96-4.55 11.96-10.58 0-1.61-.5-3.01-1.43-4.14-1-1.16-1.89-1.7-3.88-2.33"/><path class="PedalSegment" d="M2022.86 3492.63c1.34 1.97 4.23 5.33 5.43 6.99 1.19 1.65 1.21 3.39-1.21 5.45-2.65 2.28-5.3 3.7-6.52 4.47-.98.62-7.06 3.2-5.14 6.92 1.59 3.11 5.3.26 7.01-1.56.9-.96 2.08-3.1 3.68-3.1 1.37 0 2.2 1.99 3.06 3.17 1.51 2.07 2.53 2.69 4.83 2.69 2.67 0 4.39-2.94 7.81-5.83 0 0 2.37 5.8 6.37 5.8 4.71 0 10.21-5.69 10.21-5.69 1.45 3.69 6.17 6.68 10.4 5.53 5.5-1.5 8.39-7.56 7.69-13.75-1.83-16.1-19.25-21.65-24.25-22.56-1.31-.23-2.87-.65-3.05.58-.18 1.22 1.49 1.92 1.49 1.92.61.21 1.2.42 1.76.63 10.21 3.89 13.71 9.29 13.71 9.29-9.28 3.19-9.02 12.79-8.74 15.85-.64.83-3.56 3.45-6.68 3.45-3.3 0-4.27-3.95-4.27-3.95s1.84-1.64 4.97-4.33c6.51-5.64 2.73-12.23-2.27-12.23-7.81 0-9.62 11.26-8.06 17.07 0 0-.8 1-2.47 2.03-1.65 1.04-4.2-.4-5.59-1.9-2.53-2.7-3.36-2.42-3.36-2.42s3-2.28 4.22-5.14c1.23-2.88-1.46-7.13-1.46-7.13s-3.59-4.98-4.73-6.66c-1.12-1.65.27-4.2 1.31-6.39 1.07-2.18 2.35-3.31 2.35-3.31 6.5 1.67 7.86 6.7 6.47 7.8-1.86 1.47-4.08-.66-4.8-1.25-.72-.61-1.69-1.66-2.74-.86-1.04.8-.51 2-.06 3 2.67 5.26 7.61 6.19 10.78 3.97 4.07-2.85 3.49-13.8-9.67-16.17-14.53-2.66-23.22 8.81-23.22 14.65 0 4.13 2.96 7.66 6.71 7.66 0 0 6.09.2 6.59-7.19.14-2-.74-2.42-1.33-2.51-.59-.1-1.59.28-1.92 1.89-.41 1.93-1.47 2.65-2.81 2.45-1.75-.27-2.82-3.67.36-8.08 4.29-5.94 11.68-5.81 11.68-5.81s-3.14 5.64-4.32 8.72c0 0-1.82 3.51-.22 5.84m25.95 3.17c2.47 0 3.23 3.38 1.05 5.85-1.8 2-4.25 4.45-4.25 4.45-.77-6.56.72-10.3 3.2-10.3m18.44 16.53c-2.63.54-4.78-2.37-4.78-6.23 0-8.5 5.62-9.34 5.62-9.34 1.17 2.18 2.22 4.81 2.22 9.01 0 5-.98 6.14-3.06 6.56m14.14 4.19c1.78 0 3.23-1.62 3.23-3.62s-1.45-3.63-3.23-3.63c-1.77 0-3.22 1.63-3.22 3.63s1.45 3.62 3.22 3.62"/><path class="PedalSegment" fill="none" stroke="#000" stroke-width="2.73" stroke-linecap="square" stroke-linejoin="bevel" d="M2097.52 3512.82h433.14M2530.66 3512.82v-29.76"/><path class="Page" d="M222.703 231.739c0-2.625.547-7.031 1.094-9.281 1.266-4.516 3.359-6.938 6.172-6.938 1.375 0 2.359.5 2.359 1.266 0 .391-.062.547-.437 1.047a5.476 5.476 0 00-1.11 3.25c0 2.469 1.985 4.234 4.844 4.234 3.141 0 5.109-1.937 5.109-4.953 0-4.734-4.015-7.703-10.281-7.703-5.281 0-9.344 2.031-12.531 6.266-3.25 4.234-4.734 9.296-4.734 15.843 0 5.5 1.156 9.407 3.734 12.594 2.703 3.297 6.391 5 10.891 5 8.093 0 13.968-5.437 13.968-13.031 0-6.594-4.5-11.219-11.047-11.219-3.578 0-5.718 1-8.031 3.625m5.172.5c2.859.109 4.344 2.75 4.344 7.703 0 6.375-1.594 9.844-4.516 9.844-2.969 0-4.672-3.188-4.672-8.859 0-1.969.172-3.688.438-4.954.609-2.359 2.312-3.843 4.406-3.734"/><path class="Bracket" d="M515.787 3170.4c6.35-6.799 18.991-20.846 18.991-46.748 0-32.757-14.159-65.908-14.159-86.192 0-21.913 12.867-42.702 13.26-43.264.394-.618.338-1.405-.056-1.686-.393-.225-1.124 0-1.63.506-.449.562-19.721 20.059-19.721 49.333 0 31.858 12.586 54.052 12.586 95.406 0 7.866-3.371 20.565-12.249 31.465-.618.562-.674 1.573-.112 2.248v.056l.112.112c8.878 10.9 12.249 23.543 12.249 31.409 0 41.41-12.586 63.604-12.586 95.406 0 29.274 19.272 48.883 19.722 49.39.505.505 1.124.786 1.63.505.505-.337.505-.955.055-1.686-.505-.73-13.26-21.351-13.26-43.264 0-20.284 14.16-53.547 14.16-86.248 0-26.24-12.643-40.006-18.992-46.748"/></svg>
