<svg width="3060" height="3960" xmlns="http://www.w3.org/2000/svg" version="1.2" baseProfile="tiny"><path fill="#fff" fill-rule="evenodd" d="M0 0h3060v3960H0V0"/><path class="StaffLines" fill="none" stroke="#000" stroke-width="2.73" stroke-linejoin="bevel" d="M544.838 386.199H2763.78M544.838 410.999H2763.78M544.838 435.799H2763.78M544.838 460.599H2763.78M544.838 485.399H2763.78M544.838 770.999H2763.78M544.838 795.799H2763.78M544.838 820.599H2763.78M544.838 845.399H2763.78M544.838 870.199H2763.78M544.838 1155.8H2763.78M544.838 1180.6H2763.78M544.838 1205.4H2763.78M544.838 1230.2H2763.78M544.838 1255H2763.78M544.838 1540.6H2763.78M544.838 1565.4H2763.78M544.838 1590.2H2763.78M544.838 1615H2763.78M544.838 1639.8H2763.78M544.838 1925.4H2763.78M544.838 1950.2H2763.78M544.838 1975H2763.78M544.838 1999.8H2763.78M544.838 2024.6H2763.78M544.838 2310.2H2763.78M544.838 2335H2763.78M544.838 2359.8H2763.78M544.838 2384.6H2763.78M544.838 2409.4H2763.78M544.838 2695H2763.78M544.838 2719.8H2763.78M544.838 2744.6H2763.78M544.838 2769.4H2763.78M544.838 2794.2H2763.78M544.838 3108.36H2763.78M544.838 3133.16H2763.78M544.838 3157.96H2763.78M544.838 3182.76H2763.78M544.838 3207.56H2763.78M544.838 3380.24H2763.78M544.838 3405.04H2763.78M544.838 3429.84H2763.78M544.838 3454.64H2763.78M544.838 3479.44H2763.78"/><path class="MeasureNumber" d="M564.229 328.317l-1.031 1.844c-1.61 2.766-1.922 3-3.969 3.031h-9.266c.954-1.265 2.719-2.75 5.907-5 5.281-3.625 5.64-3.875 6.765-4.75 3.203-2.484 4.516-4.843 4.516-8 0-4.203-3.109-7-7.719-7-5.109 0-9.547 3.766-9.547 8.125 0 2.235 1.188 3.672 3.11 3.672 1.437 0 2.562-1.078 2.562-2.562 0-1.032-.515-1.719-1.844-2.438-.953-.484-1.109-.672-1.109-1.156 0-1.719 2.953-3.641 5.672-3.641 2.797 0 4.687 1.875 4.687 4.688 0 2.984-1.328 5.187-4.921 8.312-10.641 9.235-12.25 10.922-12.61 13.157h17.156l3.094-7.719-1.453-.563m22.234 0l-1.031 1.844c-1.609 2.766-1.922 3-3.969 3.031h-9.265c.953-1.265 2.719-2.75 5.906-5 5.281-3.625 5.641-3.875 6.766-4.75 3.203-2.484 4.515-4.843 4.515-8 0-4.203-3.109-7-7.718-7-5.11 0-9.547 3.766-9.547 8.125 0 2.235 1.187 3.672 3.109 3.672 1.438 0 2.563-1.078 2.563-2.562 0-1.032-.516-1.719-1.844-2.438-.953-.484-1.11-.672-1.11-1.156 0-1.719 2.954-3.641 5.672-3.641 2.797 0 4.688 1.875 4.688 4.688 0 2.984-1.328 5.187-4.922 8.312-10.641 9.235-12.25 10.922-12.609 13.157h17.156l3.094-7.719-1.454-.563"/><path class="InstrumentName" d="M394.005 3295.35h5.64c4.5 0 6.86-.36 8.907-1.3 3.5-1.7 5.5-4.9 5.5-8.86 0-3.79-1.75-6.7-5.047-8.34-1.953-1-5.063-1.56-8.5-1.56h-17.5v2.36h.89c2.86.04 3.797.2 4.203.7.297.44.297.55.297 3.09v23.8c0 2.56 0 2.66-.297 3.11-.406.5-1.343.7-4.203.7h-.89v2.35h16.797v-2.35h-1.297c-2.86 0-3.813-.2-4.203-.7-.297-.45-.297-.55-.297-3.11v-9.89m0-2.36v-12.8c0-2.29.25-2.54 3.047-2.54h3.203c5.187 0 7.64 2.45 7.64 7.75 0 5.15-2.547 7.59-7.843 7.59h-6.047m30.937-4.89l-8.656.55v2.15h1.812c1.891.05 2.141.35 2.141 2.5V3307.6c-.047.75-.094 1.05-.297 1.3-.344.45-1.297.65-3.453.7h-.203v1.8h12.656v-1.8h-.203c-3.344-.11-3.797-.36-3.797-2.16V3300.05c0-2.45.344-4.7.906-5.86 1.047-2.25 3.297-3.79 5.438-3.79 1.312 0 2.812.7 3.562 1.75.75 1.09 1.094 2.59 1.094 5v10.45c-.047.75-.094 1.05-.297 1.3-.359.45-1.359.65-3.5.7h-.203v1.8h12.656v-1.8h-.203c-3.297-.11-3.75-.36-3.75-2.16v-10.04c0-3.6-.156-4.5-1.047-6.21-1.25-2.39-3.75-3.84-6.75-3.84-3.25 0-5.703 1.5-7.906 4.8v-4.05m33.141-.75c-6.141 0-10.891 5.45-10.891 12.45 0 6.85 4.797 12.35 10.797 12.35 6 0 10.797-5.5 10.797-12.41 0-6.84-4.797-12.39-10.703-12.39m0 2.14c3.5 0 5.453 3.66 5.453 10.25 0 6.66-1.953 10.25-5.547 10.25-3.594 0-5.547-3.59-5.547-10.19 0-6.81 1.891-10.31 5.641-10.31m18.531 16.36c-1.75 0-3.141 1.39-3.141 3.09 0 1.75 1.391 3.16 3.094 3.16a3.15 3.15 0 003.156-3.16c0-1.7-1.406-3.09-3.109-3.09M413.255 2725.99h-29.953l-.75 13.9h2.14c.36-2.5.75-4.4 1.36-6 1.296-3.7 3.703-5.54 7.093-5.54 1.657 0 2.36.54 2.36 1.79v25.8c0 2.56 0 2.66-.313 3.11-.39.5-1.344.7-4.187.7h-1.313v2.35h17.156v-2.35h-1.296c-2.797 0-3.75-.2-4.157-.7-.297-.45-.297-.55-.297-3.11v-25.8c0-1.25.704-1.79 2.344-1.79 3.063 0 5.516 1.7 6.766 4.7.75 1.84 1.25 4 1.64 6.84h2.157l-.75-13.9m10.687-.75l-8.594.56v2.14h1.75c1.891.05 2.141.36 2.141 2.5v19.45c0 6.96-.297 10.75-.891 12.91h1.891l2.453-3.91c2.047 2.71 4.406 3.96 7.5 3.96 6.203 0 10.75-5.3 10.75-12.55 0-7.2-4.203-12.25-10.203-12.25-3.047 0-4.891 1.05-6.797 3.89v-16.7m5.906 15.36c3.75 0 5.844 3.65 5.844 10.2 0 6.34-2.047 9.89-5.703 9.89-3.953 0-6.297-3.64-6.297-9.8 0-6.7 2.156-10.29 6.156-10.29m35.485 5.4c0-3.15-.547-4.75-2-5.95-1.641-1.36-4.094-2-7.297-2-5.641 0-9.75 2.64-9.75 6.3 0 1.84 1.156 3.04 2.906 3.04 1.594 0 2.703-1.04 2.703-2.54 0-.66-.25-1.35-.75-2.05-.312-.36-.359-.45-.359-.7 0-1 2-1.91 4.406-1.91 1.594 0 3.344.5 4.141 1.25.953.81 1.312 2 1.312 4.25v1.95c-5.203.91-6.859 1.3-9.312 2.25-4.344 1.61-6.391 3.91-6.391 7.11 0 3.6 2.797 5.85 7.25 5.85 3.453 0 6.547-1.41 8.703-3.96.797 2.55 2.047 3.55 4.391 3.55 2.25 0 4.609-1.44 4.609-2.89 0-.36-.203-.61-.5-.61-.203 0-.406.06-.75.2-.703.3-1 .36-1.406.36-1.406 0-1.906-.9-1.906-3.45V2746m-4.688 6.1c0 3-.156 3.7-1 5-1.25 1.84-3.5 3.09-5.703 3.09-2.297 0-3.953-1.64-3.953-3.89 0-2.11 1.047-3.61 3.25-4.66 1.547-.7 3.5-1.2 7.406-1.84v2.3m16.532 4.45c-1.75 0-3.141 1.39-3.141 3.09 0 1.75 1.391 3.16 3.094 3.16a3.15 3.15 0 003.156-3.16c0-1.7-1.406-3.09-3.109-3.09M367.255 2341.19h-29.953l-.75 13.91h2.14c.36-2.5.75-4.41 1.36-6 1.296-3.71 3.703-5.55 7.093-5.55 1.657 0 2.36.55 2.36 1.8v25.79c0 2.56 0 2.66-.313 3.11-.39.5-1.344.7-4.187.7h-1.313v2.35h17.156v-2.35h-1.296c-2.797 0-3.75-.2-4.157-.7-.297-.45-.297-.55-.297-3.11v-25.79c0-1.25.704-1.8 2.344-1.8 3.063 0 5.516 1.7 6.766 4.7.75 1.85 1.25 4 1.64 6.85h2.157l-.75-13.91m10.687-.75l-8.594.56v2.14h1.75c1.891.05 2.141.36 2.141 2.5v19.46c0 6.95-.297 10.75-.891 12.9h1.891l2.453-3.9c2.047 2.7 4.406 3.95 7.5 3.95 6.203 0 10.75-5.3 10.75-12.55 0-7.2-4.203-12.25-10.203-12.25-3.047 0-4.891 1.05-6.797 3.89v-16.7m5.906 15.36c3.75 0 5.844 3.65 5.844 10.2 0 6.35-2.047 9.89-5.703 9.89-3.953 0-6.297-3.64-6.297-9.79 0-6.71 2.156-10.3 6.156-10.3m22.891-1.8l-8.656.55v2.15h1.812c1.891.05 2.141.35 2.141 2.5V2373.5c-.047.75-.094 1.05-.297 1.3-.344.45-1.297.65-3.453.7h-.203v1.8h12.656v-1.8h-.203c-3.344-.11-3.797-.36-3.797-2.15v-7.4c0-2.45.344-4.7.906-5.85 1.047-2.25 3.297-3.8 5.438-3.8 1.312 0 2.812.7 3.562 1.75.75 1.09 1.094 2.59 1.094 5v10.45c-.047.75-.094 1.05-.297 1.3-.359.45-1.359.65-3.5.7h-.203v1.8h12.656v-1.8h-.203c-3.297-.11-3.75-.36-3.75-2.15v-10.05c0-3.6-.156-4.5-1.047-6.2-1.25-2.4-3.75-3.85-6.75-3.85-3.25 0-5.703 1.5-7.906 4.8V2354m27.391 17.75c-1.75 0-3.141 1.39-3.141 3.1 0 1.75 1.391 3.15 3.094 3.15 1.75 0 3.156-1.4 3.156-3.15 0-1.71-1.406-3.1-3.109-3.1m38.234-12.86c4.547-1.64 6.656-4.19 6.656-8.2 0-5.25-4-8.59-10.203-8.59-5.844 0-10.297 3.45-10.297 8 0 2.04 1.344 3.5 3.297 3.5 1.75 0 2.953-1.21 2.953-3 0-1.1-.406-1.75-1.547-2.55-.5-.36-.656-.55-.656-.91 0-1.39 2.906-2.89 5.75-2.89 3.594 0 5.5 2.25 5.5 6.5 0 4.64-1.906 7.1-5.453 7.1-.453 0-1.297-.05-2.047-.1-.406-.05-.797-.05-1.094-.05-1.062 0-1.609.44-1.609 1.35 0 .84.5 1.25 1.609 1.25.297 0 .688 0 1.141-.05 1-.05 1.797-.05 2.359-.05 3.688 0 5.688 2.65 5.688 7.6 0 5.2-2.5 8.09-7 8.09-3.141 0-6.547-1.69-6.547-3.25 0-.44.109-.54 1.047-1.09 1.406-.85 1.953-1.7 1.953-2.95 0-1.8-1.344-3.15-3.141-3.15-2.156 0-3.562 1.75-3.562 4.4 0 4.85 4.453 8.2 10.859 8.2 7.25 0 11.953-4 11.953-10.16 0-4.69-2.406-7.54-7.609-9M366.255 1956.39h-29.953l-.75 13.91h2.14c.36-2.5.75-4.41 1.36-6 1.296-3.71 3.703-5.55 7.093-5.55 1.657 0 2.36.55 2.36 1.8v25.79c0 2.56 0 2.66-.313 3.11-.39.5-1.344.7-4.187.7h-1.313v2.35h17.156v-2.35h-1.296c-2.797 0-3.75-.2-4.157-.7-.297-.45-.297-.55-.297-3.11v-25.79c0-1.25.704-1.8 2.344-1.8 3.063 0 5.516 1.7 6.766 4.7.75 1.85 1.25 4 1.64 6.85h2.157l-.75-13.91m10.687-.75l-8.594.56v2.14h1.75c1.891.05 2.141.36 2.141 2.5v19.46c0 6.95-.297 10.75-.891 12.9h1.891l2.453-3.9c2.047 2.7 4.406 3.95 7.5 3.95 6.203 0 10.75-5.3 10.75-12.55 0-7.2-4.203-12.25-10.203-12.25-3.047 0-4.891 1.05-6.797 3.89v-16.7m5.906 15.36c3.75 0 5.844 3.65 5.844 10.2 0 6.35-2.047 9.89-5.703 9.89-3.953 0-6.297-3.64-6.297-9.79 0-6.71 2.156-10.3 6.156-10.3m22.891-1.8l-8.656.55v2.15h1.812c1.891.05 2.141.35 2.141 2.5V1988.7c-.047.75-.094 1.05-.297 1.3-.344.45-1.297.65-3.453.7h-.203v1.8h12.656v-1.8h-.203c-3.344-.11-3.797-.36-3.797-2.15v-7.4c0-2.45.344-4.7.906-5.85 1.047-2.25 3.297-3.8 5.438-3.8 1.312 0 2.812.7 3.562 1.75.75 1.09 1.094 2.59 1.094 5v10.45c-.047.75-.094 1.05-.297 1.3-.359.45-1.359.65-3.5.7h-.203v1.8h12.656v-1.8h-.203c-3.297-.11-3.75-.36-3.75-2.15v-10.05c0-3.6-.156-4.5-1.047-6.2-1.25-2.4-3.75-3.85-6.75-3.85-3.25 0-5.703 1.5-7.906 4.8v-4.05m27.391 17.75c-1.75 0-3.141 1.39-3.141 3.1 0 1.75 1.391 3.15 3.094 3.15 1.75 0 3.156-1.4 3.156-3.15 0-1.71-1.406-3.1-3.109-3.1m46.187-5.25h-2.203l-.5 2.55c-.641 3.25-1.047 3.55-4.141 3.55H461.27c3.453-3.6 4.594-4.65 7.797-7.15 4.547-3.5 6.5-5.25 7.656-6.75 1.594-2.2 2.391-4.4 2.391-6.85 0-5.71-4.703-9.75-11.25-9.75-6.344 0-11.203 4.04-11.203 9.4 0 3.14 1.609 5.3 3.953 5.3 1.859 0 3.109-1.25 3.109-3.05 0-1.25-.703-2.4-1.75-2.86-1.859-.75-1.953-.84-1.953-1.5 0-.75.5-1.89 1.203-2.75 1.25-1.54 3.297-2.39 5.641-2.39 4.156 0 6.609 2.55 6.609 6.75 0 3.7-1.75 7.05-5.906 11.45-3.703 3.9-6 6.35-6.844 7.3-1.812 2.1-2.703 3.25-4.906 6.14v1.41h22.547l.953-10.8M367.255 1571.59h-29.953l-.75 13.91h2.14c.36-2.5.75-4.41 1.36-6 1.296-3.71 3.703-5.55 7.093-5.55 1.657 0 2.36.55 2.36 1.8v25.79c0 2.56 0 2.66-.313 3.11-.39.5-1.344.7-4.187.7h-1.313v2.35h17.156v-2.35h-1.296c-2.797 0-3.75-.2-4.157-.7-.297-.45-.297-.55-.297-3.11v-25.79c0-1.25.704-1.8 2.344-1.8 3.063 0 5.516 1.7 6.766 4.7.75 1.85 1.25 4 1.64 6.85h2.157l-.75-13.91m10.687-.75l-8.594.56v2.14h1.75c1.891.05 2.141.36 2.141 2.5v19.46c0 6.95-.297 10.75-.891 12.9h1.891l2.453-3.9c2.047 2.7 4.406 3.95 7.5 3.95 6.203 0 10.75-5.3 10.75-12.55 0-7.2-4.203-12.25-10.203-12.25-3.047 0-4.891 1.05-6.797 3.89v-16.7m5.906 15.36c3.75 0 5.844 3.65 5.844 10.2 0 6.35-2.047 9.89-5.703 9.89-3.953 0-6.297-3.64-6.297-9.79 0-6.71 2.156-10.3 6.156-10.3m22.891-1.8l-8.656.55v2.15h1.812c1.891.05 2.141.35 2.141 2.5V1603.9c-.047.75-.094 1.05-.297 1.3-.344.45-1.297.65-3.453.7h-.203v1.8h12.656v-1.8h-.203c-3.344-.11-3.797-.36-3.797-2.15v-7.4c0-2.45.344-4.7.906-5.85 1.047-2.25 3.297-3.8 5.438-3.8 1.312 0 2.812.7 3.562 1.75.75 1.09 1.094 2.59 1.094 5v10.45c-.047.75-.094 1.05-.297 1.3-.359.45-1.359.65-3.5.7h-.203v1.8h12.656v-1.8h-.203c-3.297-.11-3.75-.36-3.75-2.15v-10.05c0-3.6-.156-4.5-1.047-6.2-1.25-2.4-3.75-3.85-6.75-3.85-3.25 0-5.703 1.5-7.906 4.8v-4.05m27.391 17.75c-1.75 0-3.141 1.39-3.141 3.1 0 1.75 1.391 3.15 3.094 3.15 1.75 0 3.156-1.4 3.156-3.15 0-1.71-1.406-3.1-3.109-3.1m37.031-29.65c-1.688 2.04-6.297 3.59-10.891 3.7v2.14h4.391c2.906.06 3.203.36 3.109 3.16v20.04c0 2.56 0 2.66-.297 3.11-.406.5-1.359.7-4.156.7h-3.25v2.35h19.797v-2.35h-2.75c-2.797 0-3.75-.2-4.141-.7-.359-.45-.359-.5-.359-3.11v-20.64c0-2.81.109-5.15.359-8.4h-1.812M304.255 1186.79h-29.953l-.75 13.91h2.14c.36-2.5.75-4.41 1.36-6 1.296-3.71 3.703-5.55 7.093-5.55 1.657 0 2.36.55 2.36 1.8v25.79c0 2.56 0 2.66-.313 3.11-.39.5-1.344.7-4.187.7h-1.313v2.35h17.156v-2.35h-1.296c-2.797 0-3.75-.2-4.157-.7-.297-.45-.297-.55-.297-3.11v-25.79c0-1.25.704-1.8 2.344-1.8 3.063 0 5.516 1.7 6.766 4.7.75 1.85 1.25 4 1.64 6.85h2.157l-.75-13.91m10.687-.75l-8.594.56v2.14h1.75c1.891.05 2.141.36 2.141 2.5v19.46c0 6.95-.297 10.75-.891 12.9h1.891l2.453-3.9c2.047 2.7 4.406 3.95 7.5 3.95 6.203 0 10.75-5.3 10.75-12.55 0-7.2-4.203-12.25-10.203-12.25-3.047 0-4.891 1.05-6.797 3.89v-16.7m5.906 15.36c3.75 0 5.844 3.65 5.844 10.2 0 6.35-2.047 9.89-5.703 9.89-3.953 0-6.297-3.64-6.297-9.79 0-6.71 2.156-10.3 6.156-10.3m22.891-1.8l-8.656.55v2.15h1.812c1.891.05 2.141.35 2.141 2.5V1219.1c-.047.75-.094 1.05-.297 1.3-.344.45-1.297.65-3.453.7h-.203v1.8h12.656v-1.8h-.203c-3.344-.11-3.797-.36-3.797-2.15v-7.4c0-2.45.344-4.7.906-5.85 1.047-2.25 3.297-3.8 5.438-3.8 1.312 0 2.812.7 3.562 1.75.75 1.09 1.094 2.59 1.094 5v10.45c-.047.75-.094 1.05-.297 1.3-.359.45-1.359.65-3.5.7h-.203v1.8h12.656v-1.8h-.203c-3.297-.11-3.75-.36-3.75-2.15v-10.05c0-3.6-.156-4.5-1.047-6.2-1.25-2.4-3.75-3.85-6.75-3.85-3.25 0-5.703 1.5-7.906 4.8v-4.05m27.391 17.75c-1.75 0-3.141 1.39-3.141 3.1 0 1.75 1.391 3.15 3.094 3.15 1.75 0 3.156-1.4 3.156-3.15 0-1.71-1.406-3.1-3.109-3.1m40.437-18.3h-1.75l-1.453 1.8c-1.797-1.4-3.594-2-6.094-2-4.406 0-7.297 2.85-7.297 7.25 0 1.95.641 3.6 1.75 4.6 1.141 1.04 2.297 1.54 5.297 2.25l2.641.6c3.953.94 5.359 1.94 5.359 3.94 0 2.36-2.047 4-4.953 4-4.25 0-7.25-2.69-8.453-7.69h-2v9.44h1.75l1.75-2.04c2.047 1.65 4.297 2.45 6.859 2.45 4.891 0 8.141-3.05 8.141-7.7 0-2.21-.703-3.9-2.094-5.05-1.203-1.05-2.203-1.45-5.25-2.1l-2.5-.56c-2.75-.59-2.75-.59-3.656-1.09-1.094-.5-1.75-1.55-1.75-2.66 0-2.04 1.906-3.44 4.656-3.44 1.891 0 3.453.65 4.844 2 1.109 1.1 1.656 2.1 2.453 4.4h1.75v-8.4m16.235-.2c-6.141 0-10.891 5.45-10.891 12.45 0 6.85 4.797 12.35 10.797 12.35 6 0 10.797-5.5 10.797-12.41 0-6.84-4.797-12.39-10.703-12.39m0 2.14c3.5 0 5.453 3.66 5.453 10.25 0 6.66-1.953 10.25-5.547 10.25-3.594 0-5.547-3.59-5.547-10.19 0-6.81 1.891-10.31 5.641-10.31m22.593-14.95l-9.25.56v2.14h2.453c1.844.05 2.094.36 2.094 2.5v27.86c-.047.75-.094 1.05-.297 1.3-.359.45-1.297.65-3.453.7h-.344v1.8h12.938v-1.8h-.344c-3.344-.11-3.797-.36-3.797-2.15v-32.91m18.125 12.81c-6.14 0-10.89 5.45-10.89 12.45 0 6.85 4.797 12.35 10.797 12.35 6 0 10.796-5.5 10.796-12.41 0-6.84-4.796-12.39-10.703-12.39m0 2.14c3.5 0 5.453 3.66 5.453 10.25 0 6.66-1.953 10.25-5.546 10.25-3.594 0-5.547-3.59-5.547-10.19 0-6.81 1.89-10.31 5.64-10.31M271.098 802.489v2.36h.907c2.843.046 3.797.203 4.187.703.313.437.313.547.313 3.093v23.797c0 2.563 0 2.657-.313 3.11-.39.5-1.344.703-4.187.703h-.907v2.344h18.157c8.64 0 13.843-3.657 13.843-9.797 0-5-3.14-7.86-10-9.047 2.407-.5 3.5-.953 4.797-1.906 2.063-1.547 3.313-4 3.313-6.5 0-3.25-2-6.407-4.906-7.657-1.797-.797-4.297-1.203-7.25-1.203h-17.954m11 16.266v-11.406c0-1.954.657-2.454 3.297-2.5h2c2.297 0 4.203.39 5.25 1.046 1.797 1.094 2.75 3.204 2.75 6 0 4.954-2.39 6.86-8.843 6.86h-4.454m0 2.344h4.407c7.64 0 10.453 2.046 10.453 7.546 0 3.204-1.11 5.5-3.063 6.454-1.547.796-3.64 1.156-6.797 1.156h-2.093c-2.5 0-3-.5-2.907-3.156v-12m46.188 1.406c0-3.156-.547-4.75-2-5.953-1.641-1.36-4.094-2-7.297-2-5.641 0-9.75 2.64-9.75 6.297 0 1.843 1.156 3.046 2.906 3.046 1.594 0 2.703-1.046 2.703-2.546 0-.657-.25-1.344-.75-2.047-.312-.36-.359-.453-.359-.703 0-1 2-1.907 4.406-1.907 1.594 0 3.344.5 4.141 1.25.953.813 1.312 2 1.312 4.25v1.953c-5.203.907-6.859 1.297-9.312 2.25-4.344 1.61-6.391 3.907-6.391 7.11 0 3.594 2.797 5.844 7.25 5.844 3.453 0 6.547-1.407 8.703-3.954.797 2.547 2.047 3.547 4.391 3.547 2.25 0 4.609-1.437 4.609-2.89 0-.36-.203-.61-.5-.61-.203 0-.406.063-.75.203-.703.297-1 .36-1.406.36-1.406 0-1.906-.906-1.906-3.453v-10.047m-4.688 6.094c0 3-.156 3.703-1 5-1.25 1.843-3.5 3.093-5.703 3.093-2.297 0-3.953-1.64-3.953-3.89 0-2.11 1.047-3.61 3.25-4.657 1.547-.703 3.5-1.203 7.406-1.843v2.297m19.797-13.297l-8.859.547v2.156h2.047c1.906.047 2.156.344 2.156 2.5V834.802c-.047.75-.094 1.047-.297 1.297-.359.453-1.359.656-3.5.703h-.203v1.797h13.344v-1.797h-.891c-3.359-.11-3.797-.36-3.797-2.157v-2.703c.047-8.39 3.047-14.797 6.938-15-.688.813-.891 1.313-.891 2.25 0 1.61 1.141 2.75 2.75 2.75 1.844 0 3.047-1.343 3.047-3.343 0-2.454-1.703-4.047-4.344-4.047-3.156 0-5.859 2.5-7.5 6.953v-6.203m15.422 17.75c-1.75 0-3.14 1.39-3.14 3.093 0 1.75 1.39 3.157 3.093 3.157a3.149 3.149 0 003.157-3.157c0-1.703-1.407-3.093-3.11-3.093m48.235-30.86h-1.844l-2 3c-2.406-2.25-5.547-3.453-9.11-3.453-6.593 0-10.937 4.156-10.937 10.453 0 5.453 2.687 8.157 10.047 10.063l4.75 1.187c3.703.953 4.047 1.063 5.094 1.86 1.5 1.14 2.312 2.797 2.312 4.75 0 2-.766 3.64-2.266 5.047-1.64 1.406-3.296 1.953-6.046 1.953-3.704 0-6.344-1.157-8.704-3.75-2.093-2.297-3.14-4.703-3.89-8.547h-2.156l.203 14.25h1.953l2.25-3.406c3.344 2.75 6.094 3.75 10.5 3.75 7.344 0 12.047-4.297 12.047-11 0-3.157-1-5.75-3-7.657-1.344-1.297-3.297-2.14-7.297-3.14l-5.36-1.36c-4.437-1.14-6.546-3.093-6.546-6.14 0-3.5 2.859-5.907 7.109-5.907 3.5 0 6.344 1.5 8.344 4.344 1.453 2.063 2.406 4.156 3 6.703h2.156l-.609-13m26.687 20.313c0-3.156-.547-4.75-2-5.953-1.641-1.36-4.094-2-7.297-2-5.64 0-9.75 2.64-9.75 6.297 0 1.843 1.156 3.046 2.906 3.046 1.594 0 2.704-1.046 2.704-2.546 0-.657-.25-1.344-.75-2.047-.313-.36-.36-.453-.36-.703 0-1 2-1.907 4.406-1.907 1.594 0 3.344.5 4.141 1.25.953.813 1.313 2 1.313 4.25v1.953c-5.204.907-6.86 1.297-9.313 2.25-4.344 1.61-6.391 3.907-6.391 7.11 0 3.594 2.797 5.844 7.25 5.844 3.454 0 6.547-1.407 8.704-3.954.796 2.547 2.046 3.547 4.39 3.547 2.25 0 4.61-1.437 4.61-2.89 0-.36-.204-.61-.5-.61-.204 0-.407.063-.75.203-.704.297-1 .36-1.407.36-1.406 0-1.906-.906-1.906-3.453v-10.047m-4.687 6.094c0 3-.157 3.703-1 5-1.25 1.843-3.5 3.093-5.704 3.093-2.296 0-3.953-1.64-3.953-3.89 0-2.11 1.047-3.61 3.25-4.657 1.547-.703 3.5-1.203 7.407-1.843v2.297m26.39-2.75l5.703-6.657c1.25-1.437 2.391-2.093 3.75-2.093h.438v-1.797h-10.344v1.797h.953c1.5 0 2.25.343 2.25 1.093 0 .5-.359 1.203-1 2l-3.156 3.813-3.844-4.906c-.297-.407-.5-.797-.5-1.094 0-.656.641-.906 2.203-.906h.688v-1.797h-11.844v1.797c1.844.156 2.547.593 4.156 2.703l6.094 7.64-5.75 6.703c-1.703 1.907-3.156 2.704-4.5 2.657h-.297v1.797h10.547v-1.797h-.75c-1.156 0-1.406-.047-1.75-.203-.406-.25-.703-.704-.703-1.157 0-.343.156-.797.406-1.093l4.203-5 3.797 5.046c.344.5.641 1.157.641 1.5 0 .657-.75.907-2.641.907h-.359v1.797h12.609v-1.797h-.344c-1.765 0-2.906-.657-4.359-2.453l-6.297-8.5m18.141 7.203c-1.75 0-3.141 1.39-3.141 3.093 0 1.75 1.391 3.157 3.094 3.157a3.148 3.148 0 003.156-3.157c0-1.703-1.406-3.093-3.109-3.093M232.505 417.002h-2.11l-11.5 29.14c-1.343 3.907-2.64 5.11-5.5 5.313h-.203v2.344h13.25v-2.344h-1c-2.687 0-4.047-.953-4.047-2.859 0-.641.157-1.25.453-2.094l1.657-4.406h13.25l2.703 6.703c.297.797.39 1.093.39 1.343 0 .813-1.25 1.313-3.093 1.313h-2.11v2.344h15.5v-2.344h-.687c-2.61-.063-3.063-.359-4.203-3.203l-12.75-31.25m-2.453 8.187l5.64 14.203h-11.187l5.547-14.203m27.078 23.063c-1.75 0-3.141 1.39-3.141 3.094 0 1.75 1.391 3.156 3.094 3.156a3.147 3.147 0 003.156-3.156c0-1.704-1.406-3.094-3.109-3.094m48.234-30.86h-1.844l-2 3c-2.406-2.25-5.547-3.453-9.109-3.453-6.594 0-10.938 4.157-10.938 10.453 0 5.454 2.688 8.157 10.047 10.063l4.75 1.187c3.703.954 4.047 1.063 5.094 1.86 1.5 1.14 2.313 2.797 2.313 4.75 0 2-.766 3.64-2.266 5.047-1.641 1.406-3.297 1.953-6.047 1.953-3.703 0-6.344-1.156-8.703-3.75-2.094-2.297-3.141-4.703-3.891-8.547h-2.156l.203 14.25h1.953l2.25-3.406c3.344 2.75 6.094 3.75 10.5 3.75 7.344 0 12.047-4.297 12.047-11 0-3.157-1-5.75-3-7.657-1.344-1.296-3.297-2.14-7.297-3.14l-5.359-1.36c-4.438-1.14-6.547-3.093-6.547-6.14 0-3.5 2.859-5.906 7.109-5.906 3.5 0 6.344 1.5 8.344 4.343 1.453 2.063 2.406 4.157 3 6.703h2.156l-.609-13m26.688 20.313c0-3.156-.547-4.75-2-5.953-1.641-1.36-4.094-2-7.297-2-5.641 0-9.75 2.64-9.75 6.297 0 1.843 1.156 3.047 2.906 3.047 1.594 0 2.703-1.047 2.703-2.547 0-.657-.25-1.344-.75-2.047-.312-.36-.359-.453-.359-.703 0-1 2-1.907 4.406-1.907 1.594 0 3.344.5 4.141 1.25.953.813 1.312 2 1.312 4.25v1.954c-5.203.906-6.859 1.296-9.312 2.25-4.344 1.609-6.391 3.906-6.391 7.109 0 3.594 2.797 5.844 7.25 5.844 3.453 0 6.547-1.407 8.703-3.953.797 2.546 2.047 3.546 4.391 3.546 2.25 0 4.609-1.437 4.609-2.89 0-.36-.203-.61-.5-.61-.203 0-.406.063-.75.204-.703.296-1 .359-1.406.359-1.406 0-1.906-.906-1.906-3.453v-10.047m-4.688 6.094c0 3-.156 3.703-1 5-1.25 1.843-3.5 3.093-5.703 3.093-2.297 0-3.953-1.64-3.953-3.89 0-2.11 1.047-3.61 3.25-4.656 1.547-.704 3.5-1.204 7.406-1.844v2.297m26.391-2.75l5.703-6.657c1.25-1.437 2.39-2.093 3.75-2.093h.437v-1.797h-10.343v1.797h.953c1.5 0 2.25.343 2.25 1.093 0 .5-.36 1.204-1 2l-3.157 3.813-3.843-4.906c-.297-.407-.5-.797-.5-1.094 0-.656.64-.906 2.203-.906h.687v-1.797h-11.843v1.797c1.843.156 2.546.593 4.156 2.703l6.094 7.64-5.75 6.704c-1.704 1.906-3.157 2.703-4.5 2.656h-.297v1.797h10.547v-1.797h-.75c-1.157 0-1.407-.047-1.75-.203-.407-.25-.704-.703-.704-1.157 0-.343.157-.796.407-1.093l4.203-5 3.797 5.047c.343.5.64 1.156.64 1.5 0 .656-.75.906-2.64.906h-.36v1.797h12.61v-1.797h-.344c-1.766 0-2.906-.656-4.359-2.453l-6.297-8.5m18.14 7.203c-1.75 0-3.14 1.39-3.14 3.094 0 1.75 1.39 3.156 3.093 3.156a3.148 3.148 0 003.157-3.156c0-1.704-1.407-3.094-3.11-3.094m40.438-18.297h-1.75l-1.453 1.797c-1.797-1.406-3.594-2-6.094-2-4.406 0-7.297 2.844-7.297 7.25 0 1.953.641 3.594 1.75 4.594 1.141 1.046 2.297 1.546 5.297 2.25l2.641.609c3.953.937 5.359 1.937 5.359 3.937 0 2.36-2.047 4-4.953 4-4.25 0-7.25-2.687-8.453-7.687h-2v9.437h1.75l1.75-2.046c2.047 1.656 4.297 2.453 6.859 2.453 4.891 0 8.141-3.047 8.141-7.703 0-2.204-.703-3.891-2.094-5.047-1.203-1.047-2.203-1.453-5.25-2.094l-2.5-.563c-2.75-.593-2.75-.593-3.656-1.093-1.094-.5-1.75-1.547-1.75-2.657 0-2.046 1.906-3.437 4.656-3.437 1.891 0 3.453.641 4.844 2 1.109 1.094 1.656 2.094 2.453 4.391h1.75v-8.391m16.234-.203c-6.14 0-10.89 5.453-10.89 12.453 0 6.844 4.796 12.344 10.796 12.344 6 0 10.797-5.5 10.797-12.407 0-6.843-4.797-12.39-10.703-12.39m0 2.14c3.5 0 5.453 3.657 5.453 10.25 0 6.657-1.953 10.25-5.547 10.25-3.593 0-5.546-3.593-5.546-10.187 0-6.813 1.89-10.313 5.64-10.313m22.594-14.953l-9.25.563v2.14h2.453c1.844.047 2.094.36 2.094 2.5v27.86c-.047.75-.094 1.047-.297 1.297-.359.453-1.297.656-3.453.703h-.344v1.797h12.938v-1.797h-.344c-3.344-.11-3.797-.36-3.797-2.156v-32.907m18.125 12.813c-6.141 0-10.891 5.453-10.891 12.453 0 6.844 4.797 12.344 10.797 12.344 6 0 10.797-5.5 10.797-12.407 0-6.843-4.797-12.39-10.703-12.39m0 2.14c3.5 0 5.453 3.657 5.453 10.25 0 6.657-1.953 10.25-5.547 10.25-3.594 0-5.547-3.593-5.547-10.187 0-6.813 1.891-10.313 5.641-10.313"/><path class="SlurSegment" stroke="#000" stroke-width="1.74" stroke-linecap="round" stroke-linejoin="round" fill-rule="evenodd" d="M1886.53 3086.04c21.3-11.16 47.46 1.24 52.31 24.8-7.82-17.28-33.98-29.68-52.31-24.8M2053.66 3205.08c29.72 32.77 94.81 38.97 130.18 12.4-36.03 33.49-101.12 27.29-130.18-12.4"/><path class="TieSegment" stroke="#000" stroke-width="1.74" stroke-linecap="round" stroke-linejoin="round" fill-rule="evenodd" d="M810.853 3404.38c16.032-15.66 64.129-15.66 80.162 0-16.033-8.71-64.13-8.71-80.162 0M930.983 3439.51c5.952 6.44 23.808 6.44 29.76 0-5.952 13.39-23.808 13.39-29.76 0M930.983 3333.37c5.952-13.4 23.808-13.4 29.76 0-5.952-6.45-23.808-6.45-29.76 0M1113.57 3535.24c20.64 12.21 82.55 12.21 103.19 0-20.64 19.15-82.55 19.15-103.19 0M1128.72 3229.63c17.61 9.91 70.43 9.91 88.04 0-17.61 16.85-70.43 16.85-88.04 0M1128.72 3173.09c17.61-16.86 70.43-16.86 88.04 0-17.61-9.91-70.43-9.91-88.04 0M1784.46 3185.11c5.96 6.45 23.81 6.45 29.76 0-5.95 13.4-23.8 13.4-29.76 0M1784.46 3123.49c5.96-13.39 23.81-13.39 29.76 0-5.95-6.45-23.8-6.45-29.76 0M2203.82 3209.91c5.95 6.45 23.81 6.45 29.76 0-5.95 13.4-23.81 13.4-29.76 0M2203.82 3148.29c5.95-13.39 23.81-13.39 29.76 0-5.95-6.45-23.81-6.45-29.76 0"/><path class="BarLine" stroke="#000" stroke-width="4.46" stroke-linejoin="bevel" d="M547.07 3378.87v101.93M1397.28 3378.87v101.93M1994.39 3378.87v101.93M2761.55 3378.87v101.93M547.07 3106.99v273.25M1397.28 3106.99v273.25M1994.39 3106.99v273.25M2761.55 3106.99v273.25M547.07 2693.63v414.73M1397.28 2693.63v101.93M1994.39 2693.63v101.93M2761.55 2693.63v101.93M547.07 2308.83V2695M1397.28 2308.83v101.93M1994.39 2308.83v101.93M2761.55 2308.83v101.93M547.07 1924.03v386.17M1397.28 1924.03v101.93M1994.39 1924.03v101.93M2761.55 1924.03v101.93M547.07 1539.23v386.17M1397.28 1539.23v101.93M1994.39 1539.23v101.93M2761.55 1539.23v101.93M547.07 1154.43v386.17M1397.28 1154.43v101.93M1994.39 1154.43v101.93M2761.55 1154.43v101.93M547.07 769.635V1155.8M1397.28 769.635V1155.8M1994.39 769.635V1155.8M2761.55 769.635V1155.8M547.07 384.835v386.164M1397.28 384.835v101.928M1994.39 384.835v101.928M2761.55 384.835v101.928"/><path class="Arpeggio" d="M1439.688 3185.873s-.698.59-1.395 1.38c-.294.31-.388.698-.388.992 0 .31.094.496.295.698l1.085 1.1c.201.186.31.388.31.589 0 .403-.31.589-.31.589s-5.456 6.355-6.34 7.347c-.79 1.085-1.1 2.185-1.1 3.177 0 2.077 1.194 3.968 2.092 4.759l4.759 4.759c.294.294.496.403.79.403.496 0 .9-.403.9-.403s.697-.59 1.379-1.38c.31-.31.403-.605.403-.899a.903.903 0 00-.295-.698l-1.1-1.085c-.186-.201-.295-.403-.295-.604 0-.388.295-.682.295-.682s5.363-6.355 6.262-7.347c.79-1.085 1.085-2.185 1.085-3.177 0-2.078-1.194-3.968-2.077-4.759l-4.774-4.759c-.295-.294-.589-.402-.79-.402-.497 0-.791.402-.791.402"/><path class="Arpeggio" d="M1439.688 3164.053s-.698.59-1.395 1.38c-.294.31-.388.698-.388.992 0 .31.094.496.295.698l1.085 1.1c.201.186.31.388.31.589 0 .403-.31.589-.31.589s-5.456 6.355-6.34 7.347c-.79 1.085-1.1 2.185-1.1 3.177 0 2.077 1.194 3.968 2.092 4.759l4.759 4.759c.294.294.496.403.79.403.496 0 .9-.403.9-.403s.697-.59 1.379-1.38c.31-.31.403-.605.403-.899a.903.903 0 00-.295-.698l-1.1-1.085c-.186-.201-.295-.403-.295-.604 0-.388.295-.682.295-.682s5.363-6.355 6.262-7.347c.79-1.085 1.085-2.185 1.085-3.177 0-2.078-1.194-3.968-2.077-4.759l-4.774-4.759c-.295-.294-.589-.402-.79-.402-.497 0-.791.402-.791.402"/><path class="Arpeggio" d="M1439.688 3142.223s-.698.59-1.395 1.38c-.294.31-.388.698-.388.992 0 .31.094.496.295.698l1.085 1.1c.201.186.31.388.31.589 0 .403-.31.589-.31.589s-5.456 6.355-6.34 7.347c-.79 1.085-1.1 2.185-1.1 3.177 0 2.077 1.194 3.968 2.092 4.759l4.759 4.759c.294.294.496.403.79.403.496 0 .9-.403.9-.403s.697-.59 1.379-1.38c.31-.31.403-.605.403-.899a.903.903 0 00-.295-.698l-1.1-1.085c-.186-.201-.295-.403-.295-.604 0-.388.295-.682.295-.682s5.363-6.355 6.262-7.347c.79-1.085 1.085-2.185 1.085-3.177 0-2.078-1.194-3.968-2.077-4.759l-4.774-4.759c-.295-.294-.589-.402-.79-.402-.497 0-.791.402-.791.402"/><path class="Arpeggio" d="M1439.688 3120.403s-.698.59-1.395 1.38c-.294.31-.388.698-.388.992 0 .31.094.496.295.698l1.085 1.1c.201.186.31.388.31.589 0 .403-.31.589-.31.589s-5.456 6.355-6.34 7.347c-.79 1.085-1.1 2.185-1.1 3.177 0 2.077 1.194 3.968 2.092 4.759l4.759 4.759c.294.294.496.403.79.403.496 0 .9-.403.9-.403s.697-.59 1.379-1.38c.31-.31.403-.605.403-.899a.903.903 0 00-.295-.698l-1.1-1.085c-.186-.201-.295-.403-.295-.604 0-.388.295-.682.295-.682s5.363-6.355 6.262-7.347c.79-1.085 1.085-2.185 1.085-3.177 0-2.078-1.194-3.968-2.077-4.759l-4.774-4.759c-.295-.294-.589-.402-.79-.402-.497 0-.791.402-.791.402"/><path class="Accidental" d="M783.205 3411.69c-.186-.202-.496-.295-.79-.295-.094 0-.295.093-.388.093l-12.508 3.472v-17.36h-2.775v49.104c0 .79.589 1.287 1.395 1.287h.388l12.508-3.472v17.36h2.666v-49.104c0-.388-.186-.884-.496-1.086m-2.17 24.599l-11.516 3.178v-16.276l11.516-3.27v16.368M879.507 3324.89c-.186-.202-.496-.295-.79-.295-.094 0-.295.093-.388.093l-12.508 3.472v-17.36h-2.775v49.104c0 .79.589 1.287 1.395 1.287h.388l12.508-3.472v17.36h2.666v-49.104c0-.388-.186-.884-.496-1.086m-2.17 24.599l-11.516 3.178v-16.276l11.516-3.27v16.368M1077.241 3498.49c-.186-.202-.496-.295-.79-.295-.094 0-.295.093-.388.093l-12.508 3.472v-17.36h-2.775v49.104c0 .79.589 1.287 1.395 1.287h.388l12.508-3.472v17.36h2.666v-49.104c0-.388-.186-.884-.496-1.086m-2.17 24.599l-11.516 3.178v-16.276l11.516-3.27v16.368M928.705 3174.917c-.589-3.86-2.976-7.533-8.029-7.533-4.96 0-7.843 3.069-8.339 3.673l.403-31.852c0-.79-.589-1.38-1.395-1.38h-1.178c-.806 0-1.395.59-1.395 1.38l.496 59.628c0 .791.589 1.38 1.395 1.38.186 0 .589-.093.79-.186.388-.202 6.836-3.379 12.199-9.424 3.767-4.278 5.255-9.13 5.255-13.206 0-.884-.094-1.674-.202-2.48m-6.836 3.875c0 1.488-.402 6.045-2.882 9.827-1.69 2.573-5.053 5.254-6.944 6.742l.294-19.344c.202-.899 1.69-3.766 5.658-3.766 3.58 0 3.874 3.363 3.874 5.456v1.085M1657.961 3164.61c-.186-.202-.496-.295-.79-.295-.094 0-.295.093-.388.093l-12.508 3.472v-17.36h-2.775v49.104c0 .79.589 1.287 1.395 1.287h.388l12.508-3.472v17.36h2.666v-49.104c0-.388-.186-.884-.496-1.086m-2.17 24.599l-11.516 3.178v-16.276l11.516-3.27v16.368"/><path class="LedgerLine" stroke="#000" stroke-width="3.97" stroke-linejoin="bevel" d="M886.203 3355.44h49.592M955.931 3355.44h49.589M1083.94 3504.24h49.59M1211.95 3504.24h49.59M1451.84 3504.24h49.59M1553.91 3355.44h49.59M1809.41 3355.44H1859M2028.86 3504.24h49.6M2237.45 3355.44h70.42M2559.7 3355.44h70.42M2420.85 3083.56h49.59M2420.85 3058.76h49.59M2420.85 3033.96h49.59M2485.94 3083.56h49.59"/><path class="Stem" stroke="#000" stroke-width="2.73" stroke-linejoin="bevel" d="M1461.88 3507.57v55.57M1666.02 3457.97v67.97M2038.91 3433.17v139.27M2365.8 3433.17v74.17M791.266 3433.17v74.17M896.247 3346.37v170.27M965.975 3346.37v160.97M1123.49 3513.46v-83.62M1251.5 3513.46v-161.12M1593.45 3414.26v-127.02M1848.96 3414.26v-127.02M2268.32 3401.86v-105.32M2590.57 3401.86v-105.32M820.77 3167.18v-77.42M965.975 3124.09v129.97M1123.49 3216.78v-117.72M1251.5 3216.78v-117.72M1326.98 3136.49v83.47M1491.38 3191.98v-130.12M1695.52 3179.58v-108.42M1749.73 3136.49v120.67M1819.46 3136.49v102.07M1871.77 3111.69v126.87M1924.09 3136.49v102.07M2068.41 3179.58v-102.22M2133.5 3191.98v-111.52M2198.59 3191.98v-108.42M2268.32 3191.98v-111.52M2430.89 3024.89v133.07M2495.98 3074.49v108.27M2561.07 3111.69v164.07M2626.16 3161.29v114.47M2691.25 3136.49v139.27"/><path class="Note" d="M1491.768 3496.164c-1.782-3.27-5.549-5.053-10.121-5.053-3.364 0-7.038.992-10.618 2.868-6.541 3.472-10.509 9.331-10.509 14.384 0 1.395.295 2.79.992 4.077 1.783 3.285 5.549 4.975 10.121 4.975 3.364 0 7.038-.899 10.618-2.774 6.541-3.488 10.509-9.347 10.509-14.416 0-1.379-.294-2.774-.992-4.06m-4.262 6.742c-1.69 1.69-5.069 3.767-8.634 5.766-3.565 1.984-7.145 3.472-9.517 3.968-.496.109-.992.202-1.488.202-1.596 0-2.79-.59-3.472-1.891a3.212 3.212 0 01-.496-1.69c0-1.085.682-2.387 1.783-3.472 1.689-1.69 4.96-3.767 8.525-5.75 3.58-1.985 7.145-3.473 9.532-3.969.496-.108.992-.201 1.488-.201 1.581 0 2.868.589 3.565 1.875.295.496.403 1.101.403 1.69 0 1.1-.604 2.278-1.69 3.472M1695.908 3446.564c-1.782-3.27-5.549-5.053-10.121-5.053-3.364 0-7.038.992-10.618 2.868-6.541 3.472-10.509 9.331-10.509 14.384 0 1.395.295 2.79.992 4.077 1.783 3.285 5.549 4.975 10.121 4.975 3.364 0 7.038-.899 10.618-2.774 6.541-3.488 10.509-9.347 10.509-14.416 0-1.379-.294-2.774-.992-4.06m-4.262 6.742c-1.69 1.69-5.069 3.767-8.634 5.766-3.565 1.984-7.145 3.472-9.517 3.968-.496.109-.992.202-1.488.202-1.596 0-2.79-.59-3.472-1.891a3.212 3.212 0 01-.496-1.69c0-1.085.682-2.387 1.783-3.472 1.689-1.69 4.96-3.767 8.525-5.75 3.58-1.985 7.145-3.473 9.532-3.969.496-.108.992-.201 1.488-.201 1.581 0 2.868.589 3.565 1.875.295.496.403 1.101.403 1.69 0 1.1-.604 2.278-1.69 3.472M2068.788 3508.564c-1.782-3.27-5.549-5.053-10.121-5.053-3.364 0-7.038.992-10.618 2.868-6.541 3.472-10.509 9.331-10.509 14.384 0 1.395.295 2.79.992 4.077 1.783 3.285 5.549 4.975 10.121 4.975 3.364 0 7.038-.899 10.618-2.774 6.541-3.488 10.509-9.347 10.509-14.416 0-1.379-.294-2.774-.992-4.06m-4.262 6.742c-1.69 1.69-5.069 3.767-8.634 5.766-3.565 1.984-7.145 3.472-9.517 3.968-.496.109-.992.202-1.488.202-1.596 0-2.79-.59-3.472-1.891a3.212 3.212 0 01-.496-1.69c0-1.085.682-2.387 1.783-3.472 1.689-1.69 4.96-3.767 8.525-5.75 3.58-1.985 7.145-3.473 9.532-3.969.496-.108.992-.201 1.488-.201 1.581 0 2.868.589 3.565 1.875.295.496.403 1.101.403 1.69 0 1.1-.604 2.278-1.69 3.472M2068.788 3421.764c-1.782-3.27-5.549-5.053-10.121-5.053-3.364 0-7.038.992-10.618 2.868-6.541 3.472-10.509 9.331-10.509 14.384 0 1.395.295 2.79.992 4.077 1.783 3.285 5.549 4.975 10.121 4.975 3.364 0 7.038-.899 10.618-2.774 6.541-3.488 10.509-9.347 10.509-14.416 0-1.379-.294-2.774-.992-4.06m-4.262 6.742c-1.69 1.69-5.069 3.767-8.634 5.766-3.565 1.984-7.145 3.472-9.517 3.968-.496.109-.992.202-1.488.202-1.596 0-2.79-.59-3.472-1.891a3.212 3.212 0 01-.496-1.69c0-1.085.682-2.387 1.783-3.472 1.689-1.69 4.96-3.767 8.525-5.75 3.58-1.985 7.145-3.473 9.532-3.969.496-.108.992-.201 1.488-.201 1.581 0 2.868.589 3.565 1.875.295.496.403 1.101.403 1.69 0 1.1-.604 2.278-1.69 3.472M2395.688 3421.764c-1.782-3.27-5.549-5.053-10.121-5.053-3.364 0-7.038.992-10.618 2.868-6.541 3.472-10.509 9.331-10.509 14.384 0 1.395.295 2.79.992 4.077 1.783 3.285 5.549 4.975 10.121 4.975 3.364 0 7.038-.899 10.618-2.774 6.541-3.488 10.509-9.347 10.509-14.416 0-1.379-.294-2.774-.992-4.06m-4.262 6.742c-1.69 1.69-5.069 3.767-8.634 5.766-3.565 1.984-7.145 3.472-9.517 3.968-.496.109-.992.202-1.488.202-1.596 0-2.79-.59-3.472-1.891a3.212 3.212 0 01-.496-1.69c0-1.085.682-2.387 1.783-3.472 1.689-1.69 4.96-3.767 8.525-5.75 3.58-1.985 7.145-3.473 9.532-3.969.496-.108.992-.201 1.488-.201 1.581 0 2.868.589 3.565 1.875.295.496.403 1.101.403 1.69 0 1.1-.604 2.278-1.69 3.472M821.15 3421.811c-1.782-3.286-5.549-5.068-10.121-5.068-3.364 0-7.038.992-10.618 2.882-6.541 3.472-10.509 9.316-10.509 14.385 0 1.379.295 2.774.992 4.06 1.783 3.271 5.549 4.96 10.121 4.96 3.364 0 7.038-.883 10.618-2.774 6.541-3.472 10.509-9.331 10.509-14.384 0-1.395-.294-2.775-.992-4.061M926.131 3421.811c-1.782-3.286-5.549-5.068-10.121-5.068-3.364 0-7.038.992-10.618 2.882-6.541 3.472-10.509 9.316-10.509 14.385 0 1.379.295 2.774.992 4.06 1.783 3.271 5.549 4.96 10.121 4.96 3.364 0 7.038-.883 10.618-2.774 6.541-3.472 10.509-9.331 10.509-14.384 0-1.395-.294-2.775-.992-4.061M926.131 3335.011c-1.782-3.286-5.549-5.068-10.121-5.068-3.364 0-7.038.992-10.618 2.882-6.541 3.472-10.509 9.316-10.509 14.385 0 1.379.295 2.774.992 4.06 1.783 3.271 5.549 4.96 10.121 4.96 3.364 0 7.038-.883 10.618-2.774 6.541-3.472 10.509-9.331 10.509-14.384 0-1.395-.294-2.775-.992-4.061M995.859 3421.811c-1.782-3.286-5.549-5.068-10.121-5.068-3.364 0-7.038.992-10.618 2.882-6.541 3.472-10.509 9.316-10.509 14.385 0 1.379.295 2.774.992 4.06 1.783 3.271 5.549 4.96 10.121 4.96 3.364 0 7.038-.883 10.618-2.774 6.541-3.472 10.509-9.331 10.509-14.384 0-1.395-.294-2.775-.992-4.061M995.859 3335.011c-1.782-3.286-5.549-5.068-10.121-5.068-3.364 0-7.038.992-10.618 2.882-6.541 3.472-10.509 9.316-10.509 14.385 0 1.379.295 2.774.992 4.06 1.783 3.271 5.549 4.96 10.121 4.96 3.364 0 7.038-.883 10.618-2.774 6.541-3.472 10.509-9.331 10.509-14.384 0-1.395-.294-2.775-.992-4.061M1123.868 3508.611c-1.782-3.286-5.549-5.068-10.121-5.068-3.364 0-7.038.992-10.618 2.882-6.541 3.472-10.509 9.316-10.509 14.385 0 1.379.295 2.774.992 4.06 1.783 3.271 5.549 4.96 10.121 4.96 3.364 0 7.038-.883 10.618-2.774 6.541-3.472 10.509-9.331 10.509-14.384 0-1.395-.294-2.775-.992-4.061M1251.878 3508.611c-1.782-3.286-5.549-5.068-10.121-5.068-3.364 0-7.038.992-10.618 2.882-6.541 3.472-10.509 9.316-10.509 14.385 0 1.379.295 2.774.992 4.06 1.783 3.271 5.549 4.96 10.121 4.96 3.364 0 7.038-.883 10.618-2.774 6.541-3.472 10.509-9.331 10.509-14.384 0-1.395-.294-2.775-.992-4.061M1251.878 3421.811c-1.782-3.286-5.549-5.068-10.121-5.068-3.364 0-7.038.992-10.618 2.882-6.541 3.472-10.509 9.316-10.509 14.385 0 1.379.295 2.774.992 4.06 1.783 3.271 5.549 4.96 10.121 4.96 3.364 0 7.038-.883 10.618-2.774 6.541-3.472 10.509-9.331 10.509-14.384 0-1.395-.294-2.775-.992-4.061M1593.838 3409.411c-1.782-3.286-5.549-5.068-10.121-5.068-3.364 0-7.038.992-10.618 2.882-6.541 3.472-10.509 9.316-10.509 14.385 0 1.379.295 2.774.992 4.06 1.783 3.271 5.549 4.96 10.121 4.96 3.364 0 7.038-.883 10.618-2.774 6.541-3.472 10.509-9.331 10.509-14.384 0-1.395-.294-2.775-.992-4.061"/><path class="Note" d="M1593.838 3384.611c-1.782-3.286-5.549-5.068-10.121-5.068-3.364 0-7.038.992-10.618 2.882-6.541 3.472-10.509 9.316-10.509 14.385 0 1.379.295 2.774.992 4.06 1.783 3.271 5.549 4.96 10.121 4.96 3.364 0 7.038-.883 10.618-2.774 6.541-3.472 10.509-9.331 10.509-14.384 0-1.395-.294-2.775-.992-4.061"/><path class="Note" d="M1593.838 3359.811c-1.782-3.286-5.549-5.068-10.121-5.068-3.364 0-7.038.992-10.618 2.882-6.541 3.472-10.509 9.316-10.509 14.385 0 1.379.295 2.774.992 4.06 1.783 3.271 5.549 4.96 10.121 4.96 3.364 0 7.038-.883 10.618-2.774 6.541-3.472 10.509-9.331 10.509-14.384 0-1.395-.294-2.775-.992-4.061"/><path class="Note" d="M1593.838 3335.011c-1.782-3.286-5.549-5.068-10.121-5.068-3.364 0-7.038.992-10.618 2.882-6.541 3.472-10.509 9.316-10.509 14.385 0 1.379.295 2.774.992 4.06 1.783 3.271 5.549 4.96 10.121 4.96 3.364 0 7.038-.883 10.618-2.774 6.541-3.472 10.509-9.331 10.509-14.384 0-1.395-.294-2.775-.992-4.061M1849.338 3409.411c-1.782-3.286-5.549-5.068-10.121-5.068-3.364 0-7.038.992-10.618 2.882-6.541 3.472-10.509 9.316-10.509 14.385 0 1.379.295 2.774.992 4.06 1.783 3.271 5.549 4.96 10.121 4.96 3.364 0 7.038-.883 10.618-2.774 6.541-3.472 10.509-9.331 10.509-14.384 0-1.395-.294-2.775-.992-4.061"/><path class="Note" d="M1849.338 3384.611c-1.782-3.286-5.549-5.068-10.121-5.068-3.364 0-7.038.992-10.618 2.882-6.541 3.472-10.509 9.316-10.509 14.385 0 1.379.295 2.774.992 4.06 1.783 3.271 5.549 4.96 10.121 4.96 3.364 0 7.038-.883 10.618-2.774 6.541-3.472 10.509-9.331 10.509-14.384 0-1.395-.294-2.775-.992-4.061"/><path class="Note" d="M1849.338 3359.811c-1.782-3.286-5.549-5.068-10.121-5.068-3.364 0-7.038.992-10.618 2.882-6.541 3.472-10.509 9.316-10.509 14.385 0 1.379.295 2.774.992 4.06 1.783 3.271 5.549 4.96 10.121 4.96 3.364 0 7.038-.883 10.618-2.774 6.541-3.472 10.509-9.331 10.509-14.384 0-1.395-.294-2.775-.992-4.061"/><path class="Note" d="M1849.338 3335.011c-1.782-3.286-5.549-5.068-10.121-5.068-3.364 0-7.038.992-10.618 2.882-6.541 3.472-10.509 9.316-10.509 14.385 0 1.379.295 2.774.992 4.06 1.783 3.271 5.549 4.96 10.121 4.96 3.364 0 7.038-.883 10.618-2.774 6.541-3.472 10.509-9.331 10.509-14.384 0-1.395-.294-2.775-.992-4.061M2268.698 3397.011c-1.782-3.286-5.549-5.068-10.121-5.068-3.364 0-7.038.992-10.618 2.882-6.541 3.472-10.509 9.316-10.509 14.385 0 1.379.295 2.774.992 4.06 1.783 3.271 5.549 4.96 10.121 4.96 3.364 0 7.038-.883 10.618-2.774 6.541-3.472 10.509-9.331 10.509-14.384 0-1.395-.294-2.775-.992-4.061M2268.698 3359.811c-1.782-3.286-5.549-5.068-10.121-5.068-3.364 0-7.038.992-10.618 2.882-6.541 3.472-10.509 9.316-10.509 14.385 0 1.379.295 2.774.992 4.06 1.783 3.271 5.549 4.96 10.121 4.96 3.364 0 7.038-.883 10.618-2.774 6.541-3.472 10.509-9.331 10.509-14.384 0-1.395-.294-2.775-.992-4.061"/><path class="Note" d="M2298.198 3347.411c-1.782-3.286-5.549-5.068-10.121-5.068-3.364 0-7.038.992-10.618 2.882-6.541 3.472-10.509 9.316-10.509 14.385 0 1.379.295 2.774.992 4.06 1.783 3.271 5.549 4.96 10.121 4.96 3.364 0 7.038-.883 10.618-2.774 6.541-3.472 10.509-9.331 10.509-14.384 0-1.395-.294-2.775-.992-4.061M2590.948 3397.011c-1.782-3.286-5.549-5.068-10.121-5.068-3.364 0-7.038.992-10.618 2.882-6.541 3.472-10.509 9.316-10.509 14.385 0 1.379.295 2.774.992 4.06 1.783 3.271 5.549 4.96 10.121 4.96 3.364 0 7.038-.883 10.618-2.774 6.541-3.472 10.509-9.331 10.509-14.384 0-1.395-.294-2.775-.992-4.061M2590.948 3359.811c-1.782-3.286-5.549-5.068-10.121-5.068-3.364 0-7.038.992-10.618 2.882-6.541 3.472-10.509 9.316-10.509 14.385 0 1.379.295 2.774.992 4.06 1.783 3.271 5.549 4.96 10.121 4.96 3.364 0 7.038-.883 10.618-2.774 6.541-3.472 10.509-9.331 10.509-14.384 0-1.395-.294-2.775-.992-4.061"/><path class="Note" d="M2620.458 3347.411c-1.782-3.286-5.549-5.068-10.121-5.068-3.364 0-7.038.992-10.618 2.882-6.541 3.472-10.509 9.316-10.509 14.385 0 1.379.295 2.774.992 4.06 1.783 3.271 5.549 4.96 10.121 4.96 3.364 0 7.038-.883 10.618-2.774 6.541-3.472 10.509-9.331 10.509-14.384 0-1.395-.294-2.775-.992-4.061M821.15 3162.331c-1.782-3.286-5.549-5.068-10.121-5.068-3.364 0-7.038.992-10.618 2.882-6.541 3.472-10.509 9.316-10.509 14.385 0 1.379.295 2.774.992 4.06 1.783 3.271 5.549 4.96 10.121 4.96 3.364 0 7.038-.883 10.618-2.774 6.541-3.472 10.509-9.331 10.509-14.384 0-1.395-.294-2.775-.992-4.061M966.354 3174.731c-1.782-3.286-5.549-5.068-10.121-5.068-3.364 0-7.038.992-10.618 2.882-6.541 3.472-10.509 9.316-10.509 14.385 0 1.379.295 2.774.992 4.06 1.783 3.271 5.549 4.96 10.121 4.96 3.364 0 7.038-.883 10.618-2.774 6.541-3.472 10.509-9.331 10.509-14.384 0-1.395-.294-2.775-.992-4.061"/><path class="Note" d="M995.859 3162.331c-1.782-3.286-5.549-5.068-10.121-5.068-3.364 0-7.038.992-10.618 2.882-6.541 3.472-10.509 9.316-10.509 14.385 0 1.379.295 2.774.992 4.06 1.783 3.271 5.549 4.96 10.121 4.96 3.364 0 7.038-.883 10.618-2.774 6.541-3.472 10.509-9.331 10.509-14.384 0-1.395-.294-2.775-.992-4.061M995.859 3112.731c-1.782-3.286-5.549-5.068-10.121-5.068-3.364 0-7.038.992-10.618 2.882-6.541 3.472-10.509 9.316-10.509 14.385 0 1.379.295 2.774.992 4.06 1.783 3.271 5.549 4.96 10.121 4.96 3.364 0 7.038-.883 10.618-2.774 6.541-3.472 10.509-9.331 10.509-14.384 0-1.395-.294-2.775-.992-4.061M1123.868 3211.931c-1.782-3.286-5.549-5.068-10.121-5.068-3.364 0-7.038.992-10.618 2.882-6.541 3.472-10.509 9.316-10.509 14.385 0 1.379.295 2.774.992 4.06 1.783 3.271 5.549 4.96 10.121 4.96 3.364 0 7.038-.883 10.618-2.774 6.541-3.472 10.509-9.331 10.509-14.384 0-1.395-.294-2.775-.992-4.061M1123.868 3174.731c-1.782-3.286-5.549-5.068-10.121-5.068-3.364 0-7.038.992-10.618 2.882-6.541 3.472-10.509 9.316-10.509 14.385 0 1.379.295 2.774.992 4.06 1.783 3.271 5.549 4.96 10.121 4.96 3.364 0 7.038-.883 10.618-2.774 6.541-3.472 10.509-9.331 10.509-14.384 0-1.395-.294-2.775-.992-4.061M1251.878 3211.931c-1.782-3.286-5.549-5.068-10.121-5.068-3.364 0-7.038.992-10.618 2.882-6.541 3.472-10.509 9.316-10.509 14.385 0 1.379.295 2.774.992 4.06 1.783 3.271 5.549 4.96 10.121 4.96 3.364 0 7.038-.883 10.618-2.774 6.541-3.472 10.509-9.331 10.509-14.384 0-1.395-.294-2.775-.992-4.061M1251.878 3174.731c-1.782-3.286-5.549-5.068-10.121-5.068-3.364 0-7.038.992-10.618 2.882-6.541 3.472-10.509 9.316-10.509 14.385 0 1.379.295 2.774.992 4.06 1.783 3.271 5.549 4.96 10.121 4.96 3.364 0 7.038-.883 10.618-2.774 6.541-3.472 10.509-9.331 10.509-14.384 0-1.395-.294-2.775-.992-4.061M1356.858 3125.131c-1.782-3.286-5.549-5.068-10.121-5.068-3.364 0-7.038.992-10.618 2.882-6.541 3.472-10.509 9.316-10.509 14.385 0 1.379.295 2.774.992 4.06 1.783 3.271 5.549 4.96 10.121 4.96 3.364 0 7.038-.883 10.618-2.774 6.541-3.472 10.509-9.331 10.509-14.384 0-1.395-.294-2.775-.992-4.061M1491.768 3187.084c-1.782-3.27-5.549-5.053-10.121-5.053-3.364 0-7.038.992-10.618 2.868-6.541 3.472-10.509 9.331-10.509 14.384 0 1.395.295 2.79.992 4.077 1.783 3.285 5.549 4.975 10.121 4.975 3.364 0 7.038-.899 10.618-2.774 6.541-3.488 10.509-9.347 10.509-14.416 0-1.379-.294-2.774-.992-4.06m-4.262 6.742c-1.69 1.69-5.069 3.767-8.634 5.766-3.565 1.984-7.145 3.472-9.517 3.968-.496.109-.992.202-1.488.202-1.596 0-2.79-.59-3.472-1.891a3.212 3.212 0 01-.496-1.69c0-1.085.682-2.387 1.783-3.472 1.689-1.69 4.96-3.767 8.525-5.75 3.58-1.985 7.145-3.473 9.532-3.969.496-.108.992-.201 1.488-.201 1.581 0 2.868.589 3.565 1.875.295.496.403 1.101.403 1.69 0 1.1-.604 2.278-1.69 3.472M1491.768 3149.884c-1.782-3.27-5.549-5.053-10.121-5.053-3.364 0-7.038.992-10.618 2.868-6.541 3.472-10.509 9.331-10.509 14.384 0 1.395.295 2.79.992 4.077 1.783 3.285 5.549 4.975 10.121 4.975 3.364 0 7.038-.899 10.618-2.774 6.541-3.488 10.509-9.347 10.509-14.416 0-1.379-.294-2.774-.992-4.06m-4.262 6.742c-1.69 1.69-5.069 3.767-8.634 5.766-3.565 1.984-7.145 3.472-9.517 3.968-.496.109-.992.202-1.488.202-1.596 0-2.79-.59-3.472-1.891a3.212 3.212 0 01-.496-1.69c0-1.085.682-2.387 1.783-3.472 1.689-1.69 4.96-3.767 8.525-5.75 3.58-1.985 7.145-3.473 9.532-3.969.496-.108.992-.201 1.488-.201 1.581 0 2.868.589 3.565 1.875.295.496.403 1.101.403 1.69 0 1.1-.604 2.278-1.69 3.472"/><path class="Note" d="M1491.768 3125.084c-1.782-3.27-5.549-5.053-10.121-5.053-3.364 0-7.038.992-10.618 2.868-6.541 3.472-10.509 9.331-10.509 14.384 0 1.395.295 2.79.992 4.077 1.783 3.285 5.549 4.975 10.121 4.975 3.364 0 7.038-.899 10.618-2.774 6.541-3.488 10.509-9.347 10.509-14.416 0-1.379-.294-2.774-.992-4.06m-4.262 6.742c-1.69 1.69-5.069 3.767-8.634 5.766-3.565 1.984-7.145 3.472-9.517 3.968-.496.109-.992.202-1.488.202-1.596 0-2.79-.59-3.472-1.891a3.212 3.212 0 01-.496-1.69c0-1.085.682-2.387 1.783-3.472 1.689-1.69 4.96-3.767 8.525-5.75 3.58-1.985 7.145-3.473 9.532-3.969.496-.108.992-.201 1.488-.201 1.581 0 2.868.589 3.565 1.875.295.496.403 1.101.403 1.69 0 1.1-.604 2.278-1.69 3.472M1695.908 3174.731c-1.782-3.286-5.549-5.068-10.121-5.068-3.364 0-7.038.992-10.618 2.882-6.541 3.472-10.509 9.316-10.509 14.385 0 1.379.295 2.774.992 4.06 1.783 3.271 5.549 4.96 10.121 4.96 3.364 0 7.038-.883 10.618-2.774 6.541-3.472 10.509-9.331 10.509-14.384 0-1.395-.294-2.775-.992-4.061M1695.908 3137.531c-1.782-3.286-5.549-5.068-10.121-5.068-3.364 0-7.038.992-10.618 2.882-6.541 3.472-10.509 9.316-10.509 14.385 0 1.379.295 2.774.992 4.06 1.783 3.271 5.549 4.96 10.121 4.96 3.364 0 7.038-.883 10.618-2.774 6.541-3.472 10.509-9.331 10.509-14.384 0-1.395-.294-2.775-.992-4.061M1779.608 3162.331c-1.782-3.286-5.549-5.068-10.121-5.068-3.364 0-7.038.992-10.618 2.882-6.541 3.472-10.509 9.316-10.509 14.385 0 1.379.295 2.774.992 4.06 1.783 3.271 5.549 4.96 10.121 4.96 3.364 0 7.038-.883 10.618-2.774 6.541-3.472 10.509-9.331 10.509-14.384 0-1.395-.294-2.775-.992-4.061M1779.608 3125.131c-1.782-3.286-5.549-5.068-10.121-5.068-3.364 0-7.038.992-10.618 2.882-6.541 3.472-10.509 9.316-10.509 14.385 0 1.379.295 2.774.992 4.06 1.783 3.271 5.549 4.96 10.121 4.96 3.364 0 7.038-.883 10.618-2.774 6.541-3.472 10.509-9.331 10.509-14.384 0-1.395-.294-2.775-.992-4.061M1849.338 3162.331c-1.782-3.286-5.549-5.068-10.121-5.068-3.364 0-7.038.992-10.618 2.882-6.541 3.472-10.509 9.316-10.509 14.385 0 1.379.295 2.774.992 4.06 1.783 3.271 5.549 4.96 10.121 4.96 3.364 0 7.038-.883 10.618-2.774 6.541-3.472 10.509-9.331 10.509-14.384 0-1.395-.294-2.775-.992-4.061M1849.338 3125.131c-1.782-3.286-5.549-5.068-10.121-5.068-3.364 0-7.038.992-10.618 2.882-6.541 3.472-10.509 9.316-10.509 14.385 0 1.379.295 2.774.992 4.06 1.783 3.271 5.549 4.96 10.121 4.96 3.364 0 7.038-.883 10.618-2.774 6.541-3.472 10.509-9.331 10.509-14.384 0-1.395-.294-2.775-.992-4.061M1901.658 3137.531c-1.782-3.286-5.549-5.068-10.121-5.068-3.364 0-7.038.992-10.618 2.882-6.541 3.472-10.509 9.316-10.509 14.385 0 1.379.295 2.774.992 4.06 1.783 3.271 5.549 4.96 10.121 4.96 3.364 0 7.038-.883 10.618-2.774 6.541-3.472 10.509-9.331 10.509-14.384 0-1.395-.294-2.775-.992-4.061M1901.658 3100.331c-1.782-3.286-5.549-5.068-10.121-5.068-3.364 0-7.038.992-10.618 2.882-6.541 3.472-10.509 9.316-10.509 14.385 0 1.379.295 2.774.992 4.06 1.783 3.271 5.549 4.96 10.121 4.96 3.364 0 7.038-.883 10.618-2.774 6.541-3.472 10.509-9.331 10.509-14.384 0-1.395-.294-2.775-.992-4.061M1953.978 3162.331c-1.782-3.286-5.549-5.068-10.121-5.068-3.364 0-7.038.992-10.618 2.882-6.541 3.472-10.509 9.316-10.509 14.385 0 1.379.295 2.774.992 4.06 1.783 3.271 5.549 4.96 10.121 4.96 3.364 0 7.038-.883 10.618-2.774 6.541-3.472 10.509-9.331 10.509-14.384 0-1.395-.294-2.775-.992-4.061M1953.978 3125.131c-1.782-3.286-5.549-5.068-10.121-5.068-3.364 0-7.038.992-10.618 2.882-6.541 3.472-10.509 9.316-10.509 14.385 0 1.379.295 2.774.992 4.06 1.783 3.271 5.549 4.96 10.121 4.96 3.364 0 7.038-.883 10.618-2.774 6.541-3.472 10.509-9.331 10.509-14.384 0-1.395-.294-2.775-.992-4.061M2068.788 3174.731c-1.782-3.286-5.549-5.068-10.121-5.068-3.364 0-7.038.992-10.618 2.882-6.541 3.472-10.509 9.316-10.509 14.385 0 1.379.295 2.774.992 4.06 1.783 3.271 5.549 4.96 10.121 4.96 3.364 0 7.038-.883 10.618-2.774 6.541-3.472 10.509-9.331 10.509-14.384 0-1.395-.294-2.775-.992-4.061M2068.788 3137.531c-1.782-3.286-5.549-5.068-10.121-5.068-3.364 0-7.038.992-10.618 2.882-6.541 3.472-10.509 9.316-10.509 14.385 0 1.379.295 2.774.992 4.06 1.783 3.271 5.549 4.96 10.121 4.96 3.364 0 7.038-.883 10.618-2.774 6.541-3.472 10.509-9.331 10.509-14.384 0-1.395-.294-2.775-.992-4.061M2133.878 3187.131c-1.782-3.286-5.549-5.068-10.121-5.068-3.364 0-7.038.992-10.618 2.882-6.541 3.472-10.509 9.316-10.509 14.385 0 1.379.295 2.774.992 4.06 1.783 3.271 5.549 4.96 10.121 4.96 3.364 0 7.038-.883 10.618-2.774 6.541-3.472 10.509-9.331 10.509-14.384 0-1.395-.294-2.775-.992-4.061M2133.878 3149.931c-1.782-3.286-5.549-5.068-10.121-5.068-3.364 0-7.038.992-10.618 2.882-6.541 3.472-10.509 9.316-10.509 14.385 0 1.379.295 2.774.992 4.06 1.783 3.271 5.549 4.96 10.121 4.96 3.364 0 7.038-.883 10.618-2.774 6.541-3.472 10.509-9.331 10.509-14.384 0-1.395-.294-2.775-.992-4.061M2198.968 3187.131c-1.782-3.286-5.549-5.068-10.121-5.068-3.364 0-7.038.992-10.618 2.882-6.541 3.472-10.509 9.316-10.509 14.385 0 1.379.295 2.774.992 4.06 1.783 3.271 5.549 4.96 10.121 4.96 3.364 0 7.038-.883 10.618-2.774 6.541-3.472 10.509-9.331 10.509-14.384 0-1.395-.294-2.775-.992-4.061M2198.968 3149.931c-1.782-3.286-5.549-5.068-10.121-5.068-3.364 0-7.038.992-10.618 2.882-6.541 3.472-10.509 9.316-10.509 14.385 0 1.379.295 2.774.992 4.06 1.783 3.271 5.549 4.96 10.121 4.96 3.364 0 7.038-.883 10.618-2.774 6.541-3.472 10.509-9.331 10.509-14.384 0-1.395-.294-2.775-.992-4.061M2268.698 3187.131c-1.782-3.286-5.549-5.068-10.121-5.068-3.364 0-7.038.992-10.618 2.882-6.541 3.472-10.509 9.316-10.509 14.385 0 1.379.295 2.774.992 4.06 1.783 3.271 5.549 4.96 10.121 4.96 3.364 0 7.038-.883 10.618-2.774 6.541-3.472 10.509-9.331 10.509-14.384 0-1.395-.294-2.775-.992-4.061M2268.698 3149.931c-1.782-3.286-5.549-5.068-10.121-5.068-3.364 0-7.038.992-10.618 2.882-6.541 3.472-10.509 9.316-10.509 14.385 0 1.379.295 2.774.992 4.06 1.783 3.271 5.549 4.96 10.121 4.96 3.364 0 7.038-.883 10.618-2.774 6.541-3.472 10.509-9.331 10.509-14.384 0-1.395-.294-2.775-.992-4.061M2460.778 3063.131c-1.782-3.286-5.549-5.068-10.121-5.068-3.364 0-7.038.992-10.618 2.882-6.541 3.472-10.509 9.316-10.509 14.385 0 1.379.295 2.774.992 4.06 1.783 3.271 5.549 4.96 10.121 4.96 3.364 0 7.038-.883 10.618-2.774 6.541-3.472 10.509-9.331 10.509-14.384 0-1.395-.294-2.775-.992-4.061M2460.778 3013.531c-1.782-3.286-5.549-5.068-10.121-5.068-3.364 0-7.038.992-10.618 2.882-6.541 3.472-10.509 9.316-10.509 14.385 0 1.379.295 2.774.992 4.06 1.783 3.271 5.549 4.96 10.121 4.96 3.364 0 7.038-.883 10.618-2.774 6.541-3.472 10.509-9.331 10.509-14.384 0-1.395-.294-2.775-.992-4.061M2525.868 3100.331c-1.782-3.286-5.549-5.068-10.121-5.068-3.364 0-7.038.992-10.618 2.882-6.541 3.472-10.509 9.316-10.509 14.385 0 1.379.295 2.774.992 4.06 1.783 3.271 5.549 4.96 10.121 4.96 3.364 0 7.038-.883 10.618-2.774 6.541-3.472 10.509-9.331 10.509-14.384 0-1.395-.294-2.775-.992-4.061M2525.868 3063.131c-1.782-3.286-5.549-5.068-10.121-5.068-3.364 0-7.038.992-10.618 2.882-6.541 3.472-10.509 9.316-10.509 14.385 0 1.379.295 2.774.992 4.06 1.783 3.271 5.549 4.96 10.121 4.96 3.364 0 7.038-.883 10.618-2.774 6.541-3.472 10.509-9.331 10.509-14.384 0-1.395-.294-2.775-.992-4.061M2590.948 3149.931c-1.782-3.286-5.549-5.068-10.121-5.068-3.364 0-7.038.992-10.618 2.882-6.541 3.472-10.509 9.316-10.509 14.385 0 1.379.295 2.774.992 4.06 1.783 3.271 5.549 4.96 10.121 4.96 3.364 0 7.038-.883 10.618-2.774 6.541-3.472 10.509-9.331 10.509-14.384 0-1.395-.294-2.775-.992-4.061M2590.948 3100.331c-1.782-3.286-5.549-5.068-10.121-5.068-3.364 0-7.038.992-10.618 2.882-6.541 3.472-10.509 9.316-10.509 14.385 0 1.379.295 2.774.992 4.06 1.783 3.271 5.549 4.96 10.121 4.96 3.364 0 7.038-.883 10.618-2.774 6.541-3.472 10.509-9.331 10.509-14.384 0-1.395-.294-2.775-.992-4.061M2656.038 3187.131c-1.782-3.286-5.549-5.068-10.121-5.068-3.364 0-7.038.992-10.618 2.882-6.541 3.472-10.509 9.316-10.509 14.385 0 1.379.295 2.774.992 4.06 1.783 3.271 5.549 4.96 10.121 4.96 3.364 0 7.038-.883 10.618-2.774 6.541-3.472 10.509-9.331 10.509-14.384 0-1.395-.294-2.775-.992-4.061M2656.038 3149.931c-1.782-3.286-5.549-5.068-10.121-5.068-3.364 0-7.038.992-10.618 2.882-6.541 3.472-10.509 9.316-10.509 14.385 0 1.379.295 2.774.992 4.06 1.783 3.271 5.549 4.96 10.121 4.96 3.364 0 7.038-.883 10.618-2.774 6.541-3.472 10.509-9.331 10.509-14.384 0-1.395-.294-2.775-.992-4.061M2721.128 3174.731c-1.782-3.286-5.549-5.068-10.121-5.068-3.364 0-7.038.992-10.618 2.882-6.541 3.472-10.509 9.316-10.509 14.385 0 1.379.295 2.774.992 4.06 1.783 3.271 5.549 4.96 10.121 4.96 3.364 0 7.038-.883 10.618-2.774 6.541-3.472 10.509-9.331 10.509-14.384 0-1.395-.294-2.775-.992-4.061"/><path class="Note" d="M2721.128 3149.931c-1.782-3.286-5.549-5.068-10.121-5.068-3.364 0-7.038.992-10.618 2.882-6.541 3.472-10.509 9.316-10.509 14.385 0 1.379.295 2.774.992 4.06 1.783 3.271 5.549 4.96 10.121 4.96 3.364 0 7.038-.883 10.618-2.774 6.541-3.472 10.509-9.331 10.509-14.384 0-1.395-.294-2.775-.992-4.061"/><path class="Note" d="M2721.128 3125.131c-1.782-3.286-5.549-5.068-10.121-5.068-3.364 0-7.038.992-10.618 2.882-6.541 3.472-10.509 9.316-10.509 14.385 0 1.379.295 2.774.992 4.06 1.783 3.271 5.549 4.96 10.121 4.96 3.364 0 7.038-.883 10.618-2.774 6.541-3.472 10.509-9.331 10.509-14.384 0-1.395-.294-2.775-.992-4.061"/><path class="Clef" d="M594.345 3380.147c-7.548 0-13.594 4.356-13.702 4.356-5.75 4.262-8.029 9.33-8.928 12.802-.496 1.783-.682 3.565-.682 5.255 0 2.387.388 4.557 1.287 6.448 1.193 2.682 3.472 4.557 6.448 5.549 1.193.403 2.48.604 3.766.604 2.185 0 4.464-.604 6.355-1.689 3.069-1.69 4.96-5.254 4.96-9.13 0-3.472-1.798-6.649-4.774-8.525-2.077-1.394-4.061-1.782-5.75-1.782-1.194 0-2.279.186-3.178.496-.992.388-2.666 1.38-3.472 2.077.31-1.891 1.488-4.759 2.588-6.355 1.086-1.581 3.271-3.565 4.96-4.464 2.48-1.38 5.658-1.984 9.13-1.984 10.122 0 15.082 8.138 15.082 24.8 0 9.238-3.472 18.058-6.448 23.917-3.286 6.54-7.642 12.803-11.517 16.275-10.323 9.424-20.041 13.888-20.134 13.888 0 0-1.489.883-1.101 2.371.31.992 1.194 1.194 1.798 1.194.093 0 .388-.093.496-.093.093 0 11.408-4.666 20.429-11.718 5.069-3.658 9.626-7.626 13.594-11.904a73.558 73.558 0 009.13-12.199c4.355-7.44 6.835-15.175 6.835-21.824 0-8.23-2.17-15.081-6.247-19.933-4.665-5.564-11.702-8.432-20.925-8.432m31.14 12.586c0 2.79 2.185 4.96 4.774 4.96 2.573 0 4.758-2.17 4.758-4.96 0-2.774-2.185-5.053-4.758-5.053-2.589 0-4.774 2.279-4.774 5.053m0 24.506c0 2.774 2.185 5.068 4.774 5.068 2.573 0 4.758-2.294 4.758-5.068 0-2.775-2.185-5.053-4.758-5.053-2.589 0-4.774 2.278-4.774 5.053M631.995 3176.885c-1.225-5.378-3.844-9.176-4.62-10.198-3.161-4.248-7.145-7.068-11.795-8.417-3.084-.868-6.06-.992-8.463-.806a2314.148 2314.148 0 01-2.93-17.205c5.41-6.123 9.006-11.873 11.269-16.136 3.441-6.525 4.573-11.067 4.635-11.268 1.705-5.177 2.061-12.819.96-20.956-.991-7.487-3.068-14.151-5.409-17.375-1.007-1.41-2.061-2.14-3.084-2.14-1.21 0-3.705 1.225-6.572 3.984-2.279 2.17-5.518 6.03-8.06 11.997-2.976 7.006-3.193 16.414-2.837 23.08.372 7.222 1.473 12.864 1.488 12.91.016.094.279 1.582.713 4.124-.217.232-.465.45-.713.697-1.023.992-2.201 2.108-3.58 3.488-.853.852-1.798 1.751-2.79 2.712-8.37 8.076-21.065 20.305-21.065 39.308 0 4.666.899 9.053 2.666 13.036 1.566 3.565 3.844 6.82 6.758 9.672 7.673 7.502 18.182 10.68 25.172 10.525 2.93-.078 5.55-.31 7.92-.76 1.814 9.533 2.946 16.508 2.977 21.809.046 6.463-1.597 10.416-5.456 13.16-2.418 1.72-5.208 2.665-8.277 2.805-2.573.124-4.82-.341-6.231-.744h-.016s-.279-.093-.294-.28c-.016-.185.34-.232.34-.232h.032c1.906-.434 5.44-1.658 7.78-4.929 1.783-2.51 2.651-7.099.822-11.005-1.1-2.371-3.58-5.301-9.16-5.75-2.48-.202-4.728.31-6.712 1.503-1.798 1.07-3.286 2.697-4.324 4.681-2.434 4.666-1.984 10.354 1.116 14.167 2.944 3.596 7.517 5.89 12.911 6.464.853.093 1.69.124 2.527.124 4.402 0 8.757-1.194 12.307-3.38 3.627-2.557 5.735-6.51 6.401-12.09.558-4.603.17-10.477-1.209-18.49-.356-2.078-.899-5.085-1.55-8.805 5.704-1.906 9.827-5.456 13.563-11.268 3.27-5.689 4.2-11.75 2.79-18.012m-33.945 26.01c-4.604-1.21-9.006-3.69-12.726-7.177-1.302-1.209-3.162-3.363-4.619-6.727-1.348-3.146-2.015-6.557-1.953-10.106.062-4.666 1.364-9.455 3.844-14.198 2.899-5.534 7.425-11.02 13.439-16.306a89.206 89.206 0 004.076-3.813c.76 4.231 1.581 8.881 2.449 13.717-3.813 1.256-8.525 4.387-11.61 9.998-3.518 6.51-3.379 11.997-2.65 15.454.93 4.417 3.441 8.153 6.867 10.23.93.558 5.022 2.666 6.85 2.092a1.16 1.16 0 00.776-.666c.511-1.163-.512-1.798-2.046-2.744a27.274 27.274 0 01-1.984-1.317c-3.302-2.465-4.743-6.882-3.674-11.238a12.436 12.436 0 013.674-6.216c1.643-1.534 3.673-2.62 6.029-3.255 2.03 11.16 4.077 22.228 5.704 30.52.124.682.264 1.348.388 2.015-4.34.93-8.65.837-12.834-.263m11.237-32.938c10.261-.465 14.493 6.913 15.376 11.702.465 2.527.465 6.929-1.07 11.114-1.162 3.146-3.595 7.192-8.695 9.238-.062-.418-.14-.852-.217-1.271-1.534-8.711-3.456-19.623-5.394-30.783m-7.27-70.386c1.768-5.688 4.48-8.912 6.464-10.633 1.736-1.503 3.364-2.216 4.278-2.216.14 0 .264.03.357.062.465.14.992.697 1.457 1.565 2.294 4.247 1.55 10.912.217 15.314-1.612 5.363-4.51 10.928-13.237 20.46-.171-1.1-.326-2.139-.481-3.115-1.24-8.215-.914-15.438.946-21.437M594.345 2694.907c-7.548 0-13.594 4.356-13.702 4.356-5.75 4.262-8.029 9.33-8.928 12.802-.496 1.783-.682 3.565-.682 5.255 0 2.387.388 4.557 1.287 6.448 1.193 2.682 3.472 4.557 6.448 5.549 1.193.403 2.48.604 3.766.604 2.185 0 4.464-.604 6.355-1.689 3.069-1.69 4.96-5.254 4.96-9.13 0-3.472-1.798-6.649-4.774-8.525-2.077-1.394-4.061-1.782-5.75-1.782-1.194 0-2.279.186-3.178.496-.992.388-2.666 1.38-3.472 2.077.31-1.891 1.488-4.759 2.588-6.355 1.086-1.581 3.271-3.565 4.96-4.464 2.48-1.38 5.658-1.984 9.13-1.984 10.122 0 15.082 8.138 15.082 24.8 0 9.238-3.472 18.058-6.448 23.917-3.286 6.54-7.642 12.803-11.517 16.275-10.323 9.424-20.041 13.888-20.134 13.888 0 0-1.489.883-1.101 2.371.31.992 1.194 1.194 1.798 1.194.093 0 .388-.093.496-.093.093 0 11.408-4.666 20.429-11.718 5.069-3.658 9.626-7.626 13.594-11.904a73.558 73.558 0 009.13-12.199c4.355-7.44 6.835-15.175 6.835-21.824 0-8.23-2.17-15.081-6.247-19.933-4.665-5.564-11.702-8.432-20.925-8.432m31.14 12.586c0 2.79 2.185 4.96 4.774 4.96 2.573 0 4.758-2.17 4.758-4.96 0-2.774-2.185-5.053-4.758-5.053-2.589 0-4.774 2.279-4.774 5.053m0 24.506c0 2.774 2.185 5.068 4.774 5.068 2.573 0 4.758-2.294 4.758-5.068 0-2.775-2.185-5.053-4.758-5.053-2.589 0-4.774 2.278-4.774 5.053M594.345 2310.107c-7.548 0-13.594 4.356-13.702 4.356-5.75 4.262-8.029 9.33-8.928 12.802-.496 1.783-.682 3.565-.682 5.255 0 2.387.388 4.557 1.287 6.448 1.193 2.682 3.472 4.557 6.448 5.549 1.193.403 2.48.604 3.766.604 2.185 0 4.464-.604 6.355-1.689 3.069-1.69 4.96-5.254 4.96-9.13 0-3.472-1.798-6.649-4.774-8.525-2.077-1.394-4.061-1.782-5.75-1.782-1.194 0-2.279.186-3.178.496-.992.388-2.666 1.38-3.472 2.077.31-1.891 1.488-4.759 2.588-6.355 1.086-1.581 3.271-3.565 4.96-4.464 2.48-1.38 5.658-1.984 9.13-1.984 10.122 0 15.082 8.138 15.082 24.8 0 9.238-3.472 18.058-6.448 23.917-3.286 6.54-7.642 12.803-11.517 16.275-10.323 9.424-20.041 13.888-20.134 13.888 0 0-1.489.883-1.101 2.371.31.992 1.194 1.194 1.798 1.194.093 0 .388-.093.496-.093.093 0 11.408-4.666 20.429-11.718 5.069-3.658 9.626-7.626 13.594-11.904a73.558 73.558 0 009.13-12.199c4.355-7.44 6.835-15.175 6.835-21.824 0-8.23-2.17-15.081-6.247-19.933-4.665-5.564-11.702-8.432-20.925-8.432m31.14 12.586c0 2.79 2.185 4.96 4.774 4.96 2.573 0 4.758-2.17 4.758-4.96 0-2.774-2.185-5.053-4.758-5.053-2.589 0-4.774 2.279-4.774 5.053m0 24.506c0 2.774 2.185 5.068 4.774 5.068 2.573 0 4.758-2.294 4.758-5.068 0-2.775-2.185-5.053-4.758-5.053-2.589 0-4.774 2.278-4.774 5.053M594.345 1925.307c-7.548 0-13.594 4.356-13.702 4.356-5.75 4.262-8.029 9.33-8.928 12.802-.496 1.783-.682 3.565-.682 5.255 0 2.387.388 4.557 1.287 6.448 1.193 2.682 3.472 4.557 6.448 5.549 1.193.403 2.48.604 3.766.604 2.185 0 4.464-.604 6.355-1.689 3.069-1.69 4.96-5.254 4.96-9.13 0-3.472-1.798-6.649-4.774-8.525-2.077-1.394-4.061-1.782-5.75-1.782-1.194 0-2.279.186-3.178.496-.992.388-2.666 1.38-3.472 2.077.31-1.891 1.488-4.759 2.588-6.355 1.086-1.581 3.271-3.565 4.96-4.464 2.48-1.38 5.658-1.984 9.13-1.984 10.122 0 15.082 8.138 15.082 24.8 0 9.238-3.472 18.058-6.448 23.917-3.286 6.54-7.642 12.803-11.517 16.275-10.323 9.424-20.041 13.888-20.134 13.888 0 0-1.489.883-1.101 2.371.31.992 1.194 1.194 1.798 1.194.093 0 .388-.093.496-.093.093 0 11.408-4.666 20.429-11.718 5.069-3.658 9.626-7.626 13.594-11.904a73.558 73.558 0 009.13-12.199c4.355-7.44 6.835-15.175 6.835-21.824 0-8.23-2.17-15.081-6.247-19.933-4.665-5.564-11.702-8.432-20.925-8.432m31.14 12.586c0 2.79 2.185 4.96 4.774 4.96 2.573 0 4.758-2.17 4.758-4.96 0-2.774-2.185-5.053-4.758-5.053-2.589 0-4.774 2.279-4.774 5.053m0 24.506c0 2.774 2.185 5.068 4.774 5.068 2.573 0 4.758-2.294 4.758-5.068 0-2.775-2.185-5.053-4.758-5.053-2.589 0-4.774 2.278-4.774 5.053M594.345 1540.507c-7.548 0-13.594 4.356-13.702 4.356-5.75 4.262-8.029 9.33-8.928 12.802-.496 1.783-.682 3.565-.682 5.255 0 2.387.388 4.557 1.287 6.448 1.193 2.682 3.472 4.557 6.448 5.549 1.193.403 2.48.604 3.766.604 2.185 0 4.464-.604 6.355-1.689 3.069-1.69 4.96-5.254 4.96-9.13 0-3.472-1.798-6.649-4.774-8.525-2.077-1.394-4.061-1.782-5.75-1.782-1.194 0-2.279.186-3.178.496-.992.388-2.666 1.38-3.472 2.077.31-1.891 1.488-4.759 2.588-6.355 1.086-1.581 3.271-3.565 4.96-4.464 2.48-1.38 5.658-1.984 9.13-1.984 10.122 0 15.082 8.138 15.082 24.8 0 9.238-3.472 18.058-6.448 23.917-3.286 6.54-7.642 12.803-11.517 16.275-10.323 9.424-20.041 13.888-20.134 13.888 0 0-1.489.883-1.101 2.371.31.992 1.194 1.194 1.798 1.194.093 0 .388-.093.496-.093.093 0 11.408-4.666 20.429-11.718 5.069-3.658 9.626-7.626 13.594-11.904a73.558 73.558 0 009.13-12.199c4.355-7.44 6.835-15.175 6.835-21.824 0-8.23-2.17-15.081-6.247-19.933-4.665-5.564-11.702-8.432-20.925-8.432m31.14 12.586c0 2.79 2.185 4.96 4.774 4.96 2.573 0 4.758-2.17 4.758-4.96 0-2.774-2.185-5.053-4.758-5.053-2.589 0-4.774 2.279-4.774 5.053m0 24.506c0 2.774 2.185 5.068 4.774 5.068 2.573 0 4.758-2.294 4.758-5.068 0-2.775-2.185-5.053-4.758-5.053-2.589 0-4.774 2.278-4.774 5.053M594.345 1155.707c-7.548 0-13.594 4.356-13.702 4.356-5.75 4.262-8.029 9.33-8.928 12.802-.496 1.783-.682 3.565-.682 5.255 0 2.387.388 4.557 1.287 6.448 1.193 2.682 3.472 4.557 6.448 5.549 1.193.403 2.48.604 3.766.604 2.185 0 4.464-.604 6.355-1.689 3.069-1.69 4.96-5.254 4.96-9.13 0-3.472-1.798-6.649-4.774-8.525-2.077-1.394-4.061-1.782-5.75-1.782-1.194 0-2.279.186-3.178.496-.992.388-2.666 1.38-3.472 2.077.31-1.891 1.488-4.759 2.588-6.355 1.086-1.581 3.271-3.565 4.96-4.464 2.48-1.38 5.658-1.984 9.13-1.984 10.122 0 15.082 8.138 15.082 24.8 0 9.238-3.472 18.058-6.448 23.917-3.286 6.54-7.642 12.803-11.517 16.275-10.323 9.424-20.041 13.888-20.134 13.888 0 0-1.489.883-1.101 2.371.31.992 1.194 1.194 1.798 1.194.093 0 .388-.093.496-.093.093 0 11.408-4.666 20.429-11.718 5.069-3.658 9.626-7.626 13.594-11.904a73.558 73.558 0 009.13-12.199c4.355-7.44 6.835-15.175 6.835-21.824 0-8.23-2.17-15.081-6.247-19.933-4.665-5.564-11.702-8.432-20.925-8.432m31.14 12.586c0 2.79 2.185 4.96 4.774 4.96 2.573 0 4.758-2.17 4.758-4.96 0-2.774-2.185-5.053-4.758-5.053-2.589 0-4.774 2.279-4.774 5.053m0 24.506c0 2.774 2.185 5.068 4.774 5.068 2.573 0 4.758-2.294 4.758-5.068 0-2.775-2.185-5.053-4.758-5.053-2.589 0-4.774 2.278-4.774 5.053M631.995 839.524c-1.225-5.378-3.844-9.176-4.62-10.198-3.161-4.248-7.145-7.068-11.795-8.417-3.084-.868-6.06-.992-8.463-.806a2314.148 2314.148 0 01-2.93-17.205c5.41-6.123 9.006-11.873 11.269-16.136 3.441-6.525 4.573-11.067 4.635-11.268 1.705-5.177 2.061-12.819.96-20.956-.991-7.487-3.068-14.151-5.409-17.375-1.007-1.41-2.061-2.14-3.084-2.14-1.21 0-3.705 1.225-6.572 3.984-2.279 2.17-5.518 6.03-8.06 11.997-2.976 7.006-3.193 16.414-2.837 23.08.372 7.222 1.473 12.864 1.488 12.91.016.094.279 1.582.713 4.124-.217.232-.465.45-.713.697-1.023.992-2.201 2.108-3.58 3.488-.853.852-1.798 1.751-2.79 2.712-8.37 8.076-21.065 20.305-21.065 39.308 0 4.666.899 9.053 2.666 13.036 1.566 3.565 3.844 6.82 6.758 9.672 7.673 7.502 18.182 10.68 25.172 10.525 2.93-.078 5.55-.31 7.92-.76 1.814 9.533 2.946 16.508 2.977 21.809.046 6.463-1.597 10.416-5.456 13.16-2.418 1.72-5.208 2.665-8.277 2.805-2.573.124-4.82-.341-6.231-.744h-.016s-.279-.093-.294-.28c-.016-.185.34-.232.34-.232h.032c1.906-.434 5.44-1.658 7.78-4.929 1.783-2.51 2.651-7.099.822-11.005-1.1-2.371-3.58-5.301-9.16-5.75-2.48-.202-4.728.31-6.712 1.503-1.798 1.07-3.286 2.697-4.324 4.681-2.434 4.666-1.984 10.354 1.116 14.167 2.944 3.596 7.517 5.89 12.911 6.464.853.093 1.69.124 2.527.124 4.402 0 8.757-1.194 12.307-3.38 3.627-2.557 5.735-6.51 6.401-12.09.558-4.603.17-10.477-1.209-18.49-.356-2.078-.899-5.085-1.55-8.805 5.704-1.906 9.827-5.456 13.563-11.268 3.27-5.689 4.2-11.75 2.79-18.012m-33.945 26.01c-4.604-1.21-9.006-3.69-12.726-7.177-1.302-1.209-3.162-3.363-4.619-6.727-1.348-3.146-2.015-6.557-1.953-10.106.062-4.666 1.364-9.455 3.844-14.198 2.899-5.534 7.425-11.02 13.439-16.306a89.206 89.206 0 004.076-3.813c.76 4.231 1.581 8.881 2.449 13.717-3.813 1.256-8.525 4.387-11.61 9.998-3.518 6.51-3.379 11.997-2.65 15.454.93 4.417 3.441 8.153 6.867 10.23.93.558 5.022 2.666 6.85 2.092a1.16 1.16 0 00.776-.666c.511-1.163-.512-1.798-2.046-2.744a27.274 27.274 0 01-1.984-1.317c-3.302-2.465-4.743-6.882-3.674-11.238a12.436 12.436 0 013.674-6.216c1.643-1.534 3.673-2.62 6.029-3.255 2.03 11.16 4.077 22.228 5.704 30.52.124.682.264 1.348.388 2.015-4.34.93-8.65.837-12.834-.263m11.237-32.938c10.261-.465 14.493 6.913 15.376 11.702.465 2.527.465 6.929-1.07 11.114-1.162 3.146-3.595 7.192-8.695 9.238-.062-.418-.14-.852-.217-1.271-1.534-8.711-3.456-19.623-5.394-30.783m-7.27-70.386c1.768-5.688 4.48-8.912 6.464-10.633 1.736-1.503 3.364-2.216 4.278-2.216.14 0 .264.03.357.062.465.14.992.697 1.457 1.565 2.294 4.247 1.55 10.912.217 15.314-1.612 5.363-4.51 10.928-13.237 20.46-.171-1.1-.326-2.139-.481-3.115-1.24-8.215-.914-15.438.946-21.437M631.995 454.724c-1.225-5.378-3.844-9.176-4.62-10.198-3.161-4.248-7.145-7.068-11.795-8.417-3.084-.868-6.06-.992-8.463-.806a2314.148 2314.148 0 01-2.93-17.205c5.41-6.123 9.006-11.873 11.269-16.136 3.441-6.525 4.573-11.067 4.635-11.268 1.705-5.177 2.061-12.819.96-20.956-.991-7.487-3.068-14.151-5.409-17.375-1.007-1.41-2.061-2.14-3.084-2.14-1.21 0-3.705 1.225-6.572 3.984-2.279 2.17-5.518 6.03-8.06 11.997-2.976 7.006-3.193 16.414-2.837 23.08.372 7.222 1.473 12.864 1.488 12.91.016.094.279 1.582.713 4.124-.217.232-.465.45-.713.697-1.023.992-2.201 2.108-3.58 3.488-.853.852-1.798 1.751-2.79 2.712-8.37 8.076-21.065 20.305-21.065 39.308 0 4.666.899 9.053 2.666 13.036 1.566 3.565 3.844 6.82 6.758 9.672 7.673 7.502 18.182 10.68 25.172 10.525 2.93-.078 5.55-.31 7.92-.76 1.814 9.533 2.946 16.508 2.977 21.809.046 6.463-1.597 10.416-5.456 13.16-2.418 1.72-5.208 2.665-8.277 2.805-2.573.124-4.82-.341-6.231-.744h-.016s-.279-.093-.294-.28c-.016-.185.34-.232.34-.232h.032c1.906-.434 5.44-1.658 7.78-4.929 1.783-2.51 2.651-7.099.822-11.005-1.1-2.371-3.58-5.301-9.16-5.75-2.48-.202-4.728.31-6.712 1.503-1.798 1.07-3.286 2.697-4.324 4.681-2.434 4.666-1.984 10.354 1.116 14.167 2.944 3.596 7.517 5.89 12.911 6.464.853.093 1.69.124 2.527.124 4.402 0 8.757-1.194 12.307-3.38 3.627-2.557 5.735-6.51 6.401-12.09.558-4.603.17-10.477-1.209-18.49-.356-2.078-.899-5.085-1.55-8.805 5.704-1.906 9.827-5.456 13.563-11.268 3.27-5.689 4.2-11.75 2.79-18.012m-33.945 26.01c-4.604-1.21-9.006-3.69-12.726-7.177-1.302-1.209-3.162-3.363-4.619-6.727-1.348-3.146-2.015-6.557-1.953-10.106.062-4.666 1.364-9.455 3.844-14.198 2.899-5.534 7.425-11.02 13.439-16.306a89.206 89.206 0 004.076-3.813c.76 4.231 1.581 8.881 2.449 13.717-3.813 1.256-8.525 4.387-11.61 9.998-3.518 6.51-3.379 11.997-2.65 15.454.93 4.417 3.441 8.153 6.867 10.23.93.558 5.022 2.666 6.85 2.092a1.16 1.16 0 00.776-.666c.511-1.163-.512-1.798-2.046-2.744a27.274 27.274 0 01-1.984-1.317c-3.302-2.465-4.743-6.882-3.674-11.238a12.436 12.436 0 013.674-6.216c1.643-1.534 3.673-2.62 6.029-3.255 2.03 11.16 4.077 22.228 5.704 30.52.124.682.264 1.348.388 2.015-4.34.93-8.65.837-12.834-.263m11.237-32.938c10.261-.465 14.493 6.913 15.376 11.702.465 2.527.465 6.929-1.07 11.114-1.162 3.146-3.595 7.192-8.695 9.238-.062-.418-.14-.852-.217-1.271-1.534-8.711-3.456-19.623-5.394-30.783m-7.27-70.386c1.768-5.688 4.48-8.912 6.464-10.633 1.736-1.503 3.364-2.216 4.278-2.216.14 0 .264.03.357.062.465.14.992.697 1.457 1.565 2.294 4.247 1.55 10.912.217 15.314-1.612 5.363-4.51 10.928-13.237 20.46-.171-1.1-.326-2.139-.481-3.115-1.24-8.215-.914-15.438.946-21.437"/><path class="KeySig" d="M704.543 3409.597c-.589-3.86-2.976-7.533-8.029-7.533-4.96 0-7.843 3.069-8.339 3.673l.403-31.852c0-.79-.589-1.38-1.395-1.38h-1.178c-.806 0-1.395.59-1.395 1.38l.496 59.628c0 .791.589 1.38 1.395 1.38.186 0 .589-.093.79-.186.388-.202 6.836-3.379 12.199-9.424 3.767-4.278 5.255-9.13 5.255-13.206 0-.884-.094-1.674-.202-2.48m-6.836 3.875c0 1.488-.402 6.045-2.882 9.827-1.69 2.573-5.053 5.254-6.944 6.742l.294-19.344c.202-.899 1.69-3.766 5.658-3.766 3.58 0 3.874 3.363 3.874 5.456v1.085M679.743 3446.797c-.589-3.86-2.976-7.533-8.029-7.533-4.96 0-7.843 3.069-8.339 3.673l.403-31.852c0-.79-.589-1.38-1.395-1.38h-1.178c-.806 0-1.395.59-1.395 1.38l.496 59.628c0 .791.589 1.38 1.395 1.38.186 0 .589-.093.79-.186.388-.202 6.836-3.379 12.199-9.424 3.767-4.278 5.255-9.13 5.255-13.206 0-.884-.094-1.674-.202-2.48m-6.836 3.875c0 1.488-.402 6.045-2.882 9.827-1.69 2.573-5.053 5.254-6.944 6.742l.294-19.344c.202-.899 1.69-3.766 5.658-3.766 3.58 0 3.874 3.363 3.874 5.456v1.085M704.543 3112.917c-.589-3.86-2.976-7.533-8.029-7.533-4.96 0-7.843 3.069-8.339 3.673l.403-31.852c0-.79-.589-1.38-1.395-1.38h-1.178c-.806 0-1.395.59-1.395 1.38l.496 59.628c0 .791.589 1.38 1.395 1.38.186 0 .589-.093.79-.186.388-.202 6.836-3.379 12.199-9.424 3.767-4.278 5.255-9.13 5.255-13.206 0-.884-.094-1.674-.202-2.48m-6.836 3.875c0 1.488-.402 6.045-2.882 9.827-1.69 2.573-5.053 5.254-6.944 6.742l.294-19.344c.202-.899 1.69-3.766 5.658-3.766 3.58 0 3.874 3.363 3.874 5.456v1.085M679.743 3150.117c-.589-3.86-2.976-7.533-8.029-7.533-4.96 0-7.843 3.069-8.339 3.673l.403-31.852c0-.79-.589-1.38-1.395-1.38h-1.178c-.806 0-1.395.59-1.395 1.38l.496 59.628c0 .791.589 1.38 1.395 1.38.186 0 .589-.093.79-.186.388-.202 6.836-3.379 12.199-9.424 3.767-4.278 5.255-9.13 5.255-13.206 0-.884-.094-1.674-.202-2.48m-6.836 3.875c0 1.488-.402 6.045-2.882 9.827-1.69 2.573-5.053 5.254-6.944 6.742l.294-19.344c.202-.899 1.69-3.766 5.658-3.766 3.58 0 3.874 3.363 3.874 5.456v1.085M704.543 2724.357c-.589-3.86-2.976-7.533-8.029-7.533-4.96 0-7.843 3.069-8.339 3.673l.403-31.852c0-.79-.589-1.38-1.395-1.38h-1.178c-.806 0-1.395.59-1.395 1.38l.496 59.628c0 .791.589 1.38 1.395 1.38.186 0 .589-.093.79-.186.388-.202 6.836-3.379 12.199-9.424 3.767-4.278 5.255-9.13 5.255-13.206 0-.884-.094-1.674-.202-2.48m-6.836 3.875c0 1.488-.402 6.045-2.882 9.827-1.69 2.573-5.053 5.254-6.944 6.742l.294-19.344c.202-.899 1.69-3.766 5.658-3.766 3.58 0 3.874 3.363 3.874 5.456v1.085M679.743 2761.557c-.589-3.86-2.976-7.533-8.029-7.533-4.96 0-7.843 3.069-8.339 3.673l.403-31.852c0-.79-.589-1.38-1.395-1.38h-1.178c-.806 0-1.395.59-1.395 1.38l.496 59.628c0 .791.589 1.38 1.395 1.38.186 0 .589-.093.79-.186.388-.202 6.836-3.379 12.199-9.424 3.767-4.278 5.255-9.13 5.255-13.206 0-.884-.094-1.674-.202-2.48m-6.836 3.875c0 1.488-.402 6.045-2.882 9.827-1.69 2.573-5.053 5.254-6.944 6.742l.294-19.344c.202-.899 1.69-3.766 5.658-3.766 3.58 0 3.874 3.363 3.874 5.456v1.085M704.543 2339.557c-.589-3.86-2.976-7.533-8.029-7.533-4.96 0-7.843 3.069-8.339 3.673l.403-31.852c0-.79-.589-1.38-1.395-1.38h-1.178c-.806 0-1.395.59-1.395 1.38l.496 59.628c0 .791.589 1.38 1.395 1.38.186 0 .589-.093.79-.186.388-.202 6.836-3.379 12.199-9.424 3.767-4.278 5.255-9.13 5.255-13.206 0-.884-.094-1.674-.202-2.48m-6.836 3.875c0 1.488-.402 6.045-2.882 9.827-1.69 2.573-5.053 5.254-6.944 6.742l.294-19.344c.202-.899 1.69-3.766 5.658-3.766 3.58 0 3.874 3.363 3.874 5.456v1.085M679.743 2376.757c-.589-3.86-2.976-7.533-8.029-7.533-4.96 0-7.843 3.069-8.339 3.673l.403-31.852c0-.79-.589-1.38-1.395-1.38h-1.178c-.806 0-1.395.59-1.395 1.38l.496 59.628c0 .791.589 1.38 1.395 1.38.186 0 .589-.093.79-.186.388-.202 6.836-3.379 12.199-9.424 3.767-4.278 5.255-9.13 5.255-13.206 0-.884-.094-1.674-.202-2.48m-6.836 3.875c0 1.488-.402 6.045-2.882 9.827-1.69 2.573-5.053 5.254-6.944 6.742l.294-19.344c.202-.899 1.69-3.766 5.658-3.766 3.58 0 3.874 3.363 3.874 5.456v1.085M704.543 1954.757c-.589-3.86-2.976-7.533-8.029-7.533-4.96 0-7.843 3.069-8.339 3.673l.403-31.852c0-.79-.589-1.38-1.395-1.38h-1.178c-.806 0-1.395.59-1.395 1.38l.496 59.628c0 .791.589 1.38 1.395 1.38.186 0 .589-.093.79-.186.388-.202 6.836-3.379 12.199-9.424 3.767-4.278 5.255-9.13 5.255-13.206 0-.884-.094-1.674-.202-2.48m-6.836 3.875c0 1.488-.402 6.045-2.882 9.827-1.69 2.573-5.053 5.254-6.944 6.742l.294-19.344c.202-.899 1.69-3.766 5.658-3.766 3.58 0 3.874 3.363 3.874 5.456v1.085M679.743 1991.957c-.589-3.86-2.976-7.533-8.029-7.533-4.96 0-7.843 3.069-8.339 3.673l.403-31.852c0-.79-.589-1.38-1.395-1.38h-1.178c-.806 0-1.395.59-1.395 1.38l.496 59.628c0 .791.589 1.38 1.395 1.38.186 0 .589-.093.79-.186.388-.202 6.836-3.379 12.199-9.424 3.767-4.278 5.255-9.13 5.255-13.206 0-.884-.094-1.674-.202-2.48m-6.836 3.875c0 1.488-.402 6.045-2.882 9.827-1.69 2.573-5.053 5.254-6.944 6.742l.294-19.344c.202-.899 1.69-3.766 5.658-3.766 3.58 0 3.874 3.363 3.874 5.456v1.085M704.543 1569.957c-.589-3.86-2.976-7.533-8.029-7.533-4.96 0-7.843 3.069-8.339 3.673l.403-31.852c0-.79-.589-1.38-1.395-1.38h-1.178c-.806 0-1.395.59-1.395 1.38l.496 59.628c0 .791.589 1.38 1.395 1.38.186 0 .589-.093.79-.186.388-.202 6.836-3.379 12.199-9.424 3.767-4.278 5.255-9.13 5.255-13.206 0-.884-.094-1.674-.202-2.48m-6.836 3.875c0 1.488-.402 6.045-2.882 9.827-1.69 2.573-5.053 5.254-6.944 6.742l.294-19.344c.202-.899 1.69-3.766 5.658-3.766 3.58 0 3.874 3.363 3.874 5.456v1.085M679.743 1607.157c-.589-3.86-2.976-7.533-8.029-7.533-4.96 0-7.843 3.069-8.339 3.673l.403-31.852c0-.79-.589-1.38-1.395-1.38h-1.178c-.806 0-1.395.59-1.395 1.38l.496 59.628c0 .791.589 1.38 1.395 1.38.186 0 .589-.093.79-.186.388-.202 6.836-3.379 12.199-9.424 3.767-4.278 5.255-9.13 5.255-13.206 0-.884-.094-1.674-.202-2.48m-6.836 3.875c0 1.488-.402 6.045-2.882 9.827-1.69 2.573-5.053 5.254-6.944 6.742l.294-19.344c.202-.899 1.69-3.766 5.658-3.766 3.58 0 3.874 3.363 3.874 5.456v1.085M704.543 1185.157c-.589-3.86-2.976-7.533-8.029-7.533-4.96 0-7.843 3.069-8.339 3.673l.403-31.852c0-.79-.589-1.38-1.395-1.38h-1.178c-.806 0-1.395.59-1.395 1.38l.496 59.628c0 .791.589 1.38 1.395 1.38.186 0 .589-.093.79-.186.388-.202 6.836-3.379 12.199-9.424 3.767-4.278 5.255-9.13 5.255-13.206 0-.884-.094-1.674-.202-2.48m-6.836 3.875c0 1.488-.402 6.045-2.882 9.827-1.69 2.573-5.053 5.254-6.944 6.742l.294-19.344c.202-.899 1.69-3.766 5.658-3.766 3.58 0 3.874 3.363 3.874 5.456v1.085M679.743 1222.357c-.589-3.86-2.976-7.533-8.029-7.533-4.96 0-7.843 3.069-8.339 3.673l.403-31.852c0-.79-.589-1.38-1.395-1.38h-1.178c-.806 0-1.395.59-1.395 1.38l.496 59.628c0 .791.589 1.38 1.395 1.38.186 0 .589-.093.79-.186.388-.202 6.836-3.379 12.199-9.424 3.767-4.278 5.255-9.13 5.255-13.206 0-.884-.094-1.674-.202-2.48m-6.836 3.875c0 1.488-.402 6.045-2.882 9.827-1.69 2.573-5.053 5.254-6.944 6.742l.294-19.344c.202-.899 1.69-3.766 5.658-3.766 3.58 0 3.874 3.363 3.874 5.456v1.085M682.92 760.49c.605-.108 1.101-.806 1.101-1.395v-5.86c0-.79-.604-1.379-1.395-1.379h-.201l-3.271.698v-14.787h-2.775v15.376l-8.834 1.783v-13.982h-2.775v14.586l-3.875.79c-.589.094-1.085.791-1.085 1.38v5.952-.186c0 .79.589 1.38 1.395 1.38h.295l3.27-.698v16.368l-3.875.806c-.589.093-1.085.79-1.085 1.38v5.75c0 .806.589 1.395 1.395 1.395h.295l3.27-.697v14.787h2.775V788.56l8.834-1.782v13.981h2.775v-14.585l3.767-.698c.604-.093 1.1-.79 1.1-1.38v-5.858c0-.791-.604-1.38-1.395-1.38h-.201l-3.271.682v-16.368l3.767-.682m-15.376 19.53v-16.461l8.834-1.783v16.369l-8.834 1.875M682.92 375.69c.605-.108 1.101-.806 1.101-1.395v-5.86c0-.79-.604-1.379-1.395-1.379h-.201l-3.271.698v-14.787h-2.775v15.376l-8.834 1.783v-13.982h-2.775v14.586l-3.875.79c-.589.094-1.085.791-1.085 1.38v5.952-.186c0 .79.589 1.38 1.395 1.38h.295l3.27-.698v16.368l-3.875.806c-.589.093-1.085.79-1.085 1.38v5.75c0 .806.589 1.395 1.395 1.395h.295l3.27-.697v14.787h2.775V403.76l8.834-1.782v13.981h2.775v-14.585l3.767-.698c.604-.093 1.1-.79 1.1-1.38v-5.858c0-.791-.604-1.38-1.395-1.38h-.201l-3.271.682v-16.368l3.767-.682m-15.376 19.53v-16.461l8.834-1.783v16.369l-8.834 1.875"/><path class="Rest" d="M1483.537 3397.011l-.201-.31c-.093-.093-.295-.294-.589-.682l-11.408-14.09c-.31-.294-.202-1.1 0-1.487l10.106-15.283c.108-.202.202-.496.202-.698v-.884c0-.294-.094-.604-.295-.79l-16.073-21.731s-.791-1.194-1.783-.295c-.992.791-.201 2.077-.201 2.077l7.548 10.323c.388.59.388 1.783 0 2.372l-10.028 15.283c-.093.201-.202.589-.202.79v.9c0 .294.109.588.31.79l11.098 13.795c-.388-.108-1.286-.31-2.48-.31-1.674 0-3.86.403-5.642 1.984-2.185 1.984-3.379 4.774-3.379 7.254 0 1.38.295 2.774 1.085 3.86 2.093 3.177 9.532 12.601 9.532 12.601s.884 1.1 1.783.403c.9-.697.697-1.596.403-2.092-.31-.496-3.472-6.247-3.472-6.247s-.697-1.395-.697-3.177c0-1.287.387-2.868 1.69-4.17 1.177-1.178 2.572-1.581 3.859-1.581 1.286 0 2.386.403 3.177.9l3.875 2.48s1.178.588 1.782-.31c.496-.791.295-1.179 0-1.675M1687.677 3397.011l-.201-.31c-.093-.093-.295-.294-.589-.682l-11.408-14.09c-.31-.294-.202-1.1 0-1.487l10.106-15.283c.108-.202.202-.496.202-.698v-.884c0-.294-.094-.604-.295-.79l-16.073-21.731s-.791-1.194-1.783-.295c-.992.791-.201 2.077-.201 2.077l7.548 10.323c.388.59.388 1.783 0 2.372l-10.028 15.283c-.093.201-.202.589-.202.79v.9c0 .294.109.588.31.79l11.098 13.795c-.388-.108-1.286-.31-2.48-.31-1.674 0-3.86.403-5.642 1.984-2.185 1.984-3.379 4.774-3.379 7.254 0 1.38.295 2.774 1.085 3.86 2.093 3.177 9.532 12.601 9.532 12.601s.884 1.1 1.783.403c.9-.697.697-1.596.403-2.092-.31-.496-3.472-6.247-3.472-6.247s-.697-1.395-.697-3.177c0-1.287.387-2.868 1.69-4.17 1.177-1.178 2.572-1.581 3.859-1.581 1.286 0 2.386.403 3.177.9l3.875 2.48s1.178.588 1.782-.31c.496-.791.295-1.179 0-1.675M2060.557 3397.011l-.201-.31c-.093-.093-.295-.294-.589-.682l-11.408-14.09c-.31-.294-.202-1.1 0-1.487l10.106-15.283c.108-.202.202-.496.202-.698v-.884c0-.294-.094-.604-.295-.79l-16.073-21.731s-.791-1.194-1.783-.295c-.992.791-.201 2.077-.201 2.077l7.548 10.323c.388.59.388 1.783 0 2.372l-10.028 15.283c-.093.201-.202.589-.202.79v.9c0 .294.109.588.31.79l11.098 13.795c-.388-.108-1.286-.31-2.48-.31-1.674 0-3.86.403-5.642 1.984-2.185 1.984-3.379 4.774-3.379 7.254 0 1.38.295 2.774 1.085 3.86 2.093 3.177 9.532 12.601 9.532 12.601s.884 1.1 1.783.403c.9-.697.697-1.596.403-2.092-.31-.496-3.472-6.247-3.472-6.247s-.697-1.395-.697-3.177c0-1.287.387-2.868 1.69-4.17 1.177-1.178 2.572-1.581 3.859-1.581 1.286 0 2.386.403 3.177.9l3.875 2.48s1.178.588 1.782-.31c.496-.791.295-1.179 0-1.675M2387.457 3397.011l-.201-.31c-.093-.093-.295-.294-.589-.682l-11.408-14.09c-.31-.294-.202-1.1 0-1.487l10.106-15.283c.108-.202.202-.496.202-.698v-.884c0-.294-.094-.604-.295-.79l-16.073-21.731s-.791-1.194-1.783-.295c-.992.791-.201 2.077-.201 2.077l7.548 10.323c.388.59.388 1.783 0 2.372l-10.028 15.283c-.093.201-.202.589-.202.79v.9c0 .294.109.588.31.79l11.098 13.795c-.388-.108-1.286-.31-2.48-.31-1.674 0-3.86.403-5.642 1.984-2.185 1.984-3.379 4.774-3.379 7.254 0 1.38.295 2.774 1.085 3.86 2.093 3.177 9.532 12.601 9.532 12.601s.884 1.1 1.783.403c.9-.697.697-1.596.403-2.092-.31-.496-3.472-6.247-3.472-6.247s-.697-1.395-.697-3.177c0-1.287.387-2.868 1.69-4.17 1.177-1.178 2.572-1.581 3.859-1.581 1.286 0 2.386.403 3.177.9l3.875 2.48s1.178.588 1.782-.31c.496-.791.295-1.179 0-1.675M2390.96 3137.857c-.743-.28-1.41.062-1.735.666-.326.604-3.488 6.479-7.874 9.718-1.38 1.008-2.961 1.643-4.511 1.969a7.007 7.007 0 001.783-4.697c0-3.921-3.178-7.098-7.084-7.098a7.098 7.098 0 00-7.099 7.098c0 2.976 1.86 5.55 4.48 6.588 1.519.713 3.41 1.162 5.44 1.162 2.821 0 5.905-.821 8.603-2.805 1.255-.915 2.433-2.108 3.502-3.348l-11.299 35.34 2.62.853 13.965-43.742c.233-.728-.062-1.41-.79-1.704M1064.64 2719.304h-29.465c-.806 0-1.395.589-1.395 1.395v10.71c0 .791.589 1.38 1.395 1.38h29.466c.79 0 1.379-.589 1.379-1.38v-10.71c0-.806-.589-1.395-1.38-1.395M1710.58 2719.304h-29.465c-.806 0-1.395.589-1.395 1.395v10.71c0 .791.589 1.38 1.395 1.38h29.466c.79 0 1.379-.589 1.379-1.38v-10.71c0-.806-.589-1.395-1.38-1.395M2392.71 2719.304h-29.465c-.806 0-1.395.589-1.395 1.395v10.71c0 .791.589 1.38 1.395 1.38h29.466c.79 0 1.379-.589 1.379-1.38v-10.71c0-.806-.589-1.395-1.38-1.395M1064.64 2334.504h-29.465c-.806 0-1.395.589-1.395 1.395v10.71c0 .791.589 1.38 1.395 1.38h29.466c.79 0 1.379-.589 1.379-1.38v-10.71c0-.806-.589-1.395-1.38-1.395M1710.58 2334.504h-29.465c-.806 0-1.395.589-1.395 1.395v10.71c0 .791.589 1.38 1.395 1.38h29.466c.79 0 1.379-.589 1.379-1.38v-10.71c0-.806-.589-1.395-1.38-1.395M2392.71 2334.504h-29.465c-.806 0-1.395.589-1.395 1.395v10.71c0 .791.589 1.38 1.395 1.38h29.466c.79 0 1.379-.589 1.379-1.38v-10.71c0-.806-.589-1.395-1.38-1.395M1064.64 1949.704h-29.465c-.806 0-1.395.589-1.395 1.395v10.71c0 .791.589 1.38 1.395 1.38h29.466c.79 0 1.379-.589 1.379-1.38v-10.71c0-.806-.589-1.395-1.38-1.395M1710.58 1949.704h-29.465c-.806 0-1.395.589-1.395 1.395v10.71c0 .791.589 1.38 1.395 1.38h29.466c.79 0 1.379-.589 1.379-1.38v-10.71c0-.806-.589-1.395-1.38-1.395M2392.71 1949.704h-29.465c-.806 0-1.395.589-1.395 1.395v10.71c0 .791.589 1.38 1.395 1.38h29.466c.79 0 1.379-.589 1.379-1.38v-10.71c0-.806-.589-1.395-1.38-1.395M1064.64 1564.904h-29.465c-.806 0-1.395.589-1.395 1.395v10.71c0 .791.589 1.38 1.395 1.38h29.466c.79 0 1.379-.589 1.379-1.38v-10.71c0-.806-.589-1.395-1.38-1.395M1710.58 1564.904h-29.465c-.806 0-1.395.589-1.395 1.395v10.71c0 .791.589 1.38 1.395 1.38h29.466c.79 0 1.379-.589 1.379-1.38v-10.71c0-.806-.589-1.395-1.38-1.395M2392.71 1564.904h-29.465c-.806 0-1.395.589-1.395 1.395v10.71c0 .791.589 1.38 1.395 1.38h29.466c.79 0 1.379-.589 1.379-1.38v-10.71c0-.806-.589-1.395-1.38-1.395M1064.64 1180.104h-29.465c-.806 0-1.395.589-1.395 1.395v10.71c0 .791.589 1.38 1.395 1.38h29.466c.79 0 1.379-.589 1.379-1.38v-10.71c0-.806-.589-1.395-1.38-1.395M1710.58 1180.104h-29.465c-.806 0-1.395.589-1.395 1.395v10.71c0 .791.589 1.38 1.395 1.38h29.466c.79 0 1.379-.589 1.379-1.38v-10.71c0-.806-.589-1.395-1.38-1.395M2392.71 1180.104h-29.465c-.806 0-1.395.589-1.395 1.395v10.71c0 .791.589 1.38 1.395 1.38h29.466c.79 0 1.379-.589 1.379-1.38v-10.71c0-.806-.589-1.395-1.38-1.395M1064.64 795.303h-29.465c-.806 0-1.395.589-1.395 1.395v10.71c0 .791.589 1.38 1.395 1.38h29.466c.79 0 1.379-.589 1.379-1.38v-10.71c0-.806-.589-1.395-1.38-1.395M1710.58 795.303h-29.465c-.806 0-1.395.589-1.395 1.395v10.71c0 .791.589 1.38 1.395 1.38h29.466c.79 0 1.379-.589 1.379-1.38v-10.71c0-.806-.589-1.395-1.38-1.395M2392.71 795.303h-29.465c-.806 0-1.395.589-1.395 1.395v10.71c0 .791.589 1.38 1.395 1.38h29.466c.79 0 1.379-.589 1.379-1.38v-10.71c0-.806-.589-1.395-1.38-1.395M1064.64 410.503h-29.465c-.806 0-1.395.589-1.395 1.395v10.71c0 .791.589 1.38 1.395 1.38h29.466c.79 0 1.379-.589 1.379-1.38v-10.71c0-.806-.589-1.395-1.38-1.395M1710.58 410.503h-29.465c-.806 0-1.395.589-1.395 1.395v10.71c0 .791.589 1.38 1.395 1.38h29.466c.79 0 1.379-.589 1.379-1.38v-10.71c0-.806-.589-1.395-1.38-1.395M2392.71 410.503h-29.465c-.806 0-1.395.589-1.395 1.395v10.71c0 .791.589 1.38 1.395 1.38h29.466c.79 0 1.379-.589 1.379-1.38v-10.71c0-.806-.589-1.395-1.38-1.395"/><path class="Beam" fill-rule="evenodd" d="M1818.09 3232.36h107.36v12.4h-107.36v-12.4M2067.05 3071.02l132.9 6.33v12.41l-132.9-6.33v-12.41M2429.53 3151.32l67.81 25.84v13.27l-67.81-25.84v-13.27M2559.7 3269.56h132.91v12.4H2559.7v-12.4"/><path class="Hook" d="M897.363 3517.043c0-.201.899-3.58.992-3.875.093-.403 1.891-6.045 5.549-11.703 2.682-4.169 12.106-16.368 11.811-16.368 0 0 7.347-9.424 7.843-22.227v-2.278c0-6.06-.79-14.586-4.278-23.22-.388-.991-.79-1.983-1.876-1.58-1.1.387-.79 1.58-.496 2.666 1.783 6.96 2.775 14.09 2.775 21.235 0 8.339-2.976 12.508-4.759 15.577-6.556 11.005-15.081 16.368-19.25 17.763-.496.202-.791.59-.791 1.086V3516.547c0 .682.589 1.287 1.287 1.287.496 0 1.1-.403 1.193-.791M1328.09 3220.363c0-.201.899-3.58.992-3.875.093-.403 1.891-6.045 5.549-11.703 2.682-4.169 12.106-16.368 11.811-16.368 0 0 7.347-9.424 7.843-22.227v-2.278c0-6.06-.79-14.586-4.278-23.22-.388-.991-.79-1.983-1.876-1.58-1.1.387-.79 1.58-.496 2.666 1.783 6.96 2.775 14.09 2.775 21.235 0 8.339-2.976 12.508-4.759 15.577-6.556 11.005-15.081 16.368-19.25 17.763-.496.202-.791.59-.791 1.086V3219.867c0 .682.589 1.287 1.287 1.287.496 0 1.1-.403 1.193-.791M1750.84 3257.563c0-.201.899-3.58.992-3.875.093-.403 1.891-6.045 5.549-11.703 2.682-4.169 12.106-16.368 11.811-16.368 0 0 7.347-9.424 7.843-22.227v-2.278c0-6.06-.79-14.586-4.278-23.22-.388-.991-.79-1.983-1.876-1.58-1.1.387-.79 1.58-.496 2.666 1.783 6.96 2.775 14.09 2.775 21.235 0 8.339-2.976 12.508-4.759 15.577-6.556 11.005-15.081 16.368-19.25 17.763-.496.202-.791.59-.791 1.086V3257.067c0 .682.589 1.287 1.287 1.287.496 0 1.1-.403 1.193-.791"/><path class="Tuplet" d="M862.805 3544.72c2.125-.68 2.969-1.05 4.047-1.77 2.125-1.39 3.422-3.86 3.422-6.39 0-4.27-3.422-7.14-8.453-7.14-4.907 0-9.047 3.05-9.047 6.75 0 1.84 1.125 3.09 2.828 3.09 1.484 0 2.578-1.08 2.578-2.56 0-.77-.234-1.3-.953-2.02-.453-.4-.625-.73-.625-1.04 0-1.08 2.25-2.21 4.359-2.21 3.016 0 4.813 1.68 4.813 4.46 0 4.01-2.828 7.78-5.844 7.78-.141 0-.547-.03-1.031-.08-1.313-.09-1.313-.09-1.578-.09-1 0-1.532.45-1.532 1.26 0 .72.5 1.16 1.297 1.16.235 0 .547-.03.907-.08a8.567 8.567 0 011.703-.19c2.125 0 3.562 1.89 3.562 4.69 0 2.16-.5 4.22-1.484 5.94-1.344 2.42-3.422 3.59-6.344 3.59-2.516 0-4.687-1.25-4.687-2.7 0-.49.187-.67.906-.99 1.297-.57 1.844-1.39 1.844-2.61 0-1.57-1.266-2.78-2.875-2.78-1.938 0-3.204 1.52-3.204 3.86 0 4.38 3.329 7.11 8.735 7.11 6.797 0 11.969-4.54 11.969-10.58 0-1.61-.5-3.01-1.438-4.14-1-1.15-1.891-1.7-3.875-2.32"/><path class="Tuplet" fill="none" stroke="#000" stroke-width="2.48" stroke-linecap="square" stroke-linejoin="bevel" d="M789.902 3522.34v18.6l44.206 3M882.908 3547.24l44.207 3v-18.6"/><path class="Tuplet" d="M1299.73 3065.82c2.13-.67 2.97-1.05 4.05-1.77 2.13-1.39 3.42-3.86 3.42-6.39 0-4.26-3.42-7.14-8.45-7.14-4.91 0-9.05 3.05-9.05 6.75 0 1.85 1.13 3.1 2.83 3.1 1.49 0 2.58-1.08 2.58-2.57 0-.76-.24-1.29-.95-2.01-.46-.41-.63-.74-.63-1.05 0-1.08 2.25-2.2 4.36-2.2 3.02 0 4.81 1.67 4.81 4.45 0 4.02-2.83 7.78-5.84 7.78-.14 0-.55-.03-1.03-.08-1.31-.09-1.31-.09-1.58-.09-1 0-1.53.45-1.53 1.27 0 .71.5 1.15 1.3 1.15.23 0 .54-.03.9-.08.63-.14 1.31-.18 1.7-.18 2.13 0 3.57 1.89 3.57 4.68 0 2.16-.5 4.22-1.49 5.94-1.34 2.42-3.42 3.6-6.34 3.6-2.52 0-4.69-1.25-4.69-2.71 0-.48.19-.67.91-.98 1.29-.58 1.84-1.39 1.84-2.61 0-1.58-1.26-2.78-2.87-2.78-1.94 0-3.21 1.51-3.21 3.86 0 4.37 3.33 7.11 8.74 7.11 6.79 0 11.97-4.55 11.97-10.58 0-1.61-.5-3.02-1.44-4.14-1-1.16-1.89-1.71-3.88-2.33"/><path class="Tuplet" fill="none" stroke="#000" stroke-width="2.48" stroke-linecap="square" stroke-linejoin="bevel" d="M1233.03 3085.29v-18.6h38.01M1319.84 3066.69h38v18.6"/><path class="Tuplet" d="M1733.12 3037.92c2.13-.67 2.97-1.05 4.05-1.77 2.12-1.39 3.42-3.86 3.42-6.39 0-4.26-3.42-7.14-8.45-7.14-4.91 0-9.05 3.05-9.05 6.75 0 1.85 1.13 3.1 2.83 3.1 1.48 0 2.58-1.08 2.58-2.57 0-.76-.24-1.29-.96-2.01-.45-.41-.62-.74-.62-1.05 0-1.08 2.25-2.2 4.36-2.2 3.01 0 4.81 1.67 4.81 4.45 0 4.02-2.83 7.78-5.84 7.78-.14 0-.55-.03-1.03-.08-1.32-.09-1.32-.09-1.58-.09-1 0-1.53.45-1.53 1.27 0 .71.5 1.15 1.29 1.15.24 0 .55-.03.91-.08.63-.14 1.31-.18 1.7-.18 2.13 0 3.57 1.89 3.57 4.68 0 2.16-.5 4.22-1.49 5.94-1.34 2.42-3.42 3.59-6.34 3.59-2.52 0-4.69-1.25-4.69-2.7 0-.48.19-.67.91-.98 1.29-.58 1.84-1.39 1.84-2.61 0-1.58-1.27-2.78-2.87-2.78-1.94 0-3.21 1.51-3.21 3.86 0 4.37 3.33 7.11 8.74 7.11 6.79 0 11.97-4.55 11.97-10.58 0-1.61-.5-3.02-1.44-4.14-1-1.16-1.89-1.71-3.88-2.33"/><path class="Tuplet" fill="none" stroke="#000" stroke-width="2.48" stroke-linecap="square" stroke-linejoin="bevel" d="M1677.06 3057.39v-18.6h27.37M1753.23 3038.79h27.37v18.6"/><path class="Tuplet" d="M1874.71 3275.57c2.12-.68 2.96-1.05 4.04-1.77 2.13-1.39 3.42-3.86 3.42-6.39 0-4.27-3.42-7.14-8.45-7.14-4.9 0-9.05 3.05-9.05 6.75 0 1.84 1.13 3.09 2.83 3.09 1.49 0 2.58-1.08 2.58-2.56 0-.77-.23-1.3-.95-2.02-.46-.4-.63-.73-.63-1.04 0-1.08 2.25-2.21 4.36-2.21 3.02 0 4.81 1.68 4.81 4.46 0 4.01-2.82 7.78-5.84 7.78-.14 0-.55-.03-1.03-.08-1.31-.09-1.31-.09-1.58-.09-1 0-1.53.45-1.53 1.26 0 .72.5 1.16 1.3 1.16.23 0 .54-.03.9-.08.63-.14 1.32-.19 1.71-.19 2.12 0 3.56 1.89 3.56 4.69 0 2.16-.5 4.22-1.49 5.94-1.34 2.42-3.42 3.59-6.34 3.59-2.51 0-4.69-1.25-4.69-2.7 0-.49.19-.67.91-.99 1.3-.57 1.84-1.39 1.84-2.61 0-1.57-1.26-2.78-2.87-2.78-1.94 0-3.2 1.52-3.2 3.86 0 4.38 3.32 7.11 8.73 7.11 6.8 0 11.97-4.54 11.97-10.58 0-1.61-.5-3.01-1.44-4.14-1-1.15-1.89-1.7-3.87-2.32M2136.43 3037.92c2.13-.67 2.97-1.05 4.05-1.77 2.13-1.39 3.42-3.86 3.42-6.39 0-4.26-3.42-7.14-8.45-7.14-4.91 0-9.05 3.05-9.05 6.75 0 1.85 1.13 3.1 2.83 3.1 1.48 0 2.58-1.08 2.58-2.57 0-.76-.24-1.29-.95-2.01-.46-.41-.63-.74-.63-1.05 0-1.08 2.25-2.2 4.36-2.2 3.02 0 4.81 1.67 4.81 4.45 0 4.02-2.83 7.78-5.84 7.78-.14 0-.55-.03-1.03-.08-1.32-.09-1.32-.09-1.58-.09-1 0-1.53.45-1.53 1.27 0 .71.5 1.15 1.29 1.15.24 0 .55-.03.91-.08.63-.14 1.31-.18 1.7-.18 2.13 0 3.57 1.89 3.57 4.68 0 2.16-.5 4.22-1.49 5.94-1.34 2.42-3.42 3.59-6.34 3.59-2.52 0-4.69-1.25-4.69-2.7 0-.48.19-.67.91-.98 1.29-.58 1.84-1.39 1.84-2.61 0-1.58-1.26-2.78-2.87-2.78-1.94 0-3.21 1.51-3.21 3.86 0 4.37 3.33 7.11 8.74 7.11 6.79 0 11.97-4.55 11.97-10.58 0-1.61-.5-3.02-1.44-4.14-1-1.16-1.89-1.71-3.88-2.33M2456.14 3240.29c2.12-.67 2.97-1.05 4.05-1.77 2.12-1.39 3.42-3.86 3.42-6.39 0-4.26-3.42-7.14-8.45-7.14-4.91 0-9.05 3.05-9.05 6.75 0 1.84 1.12 3.09 2.83 3.09 1.48 0 2.57-1.07 2.57-2.56 0-.76-.23-1.3-.95-2.01-.45-.41-.62-.74-.62-1.05 0-1.08 2.25-2.2 4.36-2.2 3.01 0 4.81 1.67 4.81 4.45 0 4.01-2.83 7.78-5.85 7.78-.14 0-.54-.03-1.03-.08-1.31-.09-1.31-.09-1.57-.09-1 0-1.54.45-1.54 1.26 0 .72.5 1.16 1.3 1.16.24 0 .55-.03.91-.08a8.51 8.51 0 011.7-.19c2.13 0 3.56 1.9 3.56 4.69 0 2.16-.5 4.22-1.48 5.94-1.35 2.42-3.42 3.59-6.35 3.59-2.51 0-4.68-1.25-4.68-2.7 0-.48.18-.67.9-.98 1.3-.58 1.85-1.39 1.85-2.61 0-1.58-1.27-2.78-2.88-2.78-1.94 0-3.2 1.51-3.2 3.85 0 4.38 3.33 7.11 8.73 7.11 6.8 0 11.97-4.54 11.97-10.57 0-1.61-.5-3.02-1.44-4.14-1-1.16-1.89-1.71-3.87-2.33"/><path class="Tuplet" fill="none" stroke="#000" stroke-width="2.48" stroke-linecap="square" stroke-linejoin="bevel" d="M2376.84 3222.56v18.6h50.6M2476.24 3241.16h50.61v-18.6"/><path class="Tuplet" d="M2629.09 3312.77c2.13-.68 2.97-1.05 4.05-1.77 2.12-1.39 3.42-3.86 3.42-6.39 0-4.27-3.42-7.14-8.45-7.14-4.91 0-9.05 3.05-9.05 6.75 0 1.84 1.12 3.09 2.83 3.09 1.48 0 2.58-1.08 2.58-2.56 0-.77-.24-1.3-.96-2.02-.45-.4-.62-.73-.62-1.04 0-1.08 2.25-2.21 4.36-2.21 3.01 0 4.81 1.68 4.81 4.46 0 4.01-2.83 7.78-5.84 7.78-.14 0-.55-.03-1.04-.08-1.31-.09-1.31-.09-1.57-.09-1 0-1.53.45-1.53 1.26 0 .72.5 1.16 1.29 1.16.24 0 .55-.03.91-.08a8.51 8.51 0 011.7-.19c2.13 0 3.56 1.89 3.56 4.69 0 2.16-.5 4.22-1.48 5.94-1.34 2.42-3.42 3.59-6.34 3.59-2.52 0-4.69-1.25-4.69-2.7 0-.49.19-.67.9-.99 1.3-.57 1.85-1.39 1.85-2.61 0-1.57-1.27-2.78-2.88-2.78-1.93 0-3.2 1.52-3.2 3.86 0 4.38 3.33 7.11 8.73 7.11 6.8 0 11.97-4.54 11.97-10.58 0-1.61-.5-3.01-1.43-4.14-1-1.15-1.89-1.7-3.88-2.32"/><path class="HairpinSegment" fill="none" stroke="#000" stroke-width="2.98" stroke-linecap="square" stroke-linejoin="bevel" d="M1092.62 3291.68l277-14M1092.62 3263.68l277 14"/><path class="Page" d="M233.75 228.989c1.594-.594 2.375-.984 3.141-1.531 2.14-1.485 3.359-3.735 3.359-6.328 0-5.063-4.797-8.469-11.937-8.469-8.532 0-14.032 4.562-14.032 11.719 0 4.343 2.047 7.531 6.391 9.843-1.703.547-2.422.766-3.359 1.266-2.75 1.422-4.235 3.953-4.235 7.141 0 5.937 5.328 9.734 13.688 9.734 8.859 0 14.859-5.062 14.859-12.594 0-5.172-2.531-8.578-7.875-10.781m-3.078-1.141c-2.313-.562-4.016-1.046-5.063-1.437-2.515-.938-4.171-3.188-4.171-5.609 0-3.032 2.531-5.282 5.937-5.282 3.688 0 6 2.422 6 6.266 0 2.484-.937 4.578-2.703 6.062m-7.031 7.86c2.25.609 5 1.422 6.375 1.875 3.468 1.203 4.781 2.687 4.781 5.484 0 3.75-3.078 6.438-7.422 6.438-4.453 0-7.141-2.641-7.141-7.032 0-2.921.922-4.781 3.407-6.765"/><path class="Bracket" d="M515.787 3293.901c6.35-7.016 18.991-21.511 18.991-48.24 0-33.803-14.159-68.012-14.159-88.943 0-22.612 12.867-44.066 13.26-44.645.394-.638.338-1.45-.056-1.74-.393-.232-1.124 0-1.63.522-.449.58-19.721 20.7-19.721 50.907 0 32.876 12.586 55.778 12.586 98.452 0 8.117-3.371 21.221-12.249 32.47-.618.58-.674 1.623-.112 2.319v.058l.112.115c8.878 11.249 12.249 24.295 12.249 32.412 0 42.732-12.586 65.634-12.586 98.452 0 30.208 19.272 50.443 19.722 50.965.505.522 1.124.812 1.63.522.505-.348.505-.986.055-1.74-.505-.754-13.26-22.033-13.26-44.645 0-20.931 14.16-55.256 14.16-89 0-27.078-12.643-41.283-18.992-48.241"/></svg>
